<svg xmlns="http://www.w3.org/2000/svg" xmlns:xlink="http://www.w3.org/1999/xlink" width="140" zoomAndPan="magnify" viewBox="0 0 104.88 38.249999" height="51" preserveAspectRatio="xMidYMid meet" version="1.0"><path fill="#7d78d2" d="M 40.910156 5.828125 C 40.621094 6.074219 40.339844 6.332031 40.074219 6.59375 C 37.105469 9.519531 35.605469 13.34375 35.574219 17.285156 C 35.542969 21.222656 36.976562 25.277344 39.878906 28.675781 C 40.179688 29.03125 40.5 29.382812 40.835938 29.722656 C 44.351562 33.285156 48.964844 35.292969 53.582031 35.65625 C 58.207031 36.015625 62.835938 34.730469 66.375 31.710938 C 66.667969 31.460938 66.945312 31.207031 67.210938 30.945312 C 70.179688 28.019531 71.679688 24.195312 71.710938 20.25 C 71.742188 16.316406 70.308594 12.257812 67.40625 8.859375 C 67.105469 8.503906 66.785156 8.15625 66.449219 7.816406 C 62.933594 4.25 58.320312 2.242188 53.703125 1.882812 C 49.078125 1.519531 44.449219 2.808594 40.910156 5.828125 Z M 40.433594 6.957031 C 40.691406 6.703125 40.960938 6.457031 41.242188 6.21875 C 44.675781 3.289062 49.167969 2.042969 53.664062 2.394531 C 58.164062 2.746094 62.660156 4.703125 66.085938 8.175781 C 66.410156 8.507812 66.722656 8.847656 67.019531 9.195312 C 69.835938 12.496094 71.230469 16.433594 71.199219 20.246094 C 71.167969 24.058594 69.71875 27.753906 66.851562 30.578125 C 66.59375 30.832031 66.324219 31.082031 66.042969 31.320312 C 62.613281 34.25 58.117188 35.496094 53.621094 35.144531 C 49.121094 34.792969 44.625 32.835938 41.203125 29.363281 C 40.875 29.03125 40.5625 28.691406 40.269531 28.34375 C 37.449219 25.042969 36.054688 21.105469 36.085938 17.289062 C 36.117188 13.480469 37.566406 9.785156 40.433594 6.957031 " fill-opacity="1" fill-rule="nonzero"/><path fill="#1a96b2" d="M 48.125 3.0625 C 39.453125 6.109375 34.890625 15.609375 37.9375 24.285156 C 40.984375 32.957031 50.484375 37.519531 59.15625 34.472656 C 67.832031 31.425781 72.394531 21.925781 69.347656 13.253906 C 66.300781 4.578125 56.800781 0.015625 48.125 3.0625 " fill-opacity="1" fill-rule="evenodd"/><path fill="#1a96b2" d="M 47.21875 35.523438 C 43.671875 34.699219 41.925781 33.363281 39.253906 29.867188 C 36.582031 26.375 36.070312 31.5625 40.386719 33.824219 C 44.703125 36.085938 50.765625 36.34375 47.21875 35.523438 " fill-opacity="1" fill-rule="evenodd"/><path fill="#1a96b2" d="M 59.214844 1.628906 C 62.761719 2.449219 64.507812 3.785156 67.179688 7.28125 C 69.851562 10.773438 70.363281 5.585938 66.046875 3.324219 C 61.730469 1.0625 55.667969 0.804688 59.214844 1.628906 " fill-opacity="1" fill-rule="evenodd"/></svg>