<svg xmlns="http://www.w3.org/2000/svg" xmlns:xlink="http://www.w3.org/1999/xlink" width="1080" zoomAndPan="magnify" viewBox="0 0 810 809.999993" height="1080" preserveAspectRatio="xMidYMid meet" version="1.0"><defs><clipPath id="f2d309bd49"><path d="M 108.316406 108.316406 L 701.683594 108.316406 L 701.683594 701.683594 L 108.316406 701.683594 Z M 108.316406 108.316406 " clip-rule="nonzero"/></clipPath><clipPath id="fd66056192"><path d="M 405 108.316406 C 241.148438 108.316406 108.316406 241.148438 108.316406 405 C 108.316406 568.851562 241.148438 701.683594 405 701.683594 C 568.851562 701.683594 701.683594 568.851562 701.683594 405 C 701.683594 241.148438 568.851562 108.316406 405 108.316406 Z M 405 108.316406 " clip-rule="nonzero"/></clipPath><linearGradient x1="-0.00000501038" gradientTransform="matrix(2.317834, 0, 0, 2.317834, 108.31731, 108.317339)" y1="-0.00000501038" x2="255.999978" gradientUnits="userSpaceOnUse" y2="255.999978" id="5ef68ae21e"><stop stop-opacity="1" stop-color="rgb(100%, 43.099976%, 0%)" offset="0"/><stop stop-opacity="1" stop-color="rgb(99.258423%, 42.918396%, 0.437927%)" offset="0.00390625"/><stop stop-opacity="1" stop-color="rgb(98.516846%, 42.738342%, 0.875854%)" offset="0.0078125"/><stop stop-opacity="1" stop-color="rgb(97.775269%, 42.556763%, 1.313782%)" offset="0.0117188"/><stop stop-opacity="1" stop-color="rgb(97.033691%, 42.376709%, 1.751709%)" offset="0.015625"/><stop stop-opacity="1" stop-color="rgb(96.292114%, 42.196655%, 2.189636%)" offset="0.0195312"/><stop stop-opacity="1" stop-color="rgb(95.550537%, 42.016602%, 2.629089%)" offset="0.0234375"/><stop stop-opacity="1" stop-color="rgb(94.80896%, 41.835022%, 3.067017%)" offset="0.0273438"/><stop stop-opacity="1" stop-color="rgb(94.067383%, 41.654968%, 3.504944%)" offset="0.03125"/><stop stop-opacity="1" stop-color="rgb(93.325806%, 41.474915%, 3.942871%)" offset="0.0351562"/><stop stop-opacity="1" stop-color="rgb(92.585754%, 41.294861%, 4.382324%)" offset="0.0390625"/><stop stop-opacity="1" stop-color="rgb(91.844177%, 41.113281%, 4.820251%)" offset="0.0429688"/><stop stop-opacity="1" stop-color="rgb(91.1026%, 40.933228%, 5.258179%)" offset="0.046875"/><stop stop-opacity="1" stop-color="rgb(90.361023%, 40.753174%, 5.696106%)" offset="0.0507812"/><stop stop-opacity="1" stop-color="rgb(89.619446%, 40.57312%, 6.135559%)" offset="0.0546875"/><stop stop-opacity="1" stop-color="rgb(88.877869%, 40.391541%, 6.573486%)" offset="0.0585938"/><stop stop-opacity="1" stop-color="rgb(88.136292%, 40.211487%, 7.011414%)" offset="0.0625"/><stop stop-opacity="1" stop-color="rgb(87.394714%, 40.031433%, 7.449341%)" offset="0.0664062"/><stop stop-opacity="1" stop-color="rgb(86.654663%, 39.851379%, 7.888794%)" offset="0.0703125"/><stop stop-opacity="1" stop-color="rgb(85.913086%, 39.6698%, 8.326721%)" offset="0.0742188"/><stop stop-opacity="1" stop-color="rgb(85.171509%, 39.489746%, 8.764648%)" offset="0.078125"/><stop stop-opacity="1" stop-color="rgb(84.429932%, 39.309692%, 9.202576%)" offset="0.0820312"/><stop stop-opacity="1" stop-color="rgb(83.688354%, 39.129639%, 9.642029%)" offset="0.0859375"/><stop stop-opacity="1" stop-color="rgb(82.946777%, 38.948059%, 10.079956%)" offset="0.0898438"/><stop stop-opacity="1" stop-color="rgb(82.2052%, 38.768005%, 10.517883%)" offset="0.09375"/><stop stop-opacity="1" stop-color="rgb(81.463623%, 38.586426%, 10.955811%)" offset="0.0976562"/><stop stop-opacity="1" stop-color="rgb(80.722046%, 38.406372%, 11.395264%)" offset="0.101562"/><stop stop-opacity="1" stop-color="rgb(79.980469%, 38.226318%, 11.833191%)" offset="0.105469"/><stop stop-opacity="1" stop-color="rgb(79.240417%, 38.046265%, 12.271118%)" offset="0.109375"/><stop stop-opacity="1" stop-color="rgb(78.49884%, 37.864685%, 12.709045%)" offset="0.113281"/><stop stop-opacity="1" stop-color="rgb(77.757263%, 37.684631%, 13.146973%)" offset="0.117188"/><stop stop-opacity="1" stop-color="rgb(77.015686%, 37.504578%, 13.5849%)" offset="0.121094"/><stop stop-opacity="1" stop-color="rgb(76.274109%, 37.324524%, 14.024353%)" offset="0.125"/><stop stop-opacity="1" stop-color="rgb(75.532532%, 37.142944%, 14.46228%)" offset="0.128906"/><stop stop-opacity="1" stop-color="rgb(74.790955%, 36.962891%, 14.900208%)" offset="0.132812"/><stop stop-opacity="1" stop-color="rgb(74.049377%, 36.782837%, 15.338135%)" offset="0.136719"/><stop stop-opacity="1" stop-color="rgb(73.309326%, 36.602783%, 15.777588%)" offset="0.140625"/><stop stop-opacity="1" stop-color="rgb(72.567749%, 36.421204%, 16.215515%)" offset="0.144531"/><stop stop-opacity="1" stop-color="rgb(71.826172%, 36.24115%, 16.653442%)" offset="0.148438"/><stop stop-opacity="1" stop-color="rgb(71.084595%, 36.061096%, 17.09137%)" offset="0.152344"/><stop stop-opacity="1" stop-color="rgb(70.343018%, 35.881042%, 17.530823%)" offset="0.15625"/><stop stop-opacity="1" stop-color="rgb(69.60144%, 35.699463%, 17.96875%)" offset="0.160156"/><stop stop-opacity="1" stop-color="rgb(68.859863%, 35.519409%, 18.406677%)" offset="0.164062"/><stop stop-opacity="1" stop-color="rgb(68.118286%, 35.339355%, 18.844604%)" offset="0.167969"/><stop stop-opacity="1" stop-color="rgb(67.376709%, 35.159302%, 19.284058%)" offset="0.171875"/><stop stop-opacity="1" stop-color="rgb(66.635132%, 34.977722%, 19.721985%)" offset="0.175781"/><stop stop-opacity="1" stop-color="rgb(65.895081%, 34.797668%, 20.159912%)" offset="0.179688"/><stop stop-opacity="1" stop-color="rgb(65.153503%, 34.616089%, 20.597839%)" offset="0.183594"/><stop stop-opacity="1" stop-color="rgb(64.411926%, 34.436035%, 21.037292%)" offset="0.1875"/><stop stop-opacity="1" stop-color="rgb(63.670349%, 34.255981%, 21.47522%)" offset="0.191406"/><stop stop-opacity="1" stop-color="rgb(62.928772%, 34.075928%, 21.913147%)" offset="0.195312"/><stop stop-opacity="1" stop-color="rgb(62.187195%, 33.894348%, 22.351074%)" offset="0.199219"/><stop stop-opacity="1" stop-color="rgb(61.445618%, 33.714294%, 22.790527%)" offset="0.203125"/><stop stop-opacity="1" stop-color="rgb(60.704041%, 33.534241%, 23.228455%)" offset="0.207031"/><stop stop-opacity="1" stop-color="rgb(59.963989%, 33.354187%, 23.666382%)" offset="0.210938"/><stop stop-opacity="1" stop-color="rgb(59.222412%, 33.172607%, 24.104309%)" offset="0.214844"/><stop stop-opacity="1" stop-color="rgb(58.480835%, 32.992554%, 24.542236%)" offset="0.21875"/><stop stop-opacity="1" stop-color="rgb(57.739258%, 32.8125%, 24.980164%)" offset="0.222656"/><stop stop-opacity="1" stop-color="rgb(56.997681%, 32.632446%, 25.419617%)" offset="0.226562"/><stop stop-opacity="1" stop-color="rgb(56.256104%, 32.450867%, 25.857544%)" offset="0.230469"/><stop stop-opacity="1" stop-color="rgb(55.514526%, 32.270813%, 26.295471%)" offset="0.234375"/><stop stop-opacity="1" stop-color="rgb(54.772949%, 32.090759%, 26.733398%)" offset="0.238281"/><stop stop-opacity="1" stop-color="rgb(54.031372%, 31.910706%, 27.172852%)" offset="0.242188"/><stop stop-opacity="1" stop-color="rgb(53.289795%, 31.729126%, 27.610779%)" offset="0.246094"/><stop stop-opacity="1" stop-color="rgb(52.549744%, 31.549072%, 28.048706%)" offset="0.25"/><stop stop-opacity="1" stop-color="rgb(51.808167%, 31.369019%, 28.486633%)" offset="0.253906"/><stop stop-opacity="1" stop-color="rgb(51.066589%, 31.188965%, 28.926086%)" offset="0.257812"/><stop stop-opacity="1" stop-color="rgb(50.325012%, 31.007385%, 29.364014%)" offset="0.261719"/><stop stop-opacity="1" stop-color="rgb(49.583435%, 30.827332%, 29.801941%)" offset="0.265625"/><stop stop-opacity="1" stop-color="rgb(48.841858%, 30.645752%, 30.239868%)" offset="0.269531"/><stop stop-opacity="1" stop-color="rgb(48.100281%, 30.465698%, 30.679321%)" offset="0.273437"/><stop stop-opacity="1" stop-color="rgb(47.358704%, 30.285645%, 31.117249%)" offset="0.277344"/><stop stop-opacity="1" stop-color="rgb(46.618652%, 30.105591%, 31.555176%)" offset="0.28125"/><stop stop-opacity="1" stop-color="rgb(45.877075%, 29.924011%, 31.993103%)" offset="0.285156"/><stop stop-opacity="1" stop-color="rgb(45.135498%, 29.743958%, 32.432556%)" offset="0.289062"/><stop stop-opacity="1" stop-color="rgb(44.393921%, 29.563904%, 32.870483%)" offset="0.292969"/><stop stop-opacity="1" stop-color="rgb(43.652344%, 29.38385%, 33.308411%)" offset="0.296875"/><stop stop-opacity="1" stop-color="rgb(42.910767%, 29.202271%, 33.746338%)" offset="0.300781"/><stop stop-opacity="1" stop-color="rgb(42.169189%, 29.022217%, 34.185791%)" offset="0.304688"/><stop stop-opacity="1" stop-color="rgb(41.427612%, 28.842163%, 34.623718%)" offset="0.308594"/><stop stop-opacity="1" stop-color="rgb(40.686035%, 28.662109%, 35.061646%)" offset="0.3125"/><stop stop-opacity="1" stop-color="rgb(39.944458%, 28.48053%, 35.499573%)" offset="0.316406"/><stop stop-opacity="1" stop-color="rgb(39.204407%, 28.300476%, 35.939026%)" offset="0.320312"/><stop stop-opacity="1" stop-color="rgb(38.46283%, 28.120422%, 36.376953%)" offset="0.324219"/><stop stop-opacity="1" stop-color="rgb(37.721252%, 27.940369%, 36.81488%)" offset="0.328125"/><stop stop-opacity="1" stop-color="rgb(36.979675%, 27.758789%, 37.252808%)" offset="0.332031"/><stop stop-opacity="1" stop-color="rgb(36.238098%, 27.578735%, 37.690735%)" offset="0.335938"/><stop stop-opacity="1" stop-color="rgb(35.496521%, 27.398682%, 38.128662%)" offset="0.339844"/><stop stop-opacity="1" stop-color="rgb(34.754944%, 27.218628%, 38.568115%)" offset="0.34375"/><stop stop-opacity="1" stop-color="rgb(34.013367%, 27.037048%, 39.006042%)" offset="0.347656"/><stop stop-opacity="1" stop-color="rgb(33.273315%, 26.856995%, 39.44397%)" offset="0.351563"/><stop stop-opacity="1" stop-color="rgb(32.531738%, 26.675415%, 39.881897%)" offset="0.355469"/><stop stop-opacity="1" stop-color="rgb(31.790161%, 26.495361%, 40.32135%)" offset="0.359375"/><stop stop-opacity="1" stop-color="rgb(31.048584%, 26.315308%, 40.759277%)" offset="0.363281"/><stop stop-opacity="1" stop-color="rgb(30.307007%, 26.135254%, 41.197205%)" offset="0.367188"/><stop stop-opacity="1" stop-color="rgb(29.56543%, 25.953674%, 41.635132%)" offset="0.371094"/><stop stop-opacity="1" stop-color="rgb(28.823853%, 25.773621%, 42.074585%)" offset="0.375"/><stop stop-opacity="1" stop-color="rgb(28.082275%, 25.593567%, 42.512512%)" offset="0.378906"/><stop stop-opacity="1" stop-color="rgb(27.340698%, 25.413513%, 42.950439%)" offset="0.382812"/><stop stop-opacity="1" stop-color="rgb(26.599121%, 25.231934%, 43.388367%)" offset="0.386719"/><stop stop-opacity="1" stop-color="rgb(25.85907%, 25.05188%, 43.82782%)" offset="0.390625"/><stop stop-opacity="1" stop-color="rgb(25.117493%, 24.871826%, 44.265747%)" offset="0.394531"/><stop stop-opacity="1" stop-color="rgb(24.375916%, 24.691772%, 44.703674%)" offset="0.398437"/><stop stop-opacity="1" stop-color="rgb(23.634338%, 24.510193%, 45.141602%)" offset="0.402344"/><stop stop-opacity="1" stop-color="rgb(22.892761%, 24.330139%, 45.581055%)" offset="0.40625"/><stop stop-opacity="1" stop-color="rgb(22.151184%, 24.150085%, 46.018982%)" offset="0.410156"/><stop stop-opacity="1" stop-color="rgb(21.409607%, 23.970032%, 46.456909%)" offset="0.414062"/><stop stop-opacity="1" stop-color="rgb(20.66803%, 23.788452%, 46.894836%)" offset="0.417969"/><stop stop-opacity="1" stop-color="rgb(19.927979%, 23.608398%, 47.33429%)" offset="0.421875"/><stop stop-opacity="1" stop-color="rgb(19.186401%, 23.428345%, 47.772217%)" offset="0.425781"/><stop stop-opacity="1" stop-color="rgb(18.444824%, 23.248291%, 48.210144%)" offset="0.429688"/><stop stop-opacity="1" stop-color="rgb(17.703247%, 23.066711%, 48.648071%)" offset="0.433594"/><stop stop-opacity="1" stop-color="rgb(16.96167%, 22.886658%, 49.085999%)" offset="0.4375"/><stop stop-opacity="1" stop-color="rgb(16.220093%, 22.706604%, 49.523926%)" offset="0.441406"/><stop stop-opacity="1" stop-color="rgb(15.478516%, 22.52655%, 49.963379%)" offset="0.445312"/><stop stop-opacity="1" stop-color="rgb(14.736938%, 22.344971%, 50.401306%)" offset="0.449219"/><stop stop-opacity="1" stop-color="rgb(13.995361%, 22.164917%, 50.839233%)" offset="0.453125"/><stop stop-opacity="1" stop-color="rgb(13.253784%, 21.983337%, 51.277161%)" offset="0.457031"/><stop stop-opacity="1" stop-color="rgb(12.513733%, 21.803284%, 51.716614%)" offset="0.460938"/><stop stop-opacity="1" stop-color="rgb(11.772156%, 21.62323%, 52.154541%)" offset="0.464844"/><stop stop-opacity="1" stop-color="rgb(11.030579%, 21.443176%, 52.592468%)" offset="0.46875"/><stop stop-opacity="1" stop-color="rgb(10.289001%, 21.261597%, 53.030396%)" offset="0.472656"/><stop stop-opacity="1" stop-color="rgb(9.547424%, 21.081543%, 53.469849%)" offset="0.476563"/><stop stop-opacity="1" stop-color="rgb(8.805847%, 20.901489%, 53.907776%)" offset="0.480469"/><stop stop-opacity="1" stop-color="rgb(8.06427%, 20.721436%, 54.345703%)" offset="0.484375"/><stop stop-opacity="1" stop-color="rgb(7.322693%, 20.539856%, 54.78363%)" offset="0.488281"/><stop stop-opacity="1" stop-color="rgb(6.582642%, 20.359802%, 55.223083%)" offset="0.492188"/><stop stop-opacity="1" stop-color="rgb(5.841064%, 20.179749%, 55.661011%)" offset="0.496094"/><stop stop-opacity="1" stop-color="rgb(5.099487%, 19.999695%, 56.098938%)" offset="0.5"/><stop stop-opacity="1" stop-color="rgb(5.059814%, 20.480347%, 56.442261%)" offset="0.503906"/><stop stop-opacity="1" stop-color="rgb(5.020142%, 20.960999%, 56.785583%)" offset="0.507812"/><stop stop-opacity="1" stop-color="rgb(4.978943%, 21.44165%, 57.12738%)" offset="0.511719"/><stop stop-opacity="1" stop-color="rgb(4.93927%, 21.923828%, 57.470703%)" offset="0.515625"/><stop stop-opacity="1" stop-color="rgb(4.899597%, 22.40448%, 57.814026%)" offset="0.519531"/><stop stop-opacity="1" stop-color="rgb(4.859924%, 22.886658%, 58.157349%)" offset="0.523438"/><stop stop-opacity="1" stop-color="rgb(4.820251%, 23.36731%, 58.499146%)" offset="0.527344"/><stop stop-opacity="1" stop-color="rgb(4.780579%, 23.849487%, 58.842468%)" offset="0.53125"/><stop stop-opacity="1" stop-color="rgb(4.740906%, 24.330139%, 59.185791%)" offset="0.535156"/><stop stop-opacity="1" stop-color="rgb(4.701233%, 24.812317%, 59.529114%)" offset="0.539062"/><stop stop-opacity="1" stop-color="rgb(4.660034%, 25.292969%, 59.870911%)" offset="0.542969"/><stop stop-opacity="1" stop-color="rgb(4.620361%, 25.773621%, 60.214233%)" offset="0.546875"/><stop stop-opacity="1" stop-color="rgb(4.580688%, 26.254272%, 60.557556%)" offset="0.550781"/><stop stop-opacity="1" stop-color="rgb(4.541016%, 26.73645%, 60.900879%)" offset="0.554687"/><stop stop-opacity="1" stop-color="rgb(4.501343%, 27.217102%, 61.242676%)" offset="0.558594"/><stop stop-opacity="1" stop-color="rgb(4.46167%, 27.69928%, 61.585999%)" offset="0.5625"/><stop stop-opacity="1" stop-color="rgb(4.421997%, 28.179932%, 61.929321%)" offset="0.566406"/><stop stop-opacity="1" stop-color="rgb(4.382324%, 28.662109%, 62.272644%)" offset="0.570312"/><stop stop-opacity="1" stop-color="rgb(4.342651%, 29.142761%, 62.615967%)" offset="0.574219"/><stop stop-opacity="1" stop-color="rgb(4.302979%, 29.624939%, 62.95929%)" offset="0.578125"/><stop stop-opacity="1" stop-color="rgb(4.26178%, 30.105591%, 63.301086%)" offset="0.582031"/><stop stop-opacity="1" stop-color="rgb(4.222107%, 30.586243%, 63.644409%)" offset="0.585938"/><stop stop-opacity="1" stop-color="rgb(4.182434%, 31.066895%, 63.987732%)" offset="0.589844"/><stop stop-opacity="1" stop-color="rgb(4.142761%, 31.549072%, 64.331055%)" offset="0.59375"/><stop stop-opacity="1" stop-color="rgb(4.103088%, 32.029724%, 64.672852%)" offset="0.597656"/><stop stop-opacity="1" stop-color="rgb(4.063416%, 32.511902%, 65.016174%)" offset="0.601562"/><stop stop-opacity="1" stop-color="rgb(4.023743%, 32.992554%, 65.359497%)" offset="0.605469"/><stop stop-opacity="1" stop-color="rgb(3.98407%, 33.474731%, 65.70282%)" offset="0.609375"/><stop stop-opacity="1" stop-color="rgb(3.942871%, 33.955383%, 66.044617%)" offset="0.613281"/><stop stop-opacity="1" stop-color="rgb(3.903198%, 34.436035%, 66.387939%)" offset="0.617188"/><stop stop-opacity="1" stop-color="rgb(3.863525%, 34.916687%, 66.731262%)" offset="0.621094"/><stop stop-opacity="1" stop-color="rgb(3.823853%, 35.398865%, 67.074585%)" offset="0.625"/><stop stop-opacity="1" stop-color="rgb(3.78418%, 35.879517%, 67.416382%)" offset="0.628906"/><stop stop-opacity="1" stop-color="rgb(3.744507%, 36.361694%, 67.759705%)" offset="0.632812"/><stop stop-opacity="1" stop-color="rgb(3.704834%, 36.842346%, 68.103027%)" offset="0.636719"/><stop stop-opacity="1" stop-color="rgb(3.665161%, 37.324524%, 68.44635%)" offset="0.640625"/><stop stop-opacity="1" stop-color="rgb(3.625488%, 37.805176%, 68.788147%)" offset="0.644531"/><stop stop-opacity="1" stop-color="rgb(3.585815%, 38.287354%, 69.13147%)" offset="0.648438"/><stop stop-opacity="1" stop-color="rgb(3.544617%, 38.768005%, 69.474792%)" offset="0.652344"/><stop stop-opacity="1" stop-color="rgb(3.504944%, 39.248657%, 69.818115%)" offset="0.65625"/><stop stop-opacity="1" stop-color="rgb(3.465271%, 39.729309%, 70.159912%)" offset="0.660156"/><stop stop-opacity="1" stop-color="rgb(3.425598%, 40.211487%, 70.503235%)" offset="0.664062"/><stop stop-opacity="1" stop-color="rgb(3.385925%, 40.692139%, 70.846558%)" offset="0.667969"/><stop stop-opacity="1" stop-color="rgb(3.346252%, 41.174316%, 71.18988%)" offset="0.671875"/><stop stop-opacity="1" stop-color="rgb(3.30658%, 41.654968%, 71.533203%)" offset="0.675781"/><stop stop-opacity="1" stop-color="rgb(3.266907%, 42.137146%, 71.876526%)" offset="0.679688"/><stop stop-opacity="1" stop-color="rgb(3.225708%, 42.617798%, 72.218323%)" offset="0.683594"/><stop stop-opacity="1" stop-color="rgb(3.186035%, 43.099976%, 72.561646%)" offset="0.6875"/><stop stop-opacity="1" stop-color="rgb(3.146362%, 43.580627%, 72.904968%)" offset="0.691406"/><stop stop-opacity="1" stop-color="rgb(3.106689%, 44.061279%, 73.248291%)" offset="0.695313"/><stop stop-opacity="1" stop-color="rgb(3.067017%, 44.541931%, 73.590088%)" offset="0.699219"/><stop stop-opacity="1" stop-color="rgb(3.027344%, 45.024109%, 73.933411%)" offset="0.703125"/><stop stop-opacity="1" stop-color="rgb(2.987671%, 45.504761%, 74.276733%)" offset="0.707031"/><stop stop-opacity="1" stop-color="rgb(2.947998%, 45.986938%, 74.620056%)" offset="0.710938"/><stop stop-opacity="1" stop-color="rgb(2.908325%, 46.46759%, 74.961853%)" offset="0.714844"/><stop stop-opacity="1" stop-color="rgb(2.868652%, 46.949768%, 75.305176%)" offset="0.71875"/><stop stop-opacity="1" stop-color="rgb(2.827454%, 47.43042%, 75.648499%)" offset="0.722656"/><stop stop-opacity="1" stop-color="rgb(2.787781%, 47.911072%, 75.991821%)" offset="0.726562"/><stop stop-opacity="1" stop-color="rgb(2.748108%, 48.391724%, 76.333618%)" offset="0.730469"/><stop stop-opacity="1" stop-color="rgb(2.708435%, 48.873901%, 76.676941%)" offset="0.734375"/><stop stop-opacity="1" stop-color="rgb(2.668762%, 49.354553%, 77.020264%)" offset="0.738281"/><stop stop-opacity="1" stop-color="rgb(2.629089%, 49.836731%, 77.363586%)" offset="0.742188"/><stop stop-opacity="1" stop-color="rgb(2.589417%, 50.317383%, 77.705383%)" offset="0.746094"/><stop stop-opacity="1" stop-color="rgb(2.549744%, 50.799561%, 78.048706%)" offset="0.75"/><stop stop-opacity="1" stop-color="rgb(2.508545%, 51.280212%, 78.392029%)" offset="0.753906"/><stop stop-opacity="1" stop-color="rgb(2.468872%, 51.76239%, 78.735352%)" offset="0.757812"/><stop stop-opacity="1" stop-color="rgb(2.429199%, 52.243042%, 79.077148%)" offset="0.761719"/><stop stop-opacity="1" stop-color="rgb(2.389526%, 52.723694%, 79.420471%)" offset="0.765625"/><stop stop-opacity="1" stop-color="rgb(2.349854%, 53.204346%, 79.763794%)" offset="0.769531"/><stop stop-opacity="1" stop-color="rgb(2.310181%, 53.686523%, 80.107117%)" offset="0.773438"/><stop stop-opacity="1" stop-color="rgb(2.270508%, 54.167175%, 80.448914%)" offset="0.777344"/><stop stop-opacity="1" stop-color="rgb(2.230835%, 54.649353%, 80.792236%)" offset="0.78125"/><stop stop-opacity="1" stop-color="rgb(2.191162%, 55.130005%, 81.135559%)" offset="0.785156"/><stop stop-opacity="1" stop-color="rgb(2.151489%, 55.612183%, 81.478882%)" offset="0.789062"/><stop stop-opacity="1" stop-color="rgb(2.110291%, 56.092834%, 81.822205%)" offset="0.792969"/><stop stop-opacity="1" stop-color="rgb(2.070618%, 56.573486%, 82.165527%)" offset="0.796875"/><stop stop-opacity="1" stop-color="rgb(2.030945%, 57.054138%, 82.507324%)" offset="0.800781"/><stop stop-opacity="1" stop-color="rgb(1.991272%, 57.536316%, 82.850647%)" offset="0.804687"/><stop stop-opacity="1" stop-color="rgb(1.951599%, 58.016968%, 83.19397%)" offset="0.808594"/><stop stop-opacity="1" stop-color="rgb(1.911926%, 58.499146%, 83.537292%)" offset="0.8125"/><stop stop-opacity="1" stop-color="rgb(1.872253%, 58.979797%, 83.879089%)" offset="0.816406"/><stop stop-opacity="1" stop-color="rgb(1.832581%, 59.461975%, 84.222412%)" offset="0.820312"/><stop stop-opacity="1" stop-color="rgb(1.791382%, 59.942627%, 84.565735%)" offset="0.824219"/><stop stop-opacity="1" stop-color="rgb(1.751709%, 60.424805%, 84.909058%)" offset="0.828125"/><stop stop-opacity="1" stop-color="rgb(1.712036%, 60.905457%, 85.250854%)" offset="0.832031"/><stop stop-opacity="1" stop-color="rgb(1.672363%, 61.386108%, 85.594177%)" offset="0.835938"/><stop stop-opacity="1" stop-color="rgb(1.63269%, 61.86676%, 85.9375%)" offset="0.839844"/><stop stop-opacity="1" stop-color="rgb(1.593018%, 62.348938%, 86.280823%)" offset="0.84375"/><stop stop-opacity="1" stop-color="rgb(1.553345%, 62.82959%, 86.62262%)" offset="0.847656"/><stop stop-opacity="1" stop-color="rgb(1.513672%, 63.311768%, 86.965942%)" offset="0.851562"/><stop stop-opacity="1" stop-color="rgb(1.473999%, 63.792419%, 87.309265%)" offset="0.855469"/><stop stop-opacity="1" stop-color="rgb(1.434326%, 64.274597%, 87.652588%)" offset="0.859375"/><stop stop-opacity="1" stop-color="rgb(1.393127%, 64.755249%, 87.994385%)" offset="0.863281"/><stop stop-opacity="1" stop-color="rgb(1.353455%, 65.237427%, 88.337708%)" offset="0.867188"/><stop stop-opacity="1" stop-color="rgb(1.313782%, 65.718079%, 88.68103%)" offset="0.871094"/><stop stop-opacity="1" stop-color="rgb(1.274109%, 66.19873%, 89.024353%)" offset="0.875"/><stop stop-opacity="1" stop-color="rgb(1.234436%, 66.679382%, 89.36615%)" offset="0.878906"/><stop stop-opacity="1" stop-color="rgb(1.194763%, 67.16156%, 89.709473%)" offset="0.882812"/><stop stop-opacity="1" stop-color="rgb(1.15509%, 67.642212%, 90.052795%)" offset="0.886719"/><stop stop-opacity="1" stop-color="rgb(1.115417%, 68.12439%, 90.396118%)" offset="0.890625"/><stop stop-opacity="1" stop-color="rgb(1.074219%, 68.605042%, 90.739441%)" offset="0.894531"/><stop stop-opacity="1" stop-color="rgb(1.034546%, 69.087219%, 91.082764%)" offset="0.898438"/><stop stop-opacity="1" stop-color="rgb(0.994873%, 69.567871%, 91.424561%)" offset="0.902344"/><stop stop-opacity="1" stop-color="rgb(0.9552%, 70.048523%, 91.767883%)" offset="0.90625"/><stop stop-opacity="1" stop-color="rgb(0.915527%, 70.529175%, 92.111206%)" offset="0.910156"/><stop stop-opacity="1" stop-color="rgb(0.875854%, 71.011353%, 92.454529%)" offset="0.914062"/><stop stop-opacity="1" stop-color="rgb(0.836182%, 71.492004%, 92.796326%)" offset="0.917969"/><stop stop-opacity="1" stop-color="rgb(0.796509%, 71.974182%, 93.139648%)" offset="0.921875"/><stop stop-opacity="1" stop-color="rgb(0.756836%, 72.454834%, 93.482971%)" offset="0.925781"/><stop stop-opacity="1" stop-color="rgb(0.717163%, 72.937012%, 93.826294%)" offset="0.929688"/><stop stop-opacity="1" stop-color="rgb(0.675964%, 73.417664%, 94.168091%)" offset="0.933594"/><stop stop-opacity="1" stop-color="rgb(0.636292%, 73.899841%, 94.511414%)" offset="0.9375"/><stop stop-opacity="1" stop-color="rgb(0.596619%, 74.380493%, 94.854736%)" offset="0.941406"/><stop stop-opacity="1" stop-color="rgb(0.556946%, 74.861145%, 95.198059%)" offset="0.945313"/><stop stop-opacity="1" stop-color="rgb(0.517273%, 75.341797%, 95.539856%)" offset="0.949219"/><stop stop-opacity="1" stop-color="rgb(0.4776%, 75.823975%, 95.883179%)" offset="0.953125"/><stop stop-opacity="1" stop-color="rgb(0.437927%, 76.304626%, 96.226501%)" offset="0.957031"/><stop stop-opacity="1" stop-color="rgb(0.398254%, 76.786804%, 96.569824%)" offset="0.960938"/><stop stop-opacity="1" stop-color="rgb(0.357056%, 77.267456%, 96.911621%)" offset="0.964844"/><stop stop-opacity="1" stop-color="rgb(0.317383%, 77.749634%, 97.254944%)" offset="0.96875"/><stop stop-opacity="1" stop-color="rgb(0.27771%, 78.230286%, 97.598267%)" offset="0.972656"/><stop stop-opacity="1" stop-color="rgb(0.238037%, 78.712463%, 97.941589%)" offset="0.976562"/><stop stop-opacity="1" stop-color="rgb(0.198364%, 79.193115%, 98.283386%)" offset="0.980469"/><stop stop-opacity="1" stop-color="rgb(0.158691%, 79.673767%, 98.626709%)" offset="0.984375"/><stop stop-opacity="1" stop-color="rgb(0.119019%, 80.154419%, 98.970032%)" offset="0.988281"/><stop stop-opacity="1" stop-color="rgb(0.0793457%, 80.636597%, 99.313354%)" offset="0.992188"/><stop stop-opacity="1" stop-color="rgb(0.0396729%, 81.117249%, 99.655151%)" offset="0.996094"/><stop stop-opacity="1" stop-color="rgb(0%, 81.599426%, 99.998474%)" offset="1"/></linearGradient><clipPath id="cb7a45673f"><path d="M 169.390625 170.277344 L 639.671875 170.277344 L 639.671875 640 L 169.390625 640 Z M 169.390625 170.277344 " clip-rule="nonzero"/></clipPath></defs><g clip-path="url(#f2d309bd49)"><g clip-path="url(#fd66056192)"><path fill="url(#5ef68ae21e)" d="M 108.316406 108.316406 L 108.316406 701.683594 L 701.683594 701.683594 L 701.683594 108.316406 Z M 108.316406 108.316406 " fill-rule="nonzero"/></g></g><g clip-path="url(#cb7a45673f)"><path fill="#ffffff" d="M 339.9375 203.34375 C 269.078125 226.3125 214.519531 285.625 198.289062 359.25 C 197.355469 363.484375 193.164062 366.160156 188.929688 365.226562 C 184.699219 364.296875 182.019531 360.101562 182.949219 355.867188 C 200.425781 276.601562 259.261719 212.777344 335.636719 188.226562 L 334.160156 187.378906 C 330.410156 185.210938 329.121094 180.402344 331.289062 176.648438 C 333.453125 172.894531 338.261719 171.609375 342.015625 173.773438 L 360.0625 184.195312 C 363.816406 186.363281 365.105469 191.164062 362.9375 194.921875 L 352.515625 212.96875 C 350.351562 216.722656 345.542969 218.011719 341.789062 215.84375 C 338.035156 213.675781 336.75 208.871094 338.914062 205.117188 C 338.914062 205.117188 339.324219 204.40625 339.9375 203.34375 Z M 188.25 473.90625 L 187.585938 475.054688 C 185.417969 478.808594 180.613281 480.097656 176.859375 477.929688 C 173.105469 475.761719 171.816406 470.957031 173.984375 467.203125 L 184.402344 449.15625 C 186.570312 445.398438 191.375 444.113281 195.128906 446.28125 L 213.179688 456.699219 C 216.929688 458.867188 218.21875 463.675781 216.050781 467.429688 C 213.886719 471.179688 209.078125 472.46875 205.324219 470.304688 C 205.324219 470.304688 204.453125 469.800781 203.195312 469.074219 C 225.523438 539.484375 283.664062 594.019531 356.1875 611.242188 C 360.402344 612.246094 363.011719 616.480469 362.011719 620.699219 C 361.011719 624.914062 356.773438 627.527344 352.558594 626.523438 C 274.6875 608.03125 212.253906 549.492188 188.25 473.90625 Z M 472.542969 622.554688 L 474.773438 623.839844 C 478.523438 626.007812 479.8125 630.8125 477.644531 634.566406 C 475.480469 638.320312 470.671875 639.609375 466.917969 637.441406 L 448.871094 627.019531 C 445.113281 624.851562 443.828125 620.050781 445.996094 616.292969 L 456.414062 598.246094 C 458.582031 594.492188 463.390625 593.207031 467.144531 595.371094 C 470.898438 597.539062 472.183594 602.347656 470.019531 606.101562 C 470.019531 606.101562 469.808594 606.460938 469.464844 607.058594 C 540.164062 584.589844 594.832031 526.007812 611.761719 453.027344 C 612.738281 448.804688 616.960938 446.167969 621.183594 447.148438 C 625.40625 448.128906 628.039062 452.351562 627.058594 456.574219 C 608.746094 535.542969 549.292969 598.8125 472.542969 622.554688 Z M 607.75 342.195312 C 585.976562 272.019531 528.6875 217.410156 456.9375 199.414062 C 452.734375 198.359375 450.175781 194.089844 451.230469 189.886719 C 452.285156 185.683594 456.554688 183.125 460.757812 184.179688 C 538.0625 203.570312 599.742188 262.53125 622.96875 338.246094 L 623.945312 336.550781 C 626.113281 332.796875 630.917969 331.511719 634.671875 333.675781 C 638.425781 335.84375 639.714844 340.652344 637.546875 344.40625 L 627.128906 362.453125 C 624.960938 366.207031 620.15625 367.496094 616.402344 365.328125 L 598.351562 354.90625 C 594.601562 352.738281 593.3125 347.933594 595.476562 344.179688 C 597.644531 340.425781 602.453125 339.136719 606.207031 341.304688 C 606.207031 341.304688 606.816406 341.65625 607.75 342.195312 Z M 339.050781 577.261719 L 382.65625 577.261719 C 381.535156 583.480469 376.0625 588.261719 369.539062 588.261719 L 352.195312 588.261719 C 345.671875 588.261719 340.179688 583.480469 339.050781 577.261719 Z M 325.367188 550.554688 L 396.367188 550.554688 C 395.242188 556.792969 389.746094 561.554688 383.222656 561.554688 L 338.511719 561.554688 C 331.960938 561.554688 326.484375 556.792969 325.367188 550.554688 Z M 312.011719 523.847656 L 409.691406 523.847656 C 408.574219 530.085938 403.097656 534.847656 396.574219 534.847656 L 325.15625 534.847656 C 318.609375 534.847656 313.132812 530.085938 312.011719 523.847656 Z M 338.835938 508.144531 L 311.804688 508.144531 C 307.867188 440.910156 278.710938 443.636719 278.710938 398.015625 C 278.710938 352.644531 315.496094 315.859375 360.867188 315.859375 C 360.964844 315.859375 361.066406 315.863281 361.164062 315.863281 L 361.164062 336.742188 C 361.164062 343.238281 365.164062 349.066406 371.226562 351.402344 L 379.648438 354.640625 C 381.09375 358.960938 382.839844 363.171875 384.875 367.238281 C 384.875 367.238281 382.359375 372.894531 381.5 374.832031 C 373 379.378906 367.191406 388.347656 367.191406 398.621094 L 367.191406 409.847656 L 354.539062 409.847656 L 354.539062 398.621094 C 354.539062 383.78125 342.421875 371.660156 327.582031 371.660156 C 312.777344 371.660156 300.648438 383.777344 300.648438 398.621094 C 300.648438 413.429688 312.773438 425.554688 327.582031 425.554688 L 338.835938 425.554688 Z M 414.988281 415.636719 C 416.707031 415.492188 418.417969 415.066406 420.054688 414.34375 L 428.3125 410.683594 C 432.390625 412.722656 436.609375 414.472656 440.9375 415.917969 C 440.9375 415.917969 440.996094 416.0625 441.09375 416.316406 C 434.523438 444.492188 413.25 451.417969 409.929688 508.144531 L 382.898438 508.144531 L 382.898438 425.554688 L 394.152344 425.554688 C 402.523438 425.554688 410.035156 421.679688 414.988281 415.636719 Z M 367.191406 508.144531 L 354.539062 508.144531 L 354.539062 425.554688 L 367.191406 425.554688 Z M 384.445312 392.945312 L 384.457031 392.960938 L 399.808594 408.308594 C 398.144531 409.285156 396.210938 409.847656 394.152344 409.847656 L 382.898438 409.847656 L 382.898438 398.621094 C 382.898438 396.554688 383.460938 394.613281 384.445312 392.945312 Z M 338.835938 409.847656 L 327.582031 409.847656 C 321.410156 409.847656 316.355469 404.792969 316.355469 398.621094 C 316.355469 392.429688 321.40625 387.367188 327.582031 387.367188 C 333.777344 387.367188 338.835938 392.425781 338.835938 398.621094 Z M 368.71875 288.082031 C 368.71875 292.414062 365.203125 295.933594 360.867188 295.933594 C 356.53125 295.933594 353.011719 292.414062 353.011719 288.082031 L 353.011719 268.726562 C 353.011719 264.390625 356.53125 260.875 360.867188 260.875 C 365.203125 260.875 368.71875 264.390625 368.71875 268.726562 Z M 305.695312 300.761719 C 307.859375 304.515625 306.570312 309.324219 302.8125 311.488281 C 299.058594 313.652344 294.253906 312.359375 292.089844 308.605469 L 282.425781 291.835938 C 280.261719 288.082031 281.550781 283.277344 285.308594 281.113281 C 289.0625 278.949219 293.867188 280.238281 296.03125 283.996094 Z M 257.476562 343.257812 C 261.230469 345.425781 262.515625 350.234375 260.347656 353.984375 C 258.179688 357.738281 253.371094 359.023438 249.617188 356.855469 L 232.851562 347.164062 C 229.097656 344.996094 227.8125 340.1875 229.980469 336.433594 C 232.152344 332.679688 236.957031 331.394531 240.710938 333.566406 Z M 490.515625 244.867188 C 498.878906 246.855469 506.859375 250.160156 514.195312 254.679688 L 529.582031 247.835938 L 547.710938 265.964844 L 540.894531 281.351562 C 545.414062 288.6875 548.71875 296.664062 550.707031 305.058594 L 566.40625 311.101562 L 566.40625 336.742188 L 550.707031 342.785156 C 548.71875 351.152344 545.386719 359.128906 540.894531 366.464844 L 547.710938 381.855469 L 529.582031 399.980469 L 514.195312 393.164062 C 506.886719 397.683594 498.878906 400.988281 490.515625 402.976562 L 484.472656 418.675781 L 458.828125 418.675781 L 452.789062 402.976562 C 444.394531 400.988281 436.414062 397.65625 429.082031 393.164062 L 413.691406 399.980469 L 395.566406 381.855469 L 402.410156 366.464844 C 397.890625 359.15625 394.582031 351.152344 392.570312 342.785156 L 376.871094 336.742188 L 376.871094 311.101562 L 392.570312 305.058594 C 394.582031 296.664062 397.890625 288.6875 402.410156 281.351562 L 395.566406 265.964844 L 413.691406 247.835938 L 429.082031 254.679688 C 436.414062 250.160156 444.394531 246.855469 452.761719 244.867188 L 458.828125 229.140625 L 484.472656 229.140625 Z M 471.636719 279.183594 C 446.925781 279.183594 426.914062 299.195312 426.914062 323.910156 C 426.914062 348.621094 446.925781 368.660156 471.636719 368.660156 C 496.351562 368.660156 516.386719 348.621094 516.386719 323.910156 C 516.386719 299.195312 496.351562 279.183594 471.636719 279.183594 Z M 188.742188 385.925781 C 199.421875 385.925781 208.09375 394.597656 208.09375 405.277344 C 208.09375 415.957031 199.421875 424.628906 188.742188 424.628906 C 178.0625 424.628906 169.390625 415.957031 169.390625 405.277344 C 169.390625 394.597656 178.0625 385.925781 188.742188 385.925781 Z M 405.929688 170.375 C 416.609375 170.375 425.28125 179.046875 425.28125 189.726562 C 425.28125 200.40625 416.609375 209.078125 405.929688 209.078125 C 395.25 209.078125 386.578125 200.40625 386.578125 189.726562 C 386.578125 179.046875 395.25 170.375 405.929688 170.375 Z M 621.238281 385.644531 C 631.917969 385.644531 640.585938 394.316406 640.585938 404.996094 C 640.585938 415.675781 631.917969 424.347656 621.238281 424.347656 C 610.558594 424.347656 601.886719 415.675781 601.886719 404.996094 C 601.886719 394.316406 610.558594 385.644531 621.238281 385.644531 Z M 405.929688 600.914062 C 416.609375 600.914062 425.28125 609.585938 425.28125 620.265625 C 425.28125 630.945312 416.609375 639.617188 405.929688 639.617188 C 395.25 639.617188 386.578125 630.945312 386.578125 620.265625 C 386.578125 609.585938 395.25 600.914062 405.929688 600.914062 Z M 405.929688 600.914062 " fill-opacity="1" fill-rule="evenodd"/></g></svg>