<svg xmlns="http://www.w3.org/2000/svg" xmlns:xlink="http://www.w3.org/1999/xlink" width="1094" zoomAndPan="magnify" viewBox="0 0 820.5 627.000003" height="836" preserveAspectRatio="xMidYMid meet" version="1.0"><defs><clipPath id="08af893a5a"><path d="M 161 0 L 567 0 L 567 625.949219 L 161 625.949219 Z M 161 0 " clip-rule="nonzero"/></clipPath><clipPath id="f621fd242f"><path d="M 241 300 L 705.441406 300 L 705.441406 625.949219 L 241 625.949219 Z M 241 300 " clip-rule="nonzero"/></clipPath><clipPath id="7741d7945a"><path d="M 108.628906 379.023438 L 259 379.023438 L 259 625.949219 L 108.628906 625.949219 Z M 108.628906 379.023438 " clip-rule="nonzero"/></clipPath><clipPath id="a43b429397"><path d="M 108.628906 314 L 711.617188 314 L 711.617188 625.316406 L 108.628906 625.316406 Z M 108.628906 314 " clip-rule="nonzero"/></clipPath></defs><g clip-path="url(#08af893a5a)"><path fill="#6caacf" d="M 566.265625 625.949219 L 242.398438 625.949219 L 242.398438 453.113281 L 566.265625 453.113281 Z M 529.984375 178.789062 L 504.039062 178.789062 L 504.039062 159.097656 L 529.984375 159.097656 Z M 446.542969 178.789062 L 420.59375 178.789062 L 420.59375 159.097656 L 446.542969 159.097656 Z M 363.097656 159.097656 L 337.148438 159.097656 L 337.148438 178.789062 L 363.097656 178.789062 Z M 161.265625 493.851562 L 173.882812 9.167969 L 173.621094 9.167969 C 172.433594 9.167969 171.476562 8.210938 171.476562 7.027344 L 171.476562 2.148438 C 171.476562 0.960938 172.433594 0.00390625 173.621094 0.00390625 L 212.203125 0.00390625 C 213.390625 0.00390625 214.347656 0.960938 214.347656 2.148438 L 214.347656 7.027344 C 214.347656 8.195312 213.414062 9.140625 212.246094 9.167969 L 224.859375 493.851562 L 161.265625 493.851562 " fill-opacity="1" fill-rule="nonzero"/></g><path fill="#aad3ec" d="M 217.066406 194.261719 L 216.484375 171.878906 L 169.648438 171.878906 L 169.066406 194.261719 Z M 215.835938 146.9375 L 215.253906 124.546875 L 170.878906 124.546875 L 170.292969 146.9375 Z M 172.871094 47.953125 L 173.839844 10.839844 L 212.289062 10.839844 L 213.257812 47.953125 Z M 549.929688 193.199219 L 484.101562 193.199219 L 484.101562 452.355469 L 549.929688 452.355469 Z M 466.484375 193.199219 L 400.65625 193.199219 L 400.65625 452.355469 L 466.484375 452.355469 Z M 383.039062 452.355469 L 317.210938 452.355469 L 317.210938 193.199219 L 383.039062 193.199219 L 383.039062 452.355469 " fill-opacity="1" fill-rule="nonzero"/><path fill="#f98f46" d="M 549.929688 178.089844 L 484.101562 178.089844 L 484.101562 233.9375 L 549.929688 233.9375 Z M 466.484375 178.089844 L 400.65625 178.089844 L 400.65625 233.9375 L 466.484375 233.9375 Z M 383.039062 233.9375 L 317.210938 233.9375 L 317.210938 178.089844 L 383.039062 178.089844 Z M 648.710938 277.25 L 612.9375 277.25 L 612.9375 302.597656 L 648.710938 302.597656 Z M 638.378906 453.210938 L 638.378906 460.140625 L 622.632812 460.140625 L 622.632812 453.210938 L 602.625 410.59375 L 659.023438 410.59375 L 638.378906 453.210938 " fill-opacity="1" fill-rule="nonzero"/><g clip-path="url(#f621fd242f)"><path fill="#1a5b82" d="M 601 414.191406 L 626.601562 414.191406 L 626.601562 499.421875 L 601 499.421875 Z M 660.109375 499.421875 L 634.507812 499.421875 L 634.507812 414.191406 L 660.109375 414.191406 Z M 668.019531 499.421875 L 668.019531 414.191406 L 676.199219 414.191406 L 676.199219 300.875 L 585.449219 300.875 L 585.449219 414.191406 L 593.09375 414.191406 L 593.09375 499.421875 L 474.160156 499.421875 L 474.160156 577.25 L 463.375 583.257812 L 463.375 586.453125 L 434.367188 586.453125 L 351.617188 542.203125 L 241.207031 542.203125 L 241.207031 561.285156 L 306.5 561.285156 L 306.5 625.949219 L 310.890625 625.949219 L 310.890625 561.285156 L 323.921875 561.285156 L 323.921875 625.949219 L 328.308594 625.949219 L 328.308594 561.285156 L 351.617188 561.285156 L 404.335938 590.761719 L 404.335938 625.949219 L 408.71875 625.949219 L 408.71875 593.0625 L 421.753906 600.507812 L 421.753906 625.949219 L 426.507812 625.949219 L 426.507812 603.164062 L 474.160156 603.164062 L 474.160156 625.285156 L 705.082031 625.285156 L 705.082031 499.421875 L 668.019531 499.421875 " fill-opacity="1" fill-rule="nonzero"/></g><path fill="#6caacf" d="M 480.988281 562.289062 L 537.882812 562.289062 L 537.882812 548.714844 L 480.988281 548.714844 Z M 540.644531 562.289062 L 597.542969 562.289062 L 597.542969 548.714844 L 540.644531 548.714844 Z M 600.386719 548.714844 L 657.28125 548.714844 L 657.28125 562.289062 L 600.386719 562.289062 L 600.386719 548.714844 " fill-opacity="1" fill-rule="nonzero"/><path fill="#aad3ec" d="M 686.214844 501.308594 L 686.214844 472.488281 L 641.914062 472.488281 L 641.914062 499.589844 L 465.222656 499.589844 L 465.222656 535.515625 L 663.113281 535.515625 L 663.113281 625.285156 L 707.421875 625.285156 L 707.421875 501.308594 L 686.214844 501.308594 " fill-opacity="1" fill-rule="nonzero"/><path fill="#1a5b82" d="M 327.320312 490.832031 L 295.714844 490.832031 L 295.714844 475.359375 L 327.320312 475.359375 Z M 327.320312 510.824219 L 295.714844 510.824219 L 295.714844 495.355469 L 327.320312 495.355469 Z M 327.320312 530.820312 L 295.714844 530.820312 L 295.714844 515.34375 L 327.320312 515.34375 Z M 366.628906 490.832031 L 335.027344 490.832031 L 335.027344 475.359375 L 366.628906 475.359375 Z M 366.628906 510.824219 L 335.027344 510.824219 L 335.027344 495.355469 L 366.628906 495.355469 Z M 366.628906 530.820312 L 335.027344 530.820312 L 335.027344 515.34375 L 366.628906 515.34375 Z M 405.933594 490.832031 L 374.332031 490.832031 L 374.332031 475.359375 L 405.933594 475.359375 Z M 405.933594 510.824219 L 374.332031 510.824219 L 374.332031 495.355469 L 405.933594 495.355469 Z M 405.933594 530.820312 L 374.332031 530.820312 L 374.332031 515.34375 L 405.933594 515.34375 Z M 445.238281 490.832031 L 413.636719 490.832031 L 413.636719 475.359375 L 445.238281 475.359375 Z M 445.238281 510.824219 L 413.636719 510.824219 L 413.636719 495.355469 L 445.238281 495.355469 Z M 445.238281 515.34375 L 413.636719 515.34375 L 413.636719 530.820312 L 445.238281 530.820312 Z M 683.953125 570.257812 L 691.191406 570.257812 L 691.191406 550.199219 L 683.953125 550.199219 Z M 683.953125 521.722656 L 691.191406 521.722656 L 691.191406 541.78125 L 683.953125 541.78125 L 683.953125 521.722656 " fill-opacity="1" fill-rule="nonzero"/><g clip-path="url(#7741d7945a)"><path fill="#d2e3e8" d="M 258.414062 625.949219 L 108.628906 625.949219 L 108.628906 379.941406 L 258.414062 379.941406 L 258.414062 625.949219 " fill-opacity="1" fill-rule="nonzero"/></g><g clip-path="url(#a43b429397)"><path fill="#f98f46" d="M 183.035156 487.183594 L 173.71875 487.183594 L 173.71875 467.773438 L 183.035156 467.773438 Z M 197.769531 487.183594 L 188.449219 487.183594 L 188.449219 467.773438 L 197.769531 467.773438 Z M 212.5 487.183594 L 203.179688 487.183594 L 203.179688 467.773438 L 212.5 467.773438 Z M 227.230469 487.183594 L 217.910156 487.183594 L 217.910156 467.773438 L 227.230469 467.773438 Z M 183.035156 457.035156 L 173.71875 457.035156 L 173.71875 437.625 L 183.035156 437.625 Z M 197.769531 457.035156 L 188.449219 457.035156 L 188.449219 437.625 L 197.769531 437.625 Z M 212.5 457.035156 L 203.179688 457.035156 L 203.179688 437.625 L 212.5 437.625 Z M 227.230469 457.035156 L 217.910156 457.035156 L 217.910156 437.625 L 227.230469 437.625 Z M 183.035156 429.484375 L 173.71875 429.484375 L 173.71875 410.070312 L 183.035156 410.070312 Z M 197.769531 429.484375 L 188.449219 429.484375 L 188.449219 410.070312 L 197.769531 410.070312 Z M 212.5 429.484375 L 203.179688 429.484375 L 203.179688 410.070312 L 212.5 410.070312 Z M 227.230469 429.484375 L 217.910156 429.484375 L 217.910156 410.070312 L 227.230469 410.070312 Z M 258.414062 374.398438 L 108.628906 374.398438 L 108.628906 384.890625 L 258.414062 384.890625 Z M 657.28125 561.828125 L 600.386719 561.828125 L 614.554688 584.460938 L 643.117188 584.460938 Z M 597.542969 561.828125 L 540.644531 561.828125 L 554.816406 584.460938 L 583.378906 584.460938 Z M 461.527344 496.609375 L 461.527344 502.980469 L 711.613281 502.980469 L 711.613281 496.609375 Z M 537.882812 561.828125 L 480.988281 561.828125 L 495.152344 584.460938 L 523.71875 584.460938 Z M 687.175781 467.511719 L 640.953125 467.511719 L 640.953125 473.441406 L 687.175781 473.441406 Z M 478.40625 602.019531 L 663.113281 602.019531 L 663.113281 591.097656 L 478.40625 591.097656 L 478.40625 535.46875 L 469.914062 535.46875 L 469.914062 625.285156 L 707.421875 625.285156 L 707.421875 609.132812 L 478.40625 609.132812 Z M 569.109375 455.554688 L 258.414062 455.554688 L 258.414062 441.675781 L 569.109375 441.675781 Z M 678.679688 314.164062 L 582.960938 314.164062 L 582.960938 318.628906 L 678.679688 318.628906 Z M 678.679688 353.65625 L 582.960938 353.65625 L 582.960938 358.121094 L 678.679688 358.121094 Z M 678.679688 397.613281 L 582.960938 397.613281 L 582.960938 393.148438 L 678.679688 393.148438 L 678.679688 397.613281 " fill-opacity="1" fill-rule="nonzero"/></g><path fill="#d2e3e8" d="M 659.554688 566.484375 L 601 566.484375 L 601 607.875 L 659.554688 607.875 Z M 479.941406 607.875 L 538.496094 607.875 L 538.496094 566.484375 L 479.941406 566.484375 Z M 542.714844 566.484375 L 542.714844 607.875 L 596.78125 607.875 L 596.78125 566.484375 Z M 664.394531 562.515625 L 664.394531 611.640625 L 475.101562 611.640625 L 475.101562 562.515625 Z M 551.730469 196.175781 L 482.300781 196.175781 L 482.300781 200.785156 L 551.730469 200.785156 Z M 551.730469 231.328125 L 482.300781 231.328125 L 482.300781 235.941406 L 551.730469 235.941406 Z M 551.730469 266.488281 L 482.300781 266.488281 L 482.300781 271.101562 L 551.730469 271.101562 Z M 551.730469 371.960938 L 482.300781 371.960938 L 482.300781 376.574219 L 551.730469 376.574219 Z M 551.730469 336.808594 L 482.300781 336.808594 L 482.300781 341.414062 L 551.730469 341.414062 Z M 551.730469 301.648438 L 482.300781 301.648438 L 482.300781 306.253906 L 551.730469 306.253906 Z M 468.285156 196.175781 L 398.855469 196.175781 L 398.855469 200.785156 L 468.285156 200.785156 Z M 468.285156 231.328125 L 398.855469 231.328125 L 398.855469 235.941406 L 468.285156 235.941406 Z M 468.285156 266.488281 L 398.855469 266.488281 L 398.855469 271.101562 L 468.285156 271.101562 Z M 468.285156 371.960938 L 398.855469 371.960938 L 398.855469 376.574219 L 468.285156 376.574219 Z M 468.285156 336.808594 L 398.855469 336.808594 L 398.855469 341.414062 L 468.285156 341.414062 Z M 468.285156 301.648438 L 398.855469 301.648438 L 398.855469 306.253906 L 468.285156 306.253906 Z M 384.839844 196.175781 L 315.40625 196.175781 L 315.40625 200.785156 L 384.839844 200.785156 Z M 384.839844 231.328125 L 315.40625 231.328125 L 315.40625 235.941406 L 384.839844 235.941406 Z M 384.839844 266.488281 L 315.40625 266.488281 L 315.40625 271.101562 L 384.839844 271.101562 Z M 384.839844 371.960938 L 315.40625 371.960938 L 315.40625 376.574219 L 384.839844 376.574219 Z M 384.839844 336.808594 L 315.40625 336.808594 L 315.40625 341.414062 L 384.839844 341.414062 Z M 384.839844 306.253906 L 315.40625 306.253906 L 315.40625 301.648438 L 384.839844 301.648438 L 384.839844 306.253906 " fill-opacity="1" fill-rule="nonzero"/><path fill="#1a5b82" d="M 152.097656 590.253906 L 125.96875 590.253906 L 125.96875 602.953125 L 152.097656 602.953125 Z M 152.097656 569.308594 L 125.96875 569.308594 L 125.96875 582 L 152.097656 582 Z M 152.097656 548.355469 L 125.96875 548.355469 L 125.96875 561.050781 L 152.097656 561.050781 Z M 152.097656 540.101562 L 125.96875 540.101562 L 125.96875 527.402344 L 152.097656 527.402344 L 152.097656 540.101562 " fill-opacity="1" fill-rule="nonzero"/></svg>