<svg xmlns="http://www.w3.org/2000/svg" xmlns:xlink="http://www.w3.org/1999/xlink" width="1094" zoomAndPan="magnify" viewBox="0 0 820.5 627.000003" height="836" preserveAspectRatio="xMidYMid meet" version="1.0"><defs><clipPath id="064ee665ab"><path d="M 130.714844 292.582031 L 448 292.582031 L 448 626 L 130.714844 626 Z M 130.714844 292.582031 " clip-rule="nonzero"/></clipPath><clipPath id="094edbd850"><path d="M 184.695312 0 L 689.257812 0 L 689.257812 504.585938 L 184.695312 504.585938 Z M 184.695312 0 " clip-rule="nonzero"/></clipPath></defs><g clip-path="url(#064ee665ab)"><path fill="#2e3192" d="M 425.746094 494.042969 C 425.769531 493.953125 425.792969 493.863281 425.820312 493.773438 C 427.292969 488.238281 430.886719 483.613281 435.703125 480.832031 L 433.015625 474.085938 C 429.339844 464.871094 420.890625 458.363281 410.960938 457.109375 L 410.535156 457.054688 C 409.398438 456.90625 408.246094 456.832031 407.105469 456.824219 C 407.121094 457.6875 407.136719 458.558594 407.136719 459.425781 C 407.136719 520.089844 357.957031 569.273438 297.292969 569.273438 C 236.625 569.273438 187.449219 520.089844 187.449219 459.425781 C 187.449219 398.757812 236.625 349.582031 297.292969 349.582031 C 339.53125 349.582031 376.191406 373.421875 394.574219 408.378906 C 404.742188 411.171875 415.199219 412.984375 425.792969 413.730469 C 426.773438 410.140625 428.691406 406.816406 431.464844 404.140625 L 447.925781 388.226562 C 444.023438 379.984375 439.46875 372.113281 434.320312 364.683594 L 412.289062 370.96875 C 404.871094 373.085938 396.914062 370.964844 391.464844 365.503906 C 391.40625 365.445312 391.347656 365.382812 391.289062 365.324219 C 385.828125 359.875 383.710938 351.914062 385.835938 344.496094 L 392.140625 322.46875 C 384.710938 317.316406 376.84375 312.753906 368.605469 308.847656 L 352.683594 325.296875 C 347.3125 330.839844 339.363281 332.976562 331.910156 330.96875 C 331.820312 330.945312 331.730469 330.925781 331.640625 330.898438 C 324.183594 328.910156 318.371094 323.074219 316.5 315.585938 L 310.957031 293.40625 C 306.449219 293.039062 301.894531 292.847656 297.292969 292.847656 C 292.734375 292.847656 288.222656 293.035156 283.757812 293.390625 L 278.195312 315.570312 C 276.320312 323.054688 270.5 328.890625 263.042969 330.871094 C 262.953125 330.898438 262.863281 330.921875 262.773438 330.945312 C 255.320312 332.941406 247.371094 330.800781 242.007812 325.253906 L 226.09375 308.789062 C 217.855469 312.695312 209.980469 317.25 202.550781 322.394531 L 208.839844 344.429688 C 210.953125 351.847656 208.832031 359.804688 203.367188 365.253906 C 203.3125 365.3125 203.253906 365.371094 203.195312 365.429688 C 197.738281 370.886719 189.78125 373.003906 182.363281 370.882812 L 160.335938 364.578125 C 155.183594 372.003906 150.621094 379.871094 146.710938 388.109375 L 163.164062 404.035156 C 168.707031 409.402344 170.84375 417.355469 168.835938 424.808594 C 168.816406 424.894531 168.792969 424.988281 168.765625 425.078125 C 166.777344 432.53125 160.941406 438.34375 153.453125 440.21875 L 131.269531 445.761719 C 130.90625 450.265625 130.714844 454.824219 130.714844 459.425781 C 130.714844 463.984375 130.902344 468.496094 131.257812 472.960938 L 153.4375 478.519531 C 160.921875 480.398438 166.757812 486.214844 168.738281 493.675781 C 168.765625 493.765625 168.789062 493.851562 168.8125 493.945312 C 170.8125 501.398438 168.667969 509.347656 163.121094 514.710938 L 146.65625 530.625 C 150.558594 538.867188 155.117188 546.738281 160.261719 554.167969 L 182.296875 547.878906 C 189.714844 545.761719 197.671875 547.886719 203.121094 553.351562 C 203.179688 553.40625 203.238281 553.464844 203.296875 553.523438 C 208.753906 558.976562 210.871094 566.933594 208.75 574.351562 L 202.445312 596.378906 C 209.871094 601.53125 217.742188 606.09375 225.976562 610.003906 L 241.902344 593.554688 C 247.269531 588.011719 255.222656 585.875 262.675781 587.878906 C 262.765625 587.902344 262.855469 587.925781 262.941406 587.949219 C 270.398438 589.9375 276.214844 595.773438 278.085938 603.261719 L 283.628906 625.445312 C 288.136719 625.8125 292.691406 626 297.292969 626 C 301.851562 626 306.363281 625.816406 310.828125 625.457031 L 316.390625 603.277344 C 318.265625 595.792969 324.082031 589.960938 331.542969 587.976562 C 331.628906 587.953125 331.722656 587.925781 331.8125 587.90625 C 339.265625 585.90625 347.214844 588.050781 352.578125 593.597656 L 368.492188 610.058594 C 376.730469 606.15625 384.605469 601.601562 392.03125 596.453125 L 385.746094 574.421875 C 383.628906 567 385.753906 559.046875 391.21875 553.597656 C 391.273438 553.535156 391.332031 553.480469 391.390625 553.421875 C 396.84375 547.960938 404.804688 545.84375 412.21875 547.96875 L 434.246094 554.273438 C 439.402344 546.84375 443.960938 538.980469 447.871094 530.738281 L 431.421875 514.8125 C 425.875 509.445312 423.742188 501.496094 425.746094 494.042969 " fill-opacity="1" fill-rule="nonzero"/></g><g clip-path="url(#094edbd850)"><path fill="#ff914d" d="M 637.101562 278.160156 C 637.121094 278.019531 637.140625 277.878906 637.15625 277.738281 C 638.628906 266.128906 646.21875 256.203125 657.089844 251.867188 L 689.296875 239.023438 C 688.929688 232.179688 688.289062 225.292969 687.351562 218.378906 C 686.425781 211.53125 685.226562 204.785156 683.777344 198.148438 L 649.316406 194.304688 C 637.6875 193.007812 627.738281 185.453125 623.242188 174.648438 C 623.1875 174.515625 623.132812 174.386719 623.078125 174.253906 C 618.558594 163.460938 620.160156 151.078125 627.40625 141.890625 L 648.90625 114.625 C 641.367188 103.039062 632.917969 92.136719 623.675781 82.015625 L 591.84375 95.945312 C 581.125 100.636719 568.738281 99.066406 559.4375 91.964844 C 559.335938 91.886719 559.238281 91.8125 559.136719 91.738281 C 549.824219 84.652344 545.023438 73.125 546.703125 61.546875 L 551.695312 27.160156 C 539.488281 20.925781 526.738281 15.671875 513.5625 11.476562 L 492.976562 39.433594 C 486.039062 48.859375 474.523438 53.683594 462.917969 52.191406 C 462.777344 52.171875 462.636719 52.15625 462.496094 52.136719 C 450.886719 50.667969 440.964844 43.074219 436.628906 32.207031 L 423.785156 -0.00390625 C 416.9375 0.363281 410.054688 1.003906 403.136719 1.941406 C 396.289062 2.871094 389.542969 4.066406 382.90625 5.515625 L 379.0625 39.972656 C 377.765625 51.605469 370.210938 61.554688 359.40625 66.054688 C 359.273438 66.109375 359.144531 66.160156 359.015625 66.214844 C 348.222656 70.730469 335.839844 69.128906 326.648438 61.882812 L 299.382812 40.382812 C 287.796875 47.925781 276.894531 56.371094 266.773438 65.617188 L 280.703125 97.449219 C 285.394531 108.167969 283.824219 120.558594 276.722656 129.855469 C 276.644531 129.957031 276.574219 130.054688 276.496094 130.15625 C 269.414062 139.46875 257.882812 144.269531 246.304688 142.585938 L 211.917969 137.597656 C 205.683594 149.804688 200.433594 162.558594 196.234375 175.730469 L 224.195312 196.320312 C 233.617188 203.257812 238.445312 214.769531 236.949219 226.375 C 236.929688 226.515625 236.914062 226.65625 236.894531 226.796875 C 235.425781 238.40625 227.835938 248.332031 216.964844 252.667969 L 184.753906 265.507812 C 185.121094 272.355469 185.765625 279.242188 186.703125 286.15625 C 187.628906 293.003906 188.824219 299.75 190.273438 306.386719 L 224.734375 310.230469 C 226.8125 310.460938 228.839844 310.898438 230.792969 311.515625 C 231.261719 310.472656 231.828125 309.488281 232.511719 308.601562 L 239.429688 315.757812 C 242.503906 317.898438 245.199219 320.574219 247.382812 323.671875 C 250.195312 325.761719 253.65625 326.929688 257.214844 326.929688 C 258.671875 326.929688 260.128906 326.738281 261.542969 326.359375 L 261.832031 326.28125 C 267.632812 324.742188 272.144531 320.195312 273.59375 314.417969 L 277.300781 299.625 C 274.917969 291.558594 273.121094 283.207031 271.953125 274.613281 C 259.613281 183.449219 323.515625 99.535156 414.679688 87.195312 C 505.847656 74.855469 589.753906 138.753906 602.097656 229.921875 C 614.441406 321.085938 550.539062 404.996094 459.371094 417.339844 C 398.355469 425.597656 340.59375 399.703125 305.359375 354.34375 L 301.917969 354.34375 C 301.917969 354.371094 301.917969 354.402344 301.917969 354.433594 C 300.859375 354.386719 299.792969 354.359375 298.730469 354.34375 L 295.394531 354.34375 C 274.789062 354.710938 255.613281 361.046875 239.519531 371.679688 L 225.144531 389.90625 C 232.683594 401.496094 241.132812 412.398438 250.378906 422.519531 L 282.207031 408.585938 C 292.925781 403.894531 305.316406 405.46875 314.613281 412.570312 C 314.714844 412.644531 314.8125 412.722656 314.914062 412.796875 C 324.230469 419.882812 329.03125 431.410156 327.347656 442.988281 L 322.355469 477.375 C 334.5625 483.609375 347.316406 488.863281 360.488281 493.0625 L 381.078125 465.097656 C 388.015625 455.679688 399.527344 450.851562 411.136719 452.34375 C 411.277344 452.363281 411.417969 452.382812 411.558594 452.398438 C 423.167969 453.867188 433.089844 461.460938 437.425781 472.328125 L 450.265625 504.539062 C 457.113281 504.171875 464 503.53125 470.914062 502.59375 C 477.761719 501.667969 484.507812 500.46875 491.144531 499.019531 L 494.988281 464.558594 C 496.289062 452.929688 503.839844 442.976562 514.648438 438.484375 C 514.777344 438.425781 514.90625 438.371094 515.039062 438.316406 C 525.832031 433.800781 538.214844 435.402344 547.402344 442.648438 L 574.667969 464.148438 C 586.253906 456.609375 597.160156 448.160156 607.277344 438.914062 L 593.347656 407.082031 C 588.65625 396.367188 590.226562 383.976562 597.332031 374.675781 C 597.40625 374.578125 597.480469 374.476562 597.554688 374.378906 C 604.640625 365.066406 616.167969 360.265625 627.75 361.945312 L 662.132812 366.9375 C 668.367188 354.726562 673.621094 341.976562 677.820312 328.804688 L 649.859375 308.214844 C 640.4375 301.28125 635.609375 289.761719 637.101562 278.160156 " fill-opacity="1" fill-rule="nonzero"/></g></svg>