<svg xmlns="http://www.w3.org/2000/svg" xmlns:xlink="http://www.w3.org/1999/xlink" width="1094" zoomAndPan="magnify" viewBox="0 0 820.5 627.000003" height="836" preserveAspectRatio="xMidYMid meet" version="1.0"><defs><clipPath id="6e57ef668f"><path d="M 760 249.070312 L 818.90625 249.070312 L 818.90625 387.835938 L 760 387.835938 Z M 760 249.070312 " clip-rule="nonzero"/></clipPath><clipPath id="f2ff42ed1c"><path d="M 1.054688 605 L 807 605 L 807 616.214844 L 1.054688 616.214844 Z M 1.054688 605 " clip-rule="nonzero"/></clipPath></defs><path fill="#f4f4f4" d="M 298.597656 444.105469 C 326.515625 427.46875 350.496094 400.617188 368.132812 366.972656 C 401.785156 349.347656 428.644531 325.367188 445.289062 297.464844 C 423.578125 367.238281 368.398438 422.402344 298.597656 444.105469 Z M 19.867188 297.464844 C 36.507812 325.367188 63.375 349.347656 97.019531 366.972656 C 114.65625 400.617188 138.636719 427.46875 166.546875 444.105469 C 96.757812 422.410156 41.574219 367.238281 19.867188 297.464844 Z M 166.554688 18.804688 C 138.636719 35.449219 114.65625 62.300781 97.019531 95.945312 C 63.375 113.574219 36.507812 137.550781 19.867188 165.453125 C 41.574219 95.679688 96.761719 40.507812 166.554688 18.804688 Z M 397.496094 270.632812 C 399.074219 257.886719 399.941406 244.816406 399.941406 231.457031 C 399.941406 218.101562 399.074219 205.03125 397.496094 192.285156 C 434.253906 203.355469 455.285156 217.644531 455.285156 231.457031 C 455.285156 245.28125 434.253906 259.5625 397.496094 270.632812 Z M 396.230469 279.902344 C 421.597656 272.675781 441.664062 263.578125 453.203125 252.808594 C 445.550781 293.050781 416.65625 328.550781 374.773438 353.339844 C 384.789062 331.085938 392.144531 306.332031 396.230469 279.902344 Z M 283.546875 385.722656 C 290.179688 359.703125 294.988281 329.007812 297.757812 296.625 C 330.15625 293.859375 360.855469 289.050781 386.886719 282.417969 C 382.113281 310.945312 373.421875 337.355469 361.65625 360.503906 C 338.507812 372.261719 312.082031 380.949219 283.546875 385.722656 Z M 281.039062 395.0625 C 307.46875 390.976562 332.230469 383.625 354.496094 373.609375 C 329.699219 415.480469 294.183594 444.375 253.933594 452.019531 C 264.703125 440.484375 273.808594 420.429688 281.039062 395.0625 Z M 193.386719 396.335938 C 206.136719 397.914062 219.21875 398.78125 232.574219 398.78125 C 245.933594 398.78125 259.015625 397.914062 271.757812 396.335938 C 260.691406 433.078125 246.398438 454.097656 232.574219 454.097656 C 218.753906 454.097656 204.460938 433.078125 193.386719 396.335938 Z M 184.113281 395.0625 C 191.34375 420.429688 200.449219 440.484375 211.21875 452.019531 C 170.96875 444.375 135.460938 415.480469 110.660156 373.617188 C 132.925781 383.625 157.683594 390.976562 184.113281 395.0625 Z M 78.273438 282.417969 C 104.296875 289.050781 134.996094 293.859375 167.398438 296.625 C 170.164062 329.007812 174.964844 359.703125 181.597656 385.722656 C 153.070312 380.949219 126.648438 372.261719 103.5 360.503906 C 91.730469 337.355469 83.046875 310.945312 78.273438 282.417969 Z M 68.929688 279.910156 C 73.011719 306.332031 80.371094 331.085938 90.382812 353.339844 C 48.5 328.550781 19.601562 293.050781 11.957031 252.808594 C 23.488281 263.578125 43.554688 272.683594 68.929688 279.910156 Z M 67.65625 192.285156 C 66.078125 205.03125 65.210938 218.101562 65.210938 231.457031 C 65.210938 244.816406 66.078125 257.886719 67.65625 270.632812 C 30.898438 259.5625 9.875 245.28125 9.875 231.457031 C 9.875 217.644531 30.898438 203.355469 67.65625 192.285156 Z M 68.929688 183.015625 C 43.554688 190.242188 23.488281 199.34375 11.957031 210.109375 C 19.601562 169.867188 48.5 134.367188 90.382812 109.578125 C 80.371094 131.832031 73.011719 156.59375 68.929688 183.015625 Z M 181.597656 77.195312 C 174.964844 103.21875 170.164062 133.910156 167.398438 166.292969 C 134.996094 169.058594 104.296875 173.867188 78.265625 180.5 C 83.046875 151.976562 91.730469 125.5625 103.5 102.421875 C 126.648438 90.65625 153.070312 81.96875 181.597656 77.195312 Z M 184.113281 67.855469 C 157.683594 71.941406 132.917969 79.292969 110.660156 89.308594 C 135.453125 47.4375 170.96875 18.542969 211.21875 10.898438 C 200.449219 22.425781 191.34375 42.488281 184.113281 67.855469 Z M 271.757812 66.589844 C 259.015625 65.003906 245.933594 64.144531 232.574219 64.144531 C 219.21875 64.144531 206.136719 65.003906 193.386719 66.589844 C 204.460938 29.839844 218.753906 8.820312 232.574219 8.820312 C 246.398438 8.820312 260.691406 29.839844 271.757812 66.589844 Z M 281.039062 67.855469 C 273.808594 42.488281 264.703125 22.425781 253.933594 10.898438 C 294.183594 18.542969 329.699219 47.4375 354.496094 89.308594 C 332.234375 79.292969 307.46875 71.941406 281.039062 67.855469 Z M 176.113281 165.613281 C 179.046875 130.566406 184.21875 100.210938 190.765625 75.796875 C 204.316406 73.957031 218.28125 72.957031 232.574219 72.957031 C 246.871094 72.957031 260.835938 73.957031 274.386719 75.796875 C 280.933594 100.210938 286.105469 130.566406 289.03125 165.613281 C 270.480469 164.242188 251.472656 163.527344 232.574219 163.527344 C 213.671875 163.527344 194.675781 164.242188 176.113281 165.613281 Z M 74.03125 231.457031 C 74.03125 217.171875 75.03125 203.210938 76.867188 189.664062 C 101.296875 183.117188 131.652344 177.949219 166.707031 175.015625 C 165.347656 193.570312 164.628906 212.5625 164.628906 231.457031 C 164.628906 250.355469 165.347656 269.347656 166.707031 287.902344 C 131.652344 284.976562 101.296875 279.800781 76.867188 273.261719 C 75.03125 259.707031 74.03125 245.746094 74.03125 231.457031 Z M 289.03125 297.3125 C 286.105469 332.351562 280.925781 362.707031 274.386719 387.121094 C 260.832031 388.960938 246.871094 389.960938 232.574219 389.960938 C 218.28125 389.960938 204.316406 388.960938 190.765625 387.121094 C 184.21875 362.707031 179.046875 332.351562 176.113281 297.3125 C 194.675781 298.675781 213.671875 299.390625 232.574219 299.390625 C 251.472656 299.390625 270.472656 298.675781 289.03125 297.3125 Z M 232.574219 290.570312 C 212.476562 290.570312 193.386719 289.867188 175.433594 288.582031 C 174.152344 270.632812 173.445312 251.554688 173.445312 231.457031 C 173.445312 211.359375 174.152344 192.277344 175.433594 174.335938 C 193.386719 173.054688 212.476562 172.347656 232.574219 172.347656 C 252.675781 172.347656 271.765625 173.054688 289.722656 174.335938 C 291 192.277344 291.710938 211.359375 291.710938 231.457031 C 291.710938 251.554688 291 270.632812 289.722656 288.582031 C 271.765625 289.867188 252.675781 290.570312 232.574219 290.570312 Z M 391.128906 231.457031 C 391.128906 245.746094 390.128906 259.707031 388.285156 273.261719 C 363.859375 279.800781 333.5 284.976562 298.445312 287.902344 C 299.808594 269.347656 300.523438 250.355469 300.523438 231.457031 C 300.523438 212.5625 299.808594 193.570312 298.445312 175.015625 C 333.5 177.949219 363.859375 183.117188 388.285156 189.664062 C 390.128906 203.210938 391.128906 217.171875 391.128906 231.457031 Z M 374.773438 109.578125 C 416.65625 134.367188 445.550781 169.867188 453.203125 210.109375 C 441.664062 199.34375 421.597656 190.242188 396.230469 183.015625 C 392.144531 156.59375 384.789062 131.832031 374.773438 109.578125 Z M 386.886719 180.5 C 360.855469 173.867188 330.15625 169.058594 297.757812 166.292969 C 294.988281 133.910156 290.179688 103.21875 283.546875 77.195312 C 312.082031 81.96875 338.507812 90.65625 361.65625 102.421875 C 373.421875 125.5625 382.113281 151.976562 386.886719 180.5 Z M 445.289062 165.460938 C 428.644531 137.550781 401.785156 113.574219 368.132812 95.945312 C 350.496094 62.300781 326.515625 35.449219 298.597656 18.804688 C 368.398438 40.507812 423.578125 95.679688 445.289062 165.460938 Z M 232.574219 0 C 104.917969 0 1.054688 103.832031 1.054688 231.457031 C 1.054688 359.085938 104.917969 462.910156 232.574219 462.910156 C 360.238281 462.910156 464.097656 359.085938 464.097656 231.457031 C 464.097656 103.832031 360.238281 0 232.574219 0 " fill-opacity="1" fill-rule="nonzero"/><path fill="#9dc7f9" d="M 669.574219 465.703125 L 241.027344 465.703125 C 236.367188 465.703125 232.601562 461.929688 232.601562 457.28125 L 232.601562 156.648438 C 232.601562 151.992188 236.367188 148.226562 241.027344 148.226562 L 669.574219 148.226562 C 674.226562 148.226562 678 151.992188 678 156.648438 L 678 457.28125 C 678 461.929688 674.226562 465.703125 669.574219 465.703125 " fill-opacity="1" fill-rule="nonzero"/><path fill="#9dc7f9" d="M 669.570312 148.226562 L 240.691406 148.226562 C 236.035156 148.226562 232.261719 151.921875 232.261719 156.480469 L 232.261719 178.796875 L 678 178.796875 L 678 156.480469 C 678 151.921875 674.226562 148.226562 669.570312 148.226562 " fill-opacity="1" fill-rule="nonzero"/><path fill="#ffffff" d="M 255.820312 163.714844 C 255.820312 167.792969 252.515625 171.097656 248.4375 171.097656 C 244.363281 171.097656 241.0625 167.792969 241.0625 163.714844 C 241.0625 159.644531 244.363281 156.34375 248.4375 156.34375 C 252.515625 156.34375 255.820312 159.644531 255.820312 163.714844 " fill-opacity="1" fill-rule="nonzero"/><path fill="#ffcc4d" d="M 278.4375 163.714844 C 278.4375 167.792969 275.136719 171.097656 271.0625 171.097656 C 266.984375 171.097656 263.679688 167.792969 263.679688 163.714844 C 263.679688 159.644531 266.984375 156.34375 271.0625 156.34375 C 275.136719 156.34375 278.4375 159.644531 278.4375 163.714844 " fill-opacity="1" fill-rule="nonzero"/><path fill="#f54553" d="M 301.644531 163.714844 C 301.644531 167.792969 298.339844 171.097656 294.265625 171.097656 C 290.195312 171.097656 286.886719 167.792969 286.886719 163.714844 C 286.886719 159.644531 290.195312 156.34375 294.265625 156.34375 C 298.339844 156.34375 301.644531 159.644531 301.644531 163.714844 " fill-opacity="1" fill-rule="nonzero"/><path fill="#254799" d="M 678 241.929688 L 232.601562 241.929688 L 232.601562 178.796875 L 678 178.796875 L 678 241.929688 " fill-opacity="1" fill-rule="nonzero"/><path fill="#ffcc4d" d="M 543.554688 221.421875 L 367.050781 221.421875 C 364.53125 221.421875 362.488281 219.378906 362.488281 216.863281 L 362.488281 203.863281 C 362.488281 201.347656 364.53125 199.304688 367.050781 199.304688 L 543.554688 199.304688 C 546.070312 199.304688 548.105469 201.347656 548.105469 203.863281 L 548.105469 216.863281 C 548.105469 219.378906 546.070312 221.421875 543.554688 221.421875 " fill-opacity="1" fill-rule="nonzero"/><path fill="#346ee3" d="M 513.53125 279.652344 L 397.066406 279.652344 C 394.546875 279.652344 392.503906 277.617188 392.503906 275.09375 L 392.503906 262.09375 C 392.503906 259.578125 394.546875 257.53125 397.066406 257.53125 L 513.53125 257.53125 C 516.046875 257.53125 518.089844 259.578125 518.089844 262.09375 L 518.089844 275.09375 C 518.089844 277.617188 516.046875 279.652344 513.53125 279.652344 " fill-opacity="1" fill-rule="nonzero"/><path fill="#346ee3" d="M 659.765625 311.808594 L 543.175781 311.808594 C 540.6875 311.808594 538.679688 309.792969 538.679688 307.3125 L 538.679688 295.699219 C 538.679688 293.21875 540.6875 291.203125 543.175781 291.203125 L 659.765625 291.203125 C 662.25 291.203125 664.265625 293.21875 664.265625 295.699219 L 664.265625 307.3125 C 664.265625 309.792969 662.25 311.808594 659.765625 311.808594 " fill-opacity="1" fill-rule="nonzero"/><path fill="#346ee3" d="M 514.292969 406.328125 L 396.300781 406.328125 C 394.207031 406.328125 392.503906 404.625 392.503906 402.535156 L 392.503906 399.058594 C 392.503906 396.96875 394.207031 395.265625 396.300781 395.265625 L 514.292969 395.265625 C 516.394531 395.265625 518.089844 396.96875 518.089844 399.058594 L 518.089844 402.535156 C 518.089844 404.625 516.394531 406.328125 514.292969 406.328125 " fill-opacity="1" fill-rule="nonzero"/><path fill="#ffffff" d="M 513.398438 454.890625 L 397.195312 454.890625 C 394.605469 454.890625 392.503906 452.792969 392.503906 450.199219 L 392.503906 418.707031 C 392.503906 416.121094 394.605469 414.019531 397.195312 414.019531 L 513.398438 414.019531 C 515.992188 414.019531 518.089844 416.121094 518.089844 418.707031 L 518.089844 450.199219 C 518.089844 452.792969 515.992188 454.890625 513.398438 454.890625 " fill-opacity="1" fill-rule="nonzero"/><path fill="#ffffff" d="M 357.804688 380.121094 L 251.023438 380.121094 C 248.4375 380.121094 246.335938 378.023438 246.335938 375.4375 L 246.335938 295.894531 C 246.335938 293.300781 248.4375 291.203125 251.023438 291.203125 L 357.804688 291.203125 C 360.390625 291.203125 362.488281 293.300781 362.488281 295.894531 L 362.488281 375.4375 C 362.488281 378.023438 360.390625 380.121094 357.804688 380.121094 " fill-opacity="1" fill-rule="nonzero"/><path fill="#ffffff" d="M 357.804688 454.890625 L 251.023438 454.890625 C 248.4375 454.890625 246.335938 452.792969 246.335938 450.199219 L 246.335938 399.957031 C 246.335938 397.363281 248.4375 395.265625 251.023438 395.265625 L 357.804688 395.265625 C 360.390625 395.265625 362.488281 397.363281 362.488281 399.957031 L 362.488281 450.199219 C 362.488281 452.792969 360.390625 454.890625 357.804688 454.890625 " fill-opacity="1" fill-rule="nonzero"/><path fill="#ffffff" d="M 659.574219 454.890625 L 543.363281 454.890625 C 540.777344 454.890625 538.679688 452.792969 538.679688 450.199219 L 538.679688 399.957031 C 538.679688 397.363281 540.777344 395.265625 543.363281 395.265625 L 659.574219 395.265625 C 662.164062 395.265625 664.265625 397.363281 664.265625 399.957031 L 664.265625 450.199219 C 664.265625 452.792969 662.164062 454.890625 659.574219 454.890625 " fill-opacity="1" fill-rule="nonzero"/><path fill="#ffffff" d="M 513.398438 380.121094 L 397.195312 380.121094 C 394.605469 380.121094 392.503906 378.023438 392.503906 375.4375 L 392.503906 295.894531 C 392.503906 293.300781 394.605469 291.203125 397.195312 291.203125 L 513.398438 291.203125 C 515.992188 291.203125 518.089844 293.300781 518.089844 295.894531 L 518.089844 375.4375 C 518.089844 378.023438 515.992188 380.121094 513.398438 380.121094 " fill-opacity="1" fill-rule="nonzero"/><path fill="#346ee3" d="M 392.503906 341.808594 L 427.582031 317.507812 L 466.316406 346.742188 L 493.160156 332.121094 L 518.089844 346.742188 L 518.089844 375.4375 C 518.089844 378.023438 515.992188 380.121094 513.398438 380.121094 L 397.195312 380.121094 C 394.605469 380.121094 392.503906 378.023438 392.503906 375.4375 L 392.503906 341.808594 " fill-opacity="1" fill-rule="nonzero"/><path fill="#346ee3" d="M 476.199219 323.644531 C 476.199219 327.617188 472.976562 330.84375 469 330.84375 C 465.023438 330.84375 461.796875 327.617188 461.796875 323.644531 C 461.796875 319.667969 465.023438 316.445312 469 316.445312 C 472.976562 316.445312 476.199219 319.667969 476.199219 323.644531 " fill-opacity="1" fill-rule="nonzero"/><path fill="#ffffff" d="M 638.042969 380.121094 L 564.902344 380.121094 C 562.503906 380.121094 560.5625 378.183594 560.5625 375.792969 L 560.5625 327.972656 C 560.5625 325.582031 562.503906 323.644531 564.902344 323.644531 L 638.042969 323.644531 C 640.433594 323.644531 642.382812 325.582031 642.382812 327.972656 L 642.382812 375.792969 C 642.382812 378.183594 640.433594 380.121094 638.042969 380.121094 " fill-opacity="1" fill-rule="nonzero"/><path fill="#346ee3" d="M 592.253906 351.78125 L 602.953125 353.375 L 601.4375 361.457031 L 591.171875 357.542969 Z M 581.5 350.191406 L 589.535156 351.386719 L 588.570312 356.550781 L 581.5 353.851562 Z M 594.117188 341.84375 L 605.113281 341.84375 L 603.460938 350.683594 L 592.753906 349.09375 Z M 590.042969 348.6875 L 581.5 347.417969 L 581.5 341.84375 L 591.332031 341.84375 Z M 612.113281 365.527344 L 604.039062 362.449219 L 605.664062 353.777344 L 614.546875 355.097656 Z M 615.171875 352.421875 L 606.171875 351.085938 L 607.902344 341.84375 L 617.640625 341.84375 Z M 627.054688 327.925781 C 625.621094 327.925781 624.472656 329.058594 624.417969 330.476562 L 619.683594 333.101562 L 618.289062 339.105469 L 580.132812 339.105469 C 579.375 339.105469 578.761719 339.71875 578.761719 340.476562 L 578.761719 354.796875 C 578.761719 354.804688 578.761719 354.8125 578.761719 354.820312 C 578.769531 354.929688 578.804688 355.035156 578.832031 355.136719 C 578.84375 355.207031 578.84375 355.277344 578.875 355.347656 C 578.90625 355.421875 578.96875 355.484375 579.019531 355.554688 C 579.066406 355.632812 579.109375 355.707031 579.171875 355.777344 C 579.214844 355.820312 579.277344 355.839844 579.316406 355.875 C 579.414062 355.945312 579.511719 356.019531 579.625 356.0625 C 579.628906 356.070312 579.636719 356.078125 579.644531 356.078125 L 608.394531 367.042969 L 577.90625 366.902344 C 577.148438 366.902344 576.539062 367.515625 576.539062 368.273438 C 576.539062 369.03125 577.148438 369.640625 577.90625 369.640625 L 580.734375 369.640625 C 580.179688 370.300781 579.804688 371.128906 579.804688 372.058594 C 579.804688 374.144531 581.5 375.839844 583.59375 375.839844 C 585.679688 375.839844 587.375 374.144531 587.375 372.058594 C 587.375 371.128906 587 370.300781 586.441406 369.640625 L 603.410156 369.640625 C 602.855469 370.300781 602.480469 371.128906 602.480469 372.058594 C 602.480469 374.144531 604.175781 375.839844 606.269531 375.839844 C 608.355469 375.839844 610.050781 374.144531 610.050781 372.058594 C 610.050781 371.128906 609.675781 370.300781 609.117188 369.640625 L 611.949219 369.640625 C 613.054688 369.640625 613.992188 368.925781 614.332031 367.90625 C 614.347656 367.882812 614.367188 367.875 614.375 367.855469 C 614.382812 367.828125 614.382812 367.800781 614.386719 367.78125 C 614.394531 367.738281 614.421875 367.710938 614.429688 367.675781 L 622.078125 334.910156 L 625.765625 332.859375 C 626.15625 333.082031 626.582031 333.234375 627.054688 333.234375 C 628.519531 333.234375 629.710938 332.046875 629.710938 330.578125 C 629.710938 329.113281 628.519531 327.925781 627.054688 327.925781 " fill-opacity="1" fill-rule="nonzero"/><path fill="#254799" d="M 776.605469 460.199219 L 776.632812 460.199219 Z M 759.554688 477.304688 Z M 612.886719 580.890625 C 612.886719 579.613281 613.921875 578.578125 615.203125 578.578125 L 731.324219 578.578125 L 755.035156 476.265625 C 755.210938 475.515625 755.585938 474.828125 756.140625 474.265625 L 773.714844 456.773438 C 774.492188 455.996094 775.53125 455.566406 776.632812 455.566406 L 787.007812 455.566406 C 788.277344 455.566406 789.320312 456.609375 789.320312 457.886719 C 789.320312 459.164062 788.277344 460.199219 787.007812 460.199219 L 776.84375 460.199219 L 759.519531 477.433594 L 735.746094 580.015625 C 735.308594 581.898438 733.652344 583.207031 731.722656 583.207031 L 615.203125 583.207031 C 613.921875 583.207031 612.886719 582.171875 612.886719 580.890625 " fill-opacity="1" fill-rule="nonzero"/><path fill="#254799" d="M 590.230469 478.21875 L 757.78125 478.21875 C 759.0625 478.21875 760.097656 477.179688 760.097656 475.90625 C 760.097656 474.621094 759.0625 473.585938 757.78125 473.585938 L 590.230469 473.585938 C 588.953125 473.585938 587.917969 474.621094 587.917969 475.90625 C 587.917969 477.179688 588.953125 478.21875 590.230469 478.21875 " fill-opacity="1" fill-rule="nonzero"/><path fill="#254799" d="M 601.027344 508.539062 L 750.46875 508.539062 C 751.75 508.539062 752.785156 507.503906 752.785156 506.226562 C 752.785156 504.949219 751.75 503.90625 750.46875 503.90625 L 601.027344 503.90625 C 599.75 503.90625 598.710938 504.949219 598.710938 506.226562 C 598.710938 507.503906 599.75 508.539062 601.027344 508.539062 " fill-opacity="1" fill-rule="nonzero"/><path fill="#254799" d="M 605.308594 536.761719 L 743.929688 536.761719 C 745.207031 536.761719 746.242188 535.71875 746.242188 534.441406 C 746.242188 533.164062 745.207031 532.128906 743.929688 532.128906 L 605.308594 532.128906 C 604.03125 532.128906 602.996094 533.164062 602.996094 534.441406 C 602.996094 535.71875 604.03125 536.761719 605.308594 536.761719 " fill-opacity="1" fill-rule="nonzero"/><path fill="#254799" d="M 610.570312 564.671875 C 610.828125 564.671875 611.09375 564.628906 611.351562 564.539062 C 612.554688 564.109375 613.179688 562.789062 612.753906 561.578125 L 592.414062 475.128906 C 591.984375 473.917969 590.664062 473.277344 589.453125 473.722656 C 588.25 474.148438 587.617188 475.476562 588.050781 476.675781 L 608.390625 563.128906 C 608.722656 564.082031 609.621094 564.671875 610.570312 564.671875 " fill-opacity="1" fill-rule="nonzero"/><path fill="#254799" d="M 610.695312 564.984375 L 737.386719 564.984375 C 738.664062 564.984375 739.703125 563.941406 739.703125 562.664062 C 739.703125 561.390625 738.664062 560.347656 737.386719 560.347656 L 610.695312 560.347656 C 609.417969 560.347656 608.382812 561.390625 608.382812 562.664062 C 608.382812 563.941406 609.417969 564.984375 610.695312 564.984375 " fill-opacity="1" fill-rule="nonzero"/><path fill="#254799" d="M 699.320312 564.984375 C 700.398438 564.984375 701.359375 564.226562 701.585938 563.136719 L 719.617188 476.371094 C 719.882812 475.121094 719.078125 473.898438 717.824219 473.632812 C 716.582031 473.375 715.351562 474.183594 715.085938 475.433594 L 697.054688 562.199219 C 696.796875 563.449219 697.597656 564.671875 698.847656 564.9375 C 699.007812 564.964844 699.167969 564.984375 699.320312 564.984375 " fill-opacity="1" fill-rule="nonzero"/><path fill="#254799" d="M 649.105469 564.984375 C 649.25 564.984375 649.386719 564.96875 649.535156 564.941406 C 650.792969 564.707031 651.621094 563.496094 651.382812 562.238281 L 635.171875 475.476562 C 634.9375 474.21875 633.71875 473.390625 632.46875 473.625 C 631.21875 473.863281 630.382812 475.066406 630.621094 476.324219 L 646.832031 563.09375 C 647.046875 564.207031 648.011719 564.984375 649.105469 564.984375 " fill-opacity="1" fill-rule="nonzero"/><path fill="#254799" d="M 708.265625 597.632812 C 708.265625 600.574219 710.660156 602.96875 713.605469 602.96875 C 716.554688 602.96875 718.945312 600.574219 718.945312 597.632812 C 718.945312 594.6875 716.554688 592.289062 713.605469 592.289062 C 710.660156 592.289062 708.265625 594.6875 708.265625 597.632812 Z M 703.628906 597.632812 C 703.628906 592.136719 708.105469 587.660156 713.605469 587.660156 C 719.105469 587.660156 723.582031 592.136719 723.582031 597.632812 C 723.582031 603.128906 719.105469 607.597656 713.605469 607.597656 C 708.105469 607.597656 703.628906 603.128906 703.628906 597.632812 " fill-opacity="1" fill-rule="nonzero"/><path fill="#254799" d="M 779.347656 457.886719 C 779.347656 461.355469 782.160156 464.167969 785.636719 464.167969 C 789.113281 464.167969 791.929688 461.355469 791.929688 457.886719 C 791.929688 454.410156 789.113281 451.597656 785.636719 451.597656 C 782.160156 451.597656 779.347656 454.410156 779.347656 457.886719 " fill-opacity="1" fill-rule="nonzero"/><path fill="#254799" d="M 631.230469 597.632812 C 631.230469 600.574219 633.628906 602.96875 636.570312 602.96875 C 639.515625 602.96875 641.910156 600.574219 641.910156 597.632812 C 641.910156 594.6875 639.515625 592.289062 636.570312 592.289062 C 633.628906 592.289062 631.230469 594.6875 631.230469 597.632812 Z M 626.601562 597.632812 C 626.601562 592.136719 631.070312 587.660156 636.570312 587.660156 C 642.070312 587.660156 646.546875 592.136719 646.546875 597.632812 C 646.546875 603.128906 642.070312 607.597656 636.570312 607.597656 C 631.070312 607.597656 626.601562 603.128906 626.601562 597.632812 " fill-opacity="1" fill-rule="nonzero"/><path fill="#ffcc4d" d="M 715.898438 239.539062 C 716.136719 260.472656 699.355469 277.625 678.425781 277.859375 C 657.492188 278.097656 640.332031 261.328125 640.09375 240.394531 C 639.859375 219.472656 656.640625 202.3125 677.570312 202.078125 C 698.507812 201.839844 715.664062 218.617188 715.898438 239.539062 " fill-opacity="1" fill-rule="nonzero"/><path fill="#ffffff" d="M 656.777344 238.429688 L 654.753906 249.117188 L 679.40625 263.246094 L 700.03125 228.066406 L 699.925781 218.433594 L 676.695312 247.394531 L 656.777344 238.429688 " fill-opacity="1" fill-rule="nonzero"/><path fill="#346ee3" d="M 299.148438 458.121094 C 298.410156 458.121094 297.8125 457.523438 297.8125 456.789062 C 297.8125 428.90625 289.296875 410.171875 281.34375 410.171875 C 273.390625 410.171875 264.871094 428.90625 264.871094 456.789062 C 264.871094 457.523438 264.277344 458.121094 263.542969 458.121094 C 262.804688 458.121094 262.207031 457.523438 262.207031 456.789062 C 262.207031 429.148438 270.613281 407.503906 281.34375 407.503906 C 292.070312 407.503906 300.476562 429.148438 300.476562 456.789062 C 300.476562 457.523438 299.882812 458.121094 299.148438 458.121094 " fill-opacity="1" fill-rule="nonzero"/><path fill="#f7bf41" d="M 341.285156 607.597656 L 225.601562 607.597656 L 225.601562 446.414062 L 341.285156 446.414062 L 341.285156 607.597656 " fill-opacity="1" fill-rule="nonzero"/><path fill="#ffcc4d" d="M 310.921875 607.597656 L 225.601562 607.597656 L 225.601562 446.414062 L 310.921875 446.414062 L 310.921875 607.597656 " fill-opacity="1" fill-rule="nonzero"/><path fill="#ffcc4d" d="M 310.921875 607.597656 L 325.105469 589.71875 L 341.285156 607.597656 Z M 310.921875 607.597656 " fill-opacity="1" fill-rule="nonzero"/><path fill="#346ee3" d="M 289.15625 458.121094 C 288.421875 458.121094 287.824219 457.523438 287.824219 456.789062 C 287.824219 428.90625 279.300781 410.171875 271.347656 410.171875 C 263.402344 410.171875 254.886719 428.90625 254.886719 456.789062 C 254.886719 457.523438 254.289062 458.121094 253.550781 458.121094 C 252.816406 458.121094 252.21875 457.523438 252.21875 456.789062 C 252.21875 429.148438 260.621094 407.503906 271.347656 407.503906 C 282.082031 407.503906 290.484375 429.148438 290.484375 456.789062 C 290.484375 457.523438 289.894531 458.121094 289.15625 458.121094 " fill-opacity="1" fill-rule="nonzero"/><path fill="#346ee3" d="M 225.710938 513.480469 C 225.039062 513.480469 224.496094 512.933594 224.496094 512.257812 C 224.496094 496.21875 214.5 483.160156 202.214844 483.160156 C 189.933594 483.160156 179.9375 496.21875 179.9375 512.257812 C 179.9375 512.933594 179.394531 513.480469 178.71875 513.480469 C 178.046875 513.480469 177.496094 512.933594 177.496094 512.257812 C 177.496094 494.871094 188.589844 480.722656 202.214844 480.722656 C 215.839844 480.722656 226.9375 494.871094 226.9375 512.257812 C 226.9375 512.933594 226.386719 513.480469 225.710938 513.480469 " fill-opacity="1" fill-rule="nonzero"/><path fill="#ef354c" d="M 281.34375 607.597656 L 128.636719 607.597656 L 128.636719 505.699219 L 281.34375 505.699219 L 281.34375 607.597656 " fill-opacity="1" fill-rule="nonzero"/><path fill="#f54553" d="M 241.261719 607.597656 L 128.636719 607.597656 L 128.636719 505.699219 L 241.261719 505.699219 L 241.261719 607.597656 " fill-opacity="1" fill-rule="nonzero"/><path fill="#fa5c69" d="M 241.261719 607.597656 L 259.976562 596.292969 L 281.34375 607.597656 Z M 241.261719 607.597656 " fill-opacity="1" fill-rule="nonzero"/><path fill="#346ee3" d="M 212.523438 513.480469 C 211.851562 513.480469 211.308594 512.933594 211.308594 512.257812 C 211.308594 496.21875 201.3125 483.160156 189.03125 483.160156 C 176.746094 483.160156 166.75 496.21875 166.75 512.257812 C 166.75 512.933594 166.199219 513.480469 165.527344 513.480469 C 164.851562 513.480469 164.308594 512.933594 164.308594 512.257812 C 164.308594 494.871094 175.398438 480.722656 189.03125 480.722656 C 202.652344 480.722656 213.75 494.871094 213.75 512.257812 C 213.75 512.933594 213.199219 513.480469 212.523438 513.480469 " fill-opacity="1" fill-rule="nonzero"/><path fill="#ffcc4d" d="M 189.578125 607.585938 C 192.09375 607.585938 193.082031 604.359375 191.015625 602.921875 C 187.785156 600.667969 180.222656 597.078125 169.273438 595.277344 C 167.105469 594.921875 164.644531 592.914062 163.15625 590.773438 C 162.640625 590.03125 161.757812 589.632812 160.855469 589.71875 L 153.382812 590.414062 C 152.160156 590.523438 151.199219 591.484375 151.082031 592.707031 C 150.839844 595.375 150.652344 600.28125 151.75 605.625 C 151.992188 606.785156 153.046875 607.597656 154.238281 607.597656 L 156.800781 607.597656 L 189.578125 607.585938 " fill-opacity="1" fill-rule="nonzero"/><path fill="#ffcc4d" d="M 77.167969 591.316406 C 78.257812 594.726562 79.933594 601.925781 78.792969 605.980469 C 78.523438 606.960938 77.578125 607.585938 76.5625 607.585938 L 62.921875 607.597656 C 61.714844 607.597656 60.707031 606.675781 60.582031 605.464844 C 59.898438 599.222656 63.292969 593.617188 64.785156 591.496094 C 65.183594 590.933594 65.800781 590.570312 66.488281 590.503906 L 74.734375 589.738281 C 75.816406 589.640625 76.832031 590.289062 77.167969 591.316406 " fill-opacity="1" fill-rule="nonzero"/><path fill="#f54553" d="M 133.972656 281.535156 C 138.964844 286.941406 155.996094 331.523438 157.734375 336.796875 C 159.449219 343.679688 153.953125 347.996094 144.785156 345.6875 C 139.257812 344.289062 121.289062 301.71875 120.914062 288.894531 C 120.496094 274.585938 128.210938 275.296875 133.972656 281.535156 " fill-opacity="1" fill-rule="nonzero"/><path fill="#1f3b80" d="M 100.078125 436.488281 L 127.125 508.507812 C 127.125 508.507812 126.042969 516.65625 127.183594 525.796875 C 129.164062 541.816406 149.957031 594.285156 149.957031 594.285156 C 149.957031 594.285156 157.394531 597.390625 165.832031 592.617188 C 165.832031 592.617188 149.851562 503.78125 149.351562 501.277344 C 148.851562 498.785156 125.132812 374.730469 125.132812 374.730469 L 112.8125 370.671875 L 100.078125 436.488281 " fill-opacity="1" fill-rule="nonzero"/><path fill="#254799" d="M 79.300781 377.847656 C 71.238281 403.136719 68.59375 491.945312 67.929688 497.054688 C 67.269531 502.160156 63.660156 521.550781 63.625 529.570312 C 63.570312 543.015625 63.605469 592.324219 63.605469 592.324219 C 63.605469 592.324219 69.832031 595.277344 78.5 592.746094 C 78.5 592.746094 88.914062 540.96875 90.777344 504.433594 C 90.992188 500.214844 116.753906 417.792969 117.199219 414.679688 C 117.644531 411.574219 118.242188 381.003906 117.796875 376.339844 C 117.351562 371.679688 79.300781 377.847656 79.300781 377.847656 " fill-opacity="1" fill-rule="nonzero"/><path fill="#f54553" d="M 91.445312 271.277344 C 91.445312 271.277344 74.523438 276.28125 72.308594 279.390625 C 70.082031 282.496094 83.007812 338.089844 81.894531 349.410156 C 80.78125 360.738281 79.988281 372.992188 79.300781 377.847656 C 78.863281 380.957031 124.242188 388.042969 125.132812 374.730469 C 126.023438 361.40625 135.246094 316.777344 134.523438 296.796875 C 133.972656 281.535156 132.527344 280.132812 129.636719 278.132812 C 126.75 276.136719 112.042969 271.375 112.042969 271.375 L 91.445312 271.277344 " fill-opacity="1" fill-rule="nonzero"/><path fill="#1f3b80" d="M 113.285156 211.964844 C 113.300781 211.945312 113.3125 211.925781 113.328125 211.910156 C 115.984375 208.683594 116.046875 204.238281 113.988281 200.699219 C 112.507812 198.15625 110.847656 195.898438 109.234375 193.980469 C 108.433594 196.699219 106.90625 199.242188 104.785156 201.242188 C 105.863281 197.988281 105.875 194.46875 104.917969 191.207031 C 104.367188 189.367188 103.152344 187.753906 101.558594 186.566406 C 101.511719 186.523438 101.488281 186.507812 101.488281 186.507812 C 101.488281 186.507812 80.988281 213.570312 76.917969 224.816406 C 73.578125 234.035156 84.777344 247.84375 94.941406 255.746094 C 94.941406 255.746094 101.300781 261.875 115.308594 234.601562 C 119.925781 225.605469 119.75 216.550781 117.804688 209.601562 C 116.574219 210.796875 115.023438 211.730469 113.285156 211.964844 " fill-opacity="1" fill-rule="nonzero"/><path fill="#e3885b" d="M 95.621094 244.210938 C 95.28125 265.109375 88.476562 272.203125 88.476562 272.203125 C 88.476562 272.203125 95.148438 277.976562 105.710938 281.34375 C 109.359375 282.503906 113.203125 280.605469 113.035156 276.777344 C 112.960938 275.066406 112.683594 273.21875 112.042969 271.375 C 112.042969 271.375 108.71875 268.296875 109.351562 259.417969 C 109.582031 256.269531 111.207031 242.96875 111.207031 242.96875 C 111.207031 242.96875 95.679688 240.8125 95.621094 244.210938 " fill-opacity="1" fill-rule="nonzero"/><path fill="#ed996f" d="M 85.730469 282.46875 C 92.203125 289.8125 89.519531 328.398438 90.609375 337.292969 C 90.644531 337.304688 91.945312 355.136719 81.492188 355.609375 C 75.027344 355.910156 69.097656 301.15625 68.921875 290.160156 C 68.691406 275.523438 78.050781 273.753906 85.730469 282.46875 " fill-opacity="1" fill-rule="nonzero"/><path fill="#ed996f" d="M 97.457031 241.417969 C 101.433594 235.921875 96.625 224.613281 100.238281 221.25 C 106.53125 215.40625 115.078125 216.183594 118.792969 230.375 C 122.003906 242.632812 121.65625 259.832031 115.96875 262.847656 C 111.046875 265.460938 101.03125 256.691406 95.949219 248.054688 C 94.121094 246.839844 89.777344 244.691406 88.867188 241.640625 C 86.980469 235.371094 92.277344 235.578125 97.457031 241.417969 " fill-opacity="1" fill-rule="nonzero"/><path fill="#f54553" d="M 85.730469 282.46875 C 89.296875 286.519531 91.457031 300.632812 91.578125 313.46875 C 91.613281 317.269531 70.542969 317.535156 70.542969 317.535156 C 68.914062 306.324219 68.984375 294.253906 68.921875 290.160156 C 68.691406 275.523438 78.050781 273.753906 85.730469 282.46875 " fill-opacity="1" fill-rule="nonzero"/><path fill="#f7bf41" d="M 218.421875 366.820312 L 101.753906 388.265625 L 81.371094 277.472656 L 198.039062 256.023438 L 218.421875 366.820312 " fill-opacity="1" fill-rule="nonzero"/><path fill="#ffcc4d" d="M 218.421875 366.820312 L 148.675781 379.640625 L 128.292969 268.847656 L 198.039062 256.023438 L 218.421875 366.820312 " fill-opacity="1" fill-rule="nonzero"/><path fill="#ffffff" d="M 176.03125 286.734375 L 159.796875 289.714844 L 155.050781 263.925781 L 171.28125 260.945312 L 176.03125 286.734375 " fill-opacity="1" fill-rule="nonzero"/><path fill="#ffffff" d="M 173.957031 366.730469 L 153.417969 370.503906 L 148.675781 344.714844 L 169.21875 340.941406 L 173.957031 366.730469 " fill-opacity="1" fill-rule="nonzero"/><path fill="#bcbec0" d="M 157.601562 351.636719 L 152.421875 352.589844 L 151.234375 346.089844 L 156.40625 345.136719 L 157.601562 351.636719 " fill-opacity="1" fill-rule="nonzero"/><path fill="#bcbec0" d="M 160.492188 367.355469 L 155.316406 368.308594 L 152.765625 354.4375 L 157.9375 353.484375 L 160.492188 367.355469 " fill-opacity="1" fill-rule="nonzero"/><path fill="#bcbec0" d="M 167.605469 344.699219 L 158.722656 346.332031 L 158.4375 344.761719 L 167.320312 343.128906 L 167.605469 344.699219 " fill-opacity="1" fill-rule="nonzero"/><path fill="#bcbec0" d="M 168.058594 347.167969 L 159.171875 348.800781 L 158.886719 347.230469 L 167.773438 345.597656 L 168.058594 347.167969 " fill-opacity="1" fill-rule="nonzero"/><path fill="#bcbec0" d="M 168.507812 349.628906 L 159.625 351.261719 L 159.339844 349.695312 L 168.222656 348.0625 L 168.507812 349.628906 " fill-opacity="1" fill-rule="nonzero"/><path fill="#bcbec0" d="M 166.007812 353.457031 L 160.230469 354.511719 L 159.964844 353.109375 L 165.742188 352.046875 L 166.007812 353.457031 " fill-opacity="1" fill-rule="nonzero"/><path fill="#bcbec0" d="M 166.457031 355.9375 L 160.679688 357 L 160.425781 355.597656 L 166.199219 354.535156 L 166.457031 355.9375 " fill-opacity="1" fill-rule="nonzero"/><path fill="#bcbec0" d="M 166.917969 358.425781 L 161.140625 359.488281 L 160.882812 358.078125 L 166.660156 357.023438 L 166.917969 358.425781 " fill-opacity="1" fill-rule="nonzero"/><path fill="#bcbec0" d="M 167.375 360.90625 L 161.597656 361.976562 L 161.34375 360.566406 L 167.117188 359.503906 L 167.375 360.90625 " fill-opacity="1" fill-rule="nonzero"/><path fill="#bcbec0" d="M 167.835938 363.394531 L 162.058594 364.457031 L 161.792969 363.054688 L 167.578125 361.992188 L 167.835938 363.394531 " fill-opacity="1" fill-rule="nonzero"/><path fill="#bcbec0" d="M 168.285156 365.882812 L 162.507812 366.945312 L 162.253906 365.535156 L 168.027344 364.472656 L 168.285156 365.882812 " fill-opacity="1" fill-rule="nonzero"/><path fill="#bcbec0" d="M 171.40625 365.355469 L 169.773438 365.652344 L 167.222656 351.773438 L 168.847656 351.476562 L 171.40625 365.355469 " fill-opacity="1" fill-rule="nonzero"/><path fill="#ed996f" d="M 143.539062 323.058594 C 141.65625 321.996094 138.714844 322.636719 135.800781 323.574219 C 135.511719 323.671875 137.152344 322.164062 137.894531 321.015625 C 138.542969 320.015625 138.324219 319.371094 138.039062 319.480469 C 134.078125 321.078125 132.222656 322.808594 129.761719 326.769531 C 121.261719 331.238281 135.03125 332.488281 135.167969 332.273438 C 137.183594 332.550781 142.078125 332.085938 143.859375 330.09375 C 146.804688 326.785156 147.292969 325.1875 143.539062 323.058594 " fill-opacity="1" fill-rule="nonzero"/><path fill="#ed996f" d="M 209.855469 300.148438 C 207.824219 292.289062 205.777344 294.789062 204.03125 297.332031 C 201.960938 300.34375 202.648438 305.191406 205.796875 304.546875 C 207.492188 304.199219 211.398438 306.144531 209.855469 300.148438 " fill-opacity="1" fill-rule="nonzero"/><path fill="#ed996f" d="M 90.671875 338.910156 C 90.714844 338.933594 106.140625 333.023438 130.652344 326.492188 C 137.121094 324.761719 134.195312 330.550781 133.738281 330.933594 C 123.878906 339.113281 92.183594 357.320312 81.492188 355.609375 C 74.878906 354.554688 84.730469 334.40625 90.671875 338.910156 " fill-opacity="1" fill-rule="nonzero"/><path fill="#ffffff" d="M 270.777344 216.628906 C 264.683594 216.628906 259.734375 211.6875 259.734375 205.585938 C 259.734375 199.492188 264.683594 194.550781 270.777344 194.550781 C 276.875 194.550781 281.816406 199.492188 281.816406 205.585938 C 281.816406 211.6875 276.875 216.628906 270.777344 216.628906 Z M 270.777344 190.851562 C 262.636719 190.851562 256.035156 197.449219 256.035156 205.585938 C 256.035156 208.707031 257.015625 211.597656 258.667969 213.980469 C 258.605469 214.035156 258.523438 214.058594 258.46875 214.121094 L 246.894531 225.683594 C 245.773438 226.800781 245.773438 228.625 246.894531 229.742188 C 247.449219 230.296875 248.1875 230.582031 248.917969 230.582031 C 249.652344 230.582031 250.390625 230.296875 250.945312 229.742188 L 262.519531 218.171875 C 262.597656 218.09375 262.632812 217.992188 262.695312 217.90625 C 265.015625 219.429688 267.789062 220.324219 270.777344 220.324219 C 278.917969 220.324219 285.515625 213.730469 285.515625 205.585938 C 285.515625 197.449219 278.917969 190.851562 270.777344 190.851562 " fill-opacity="1" fill-rule="nonzero"/><path fill="#f7bf41" d="M 727.855469 599.59375 C 725.152344 601.601562 707.246094 608.878906 701.328125 608.496094 C 695.421875 608.121094 716.371094 591.894531 716.804688 591.773438 C 717.234375 591.664062 724.554688 587.347656 724.554688 587.347656 C 729.28125 594.101562 730.574219 597.585938 727.855469 599.59375 " fill-opacity="1" fill-rule="nonzero"/><path fill="#ffcc4d" d="M 705.179688 607.808594 C 699.570312 605.902344 724.019531 595.695312 724.472656 595.695312 C 724.921875 595.695312 733.105469 595.136719 733.105469 595.136719 C 735.914062 602.894531 736.253906 606.347656 733.105469 607.585938 C 732.195312 607.9375 729.90625 608.265625 727.007812 608.507812 L 708.816406 608.507812 C 707.34375 608.335938 706.078125 608.113281 705.179688 607.808594 " fill-opacity="1" fill-rule="nonzero"/><path fill="#965c40" d="M 691.269531 512.570312 C 689.679688 499.164062 714.914062 380.351562 714.914062 380.351562 L 736.613281 400.496094 L 711.527344 512.785156 C 720.097656 526.484375 720.230469 567.578125 724.554688 587.347656 C 724.554688 587.347656 705.457031 601.582031 711.4375 595.949219 C 713.773438 593.753906 717.8125 587.8125 717.027344 585.671875 C 717.027344 585.671875 691.519531 514.703125 691.269531 512.570312 " fill-opacity="1" fill-rule="nonzero"/><path fill="#f1f2f2" d="M 701.898438 370.289062 C 708.015625 365.972656 734.78125 336.328125 738.476562 328.820312 C 742.007812 321.648438 733.964844 306.625 721.371094 322.734375 C 716.46875 329 697.699219 351.921875 691.492188 358.667969 C 683.320312 356.554688 668.707031 352.59375 664.429688 353.449219 C 657.167969 354.910156 661.308594 359.382812 663.625 360.960938 C 669.082031 364.6875 688.539062 373.097656 695.183594 374.007812 C 697.667969 374.574219 697.542969 373.359375 701.898438 370.289062 " fill-opacity="1" fill-rule="nonzero"/><path fill="#ef354c" d="M 691.269531 512.570312 C 689.679688 499.164062 714.914062 380.351562 714.914062 380.351562 L 736.613281 400.496094 L 711.527344 512.785156 C 720.097656 526.484375 719.964844 566.074219 724.289062 585.847656 C 724.289062 585.847656 716.492188 588.808594 715.707031 586.671875 C 715.707031 586.671875 691.519531 514.703125 691.269531 512.570312 " fill-opacity="1" fill-rule="nonzero"/><path fill="#965c40" d="M 718.199219 598.328125 C 721.03125 596.820312 726.480469 592.128906 726.277344 589.863281 L 720.398438 512.996094 C 720.398438 512.996094 716.226562 434.265625 717.464844 409.699219 C 717.824219 402.5 714.914062 380.351562 714.914062 380.351562 L 742.417969 386.4375 C 762.292969 411.804688 752.3125 433.1875 752.3125 433.1875 C 752.3125 433.1875 744.296875 481.4375 738.757812 518.097656 C 745.964844 531.042969 734.085938 574.929688 733.105469 595.136719 C 732.890625 599.695312 710.972656 602.207031 718.199219 598.328125 " fill-opacity="1" fill-rule="nonzero"/><path fill="#f54553" d="M 726.277344 589.863281 L 720.398438 512.996094 C 720.398438 512.996094 716.226562 434.265625 717.464844 409.699219 C 717.824219 402.5 714.914062 380.351562 714.914062 380.351562 L 742.417969 386.4375 C 762.292969 411.804688 752.3125 433.1875 752.3125 433.1875 C 752.3125 433.1875 746.632812 481.777344 741.085938 518.445312 C 746.742188 534.753906 736.488281 571.113281 734.863281 591.289062 C 734.703125 593.332031 726.480469 592.128906 726.277344 589.863281 " fill-opacity="1" fill-rule="nonzero"/><g clip-path="url(#6e57ef668f)"><path fill="#1f3b80" d="M 804.753906 321.824219 C 816.488281 362.734375 822.402344 365.703125 816.75 377.78125 C 810.710938 390.691406 780.136719 392.285156 767.132812 372.628906 C 753.785156 352.460938 762.988281 322.371094 765.046875 302.246094 C 769.480469 258.769531 750.871094 257.753906 768.710938 251.25 C 786.242188 244.851562 800.597656 258.984375 802.890625 273.433594 C 804.96875 286.519531 800.464844 306.859375 804.753906 321.824219 " fill-opacity="1" fill-rule="nonzero"/></g><path fill="#e6e7e8" d="M 735.925781 311.148438 C 731.6875 312.539062 711.449219 326.875 708.832031 332.59375 C 705.105469 340.726562 714.914062 351.164062 714.914062 351.164062 C 714.914062 351.164062 715.03125 372.59375 714.914062 380.351562 C 714.738281 392.09375 742.417969 386.4375 742.417969 386.4375 C 740.871094 370.175781 753.9375 344.222656 759.980469 326.429688 C 760.367188 325.285156 750.617188 306.320312 735.925781 311.148438 " fill-opacity="1" fill-rule="nonzero"/><path fill="#f06570" d="M 761.222656 249.847656 C 756.433594 252.078125 754.792969 258.707031 757.558594 264.671875 C 760.328125 270.625 766.449219 273.648438 771.246094 271.425781 C 776.035156 269.203125 777.675781 262.570312 774.910156 256.609375 C 772.144531 250.652344 766.019531 247.625 761.222656 249.847656 " fill-opacity="1" fill-rule="nonzero"/><path fill="#8c4f32" d="M 750.019531 310.40625 C 750.585938 305.109375 753.027344 293.738281 754.738281 290.507812 C 757.367188 285.53125 751.5625 278.089844 751.5625 278.089844 L 741.800781 285.121094 C 740.300781 295.628906 732.832031 312.683594 732.832031 312.683594 C 732.832031 312.683594 720.535156 322.734375 723.804688 322.734375 C 726.042969 322.734375 738.289062 317.507812 744.664062 315.804688 C 747.113281 315.152344 750.15625 315.597656 749.996094 313.363281 C 749.925781 312.40625 749.914062 311.378906 750.019531 310.40625 " fill-opacity="1" fill-rule="nonzero"/><path fill="#254799" d="M 730.546875 266.421875 L 744.804688 282.773438 C 744.804688 282.773438 750.496094 295.867188 753.4375 294.933594 C 769.058594 289.992188 774.082031 274.933594 768.507812 259.390625 C 765.058594 249.769531 742.566406 238.027344 730.546875 266.421875 " fill-opacity="1" fill-rule="nonzero"/><path fill="#965c40" d="M 745.722656 284.398438 C 742.746094 278.742188 748.878906 269.410156 745.945312 265.734375 C 740.839844 259.347656 732.671875 258.527344 727.175781 270.648438 C 722.425781 281.121094 720.335938 296.671875 725.257812 300.40625 C 729.523438 303.644531 740.203125 297.519531 746.207031 290.648438 C 748.097656 289.882812 752.492188 288.722656 753.785156 286.136719 C 756.441406 280.828125 751.421875 280.070312 745.722656 284.398438 " fill-opacity="1" fill-rule="nonzero"/><path fill="#965c40" d="M 726.273438 391.214844 C 725.410156 394.777344 732.855469 389.699219 737.359375 392.472656 C 738.164062 392.972656 742.441406 391.039062 742.664062 389.59375 C 742.828125 388.476562 738.832031 386.300781 737.082031 386.054688 C 731.902344 385.332031 727.0625 387.96875 726.273438 391.214844 " fill-opacity="1" fill-rule="nonzero"/><path fill="#f1f2f2" d="M 754.820312 320.042969 C 750.832031 319.605469 743.308594 324.183594 744.707031 334.277344 C 746.722656 348.78125 753.359375 370.015625 753.359375 370.015625 C 744.128906 381.609375 736.378906 386.589844 736.496094 387.800781 C 736.65625 389.484375 738.476562 391.214844 739.527344 392.082031 C 739.964844 392.441406 740.535156 392.5625 741.085938 392.402344 C 745.25 391.191406 765.269531 380.539062 768.847656 374.957031 C 770.707031 372.054688 769.515625 357.195312 763.230469 335.429688 C 760.582031 326.257812 760.171875 320.628906 754.820312 320.042969 " fill-opacity="1" fill-rule="nonzero"/><path fill="#965c40" d="M 654.78125 353.59375 C 655.589844 354.8125 660.71875 358.566406 664.1875 358.371094 C 668.566406 357.195312 668.21875 355.019531 666.488281 353.082031 C 665.167969 351.609375 664.25 347.972656 658.738281 347.277344 C 658.105469 347.203125 658.945312 349.035156 658.945312 349.035156 C 658.945312 349.035156 652.984375 343.234375 652.488281 344.089844 C 651.585938 345.644531 653.929688 352.296875 654.78125 353.59375 " fill-opacity="1" fill-rule="nonzero"/><path fill="#1f3b80" d="M 668.976562 364.609375 C 668.589844 364.609375 668.199219 364.429688 667.957031 364.097656 L 644.390625 332.59375 C 643.960938 332.03125 644.078125 331.230469 644.648438 330.808594 C 645.203125 330.378906 646.011719 330.503906 646.433594 331.066406 L 670 362.566406 C 670.421875 363.128906 670.304688 363.929688 669.742188 364.351562 C 669.511719 364.527344 669.242188 364.609375 668.976562 364.609375 " fill-opacity="1" fill-rule="nonzero"/><path fill="#f54553" d="M 303.824219 294.835938 C 295.28125 294.835938 288.351562 287.910156 288.351562 279.367188 C 288.351562 270.820312 295.28125 263.898438 303.824219 263.898438 C 312.367188 263.898438 319.300781 270.820312 319.300781 279.367188 C 319.300781 287.910156 312.367188 294.835938 303.824219 294.835938 Z M 303.824219 249.910156 C 287.414062 249.910156 274.113281 263.710938 274.113281 280.730469 C 274.113281 308.785156 297.644531 334.09375 302.824219 339.328125 C 303.386719 339.898438 304.269531 339.90625 304.847656 339.347656 C 310.066406 334.277344 333.535156 309.882812 333.535156 280.730469 C 333.535156 263.710938 320.230469 249.910156 303.824219 249.910156 " fill-opacity="1" fill-rule="nonzero"/><path fill="#ffcc4d" d="M 502.566406 482.007812 C 502.566406 505.808594 483.261719 525.109375 459.453125 525.109375 C 435.644531 525.109375 416.339844 505.808594 416.339844 482.007812 C 416.339844 458.207031 435.644531 438.90625 459.453125 438.90625 C 483.261719 438.90625 502.566406 458.207031 502.566406 482.007812 " fill-opacity="1" fill-rule="nonzero"/><path fill="#f0a737" d="M 497.304688 482.007812 C 497.304688 502.90625 480.355469 519.847656 459.453125 519.847656 C 438.550781 519.847656 421.597656 502.90625 421.597656 482.007812 C 421.597656 461.109375 438.550781 444.160156 459.453125 444.160156 C 480.355469 444.160156 497.304688 461.109375 497.304688 482.007812 " fill-opacity="1" fill-rule="nonzero"/><path fill="#f7bf41" d="M 494.734375 482.007812 C 494.734375 501.488281 478.9375 517.285156 459.453125 517.285156 C 439.96875 517.285156 424.167969 501.488281 424.167969 482.007812 C 424.167969 462.527344 439.96875 446.730469 459.453125 446.730469 C 478.9375 446.730469 494.734375 462.527344 494.734375 482.007812 " fill-opacity="1" fill-rule="nonzero"/><path fill="#f0a737" d="M 464.515625 477.96875 C 457.980469 472.972656 455.984375 470.4375 455.984375 467.34375 L 455.984375 466.316406 C 455.984375 463.148438 458.070312 461.640625 461.101562 461.640625 C 464.703125 461.640625 466.40625 463.460938 466.40625 467.34375 L 466.40625 467.929688 L 476.074219 467.824219 L 476.074219 466.710938 C 476.074219 459.742188 471.90625 455.300781 464.890625 454.1875 L 464.890625 449.199219 L 456.9375 449.199219 L 456.9375 454.1875 C 450.015625 455.300781 445.941406 459.574219 445.941406 466.476562 L 445.941406 467.664062 C 445.941406 473.6875 449.070312 478.207031 457.980469 485.101562 C 464.515625 490.089844 466.503906 492.625 466.503906 495.71875 L 466.503906 496.90625 C 466.503906 500.078125 463.945312 501.585938 461.011719 501.585938 C 457.027344 501.585938 455.128906 499.761719 455.128906 495.878906 L 455.128906 493.285156 L 445.46875 493.34375 L 445.46875 496.511719 C 445.46875 503.40625 449.925781 507.761719 456.9375 509.035156 L 456.9375 514.816406 L 464.890625 514.816406 L 464.890625 509.035156 C 472 508.003906 476.546875 503.726562 476.546875 496.746094 L 476.546875 495.398438 C 476.546875 489.375 473.417969 484.863281 464.515625 477.96875 " fill-opacity="1" fill-rule="nonzero"/><path fill="#ffffff" d="M 462.957031 477.96875 C 456.421875 472.972656 454.433594 470.4375 454.433594 467.34375 L 454.433594 466.316406 C 454.433594 463.148438 456.515625 461.640625 459.542969 461.640625 C 463.144531 461.640625 464.855469 463.460938 464.855469 467.34375 L 464.855469 467.929688 L 474.519531 467.824219 L 474.519531 466.710938 C 474.519531 459.742188 470.355469 455.300781 463.339844 454.1875 L 463.339844 449.199219 L 455.378906 449.199219 L 455.378906 454.1875 C 448.464844 455.300781 444.382812 459.574219 444.382812 466.476562 L 444.382812 467.664062 C 444.382812 473.6875 447.511719 478.207031 456.421875 485.101562 C 462.957031 490.089844 464.945312 492.625 464.945312 495.71875 L 464.945312 496.90625 C 464.945312 500.078125 462.386719 501.585938 459.453125 501.585938 C 455.472656 501.585938 453.582031 499.761719 453.582031 495.878906 L 453.582031 493.285156 L 443.910156 493.34375 L 443.910156 496.511719 C 443.910156 503.40625 448.367188 507.761719 455.378906 509.035156 L 455.378906 514.816406 L 463.339844 514.816406 L 463.339844 509.035156 C 470.445312 508.003906 474.992188 503.726562 474.992188 496.746094 L 474.992188 495.398438 C 474.992188 489.375 471.863281 484.863281 462.957031 477.96875 " fill-opacity="1" fill-rule="nonzero"/><path fill="#346ee3" d="M 448.457031 530.722656 C 448.457031 556.574219 427.5 577.527344 401.640625 577.527344 C 375.785156 577.527344 354.828125 556.574219 354.828125 530.722656 C 354.828125 504.878906 375.785156 483.925781 401.640625 483.925781 C 427.5 483.925781 448.457031 504.878906 448.457031 530.722656 " fill-opacity="1" fill-rule="nonzero"/><path fill="#ffffff" d="M 442.542969 530.722656 C 442.542969 553.308594 424.230469 571.613281 401.640625 571.613281 C 379.054688 571.613281 360.742188 553.308594 360.742188 530.722656 C 360.742188 508.144531 379.054688 489.839844 401.640625 489.839844 C 424.230469 489.839844 442.542969 508.144531 442.542969 530.722656 " fill-opacity="1" fill-rule="nonzero"/><path fill="#346ee3" d="M 425.894531 515.273438 C 425.011719 513.886719 423.167969 513.480469 421.785156 514.363281 L 406.011719 524.40625 C 404.765625 523.542969 403.265625 523.039062 401.640625 523.039062 C 400.882812 523.039062 400.160156 523.183594 399.464844 523.390625 L 385.152344 501.792969 C 384.46875 500.765625 383.085938 500.480469 382.058594 501.160156 C 381.027344 501.839844 380.742188 503.230469 381.425781 504.261719 L 395.738281 525.859375 C 394.640625 527.1875 393.949219 528.867188 393.949219 530.722656 C 393.949219 534.976562 397.390625 538.417969 401.640625 538.417969 C 405.886719 538.417969 409.335938 534.976562 409.335938 530.722656 C 409.335938 530.285156 409.273438 529.863281 409.203125 529.445312 L 424.988281 519.390625 C 426.371094 518.507812 426.78125 516.664062 425.894531 515.273438 " fill-opacity="1" fill-rule="nonzero"/><path fill="#346ee3" d="M 494.09375 86.617188 C 494.308594 105.609375 479.085938 121.183594 460.085938 121.394531 C 441.089844 121.609375 425.511719 106.390625 425.300781 87.394531 C 425.085938 68.402344 440.316406 52.835938 459.308594 52.621094 C 478.304688 52.40625 493.886719 67.632812 494.09375 86.617188 " fill-opacity="1" fill-rule="nonzero"/><path fill="#ffffff" d="M 461.253906 62.59375 L 466.261719 78 C 466.398438 78.410156 466.78125 78.6875 467.210938 78.6875 L 483.414062 78.6875 C 484.382812 78.6875 484.785156 79.925781 484 80.488281 L 470.890625 90.015625 C 470.542969 90.265625 470.394531 90.71875 470.527344 91.128906 L 475.539062 106.535156 C 475.839844 107.453125 474.78125 108.21875 474.003906 107.648438 L 460.894531 98.125 C 460.546875 97.875 460.074219 97.875 459.71875 98.125 L 446.613281 107.648438 C 445.828125 108.21875 444.78125 107.453125 445.078125 106.535156 L 450.082031 91.128906 C 450.214844 90.71875 450.070312 90.265625 449.722656 90.015625 L 436.617188 80.488281 C 435.832031 79.925781 436.238281 78.6875 437.203125 78.6875 L 453.40625 78.6875 C 453.835938 78.6875 454.21875 78.410156 454.351562 78 L 459.355469 62.59375 C 459.65625 61.675781 460.957031 61.675781 461.253906 62.59375 " fill-opacity="1" fill-rule="nonzero"/><path fill="#ffcc4d" d="M 614.910156 606.015625 L 520.78125 606.015625 C 518.007812 606.015625 515.761719 603.769531 515.761719 600.996094 L 515.761719 521.667969 C 515.761719 518.902344 518.007812 516.65625 520.78125 516.65625 L 614.910156 516.65625 C 617.675781 516.65625 619.921875 518.902344 619.921875 521.667969 L 619.921875 600.996094 C 619.921875 603.769531 617.675781 606.015625 614.910156 606.015625 " fill-opacity="1" fill-rule="nonzero"/><path fill="#f54553" d="M 582.222656 606.015625 L 553.457031 606.015625 L 553.457031 516.65625 L 582.222656 516.65625 L 582.222656 606.015625 " fill-opacity="1" fill-rule="nonzero"/><path fill="#ef354c" d="M 525.464844 488.207031 C 514.816406 504.734375 545.089844 516.65625 545.089844 516.65625 L 556.199219 516.65625 C 556.199219 516.65625 538.191406 507.054688 538.191406 497.199219 C 538.191406 487.34375 552.75 498.394531 563.859375 516.65625 L 570.941406 516.65625 C 555.050781 470.382812 536.121094 471.679688 525.464844 488.207031 " fill-opacity="1" fill-rule="nonzero"/><path fill="#ef354c" d="M 610.21875 488.207031 C 620.875 504.734375 590.59375 516.65625 590.59375 516.65625 L 579.484375 516.65625 C 579.484375 516.65625 597.488281 507.054688 597.488281 497.199219 C 597.488281 487.34375 582.933594 498.394531 571.824219 516.65625 L 564.742188 516.65625 C 580.640625 470.382812 599.5625 471.679688 610.21875 488.207031 " fill-opacity="1" fill-rule="nonzero"/><path fill="#ef354c" d="M 551.484375 516.65625 C 541.878906 525.976562 527.890625 533.015625 527.890625 533.015625 L 540.042969 548.765625 L 567.464844 516.539062 L 551.484375 516.65625 " fill-opacity="1" fill-rule="nonzero"/><path fill="#ef354c" d="M 583.886719 516.136719 C 593.9375 524.984375 607.785156 530.828125 607.785156 530.828125 L 596.410156 547.144531 L 567.464844 516.539062 L 583.886719 516.136719 " fill-opacity="1" fill-rule="nonzero"/><g clip-path="url(#f2ff42ed1c)"><path fill="#346ee3" d="M 800.785156 616.214844 L 6.546875 616.214844 C 3.515625 616.214844 1.054688 613.753906 1.054688 610.726562 C 1.054688 607.695312 3.515625 605.234375 6.546875 605.234375 L 800.785156 605.234375 C 803.816406 605.234375 806.269531 607.695312 806.269531 610.726562 C 806.269531 613.753906 803.816406 616.214844 800.785156 616.214844 " fill-opacity="1" fill-rule="nonzero"/></g></svg>