<svg width="1412" height="350" viewBox="0 0 1412 350" fill="none" xmlns="http://www.w3.org/2000/svg">
<path d="M360.606 50.1212C321.879 174.315 225.395 223.057 73.4922 231.07C205.03 267.126 376.965 231.07 369.286 50.1212H390.319L366.282 0.710938L340.909 50.1212H360.606Z" fill="#FF9934"/>
<circle cx="235.748" cy="133.922" r="40.0624" fill="#FF9934"/>
<path d="M38.4434 251.084C229.741 284.47 333.236 248.08 368.624 142.582C369.96 321.861 177.994 310.51 38.4434 251.084Z" fill="#334F94" stroke="#334F94" stroke-width="0.154425"/>
<path d="M0.0507812 243.75C153.957 325.544 265.185 342.059 348.594 246.421C302.188 396.321 128.25 367.943 0.0507812 243.75Z" fill="#FF9934"/>
<path fill-rule="evenodd" clip-rule="evenodd" d="M462.617 217.176C460.538 108.382 460.02 81.2411 604.159 92.8205L605.165 252.968H579.984V188.841H487.992V252.968H463.149C463.056 240.162 462.828 228.246 462.617 217.176ZM487.319 167.024H579.983V112.97C571.652 112.97 563.591 112.64 555.928 112.327C513.559 110.596 483.377 109.363 487.319 167.024Z" fill="#FF9934"/>
<path d="M604.159 92.8205L604.659 92.8174L604.656 92.3589L604.199 92.3222L604.159 92.8205ZM462.617 217.176L462.117 217.185L462.617 217.176ZM605.165 252.968V253.468H605.668L605.664 252.965L605.165 252.968ZM579.984 252.968H579.484V253.468H579.984V252.968ZM579.984 188.841H580.484V188.341H579.984V188.841ZM487.992 188.841V188.341H487.492V188.841H487.992ZM487.992 252.968V253.468H488.492V252.968H487.992ZM463.149 252.968L462.649 252.972L462.652 253.468H463.149V252.968ZM579.983 167.024V167.524H580.483V167.024H579.983ZM487.319 167.024L486.82 167.058L486.852 167.524H487.319V167.024ZM579.983 112.97H580.483V112.47L579.983 112.47L579.983 112.97ZM555.928 112.327L555.907 112.827L555.928 112.327ZM604.199 92.3222C568.157 89.4267 541.12 88.948 520.878 91.571C500.633 94.1943 487.116 99.9284 478.19 109.518C469.267 119.103 465.005 132.462 463.089 150.166C461.174 167.867 461.597 189.999 462.117 217.185L463.116 217.166C462.597 189.956 462.176 167.897 464.083 150.273C465.99 132.652 470.217 119.551 478.922 110.199C487.624 100.851 500.874 95.1714 521.006 92.5627C541.14 89.9537 568.091 90.4246 604.119 93.3189L604.199 92.3222ZM605.664 252.965L604.659 92.8174L603.659 92.8237L604.665 252.971L605.664 252.965ZM579.984 253.468H605.165V252.468H579.984V253.468ZM579.484 188.841V252.968H580.484V188.841H579.484ZM487.992 189.341H579.984V188.341H487.992V189.341ZM488.492 252.968V188.841H487.492V252.968H488.492ZM463.149 253.468H487.992V252.468H463.149V253.468ZM462.117 217.185C462.328 228.256 462.556 240.169 462.649 252.972L463.649 252.964C463.556 240.155 463.328 228.236 463.116 217.166L462.117 217.185ZM579.983 166.524H487.319V167.524H579.983V166.524ZM579.483 112.97V167.024H580.483V112.97H579.483ZM555.907 112.827C563.569 113.14 571.641 113.47 579.983 113.47L579.983 112.47C571.664 112.47 563.612 112.141 555.948 111.828L555.907 112.827ZM487.818 166.99C485.851 138.223 492.41 124.383 504.495 117.843C510.576 114.552 518.114 113.074 526.81 112.534C535.505 111.994 545.308 112.394 555.907 112.827L555.948 111.828C545.363 111.395 535.505 110.992 526.748 111.536C517.992 112.079 510.286 113.572 504.019 116.964C491.406 123.79 484.845 138.164 486.82 167.058L487.818 166.99Z" fill="#FF9934"/>
<path d="M648.15 252.644H624.648V93.1646C684.132 89.1756 717.455 86.948 732.756 108.273C764.316 73.6918 843.215 87.4588 841.872 144.2V252.644H817.027V144.2C814.677 96.1842 740.814 105.922 745.179 144.2V252.644H721.006V144.2C718.32 113.311 703.883 109.28 648.15 113.312V252.644Z" fill="#FF9934" stroke="#FF9934"/>
<path d="M885.501 92.8203H861.328C881.137 215.029 876.436 255.654 937.205 255.654C990.99 255.654 987.902 232.823 1009.72 92.8203H984.209L964.736 207.643C961.378 239.874 913.703 243.903 905.646 207.643L885.501 92.8203Z" fill="#FF9934" stroke="#FF9934"/>
<rect x="1028.36" y="92.9922" width="23.8447" height="160.155" fill="#FF9934" stroke="#FF9934"/>
<mask id="path-10-inside-1_838_3090" fill="white">
<path fill-rule="evenodd" clip-rule="evenodd" d="M1144.05 89.1289C1103.63 89.1289 1070.86 121.898 1070.86 162.32V183.807C1070.86 224.23 1103.63 256.998 1144.05 256.998C1184.47 256.998 1217.24 224.23 1217.24 183.807V162.32C1217.24 121.898 1184.47 89.1289 1144.05 89.1289ZM1144.05 111.28C1117.35 111.28 1095.7 132.925 1095.7 159.626V186.485C1095.7 213.186 1117.35 234.832 1144.05 234.832C1170.75 234.832 1192.4 213.186 1192.4 186.485V159.626C1192.4 132.925 1170.75 111.28 1144.05 111.28Z"/>
</mask>
<path fill-rule="evenodd" clip-rule="evenodd" d="M1144.05 89.1289C1103.63 89.1289 1070.86 121.898 1070.86 162.32V183.807C1070.86 224.23 1103.63 256.998 1144.05 256.998C1184.47 256.998 1217.24 224.23 1217.24 183.807V162.32C1217.24 121.898 1184.47 89.1289 1144.05 89.1289ZM1144.05 111.28C1117.35 111.28 1095.7 132.925 1095.7 159.626V186.485C1095.7 213.186 1117.35 234.832 1144.05 234.832C1170.75 234.832 1192.4 213.186 1192.4 186.485V159.626C1192.4 132.925 1170.75 111.28 1144.05 111.28Z" fill="#FF9934"/>
<path d="M1071.86 162.32C1071.86 122.45 1104.18 90.1289 1144.05 90.1289V88.1289C1103.08 88.1289 1069.86 121.345 1069.86 162.32H1071.86ZM1071.86 183.807V162.32H1069.86V183.807H1071.86ZM1144.05 255.998C1104.18 255.998 1071.86 223.677 1071.86 183.807H1069.86C1069.86 224.782 1103.08 257.998 1144.05 257.998V255.998ZM1216.24 183.807C1216.24 223.677 1183.92 255.998 1144.05 255.998V257.998C1185.03 257.998 1218.24 224.782 1218.24 183.807H1216.24ZM1216.24 162.32V183.807H1218.24V162.32H1216.24ZM1144.05 90.1289C1183.92 90.1289 1216.24 122.45 1216.24 162.32H1218.24C1218.24 121.345 1185.03 88.1289 1144.05 88.1289V90.1289ZM1096.7 159.626C1096.7 133.477 1117.9 112.28 1144.05 112.28V110.28C1116.8 110.28 1094.7 132.373 1094.7 159.626H1096.7ZM1096.7 186.485V159.626H1094.7V186.485H1096.7ZM1144.05 233.832C1117.9 233.832 1096.7 212.634 1096.7 186.485H1094.7C1094.7 213.739 1116.8 235.832 1144.05 235.832V233.832ZM1191.4 186.485C1191.4 212.634 1170.2 233.832 1144.05 233.832V235.832C1171.3 235.832 1193.4 213.739 1193.4 186.485H1191.4ZM1191.4 159.626V186.485H1193.4V159.626H1191.4ZM1144.05 112.28C1170.2 112.28 1191.4 133.477 1191.4 159.626H1193.4C1193.4 132.373 1171.3 110.28 1144.05 110.28V112.28Z" fill="#FF9934" mask="url(#path-10-inside-1_838_3090)"/>
<path d="M1032.9 348.996V282.855H1043.3V340.938H1095.01V348.996H1032.9Z" fill="#334F94" stroke="#334F94"/>
<path fill-rule="evenodd" clip-rule="evenodd" d="M1106.1 348.676H1119.2L1127.26 333.568H1170.23L1177.95 348.676H1192.39L1154.79 283.207H1142.03L1106.1 348.676ZM1148.74 293.29L1132.29 323.506H1164.52L1148.74 293.29Z" fill="#334F94"/>
<path d="M1119.2 348.676V349.176H1119.5L1119.64 348.911L1119.2 348.676ZM1106.1 348.676L1105.67 348.436L1105.26 349.176H1106.1V348.676ZM1127.26 333.568V333.068H1126.96L1126.81 333.333L1127.26 333.568ZM1170.23 333.568L1170.67 333.34L1170.54 333.068H1170.23V333.568ZM1177.95 348.676L1177.51 348.904L1177.65 349.176H1177.95V348.676ZM1192.39 348.676V349.176H1193.25L1192.82 348.427L1192.39 348.676ZM1154.79 283.207L1155.22 282.958L1155.08 282.707H1154.79V283.207ZM1142.03 283.207V282.707H1141.73L1141.59 282.967L1142.03 283.207ZM1132.29 323.506L1131.85 323.267L1131.45 324.006H1132.29V323.506ZM1148.74 293.29L1149.18 293.058L1148.75 292.227L1148.3 293.051L1148.74 293.29ZM1164.52 323.506V324.006H1165.34L1164.96 323.275L1164.52 323.506ZM1119.2 348.176H1106.1V349.176H1119.2V348.176ZM1126.81 333.333L1118.76 348.441L1119.64 348.911L1127.7 333.803L1126.81 333.333ZM1170.23 333.068H1127.26V334.068H1170.23V333.068ZM1178.4 348.449L1170.67 333.34L1169.78 333.795L1177.51 348.904L1178.4 348.449ZM1192.39 348.176H1177.95V349.176H1192.39V348.176ZM1154.35 283.456L1191.95 348.925L1192.82 348.427L1155.22 282.958L1154.35 283.456ZM1142.03 283.707H1154.79V282.707H1142.03V283.707ZM1106.54 348.917L1142.47 283.448L1141.59 282.967L1105.67 348.436L1106.54 348.917ZM1132.73 323.745L1149.18 293.529L1148.3 293.051L1131.85 323.267L1132.73 323.745ZM1164.52 323.006H1132.29V324.006H1164.52V323.006ZM1148.3 293.521L1164.08 323.738L1164.96 323.275L1149.18 293.058L1148.3 293.521Z" fill="#334F94"/>
<path fill-rule="evenodd" clip-rule="evenodd" d="M1348.82 57.1719H1375.01V59.9842H1363.66V89.466H1360.85V59.9842H1348.82V57.1719Z" fill="#111111"/>
<path fill-rule="evenodd" clip-rule="evenodd" d="M1380.33 54.6133L1395.5 71.2649L1410.59 54.6975L1411.34 89.1019L1408.53 89.1631L1407.94 61.7915L1395.5 75.4406L1383.14 61.8757V89.1325H1380.33V54.6133Z" fill="#111111"/>
<path d="M1260.54 252.986H1235.02L1235.36 90.8164H1318.28C1352.1 91.2217 1376.7 114.654 1376.7 143.192V252.986H1352.19C1352.19 118.683 1365.96 105.252 1260.54 113.318V252.986Z" fill="#FF9934" stroke="#FF9934"/>
<path fill-rule="evenodd" clip-rule="evenodd" d="M1212.54 348.647V283.178V282.842H1268.94C1276.04 282.43 1279.35 285.875 1279.68 290.564V306.344C1279.68 311.044 1277.58 313.557 1268.94 315.073C1278.26 316.641 1279.23 319.28 1279.68 324.474V340.589C1278.34 345.625 1275 348.846 1265.25 348.647H1212.54ZM1223.61 308.35V291.898H1262.56C1270.62 291.898 1270.28 309.021 1263.23 308.35H1223.61ZM1223.61 321.479V337.931H1263.23C1270.28 338.602 1270.62 321.479 1262.56 321.479H1223.61Z" fill="#334F94"/>
<path d="M1212.54 348.647H1212.04V349.147H1212.54V348.647ZM1212.54 282.842V282.342H1212.04V282.842H1212.54ZM1268.94 282.842V283.342H1268.96L1268.97 283.341L1268.94 282.842ZM1279.68 290.564H1280.18V290.546L1280.18 290.528L1279.68 290.564ZM1268.94 315.073L1268.85 314.58L1268.86 315.566L1268.94 315.073ZM1279.68 324.474H1280.18V324.452L1280.18 324.43L1279.68 324.474ZM1279.68 340.589L1280.17 340.718L1280.18 340.655V340.589H1279.68ZM1265.25 348.647L1265.26 348.147H1265.25V348.647ZM1223.61 291.898V291.398H1223.11V291.898H1223.61ZM1223.61 308.35H1223.11V308.85H1223.61V308.35ZM1263.23 308.35L1263.28 307.852L1263.25 307.85H1263.23V308.35ZM1223.61 337.931H1223.11V338.431H1223.61V337.931ZM1223.61 321.479V320.979H1223.11V321.479H1223.61ZM1263.23 337.931L1263.28 337.433L1263.25 337.431H1263.23V337.931ZM1212.04 283.178V348.647H1213.04V283.178H1212.04ZM1212.04 282.842V283.178H1213.04V282.842H1212.04ZM1268.94 282.342H1212.54V283.342H1268.94V282.342ZM1280.18 290.528C1280.01 288.073 1279.05 285.898 1277.16 284.399C1275.28 282.904 1272.54 282.132 1268.91 282.343L1268.97 283.341C1272.44 283.14 1274.9 283.885 1276.54 285.182C1278.16 286.474 1279.03 288.366 1279.19 290.6L1280.18 290.528ZM1280.18 306.344V290.564H1279.18V306.344H1280.18ZM1269.03 315.565C1273.36 314.804 1276.16 313.779 1277.88 312.279C1279.64 310.744 1280.18 308.775 1280.18 306.344H1279.18C1279.18 308.613 1278.68 310.251 1277.22 311.526C1275.72 312.836 1273.15 313.825 1268.85 314.58L1269.03 315.565ZM1280.18 324.43C1279.95 321.834 1279.59 319.709 1277.99 318.065C1276.41 316.437 1273.7 315.366 1269.02 314.58L1268.86 315.566C1273.5 316.347 1275.93 317.38 1277.28 318.762C1278.61 320.128 1278.96 321.919 1279.19 324.518L1280.18 324.43ZM1280.18 340.589V324.474H1279.18V340.589H1280.18ZM1265.24 349.147C1270.16 349.247 1273.55 348.488 1275.89 347.003C1278.25 345.506 1279.48 343.315 1280.17 340.718L1279.2 340.46C1278.55 342.899 1277.44 344.837 1275.35 346.159C1273.25 347.493 1270.09 348.245 1265.26 348.147L1265.24 349.147ZM1212.54 349.147H1265.25V348.147H1212.54V349.147ZM1223.11 291.898V308.35H1224.11V291.898H1223.11ZM1262.56 291.398H1223.61V292.398H1262.56V291.398ZM1263.18 308.847C1265.19 309.039 1266.7 307.942 1267.66 306.318C1268.62 304.707 1269.08 302.533 1269.06 300.371C1269.04 298.208 1268.53 295.992 1267.48 294.299C1266.42 292.592 1264.78 291.398 1262.56 291.398V292.398C1264.36 292.398 1265.71 293.345 1266.63 294.827C1267.56 296.324 1268.04 298.347 1268.06 300.381C1268.08 302.416 1267.64 304.396 1266.8 305.807C1265.97 307.205 1264.79 307.996 1263.28 307.852L1263.18 308.847ZM1223.61 308.85H1263.23V307.85H1223.61V308.85ZM1224.11 337.931V321.479H1223.11V337.931H1224.11ZM1263.23 337.431H1223.61V338.431H1263.23V337.431ZM1262.56 321.979C1264.36 321.979 1265.71 322.926 1266.63 324.408C1267.56 325.905 1268.04 327.928 1268.06 329.962C1268.08 331.997 1267.64 333.977 1266.8 335.388C1265.97 336.786 1264.79 337.577 1263.28 337.433L1263.18 338.428C1265.19 338.62 1266.7 337.523 1267.66 335.899C1268.62 334.288 1269.08 332.114 1269.06 329.952C1269.04 327.789 1268.53 325.573 1267.48 323.88C1266.42 322.173 1264.78 320.979 1262.56 320.979V321.979ZM1223.61 321.979H1262.56V320.979H1223.61V321.979Z" fill="#334F94"/>
<path d="M1365.62 292.564H1320.97V310.043H1367.97C1371.66 309.371 1376.88 312.239 1377.04 317.429V339.923C1377.04 345.295 1372.38 348.748 1367.3 348.653H1317.95C1311.57 348.317 1308.56 346.623 1307.87 339.923V331.53L1317.95 329.18V339.923H1364.28C1366.71 340.192 1367.18 339.492 1367.3 337.573V321.793C1367.45 319.953 1366.95 319.686 1365.62 319.779H1320.97C1313.58 320.45 1311.16 317.228 1310.9 311.385V292.564C1310.56 286.877 1314.42 282.222 1320.97 282.492H1365.62C1374.69 282.492 1377.04 287.863 1377.04 294.914C1376.68 299.933 1374.61 301.743 1365.62 301.965V292.564Z" fill="#334F94" stroke="#334F94"/>
</svg>
