<svg xmlns="http://www.w3.org/2000/svg" xmlns:xlink="http://www.w3.org/1999/xlink" width="1080" zoomAndPan="magnify" viewBox="0 0 810 809.999993" height="1080" preserveAspectRatio="xMidYMid meet" version="1.0"><defs><clipPath id="d669230e99"><path d="M 85.445312 85.445312 L 724.554688 85.445312 L 724.554688 724.554688 L 85.445312 724.554688 Z M 85.445312 85.445312 " clip-rule="nonzero"/></clipPath><clipPath id="3c7641bb8a"><path d="M 405 85.445312 C 228.515625 85.445312 85.445312 228.515625 85.445312 405 C 85.445312 581.484375 228.515625 724.554688 405 724.554688 C 581.484375 724.554688 724.554688 581.484375 724.554688 405 C 724.554688 228.515625 581.484375 85.445312 405 85.445312 Z M 405 85.445312 " clip-rule="nonzero"/></clipPath><linearGradient x1="0.00000542346" gradientTransform="matrix(2.496535, 0, 0, 2.496535, 85.443576, 85.443559)" y1="0.00000542346" x2="255.999991" gradientUnits="userSpaceOnUse" y2="255.999991" id="ee33421c3e"><stop stop-opacity="1" stop-color="rgb(99.998474%, 43.099976%, 0%)" offset="0"/><stop stop-opacity="1" stop-color="rgb(99.256897%, 42.918396%, 0.437927%)" offset="0.00390625"/><stop stop-opacity="1" stop-color="rgb(98.516846%, 42.738342%, 0.875854%)" offset="0.0078125"/><stop stop-opacity="1" stop-color="rgb(97.775269%, 42.556763%, 1.313782%)" offset="0.0117187"/><stop stop-opacity="1" stop-color="rgb(97.033691%, 42.376709%, 1.751709%)" offset="0.015625"/><stop stop-opacity="1" stop-color="rgb(96.292114%, 42.196655%, 2.189636%)" offset="0.0195312"/><stop stop-opacity="1" stop-color="rgb(95.550537%, 42.016602%, 2.629089%)" offset="0.0234375"/><stop stop-opacity="1" stop-color="rgb(94.80896%, 41.835022%, 3.067017%)" offset="0.0273437"/><stop stop-opacity="1" stop-color="rgb(94.067383%, 41.654968%, 3.504944%)" offset="0.03125"/><stop stop-opacity="1" stop-color="rgb(93.325806%, 41.474915%, 3.942871%)" offset="0.0351562"/><stop stop-opacity="1" stop-color="rgb(92.585754%, 41.294861%, 4.382324%)" offset="0.0390625"/><stop stop-opacity="1" stop-color="rgb(91.844177%, 41.113281%, 4.820251%)" offset="0.0429687"/><stop stop-opacity="1" stop-color="rgb(91.1026%, 40.933228%, 5.258179%)" offset="0.046875"/><stop stop-opacity="1" stop-color="rgb(90.361023%, 40.753174%, 5.696106%)" offset="0.0507812"/><stop stop-opacity="1" stop-color="rgb(89.619446%, 40.57312%, 6.135559%)" offset="0.0546875"/><stop stop-opacity="1" stop-color="rgb(88.877869%, 40.391541%, 6.573486%)" offset="0.0585937"/><stop stop-opacity="1" stop-color="rgb(88.136292%, 40.211487%, 7.011414%)" offset="0.0625"/><stop stop-opacity="1" stop-color="rgb(87.394714%, 40.031433%, 7.449341%)" offset="0.0664062"/><stop stop-opacity="1" stop-color="rgb(86.654663%, 39.851379%, 7.888794%)" offset="0.0703125"/><stop stop-opacity="1" stop-color="rgb(85.913086%, 39.6698%, 8.326721%)" offset="0.0742187"/><stop stop-opacity="1" stop-color="rgb(85.171509%, 39.489746%, 8.764648%)" offset="0.078125"/><stop stop-opacity="1" stop-color="rgb(84.429932%, 39.309692%, 9.202576%)" offset="0.0820312"/><stop stop-opacity="1" stop-color="rgb(83.688354%, 39.129639%, 9.642029%)" offset="0.0859375"/><stop stop-opacity="1" stop-color="rgb(82.946777%, 38.948059%, 10.079956%)" offset="0.0898437"/><stop stop-opacity="1" stop-color="rgb(82.2052%, 38.768005%, 10.517883%)" offset="0.09375"/><stop stop-opacity="1" stop-color="rgb(81.463623%, 38.586426%, 10.955811%)" offset="0.0976562"/><stop stop-opacity="1" stop-color="rgb(80.722046%, 38.406372%, 11.395264%)" offset="0.101562"/><stop stop-opacity="1" stop-color="rgb(79.980469%, 38.226318%, 11.833191%)" offset="0.105469"/><stop stop-opacity="1" stop-color="rgb(79.240417%, 38.046265%, 12.271118%)" offset="0.109375"/><stop stop-opacity="1" stop-color="rgb(78.49884%, 37.864685%, 12.709045%)" offset="0.113281"/><stop stop-opacity="1" stop-color="rgb(77.757263%, 37.684631%, 13.146973%)" offset="0.117187"/><stop stop-opacity="1" stop-color="rgb(77.015686%, 37.504578%, 13.5849%)" offset="0.121094"/><stop stop-opacity="1" stop-color="rgb(76.274109%, 37.324524%, 14.024353%)" offset="0.125"/><stop stop-opacity="1" stop-color="rgb(75.532532%, 37.142944%, 14.46228%)" offset="0.128906"/><stop stop-opacity="1" stop-color="rgb(74.790955%, 36.962891%, 14.900208%)" offset="0.132812"/><stop stop-opacity="1" stop-color="rgb(74.049377%, 36.782837%, 15.338135%)" offset="0.136719"/><stop stop-opacity="1" stop-color="rgb(73.309326%, 36.602783%, 15.777588%)" offset="0.140625"/><stop stop-opacity="1" stop-color="rgb(72.567749%, 36.421204%, 16.215515%)" offset="0.144531"/><stop stop-opacity="1" stop-color="rgb(71.826172%, 36.24115%, 16.653442%)" offset="0.148437"/><stop stop-opacity="1" stop-color="rgb(71.084595%, 36.061096%, 17.09137%)" offset="0.152344"/><stop stop-opacity="1" stop-color="rgb(70.343018%, 35.881042%, 17.530823%)" offset="0.15625"/><stop stop-opacity="1" stop-color="rgb(69.60144%, 35.699463%, 17.96875%)" offset="0.160156"/><stop stop-opacity="1" stop-color="rgb(68.859863%, 35.519409%, 18.406677%)" offset="0.164062"/><stop stop-opacity="1" stop-color="rgb(68.118286%, 35.339355%, 18.844604%)" offset="0.167969"/><stop stop-opacity="1" stop-color="rgb(67.376709%, 35.159302%, 19.284058%)" offset="0.171875"/><stop stop-opacity="1" stop-color="rgb(66.635132%, 34.977722%, 19.721985%)" offset="0.175781"/><stop stop-opacity="1" stop-color="rgb(65.895081%, 34.797668%, 20.159912%)" offset="0.179688"/><stop stop-opacity="1" stop-color="rgb(65.153503%, 34.616089%, 20.597839%)" offset="0.183594"/><stop stop-opacity="1" stop-color="rgb(64.411926%, 34.436035%, 21.037292%)" offset="0.1875"/><stop stop-opacity="1" stop-color="rgb(63.670349%, 34.255981%, 21.47522%)" offset="0.191406"/><stop stop-opacity="1" stop-color="rgb(62.928772%, 34.075928%, 21.913147%)" offset="0.195312"/><stop stop-opacity="1" stop-color="rgb(62.187195%, 33.894348%, 22.351074%)" offset="0.199219"/><stop stop-opacity="1" stop-color="rgb(61.445618%, 33.714294%, 22.790527%)" offset="0.203125"/><stop stop-opacity="1" stop-color="rgb(60.704041%, 33.534241%, 23.228455%)" offset="0.207031"/><stop stop-opacity="1" stop-color="rgb(59.963989%, 33.354187%, 23.666382%)" offset="0.210937"/><stop stop-opacity="1" stop-color="rgb(59.222412%, 33.172607%, 24.104309%)" offset="0.214844"/><stop stop-opacity="1" stop-color="rgb(58.480835%, 32.992554%, 24.542236%)" offset="0.21875"/><stop stop-opacity="1" stop-color="rgb(57.739258%, 32.8125%, 24.980164%)" offset="0.222656"/><stop stop-opacity="1" stop-color="rgb(56.997681%, 32.632446%, 25.419617%)" offset="0.226562"/><stop stop-opacity="1" stop-color="rgb(56.256104%, 32.450867%, 25.857544%)" offset="0.230469"/><stop stop-opacity="1" stop-color="rgb(55.514526%, 32.270813%, 26.295471%)" offset="0.234375"/><stop stop-opacity="1" stop-color="rgb(54.772949%, 32.090759%, 26.733398%)" offset="0.238281"/><stop stop-opacity="1" stop-color="rgb(54.031372%, 31.910706%, 27.172852%)" offset="0.242187"/><stop stop-opacity="1" stop-color="rgb(53.289795%, 31.729126%, 27.610779%)" offset="0.246094"/><stop stop-opacity="1" stop-color="rgb(52.549744%, 31.549072%, 28.048706%)" offset="0.25"/><stop stop-opacity="1" stop-color="rgb(51.808167%, 31.369019%, 28.486633%)" offset="0.253906"/><stop stop-opacity="1" stop-color="rgb(51.066589%, 31.188965%, 28.926086%)" offset="0.257812"/><stop stop-opacity="1" stop-color="rgb(50.325012%, 31.007385%, 29.364014%)" offset="0.261719"/><stop stop-opacity="1" stop-color="rgb(49.583435%, 30.827332%, 29.801941%)" offset="0.265625"/><stop stop-opacity="1" stop-color="rgb(48.841858%, 30.645752%, 30.239868%)" offset="0.269531"/><stop stop-opacity="1" stop-color="rgb(48.100281%, 30.465698%, 30.679321%)" offset="0.273437"/><stop stop-opacity="1" stop-color="rgb(47.358704%, 30.285645%, 31.117249%)" offset="0.277344"/><stop stop-opacity="1" stop-color="rgb(46.618652%, 30.105591%, 31.555176%)" offset="0.28125"/><stop stop-opacity="1" stop-color="rgb(45.877075%, 29.924011%, 31.993103%)" offset="0.285156"/><stop stop-opacity="1" stop-color="rgb(45.135498%, 29.743958%, 32.432556%)" offset="0.289062"/><stop stop-opacity="1" stop-color="rgb(44.393921%, 29.563904%, 32.870483%)" offset="0.292969"/><stop stop-opacity="1" stop-color="rgb(43.652344%, 29.38385%, 33.308411%)" offset="0.296875"/><stop stop-opacity="1" stop-color="rgb(42.910767%, 29.202271%, 33.746338%)" offset="0.300781"/><stop stop-opacity="1" stop-color="rgb(42.169189%, 29.022217%, 34.185791%)" offset="0.304687"/><stop stop-opacity="1" stop-color="rgb(41.427612%, 28.842163%, 34.623718%)" offset="0.308594"/><stop stop-opacity="1" stop-color="rgb(40.686035%, 28.662109%, 35.061646%)" offset="0.3125"/><stop stop-opacity="1" stop-color="rgb(39.944458%, 28.48053%, 35.499573%)" offset="0.316406"/><stop stop-opacity="1" stop-color="rgb(39.204407%, 28.300476%, 35.939026%)" offset="0.320312"/><stop stop-opacity="1" stop-color="rgb(38.46283%, 28.120422%, 36.376953%)" offset="0.324219"/><stop stop-opacity="1" stop-color="rgb(37.721252%, 27.940369%, 36.81488%)" offset="0.328125"/><stop stop-opacity="1" stop-color="rgb(36.979675%, 27.758789%, 37.252808%)" offset="0.332031"/><stop stop-opacity="1" stop-color="rgb(36.238098%, 27.578735%, 37.690735%)" offset="0.335937"/><stop stop-opacity="1" stop-color="rgb(35.496521%, 27.398682%, 38.128662%)" offset="0.339844"/><stop stop-opacity="1" stop-color="rgb(34.754944%, 27.218628%, 38.568115%)" offset="0.34375"/><stop stop-opacity="1" stop-color="rgb(34.013367%, 27.037048%, 39.006042%)" offset="0.347656"/><stop stop-opacity="1" stop-color="rgb(33.273315%, 26.856995%, 39.44397%)" offset="0.351562"/><stop stop-opacity="1" stop-color="rgb(32.531738%, 26.675415%, 39.881897%)" offset="0.355469"/><stop stop-opacity="1" stop-color="rgb(31.790161%, 26.495361%, 40.32135%)" offset="0.359375"/><stop stop-opacity="1" stop-color="rgb(31.048584%, 26.315308%, 40.759277%)" offset="0.363281"/><stop stop-opacity="1" stop-color="rgb(30.307007%, 26.135254%, 41.197205%)" offset="0.367187"/><stop stop-opacity="1" stop-color="rgb(29.56543%, 25.953674%, 41.635132%)" offset="0.371094"/><stop stop-opacity="1" stop-color="rgb(28.823853%, 25.773621%, 42.074585%)" offset="0.375"/><stop stop-opacity="1" stop-color="rgb(28.082275%, 25.593567%, 42.512512%)" offset="0.378906"/><stop stop-opacity="1" stop-color="rgb(27.340698%, 25.413513%, 42.950439%)" offset="0.382812"/><stop stop-opacity="1" stop-color="rgb(26.599121%, 25.231934%, 43.388367%)" offset="0.386719"/><stop stop-opacity="1" stop-color="rgb(25.85907%, 25.05188%, 43.82782%)" offset="0.390625"/><stop stop-opacity="1" stop-color="rgb(25.117493%, 24.871826%, 44.265747%)" offset="0.394531"/><stop stop-opacity="1" stop-color="rgb(24.375916%, 24.691772%, 44.703674%)" offset="0.398437"/><stop stop-opacity="1" stop-color="rgb(23.634338%, 24.510193%, 45.141602%)" offset="0.402344"/><stop stop-opacity="1" stop-color="rgb(22.892761%, 24.330139%, 45.581055%)" offset="0.40625"/><stop stop-opacity="1" stop-color="rgb(22.151184%, 24.150085%, 46.018982%)" offset="0.410156"/><stop stop-opacity="1" stop-color="rgb(21.409607%, 23.970032%, 46.456909%)" offset="0.414062"/><stop stop-opacity="1" stop-color="rgb(20.66803%, 23.788452%, 46.894836%)" offset="0.417969"/><stop stop-opacity="1" stop-color="rgb(19.927979%, 23.608398%, 47.33429%)" offset="0.421875"/><stop stop-opacity="1" stop-color="rgb(19.186401%, 23.428345%, 47.772217%)" offset="0.425781"/><stop stop-opacity="1" stop-color="rgb(18.444824%, 23.248291%, 48.210144%)" offset="0.429687"/><stop stop-opacity="1" stop-color="rgb(17.703247%, 23.066711%, 48.648071%)" offset="0.433594"/><stop stop-opacity="1" stop-color="rgb(16.96167%, 22.886658%, 49.085999%)" offset="0.4375"/><stop stop-opacity="1" stop-color="rgb(16.220093%, 22.706604%, 49.523926%)" offset="0.441406"/><stop stop-opacity="1" stop-color="rgb(15.478516%, 22.52655%, 49.963379%)" offset="0.445312"/><stop stop-opacity="1" stop-color="rgb(14.736938%, 22.344971%, 50.401306%)" offset="0.449219"/><stop stop-opacity="1" stop-color="rgb(13.995361%, 22.164917%, 50.839233%)" offset="0.453125"/><stop stop-opacity="1" stop-color="rgb(13.253784%, 21.983337%, 51.277161%)" offset="0.457031"/><stop stop-opacity="1" stop-color="rgb(12.513733%, 21.803284%, 51.716614%)" offset="0.460937"/><stop stop-opacity="1" stop-color="rgb(11.772156%, 21.62323%, 52.154541%)" offset="0.464844"/><stop stop-opacity="1" stop-color="rgb(11.030579%, 21.443176%, 52.592468%)" offset="0.46875"/><stop stop-opacity="1" stop-color="rgb(10.289001%, 21.261597%, 53.030396%)" offset="0.472656"/><stop stop-opacity="1" stop-color="rgb(9.547424%, 21.081543%, 53.469849%)" offset="0.476562"/><stop stop-opacity="1" stop-color="rgb(8.805847%, 20.901489%, 53.907776%)" offset="0.480469"/><stop stop-opacity="1" stop-color="rgb(8.06427%, 20.721436%, 54.345703%)" offset="0.484375"/><stop stop-opacity="1" stop-color="rgb(7.322693%, 20.539856%, 54.78363%)" offset="0.488281"/><stop stop-opacity="1" stop-color="rgb(6.582642%, 20.359802%, 55.223083%)" offset="0.492187"/><stop stop-opacity="1" stop-color="rgb(5.841064%, 20.179749%, 55.661011%)" offset="0.496094"/><stop stop-opacity="1" stop-color="rgb(5.099487%, 19.999695%, 56.098938%)" offset="0.5"/><stop stop-opacity="1" stop-color="rgb(5.059814%, 20.480347%, 56.442261%)" offset="0.503906"/><stop stop-opacity="1" stop-color="rgb(5.020142%, 20.960999%, 56.785583%)" offset="0.507812"/><stop stop-opacity="1" stop-color="rgb(4.978943%, 21.44165%, 57.12738%)" offset="0.511719"/><stop stop-opacity="1" stop-color="rgb(4.93927%, 21.923828%, 57.470703%)" offset="0.515625"/><stop stop-opacity="1" stop-color="rgb(4.899597%, 22.40448%, 57.814026%)" offset="0.519531"/><stop stop-opacity="1" stop-color="rgb(4.859924%, 22.886658%, 58.157349%)" offset="0.523438"/><stop stop-opacity="1" stop-color="rgb(4.820251%, 23.36731%, 58.499146%)" offset="0.527344"/><stop stop-opacity="1" stop-color="rgb(4.780579%, 23.849487%, 58.842468%)" offset="0.53125"/><stop stop-opacity="1" stop-color="rgb(4.740906%, 24.330139%, 59.185791%)" offset="0.535156"/><stop stop-opacity="1" stop-color="rgb(4.701233%, 24.812317%, 59.529114%)" offset="0.539062"/><stop stop-opacity="1" stop-color="rgb(4.660034%, 25.292969%, 59.870911%)" offset="0.542969"/><stop stop-opacity="1" stop-color="rgb(4.620361%, 25.773621%, 60.214233%)" offset="0.546875"/><stop stop-opacity="1" stop-color="rgb(4.580688%, 26.254272%, 60.557556%)" offset="0.550781"/><stop stop-opacity="1" stop-color="rgb(4.541016%, 26.73645%, 60.900879%)" offset="0.554688"/><stop stop-opacity="1" stop-color="rgb(4.501343%, 27.217102%, 61.242676%)" offset="0.558594"/><stop stop-opacity="1" stop-color="rgb(4.46167%, 27.69928%, 61.585999%)" offset="0.5625"/><stop stop-opacity="1" stop-color="rgb(4.421997%, 28.179932%, 61.929321%)" offset="0.566406"/><stop stop-opacity="1" stop-color="rgb(4.382324%, 28.662109%, 62.272644%)" offset="0.570313"/><stop stop-opacity="1" stop-color="rgb(4.342651%, 29.142761%, 62.615967%)" offset="0.574219"/><stop stop-opacity="1" stop-color="rgb(4.302979%, 29.624939%, 62.95929%)" offset="0.578125"/><stop stop-opacity="1" stop-color="rgb(4.26178%, 30.105591%, 63.301086%)" offset="0.582031"/><stop stop-opacity="1" stop-color="rgb(4.222107%, 30.586243%, 63.644409%)" offset="0.585938"/><stop stop-opacity="1" stop-color="rgb(4.182434%, 31.066895%, 63.987732%)" offset="0.589844"/><stop stop-opacity="1" stop-color="rgb(4.142761%, 31.549072%, 64.331055%)" offset="0.59375"/><stop stop-opacity="1" stop-color="rgb(4.103088%, 32.029724%, 64.672852%)" offset="0.597656"/><stop stop-opacity="1" stop-color="rgb(4.063416%, 32.511902%, 65.016174%)" offset="0.601563"/><stop stop-opacity="1" stop-color="rgb(4.023743%, 32.992554%, 65.359497%)" offset="0.605469"/><stop stop-opacity="1" stop-color="rgb(3.98407%, 33.474731%, 65.70282%)" offset="0.609375"/><stop stop-opacity="1" stop-color="rgb(3.942871%, 33.955383%, 66.044617%)" offset="0.613281"/><stop stop-opacity="1" stop-color="rgb(3.903198%, 34.436035%, 66.387939%)" offset="0.617188"/><stop stop-opacity="1" stop-color="rgb(3.863525%, 34.916687%, 66.731262%)" offset="0.621094"/><stop stop-opacity="1" stop-color="rgb(3.823853%, 35.398865%, 67.074585%)" offset="0.625"/><stop stop-opacity="1" stop-color="rgb(3.78418%, 35.879517%, 67.416382%)" offset="0.628906"/><stop stop-opacity="1" stop-color="rgb(3.744507%, 36.361694%, 67.759705%)" offset="0.632813"/><stop stop-opacity="1" stop-color="rgb(3.704834%, 36.842346%, 68.103027%)" offset="0.636719"/><stop stop-opacity="1" stop-color="rgb(3.665161%, 37.324524%, 68.44635%)" offset="0.640625"/><stop stop-opacity="1" stop-color="rgb(3.625488%, 37.805176%, 68.788147%)" offset="0.644531"/><stop stop-opacity="1" stop-color="rgb(3.585815%, 38.287354%, 69.13147%)" offset="0.648438"/><stop stop-opacity="1" stop-color="rgb(3.544617%, 38.768005%, 69.474792%)" offset="0.652344"/><stop stop-opacity="1" stop-color="rgb(3.504944%, 39.248657%, 69.818115%)" offset="0.65625"/><stop stop-opacity="1" stop-color="rgb(3.465271%, 39.729309%, 70.159912%)" offset="0.660156"/><stop stop-opacity="1" stop-color="rgb(3.425598%, 40.211487%, 70.503235%)" offset="0.664063"/><stop stop-opacity="1" stop-color="rgb(3.385925%, 40.692139%, 70.846558%)" offset="0.667969"/><stop stop-opacity="1" stop-color="rgb(3.346252%, 41.174316%, 71.18988%)" offset="0.671875"/><stop stop-opacity="1" stop-color="rgb(3.30658%, 41.654968%, 71.533203%)" offset="0.675781"/><stop stop-opacity="1" stop-color="rgb(3.266907%, 42.137146%, 71.876526%)" offset="0.679688"/><stop stop-opacity="1" stop-color="rgb(3.225708%, 42.617798%, 72.218323%)" offset="0.683594"/><stop stop-opacity="1" stop-color="rgb(3.186035%, 43.099976%, 72.561646%)" offset="0.6875"/><stop stop-opacity="1" stop-color="rgb(3.146362%, 43.580627%, 72.904968%)" offset="0.691406"/><stop stop-opacity="1" stop-color="rgb(3.106689%, 44.061279%, 73.248291%)" offset="0.695312"/><stop stop-opacity="1" stop-color="rgb(3.067017%, 44.541931%, 73.590088%)" offset="0.699219"/><stop stop-opacity="1" stop-color="rgb(3.027344%, 45.024109%, 73.933411%)" offset="0.703125"/><stop stop-opacity="1" stop-color="rgb(2.987671%, 45.504761%, 74.276733%)" offset="0.707031"/><stop stop-opacity="1" stop-color="rgb(2.947998%, 45.986938%, 74.620056%)" offset="0.710938"/><stop stop-opacity="1" stop-color="rgb(2.908325%, 46.46759%, 74.961853%)" offset="0.714844"/><stop stop-opacity="1" stop-color="rgb(2.868652%, 46.949768%, 75.305176%)" offset="0.71875"/><stop stop-opacity="1" stop-color="rgb(2.827454%, 47.43042%, 75.648499%)" offset="0.722656"/><stop stop-opacity="1" stop-color="rgb(2.787781%, 47.911072%, 75.991821%)" offset="0.726562"/><stop stop-opacity="1" stop-color="rgb(2.748108%, 48.391724%, 76.333618%)" offset="0.730469"/><stop stop-opacity="1" stop-color="rgb(2.708435%, 48.873901%, 76.676941%)" offset="0.734375"/><stop stop-opacity="1" stop-color="rgb(2.668762%, 49.354553%, 77.020264%)" offset="0.738281"/><stop stop-opacity="1" stop-color="rgb(2.629089%, 49.836731%, 77.363586%)" offset="0.742188"/><stop stop-opacity="1" stop-color="rgb(2.589417%, 50.317383%, 77.705383%)" offset="0.746094"/><stop stop-opacity="1" stop-color="rgb(2.549744%, 50.799561%, 78.048706%)" offset="0.75"/><stop stop-opacity="1" stop-color="rgb(2.508545%, 51.280212%, 78.392029%)" offset="0.753906"/><stop stop-opacity="1" stop-color="rgb(2.468872%, 51.76239%, 78.735352%)" offset="0.757812"/><stop stop-opacity="1" stop-color="rgb(2.429199%, 52.243042%, 79.077148%)" offset="0.761719"/><stop stop-opacity="1" stop-color="rgb(2.389526%, 52.723694%, 79.420471%)" offset="0.765625"/><stop stop-opacity="1" stop-color="rgb(2.349854%, 53.204346%, 79.763794%)" offset="0.769531"/><stop stop-opacity="1" stop-color="rgb(2.310181%, 53.686523%, 80.107117%)" offset="0.773438"/><stop stop-opacity="1" stop-color="rgb(2.270508%, 54.167175%, 80.448914%)" offset="0.777344"/><stop stop-opacity="1" stop-color="rgb(2.230835%, 54.649353%, 80.792236%)" offset="0.78125"/><stop stop-opacity="1" stop-color="rgb(2.191162%, 55.130005%, 81.135559%)" offset="0.785156"/><stop stop-opacity="1" stop-color="rgb(2.151489%, 55.612183%, 81.478882%)" offset="0.789062"/><stop stop-opacity="1" stop-color="rgb(2.110291%, 56.092834%, 81.822205%)" offset="0.792969"/><stop stop-opacity="1" stop-color="rgb(2.070618%, 56.573486%, 82.165527%)" offset="0.796875"/><stop stop-opacity="1" stop-color="rgb(2.030945%, 57.054138%, 82.507324%)" offset="0.800781"/><stop stop-opacity="1" stop-color="rgb(1.991272%, 57.536316%, 82.850647%)" offset="0.804688"/><stop stop-opacity="1" stop-color="rgb(1.951599%, 58.016968%, 83.19397%)" offset="0.808594"/><stop stop-opacity="1" stop-color="rgb(1.911926%, 58.499146%, 83.537292%)" offset="0.8125"/><stop stop-opacity="1" stop-color="rgb(1.872253%, 58.979797%, 83.879089%)" offset="0.816406"/><stop stop-opacity="1" stop-color="rgb(1.832581%, 59.461975%, 84.222412%)" offset="0.820312"/><stop stop-opacity="1" stop-color="rgb(1.791382%, 59.942627%, 84.565735%)" offset="0.824219"/><stop stop-opacity="1" stop-color="rgb(1.751709%, 60.424805%, 84.909058%)" offset="0.828125"/><stop stop-opacity="1" stop-color="rgb(1.712036%, 60.905457%, 85.250854%)" offset="0.832031"/><stop stop-opacity="1" stop-color="rgb(1.672363%, 61.386108%, 85.594177%)" offset="0.835937"/><stop stop-opacity="1" stop-color="rgb(1.63269%, 61.86676%, 85.9375%)" offset="0.839844"/><stop stop-opacity="1" stop-color="rgb(1.593018%, 62.348938%, 86.280823%)" offset="0.84375"/><stop stop-opacity="1" stop-color="rgb(1.553345%, 62.82959%, 86.62262%)" offset="0.847656"/><stop stop-opacity="1" stop-color="rgb(1.513672%, 63.311768%, 86.965942%)" offset="0.851562"/><stop stop-opacity="1" stop-color="rgb(1.473999%, 63.792419%, 87.309265%)" offset="0.855469"/><stop stop-opacity="1" stop-color="rgb(1.434326%, 64.274597%, 87.652588%)" offset="0.859375"/><stop stop-opacity="1" stop-color="rgb(1.393127%, 64.755249%, 87.994385%)" offset="0.863281"/><stop stop-opacity="1" stop-color="rgb(1.353455%, 65.237427%, 88.337708%)" offset="0.867187"/><stop stop-opacity="1" stop-color="rgb(1.313782%, 65.718079%, 88.68103%)" offset="0.871094"/><stop stop-opacity="1" stop-color="rgb(1.274109%, 66.19873%, 89.024353%)" offset="0.875"/><stop stop-opacity="1" stop-color="rgb(1.234436%, 66.679382%, 89.36615%)" offset="0.878906"/><stop stop-opacity="1" stop-color="rgb(1.194763%, 67.16156%, 89.709473%)" offset="0.882812"/><stop stop-opacity="1" stop-color="rgb(1.15509%, 67.642212%, 90.052795%)" offset="0.886719"/><stop stop-opacity="1" stop-color="rgb(1.115417%, 68.12439%, 90.396118%)" offset="0.890625"/><stop stop-opacity="1" stop-color="rgb(1.074219%, 68.605042%, 90.739441%)" offset="0.894531"/><stop stop-opacity="1" stop-color="rgb(1.034546%, 69.087219%, 91.082764%)" offset="0.898437"/><stop stop-opacity="1" stop-color="rgb(0.994873%, 69.567871%, 91.424561%)" offset="0.902344"/><stop stop-opacity="1" stop-color="rgb(0.9552%, 70.048523%, 91.767883%)" offset="0.90625"/><stop stop-opacity="1" stop-color="rgb(0.915527%, 70.529175%, 92.111206%)" offset="0.910156"/><stop stop-opacity="1" stop-color="rgb(0.875854%, 71.011353%, 92.454529%)" offset="0.914062"/><stop stop-opacity="1" stop-color="rgb(0.836182%, 71.492004%, 92.796326%)" offset="0.917969"/><stop stop-opacity="1" stop-color="rgb(0.796509%, 71.974182%, 93.139648%)" offset="0.921875"/><stop stop-opacity="1" stop-color="rgb(0.756836%, 72.454834%, 93.482971%)" offset="0.925781"/><stop stop-opacity="1" stop-color="rgb(0.717163%, 72.937012%, 93.826294%)" offset="0.929687"/><stop stop-opacity="1" stop-color="rgb(0.675964%, 73.417664%, 94.168091%)" offset="0.933594"/><stop stop-opacity="1" stop-color="rgb(0.636292%, 73.899841%, 94.511414%)" offset="0.9375"/><stop stop-opacity="1" stop-color="rgb(0.596619%, 74.380493%, 94.854736%)" offset="0.941406"/><stop stop-opacity="1" stop-color="rgb(0.556946%, 74.861145%, 95.198059%)" offset="0.945312"/><stop stop-opacity="1" stop-color="rgb(0.517273%, 75.341797%, 95.539856%)" offset="0.949219"/><stop stop-opacity="1" stop-color="rgb(0.4776%, 75.823975%, 95.883179%)" offset="0.953125"/><stop stop-opacity="1" stop-color="rgb(0.437927%, 76.304626%, 96.226501%)" offset="0.957031"/><stop stop-opacity="1" stop-color="rgb(0.398254%, 76.786804%, 96.569824%)" offset="0.960938"/><stop stop-opacity="1" stop-color="rgb(0.357056%, 77.267456%, 96.911621%)" offset="0.964844"/><stop stop-opacity="1" stop-color="rgb(0.317383%, 77.749634%, 97.254944%)" offset="0.96875"/><stop stop-opacity="1" stop-color="rgb(0.27771%, 78.230286%, 97.598267%)" offset="0.972656"/><stop stop-opacity="1" stop-color="rgb(0.238037%, 78.712463%, 97.941589%)" offset="0.976562"/><stop stop-opacity="1" stop-color="rgb(0.198364%, 79.193115%, 98.283386%)" offset="0.980469"/><stop stop-opacity="1" stop-color="rgb(0.158691%, 79.673767%, 98.626709%)" offset="0.984375"/><stop stop-opacity="1" stop-color="rgb(0.119019%, 80.154419%, 98.970032%)" offset="0.988281"/><stop stop-opacity="1" stop-color="rgb(0.0793457%, 80.636597%, 99.313354%)" offset="0.992188"/><stop stop-opacity="1" stop-color="rgb(0.0396729%, 81.117249%, 99.655151%)" offset="0.996094"/><stop stop-opacity="1" stop-color="rgb(0%, 81.599426%, 99.998474%)" offset="1"/></linearGradient><clipPath id="bae0122a6d"><path d="M 185.152344 185.152344 L 624.652344 185.152344 L 624.652344 624.652344 L 185.152344 624.652344 Z M 185.152344 185.152344 " clip-rule="nonzero"/></clipPath></defs><g clip-path="url(#d669230e99)"><g clip-path="url(#3c7641bb8a)"><path fill="url(#ee33421c3e)" d="M 85.445312 85.445312 L 85.445312 724.554688 L 724.554688 724.554688 L 724.554688 85.445312 Z M 85.445312 85.445312 " fill-rule="nonzero"/></g></g><g clip-path="url(#bae0122a6d)"><path fill="#ffffff" d="M 301.578125 352.742188 C 301.578125 349.996094 303.816406 347.757812 306.59375 347.757812 C 309.34375 347.757812 311.582031 349.996094 311.582031 352.742188 L 311.582031 371.75 C 311.582031 373.507812 310.671875 375.035156 309.3125 375.945312 L 295.804688 386.367188 L 295.804688 408.152344 C 295.804688 410.929688 293.566406 413.167969 290.816406 413.167969 C 288.039062 413.167969 285.800781 410.929688 285.800781 408.152344 L 285.800781 383.929688 L 285.832031 383.929688 C 285.832031 382.429688 286.480469 380.953125 287.757812 379.992188 L 301.578125 369.3125 Z M 498.308594 352.3125 C 498.308594 349.566406 500.546875 347.328125 503.324219 347.328125 C 506.074219 347.328125 508.3125 349.566406 508.3125 352.3125 L 508.3125 369.3125 L 522.132812 379.992188 C 523.410156 380.953125 524.089844 382.429688 524.089844 383.929688 L 524.089844 408.152344 C 524.089844 410.929688 521.851562 413.167969 519.105469 413.167969 C 516.355469 413.167969 514.117188 410.929688 514.117188 408.152344 L 514.117188 386.367188 L 500.578125 375.945312 C 499.21875 375.035156 498.308594 373.507812 498.308594 371.75 Z M 560.175781 344.867188 L 560.574219 371.039062 C 560.574219 373.816406 558.335938 376.054688 555.558594 376.054688 C 552.808594 376.054688 550.570312 373.816406 550.570312 371.039062 L 550.203125 344.867188 C 550.203125 342.089844 552.441406 339.851562 555.1875 339.851562 C 557.9375 339.851562 560.175781 342.089844 560.175781 344.867188 Z M 249.347656 346.289062 C 249.347656 343.539062 251.585938 341.300781 254.332031 341.300781 C 257.109375 341.300781 259.347656 343.539062 259.347656 346.289062 L 259.347656 371.039062 C 259.347656 373.816406 257.109375 376.054688 254.332031 376.054688 C 251.585938 376.054688 249.347656 373.816406 249.347656 371.039062 Z M 624.640625 535.304688 L 589.464844 535.304688 L 577.59375 555.667969 C 576.683594 557.289062 575.015625 558.15625 573.285156 558.15625 L 519.664062 558.15625 C 519.554688 558.328125 519.492188 558.554688 519.492188 558.835938 L 519.492188 624.039062 C 519.492188 624.320312 519.554688 624.550781 519.664062 624.71875 L 624.640625 624.71875 C 624.71875 624.550781 624.78125 624.320312 624.78125 624.039062 L 624.78125 535.972656 C 624.789062 535.703125 624.730469 535.472656 624.640625 535.304688 Z M 220.457031 535.304688 L 185.273438 535.304688 C 185.160156 535.472656 185.101562 535.703125 185.101562 535.980469 L 185.101562 624.050781 C 185.101562 624.328125 185.160156 624.558594 185.273438 624.730469 L 290.246094 624.730469 C 290.328125 624.558594 290.386719 624.328125 290.386719 624.050781 L 290.386719 558.847656 C 290.386719 558.566406 290.328125 558.335938 290.246094 558.167969 L 236.625 558.167969 C 234.894531 558.167969 233.226562 557.289062 232.289062 555.679688 Z M 439.472656 479.671875 L 370.441406 479.671875 L 370.441406 506.273438 L 439.472656 506.273438 Z M 439.472656 506.273438 Z M 404.945312 260.148438 C 426.050781 260.148438 445.226562 263.207031 459.1875 268.113281 C 473.605469 273.160156 482.898438 280.542969 484.199219 289.21875 C 484.480469 289.835938 484.648438 290.546875 484.648438 291.285156 L 484.648438 343.859375 L 524.871094 343.859375 C 535.09375 343.859375 544.667969 341.449219 552.910156 337.203125 C 553.140625 337.09375 553.359375 336.945312 553.589844 336.863281 C 557.808594 334.625 561.695312 331.90625 565.121094 328.820312 C 575.234375 319.644531 581.488281 307.003906 581.488281 293.046875 C 581.488281 279.90625 575.914062 267.894531 566.789062 258.878906 C 557.46875 249.675781 544.417969 243.550781 529.796875 242.421875 C 527.648438 242.25 525.75 240.691406 525.289062 238.484375 C 522.742188 226.730469 515.71875 216.417969 505.832031 209.085938 C 496.03125 201.78125 483.460938 197.382812 469.691406 197.382812 C 463.652344 197.382812 457.816406 198.234375 452.382812 199.792969 C 446.804688 201.410156 441.589844 203.757812 436.941406 206.726562 C 435.132812 207.976562 432.664062 207.914062 430.90625 206.445312 C 422.894531 199.761719 413.519531 194.375 403.207031 190.726562 C 393.234375 187.191406 382.363281 185.261719 370.96875 185.261719 C 351.792969 185.261719 334.085938 190.757812 319.644531 200.101562 C 304.886719 209.644531 293.523438 223.246094 287.550781 239.023438 C 286.871094 240.863281 285.109375 242.191406 283.011719 242.25 C 267.742188 242.730469 254.003906 248.625 244.121094 257.921875 C 234.375 267.042969 228.402344 279.414062 228.402344 293.046875 C 228.402344 307.003906 234.65625 319.644531 244.769531 328.820312 C 247.828125 331.597656 251.253906 334.054688 254.960938 336.15625 L 258.019531 337.742188 C 266.035156 341.652344 275.21875 343.859375 284.992188 343.859375 L 325.242188 343.859375 L 325.242188 291.277344 C 325.242188 290.535156 325.410156 289.828125 325.691406 289.207031 C 326.972656 280.542969 336.285156 273.148438 350.675781 268.101562 C 364.695312 263.207031 383.871094 260.148438 404.945312 260.148438 Z M 474.65625 306.796875 C 470.578125 309.714844 465.363281 312.320312 459.1875 314.46875 C 445.226562 319.367188 426.039062 322.433594 404.945312 322.433594 C 383.871094 322.433594 364.695312 319.375 350.703125 314.46875 C 344.558594 312.320312 339.3125 309.714844 335.265625 306.796875 L 335.265625 338.460938 C 357.640625 347.554688 381.292969 352.082031 404.945312 352.082031 C 428.628906 352.082031 452.28125 347.546875 474.65625 338.460938 Z M 455.929688 277.507812 C 442.988281 272.949219 424.972656 270.140625 404.945312 270.140625 C 384.949219 270.140625 366.933594 272.949219 353.980469 277.507812 C 342.589844 281.503906 335.542969 286.429688 335.542969 291.277344 C 335.542969 296.152344 342.601562 301.078125 353.980469 305.066406 C 366.921875 309.601562 384.941406 312.429688 404.945312 312.429688 C 424.972656 312.429688 442.988281 309.601562 455.929688 305.066406 C 467.320312 301.070312 474.347656 296.144531 474.347656 291.277344 C 474.347656 286.429688 467.320312 281.503906 455.929688 277.507812 Z M 474.65625 349.175781 C 452.160156 357.789062 428.539062 362.097656 404.945312 362.097656 C 381.351562 362.097656 357.75 357.789062 335.265625 349.175781 L 335.265625 382.402344 C 357.640625 391.496094 381.292969 396.023438 404.945312 396.023438 C 428.628906 396.023438 452.28125 391.484375 474.65625 382.402344 Z M 474.65625 393.105469 C 452.160156 401.71875 428.539062 406.023438 404.945312 406.023438 C 381.351562 406.023438 357.75 401.71875 335.265625 393.105469 L 335.265625 402.449219 C 335.265625 419.183594 352.914062 430.117188 375.488281 435.105469 C 384.691406 437.144531 394.804688 438.160156 404.945312 438.160156 C 415.117188 438.160156 425.199219 437.144531 434.433594 435.105469 C 457.007812 430.117188 474.65625 419.183594 474.65625 402.449219 Z M 404.945312 438.171875 Z M 512.417969 431.457031 C 514.226562 433.296875 516.785156 434.433594 519.585938 434.433594 C 522.390625 434.433594 524.941406 433.304688 526.75 431.457031 C 528.585938 429.617188 529.726562 427.089844 529.726562 424.292969 C 529.726562 421.492188 528.597656 418.9375 526.75 417.097656 C 524.941406 415.257812 522.382812 414.117188 519.585938 414.117188 C 519.472656 414.117188 519.382812 414.117188 519.273438 414.117188 L 519.214844 414.117188 C 516.554688 414.230469 514.148438 415.339844 512.417969 417.097656 C 510.582031 418.9375 509.441406 421.484375 509.441406 424.292969 C 509.441406 427.101562 510.570312 429.617188 512.417969 431.457031 Z M 547.714844 394.351562 C 549.554688 396.160156 552.101562 397.332031 554.910156 397.332031 C 557.71875 397.332031 560.234375 396.171875 562.074219 394.351562 C 563.914062 392.515625 565.050781 389.964844 565.050781 387.160156 C 565.050781 384.351562 563.921875 381.832031 562.074219 379.992188 C 560.34375 378.265625 557.996094 377.164062 555.386719 377.015625 L 555.277344 377.015625 C 555.167969 377.015625 555.019531 377.015625 554.910156 377.015625 C 552.101562 377.015625 549.554688 378.144531 547.714844 379.992188 C 545.875 381.832031 544.734375 384.359375 544.734375 387.160156 C 544.734375 389.964844 545.867188 392.515625 547.714844 394.351562 Z M 290.335938 434.433594 C 293.144531 434.433594 295.664062 433.304688 297.5 431.457031 C 299.339844 429.617188 300.480469 427.089844 300.480469 424.292969 C 300.480469 421.492188 299.351562 418.9375 297.5 417.097656 C 295.742188 415.339844 293.363281 414.238281 290.707031 414.117188 L 290.648438 414.117188 C 290.535156 414.117188 290.417969 414.117188 290.335938 414.117188 C 287.527344 414.117188 284.980469 415.25 283.140625 417.097656 C 281.304688 418.9375 280.164062 421.484375 280.164062 424.292969 C 280.164062 427.101562 281.292969 429.617188 283.140625 431.457031 C 284.980469 433.304688 287.527344 434.433594 290.335938 434.433594 Z M 255.011719 397.332031 C 257.820312 397.332031 260.367188 396.171875 262.207031 394.351562 C 264.015625 392.515625 265.183594 389.964844 265.183594 387.160156 C 265.183594 384.351562 264.027344 381.832031 262.207031 379.992188 C 260.367188 378.15625 257.820312 377.015625 255.011719 377.015625 C 254.902344 377.015625 254.761719 377.015625 254.640625 377.015625 L 254.53125 377.015625 C 251.925781 377.15625 249.574219 378.265625 247.847656 379.992188 C 246.007812 381.832031 244.871094 384.359375 244.871094 387.160156 C 244.871094 389.964844 246 392.515625 247.847656 394.351562 C 249.6875 396.171875 252.214844 397.332031 255.011719 397.332031 Z M 254.980469 531.535156 C 254.980469 534.3125 252.742188 536.550781 249.964844 536.550781 C 247.21875 536.550781 244.980469 534.3125 244.980469 531.535156 L 244.980469 493.414062 C 244.980469 490.632812 247.21875 488.394531 249.964844 488.394531 L 362.707031 488.394531 C 365.484375 488.394531 367.722656 490.632812 367.722656 493.414062 C 367.722656 496.160156 365.484375 498.398438 362.707031 498.398438 L 254.980469 498.398438 Z M 449.472656 498.398438 C 446.726562 498.398438 444.488281 496.160156 444.488281 493.414062 C 444.488281 490.632812 446.726562 488.394531 449.472656 488.394531 L 559.914062 488.394531 C 562.695312 488.394531 564.933594 490.632812 564.933594 493.414062 L 564.933594 531.535156 C 564.933594 534.3125 562.695312 536.550781 559.914062 536.550781 C 557.167969 536.550781 554.929688 534.3125 554.929688 531.535156 L 554.929688 498.390625 L 449.472656 498.390625 Z M 409.960938 472.167969 C 409.960938 474.945312 407.722656 477.183594 404.945312 477.183594 C 402.199219 477.183594 399.960938 474.945312 399.960938 472.167969 L 399.960938 445.226562 C 399.960938 442.480469 402.199219 440.242188 404.945312 440.242188 C 407.722656 440.242188 409.960938 442.480469 409.960938 445.226562 Z M 409.960938 472.167969 " fill-opacity="1" fill-rule="nonzero"/></g></svg>