<svg xmlns="http://www.w3.org/2000/svg" xmlns:xlink="http://www.w3.org/1999/xlink" width="150" zoomAndPan="magnify" viewBox="0 0 112.5 112.499997" height="150" preserveAspectRatio="xMidYMid meet" version="1.0"><defs><clipPath id="1b182de6ce"><path d="M 2 87 L 19 87 L 19 108.96875 L 2 108.96875 Z M 2 87 " clip-rule="nonzero"/></clipPath><clipPath id="25af526f02"><path d="M 25 77 L 42 77 L 42 108.96875 L 25 108.96875 Z M 25 77 " clip-rule="nonzero"/></clipPath><clipPath id="03d26d8e84"><path d="M 49 67 L 66 67 L 66 108.96875 L 49 108.96875 Z M 49 67 " clip-rule="nonzero"/></clipPath><clipPath id="10586ff835"><path d="M 72 45 L 89 45 L 89 108.96875 L 72 108.96875 Z M 72 45 " clip-rule="nonzero"/></clipPath><clipPath id="b05a2eeba9"><path d="M 95 12 L 112 12 L 112 108.96875 L 95 108.96875 Z M 95 12 " clip-rule="nonzero"/></clipPath><clipPath id="db7d84e634"><path d="M 0 2.941406 L 103 2.941406 L 103 76 L 0 76 Z M 0 2.941406 " clip-rule="nonzero"/></clipPath></defs><g clip-path="url(#1b182de6ce)"><path fill="#2bbbed" d="M 2.296875 87.160156 L 18.273438 87.160156 L 18.273438 108.96875 L 2.296875 108.96875 Z M 2.296875 87.160156 " fill-opacity="1" fill-rule="nonzero"/></g><g clip-path="url(#25af526f02)"><path fill="#2bbbed" d="M 25.722656 77.585938 L 41.695312 77.585938 L 41.695312 108.96875 L 25.722656 108.96875 Z M 25.722656 77.585938 " fill-opacity="1" fill-rule="nonzero"/></g><g clip-path="url(#03d26d8e84)"><path fill="#2bbbed" d="M 49.144531 67.488281 L 65.117188 67.488281 L 65.117188 108.96875 L 49.144531 108.96875 Z M 49.144531 67.488281 " fill-opacity="1" fill-rule="nonzero"/></g><g clip-path="url(#10586ff835)"><path fill="#2bbbed" d="M 72.558594 45.144531 L 88.53125 45.144531 L 88.53125 108.96875 L 72.558594 108.96875 Z M 72.558594 45.144531 " fill-opacity="1" fill-rule="nonzero"/></g><g clip-path="url(#b05a2eeba9)"><path fill="#2bbbed" d="M 95.980469 12.703125 L 111.953125 12.703125 L 111.953125 108.96875 L 95.980469 108.96875 Z M 95.980469 12.703125 " fill-opacity="1" fill-rule="nonzero"/></g><g clip-path="url(#db7d84e634)"><path fill="#ed1c24" d="M 99.910156 2.941406 L 73.1875 21.066406 C 73.117188 21.113281 73.128906 21.21875 73.199219 21.253906 L 73.875 21.578125 L 81.570312 25.304688 C 81.628906 25.328125 81.652344 25.398438 81.617188 25.457031 C 80.367188 27.378906 79.039062 29.253906 77.628906 31.082031 C 75.050781 34.425781 72.183594 37.605469 69.105469 40.601562 C 66.027344 43.59375 62.726562 46.414062 59.253906 49.046875 C 55.78125 51.679688 52.128906 54.125 48.351562 56.398438 C 47.410156 56.96875 46.453125 57.527344 45.496094 58.0625 C 44.539062 58.609375 43.574219 59.144531 42.59375 59.671875 C 41.613281 60.195312 40.632812 60.707031 39.644531 61.207031 C 39.398438 61.335938 39.152344 61.464844 38.898438 61.582031 L 38.152344 61.953125 L 37.40625 62.316406 C 37.160156 62.441406 36.902344 62.558594 36.660156 62.675781 C 32.660156 64.609375 28.554688 66.367188 24.371094 67.964844 C 20.195312 69.558594 15.941406 71.003906 11.625 72.273438 C 9.46875 72.914062 7.300781 73.496094 5.121094 74.046875 C 4.023438 74.3125 2.929688 74.582031 1.832031 74.824219 C 1.285156 74.941406 0.738281 75.070312 0.175781 75.175781 C 0.046875 75.199219 0.0703125 75.398438 0.210938 75.386719 C 0.769531 75.339844 1.34375 75.292969 1.902344 75.234375 C 3.035156 75.128906 4.152344 75 5.285156 74.859375 C 7.535156 74.59375 9.773438 74.265625 12.011719 73.894531 C 16.488281 73.160156 20.953125 72.238281 25.371094 71.144531 C 27.585938 70.597656 29.792969 70.003906 31.984375 69.363281 C 34.175781 68.722656 36.367188 68.035156 38.535156 67.3125 C 38.804688 67.21875 39.082031 67.125 39.351562 67.03125 L 40.167969 66.753906 L 40.984375 66.460938 C 41.253906 66.367188 41.519531 66.265625 41.800781 66.171875 C 42.882812 65.773438 43.957031 65.378906 45.03125 64.960938 C 46.101562 64.539062 47.175781 64.109375 48.234375 63.667969 C 49.296875 63.222656 50.359375 62.769531 51.417969 62.304688 C 55.652344 60.425781 59.800781 58.332031 63.847656 55.988281 C 67.894531 53.648438 71.835938 51.0625 75.613281 48.195312 C 79.390625 45.34375 83.003906 42.207031 86.386719 38.796875 C 88.808594 36.347656 91.117188 33.761719 93.277344 31.039062 C 93.3125 31.003906 93.355469 30.992188 93.402344 31.015625 L 102.078125 35.207031 C 102.148438 35.242188 102.230469 35.183594 102.230469 35.101562 Z M 99.910156 2.941406 " fill-opacity="1" fill-rule="nonzero"/></g></svg>