<svg xmlns="http://www.w3.org/2000/svg" xmlns:xlink="http://www.w3.org/1999/xlink" width="150" zoomAndPan="magnify" viewBox="0 0 112.5 112.499997" height="150" preserveAspectRatio="xMidYMid meet" version="1.0"><path fill="#88c8fe" d="M 85.761719 31.332031 C 86.5 58.132812 86.808594 86.472656 55.988281 96.496094 C 25.167969 86.472656 25.476562 58.132812 26.214844 31.332031 C 36.769531 29.761719 47.574219 26.058594 55.988281 20.929688 C 64.402344 26.058594 75.207031 29.761719 85.761719 31.332031 Z M 85.761719 31.332031 " fill-opacity="1" fill-rule="evenodd"/><path fill="#60b7fe" d="M 85.761719 31.332031 C 86.5 58.132812 86.808594 86.472656 55.988281 96.496094 L 55.988281 20.929688 C 64.402344 26.058594 75.207031 29.761719 85.761719 31.332031 Z M 85.761719 31.332031 " fill-opacity="1" fill-rule="evenodd"/><path fill="#ffbf31" d="M 71.894531 56.089844 C 71.894531 56.628906 71.867188 57.164062 71.8125 57.703125 C 71.761719 58.238281 71.683594 58.773438 71.578125 59.300781 C 71.472656 59.828125 71.339844 60.351562 71.183594 60.867188 C 71.027344 61.382812 70.847656 61.890625 70.640625 62.390625 C 70.4375 62.886719 70.207031 63.375 69.953125 63.851562 C 69.699219 64.328125 69.421875 64.789062 69.121094 65.238281 C 68.824219 65.683594 68.503906 66.117188 68.160156 66.535156 C 67.820312 66.953125 67.457031 67.351562 67.078125 67.730469 C 66.699219 68.113281 66.300781 68.476562 65.882812 68.816406 C 65.464844 69.160156 65.035156 69.480469 64.585938 69.78125 C 64.140625 70.078125 63.679688 70.355469 63.203125 70.609375 C 62.726562 70.863281 62.242188 71.09375 61.746094 71.300781 C 61.246094 71.507812 60.742188 71.691406 60.226562 71.847656 C 59.710938 72.003906 59.1875 72.132812 58.660156 72.238281 C 58.132812 72.34375 57.601562 72.421875 57.066406 72.476562 C 56.53125 72.527344 55.992188 72.554688 55.453125 72.554688 C 54.914062 72.554688 54.378906 72.527344 53.84375 72.476562 C 53.308594 72.421875 52.773438 72.34375 52.246094 72.238281 C 51.71875 72.132812 51.195312 72.003906 50.683594 71.847656 C 50.167969 71.691406 49.660156 71.507812 49.164062 71.300781 C 48.664062 71.09375 48.179688 70.863281 47.703125 70.609375 C 47.230469 70.355469 46.769531 70.078125 46.320312 69.78125 C 45.871094 69.480469 45.441406 69.160156 45.023438 68.816406 C 44.609375 68.476562 44.210938 68.113281 43.828125 67.730469 C 43.449219 67.351562 43.085938 66.953125 42.746094 66.535156 C 42.40625 66.117188 42.085938 65.683594 41.785156 65.238281 C 41.484375 64.789062 41.210938 64.328125 40.957031 63.851562 C 40.703125 63.375 40.472656 62.886719 40.265625 62.390625 C 40.058594 61.890625 39.878906 61.382812 39.722656 60.867188 C 39.566406 60.351562 39.433594 59.828125 39.332031 59.300781 C 39.226562 58.773438 39.144531 58.238281 39.09375 57.703125 C 39.039062 57.164062 39.015625 56.628906 39.015625 56.089844 C 39.015625 55.550781 39.039062 55.011719 39.09375 54.472656 C 39.144531 53.9375 39.226562 53.40625 39.332031 52.875 C 39.433594 52.347656 39.566406 51.824219 39.722656 51.308594 C 39.878906 50.792969 40.058594 50.285156 40.265625 49.785156 C 40.472656 49.289062 40.703125 48.800781 40.957031 48.328125 C 41.210938 47.851562 41.484375 47.386719 41.785156 46.941406 C 42.085938 46.492188 42.40625 46.058594 42.746094 45.640625 C 43.085938 45.226562 43.449219 44.828125 43.828125 44.445312 C 44.210938 44.0625 44.609375 43.703125 45.023438 43.359375 C 45.441406 43.015625 45.871094 42.695312 46.320312 42.398438 C 46.769531 42.097656 47.230469 41.820312 47.703125 41.566406 C 48.179688 41.3125 48.664062 41.082031 49.164062 40.875 C 49.660156 40.667969 50.167969 40.488281 50.683594 40.332031 C 51.195312 40.175781 51.71875 40.042969 52.246094 39.9375 C 52.773438 39.832031 53.308594 39.753906 53.84375 39.703125 C 54.378906 39.648438 54.914062 39.621094 55.453125 39.621094 C 55.992188 39.621094 56.53125 39.648438 57.066406 39.703125 C 57.601562 39.753906 58.132812 39.832031 58.660156 39.9375 C 59.1875 40.042969 59.710938 40.175781 60.226562 40.332031 C 60.742188 40.488281 61.246094 40.667969 61.746094 40.875 C 62.242188 41.082031 62.726562 41.3125 63.203125 41.566406 C 63.679688 41.820312 64.140625 42.097656 64.585938 42.398438 C 65.035156 42.695312 65.464844 43.015625 65.882812 43.359375 C 66.300781 43.703125 66.699219 44.0625 67.078125 44.445312 C 67.457031 44.828125 67.820312 45.226562 68.160156 45.640625 C 68.503906 46.058594 68.824219 46.492188 69.121094 46.941406 C 69.421875 47.386719 69.699219 47.851562 69.953125 48.328125 C 70.207031 48.800781 70.4375 49.289062 70.640625 49.785156 C 70.847656 50.285156 71.027344 50.792969 71.183594 51.308594 C 71.339844 51.824219 71.472656 52.347656 71.578125 52.875 C 71.683594 53.40625 71.761719 53.9375 71.8125 54.472656 C 71.867188 55.011719 71.894531 55.550781 71.894531 56.089844 Z M 71.894531 56.089844 " fill-opacity="1" fill-rule="nonzero"/><path fill="#ffe177" d="M 53.648438 72.457031 C 45.417969 71.554688 39.015625 64.570312 39.015625 56.089844 C 39.015625 47.605469 45.417969 40.621094 53.648438 39.722656 C 61.878906 40.621094 68.285156 47.605469 68.285156 56.089844 C 68.285156 64.574219 61.878906 71.554688 53.648438 72.457031 Z M 53.648438 72.457031 " fill-opacity="1" fill-rule="evenodd"/><path fill="#4187b5" d="M 47.351562 54.289062 C 46.742188 53.648438 46.765625 52.632812 47.40625 52.023438 C 48.046875 51.414062 49.058594 51.441406 49.664062 52.082031 L 55.742188 58.484375 L 75.65625 36.808594 C 76.253906 36.160156 77.265625 36.117188 77.914062 36.714844 C 78.566406 37.316406 78.609375 38.328125 78.007812 38.980469 L 56.9375 61.914062 C 56.3125 62.59375 55.238281 62.601562 54.601562 61.933594 Z M 47.351562 54.289062 " fill-opacity="1" fill-rule="evenodd"/><path fill="#19cfba" d="M 5.242188 33.640625 C 4.414062 33.941406 3.5 33.507812 3.203125 32.675781 C 2.90625 31.84375 3.335938 30.929688 4.167969 30.632812 L 14.097656 27.066406 C 15.046875 26.683594 15.992188 27.128906 16.300781 28.109375 L 19.859375 38.058594 C 20.15625 38.886719 19.722656 39.804688 18.894531 40.101562 C 18.0625 40.398438 17.148438 39.96875 16.851562 39.136719 L 14.359375 32.171875 C 3.394531 51.023438 6.523438 75.015625 21.957031 90.476562 C 38.265625 106.8125 63.832031 109.257812 82.902344 96.359375 C 83.636719 95.863281 84.632812 96.058594 85.125 96.792969 C 85.621094 97.527344 85.425781 98.523438 84.695312 99.019531 C 64.375 112.757812 37.097656 110.183594 19.691406 92.746094 C 3.53125 76.558594 -0.0078125 51.597656 11.023438 31.566406 Z M 106.734375 79.132812 L 100.953125 81.207031 C 111.984375 61.175781 108.445312 36.214844 92.289062 20.027344 C 74.878906 2.59375 47.601562 0.015625 27.285156 13.753906 C 26.550781 14.25 26.355469 15.246094 26.851562 15.980469 C 27.347656 16.714844 28.339844 16.910156 29.074219 16.414062 C 48.144531 3.515625 73.710938 5.964844 90.019531 22.296875 C 105.453125 37.757812 108.582031 61.75 97.617188 80.601562 L 95.125 73.636719 C 94.828125 72.808594 93.914062 72.375 93.082031 72.671875 C 92.253906 72.96875 91.820312 73.886719 92.121094 74.714844 L 95.679688 84.664062 C 95.988281 85.648438 96.929688 86.089844 97.878906 85.707031 L 107.8125 82.140625 C 108.640625 81.84375 109.070312 80.929688 108.773438 80.097656 C 108.476562 79.265625 107.5625 78.832031 106.734375 79.132812 Z M 106.734375 79.132812 " fill-opacity="1" fill-rule="evenodd"/><path fill="#4187b5" d="M 45.652344 81.335938 C 44.765625 81.335938 44.046875 80.617188 44.046875 79.730469 C 44.046875 78.84375 44.765625 78.125 45.652344 78.125 L 66.972656 78.125 C 67.855469 78.125 68.574219 78.84375 68.574219 79.730469 C 68.574219 80.617188 67.855469 81.335938 66.972656 81.335938 Z M 45.652344 81.335938 " fill-opacity="1" fill-rule="evenodd"/></svg>