<svg xmlns="http://www.w3.org/2000/svg" xmlns:xlink="http://www.w3.org/1999/xlink" width="150" zoomAndPan="magnify" viewBox="0 0 112.5 112.499997" height="150" preserveAspectRatio="xMidYMid meet" version="1.0"><defs><clipPath id="e6ba3bf8a7"><path d="M 0 0 L 112.003906 0 L 112.003906 112.003906 L 0 112.003906 Z M 0 0 " clip-rule="nonzero"/></clipPath><clipPath id="e375040f94"><path d="M 22 22 L 90 22 L 90 90 L 22 90 Z M 22 22 " clip-rule="nonzero"/></clipPath><clipPath id="84dddb2bf5"><path d="M 50.363281 35.074219 C 46.851562 35.074219 43.992188 32.222656 43.992188 28.71875 C 43.992188 25.214844 46.851562 22.363281 50.363281 22.363281 C 53.875 22.363281 56.734375 25.214844 56.734375 28.71875 C 56.734375 32.222656 53.875 35.074219 50.363281 35.074219 Z M 75.714844 77.488281 C 67.984375 77.488281 61.695312 71.199219 61.695312 63.46875 C 61.695312 55.738281 67.984375 49.449219 75.714844 49.449219 C 83.445312 49.449219 89.734375 55.738281 89.734375 63.46875 C 89.734375 71.199219 83.445312 77.488281 75.714844 77.488281 Z M 75.714844 70.738281 C 75.21875 70.738281 74.816406 70.335938 74.816406 69.839844 L 74.816406 69.269531 C 73.867188 69.0625 73.035156 68.507812 72.507812 67.671875 C 72.242188 67.253906 72.363281 66.699219 72.785156 66.433594 C 73.203125 66.167969 73.761719 66.289062 74.027344 66.710938 C 74.550781 67.539062 75.5625 67.6875 76.335938 67.464844 C 76.632812 67.378906 77.609375 67.015625 77.613281 65.972656 C 77.613281 65.089844 76.761719 64.371094 75.710938 64.371094 C 73.671875 64.363281 72.011719 62.839844 72.015625 60.964844 C 72.019531 59.339844 73.148438 58.054688 74.816406 57.699219 L 74.816406 57.101562 C 74.816406 56.601562 75.21875 56.199219 75.714844 56.199219 C 76.210938 56.199219 76.613281 56.601562 76.613281 57.101562 L 76.613281 57.691406 C 77.910156 57.96875 79.085938 58.863281 79.371094 60.402344 C 79.460938 60.890625 79.136719 61.359375 78.648438 61.449219 C 78.164062 61.542969 77.691406 61.21875 77.601562 60.730469 C 77.382812 59.554688 76.183594 59.347656 75.507812 59.40625 C 74.730469 59.476562 73.820312 59.929688 73.816406 60.96875 C 73.8125 61.847656 74.667969 62.566406 75.71875 62.570312 C 77.757812 62.574219 79.414062 64.101562 79.410156 65.972656 C 79.40625 67.476562 78.394531 68.738281 76.835938 69.191406 C 76.761719 69.210938 76.6875 69.230469 76.613281 69.25 L 76.613281 69.839844 C 76.613281 70.335938 76.210938 70.738281 75.714844 70.738281 Z M 75.714844 73.871094 C 69.980469 73.871094 65.3125 69.207031 65.3125 63.46875 C 65.3125 57.734375 69.980469 53.066406 75.714844 53.066406 C 81.449219 53.066406 86.117188 57.734375 86.117188 63.46875 C 86.117188 69.207031 81.449219 73.871094 75.714844 73.871094 Z M 75.714844 54.867188 C 70.972656 54.867188 67.113281 58.726562 67.113281 63.46875 C 67.113281 68.214844 70.972656 72.074219 75.714844 72.074219 C 80.457031 72.074219 84.316406 68.214844 84.316406 63.46875 C 84.316406 58.726562 80.457031 54.867188 75.714844 54.867188 Z M 41.457031 89.644531 C 36.554688 89.644531 31.96875 88.878906 28.546875 87.492188 C 24.4375 85.832031 22.269531 83.382812 22.269531 80.410156 L 22.269531 77.046875 C 29.546875 83.3125 52.78125 83.515625 60.644531 77.445312 L 60.644531 80.410156 C 60.644531 86.753906 50.699219 89.644531 41.457031 89.644531 Z M 22.269531 74.476562 L 22.269531 64.46875 C 29.546875 70.734375 52.78125 70.941406 60.644531 64.867188 L 60.644531 75 C 55.320312 81.726562 26.070312 82.035156 22.269531 74.476562 Z M 22.269531 61.898438 L 22.269531 51.53125 C 25.925781 55.972656 34.066406 57.328125 39.136719 57.582031 C 39.910156 57.621094 40.683594 57.640625 41.457031 57.640625 C 47.050781 57.640625 56.609375 56.453125 60.644531 51.535156 L 60.644531 62.421875 C 55.320312 69.152344 26.074219 69.457031 22.269531 61.898438 Z M 41.457031 55.796875 C 32.214844 55.796875 22.269531 52.898438 22.269531 46.53125 C 22.269531 40.1875 32.214844 37.296875 41.457031 37.296875 C 50.699219 37.296875 60.644531 40.1875 60.644531 46.53125 C 60.644531 52.898438 50.699219 55.796875 41.457031 55.796875 Z M 37.148438 35.078125 C 36.613281 35.078125 36.070312 34.988281 35.535156 34.8125 C 33.0625 34 31.464844 31.609375 31.464844 28.71875 C 31.464844 25.855469 33.046875 23.472656 35.492188 22.640625 C 37.640625 21.910156 39.886719 22.644531 41.355469 24.554688 C 41.660156 24.949219 41.585938 25.515625 41.191406 25.816406 C 40.796875 26.117188 40.230469 26.046875 39.929688 25.652344 C 38.929688 24.351562 37.488281 23.859375 36.070312 24.339844 C 34.777344 24.78125 33.261719 26.191406 33.261719 28.71875 C 33.261719 31.269531 34.789062 32.675781 36.09375 33.101562 C 37.539062 33.578125 38.992188 33.058594 39.984375 31.714844 C 40.277344 31.3125 40.839844 31.226562 41.242188 31.523438 C 41.640625 31.820312 41.726562 32.382812 41.433594 32.78125 C 40.339844 34.265625 38.785156 35.074219 37.148438 35.078125 Z M 75.003906 35.105469 C 74.507812 35.105469 74.105469 34.703125 74.105469 34.207031 L 74.105469 24.164062 L 70.371094 24.164062 C 69.875 24.164062 69.472656 23.757812 69.472656 23.261719 C 69.472656 22.765625 69.875 22.363281 70.371094 22.363281 L 79.640625 22.363281 C 80.136719 22.363281 80.539062 22.765625 80.539062 23.261719 C 80.539062 23.757812 80.136719 24.164062 79.640625 24.164062 L 75.90625 24.164062 L 75.90625 34.207031 C 75.90625 34.703125 75.5 35.105469 75.003906 35.105469 Z M 63.519531 35.0625 C 62.191406 35.0625 60.773438 34.566406 59.894531 33.300781 C 59.609375 32.890625 59.710938 32.332031 60.121094 32.046875 C 60.53125 31.765625 61.089844 31.867188 61.371094 32.273438 C 62.089844 33.304688 63.496094 33.4375 64.507812 33.121094 C 64.859375 33.011719 66.003906 32.566406 66.003906 31.453125 C 66.007812 31 65.777344 30.5625 65.359375 30.21875 C 64.886719 29.832031 64.246094 29.621094 63.558594 29.617188 C 62.457031 29.617188 61.414062 29.257812 60.621094 28.613281 C 59.777344 27.921875 59.3125 26.988281 59.316406 25.980469 C 59.320312 24.070312 60.824219 22.632812 63.054688 22.414062 C 65.050781 22.210938 67.308594 23.164062 67.753906 25.367188 C 67.855469 25.851562 67.539062 26.328125 67.050781 26.425781 C 66.570312 26.527344 66.089844 26.210938 65.992188 25.722656 C 65.746094 24.515625 64.386719 24.085938 63.234375 24.203125 C 62.257812 24.300781 61.117188 24.824219 61.113281 25.984375 C 61.113281 26.4375 61.34375 26.878906 61.761719 27.21875 C 62.234375 27.605469 62.875 27.820312 63.5625 27.820312 C 64.664062 27.820312 65.707031 28.179688 66.496094 28.828125 C 67.34375 29.519531 67.804688 30.453125 67.804688 31.457031 C 67.800781 33.011719 66.742188 34.308594 65.042969 34.835938 C 64.578125 34.984375 64.058594 35.0625 63.519531 35.0625 Z M 50.363281 24.164062 C 47.84375 24.164062 45.789062 26.207031 45.789062 28.71875 C 45.789062 31.230469 47.84375 33.277344 50.363281 33.277344 C 52.882812 33.277344 54.9375 31.230469 54.9375 28.71875 C 54.9375 26.207031 52.882812 24.164062 50.363281 24.164062 Z M 50.363281 24.164062 " clip-rule="evenodd"/></clipPath><linearGradient x1="421.979812" gradientTransform="matrix(0.0395307, 0, 0, 0.0395307, 0.0000015, 0.000000995575)" y1="772.458821" x2="2406.128408" gradientUnits="userSpaceOnUse" y2="2057.472776" id="8f95a6ff7f"><stop stop-opacity="1" stop-color="rgb(0%, 90.762329%, 67.745972%)" offset="0"/><stop stop-opacity="1" stop-color="rgb(0%, 90.478516%, 67.721558%)" offset="0.00390625"/><stop stop-opacity="1" stop-color="rgb(0%, 90.194702%, 67.698669%)" offset="0.0078125"/><stop stop-opacity="1" stop-color="rgb(0%, 89.910889%, 67.674255%)" offset="0.0117187"/><stop stop-opacity="1" stop-color="rgb(0%, 89.627075%, 67.651367%)" offset="0.015625"/><stop stop-opacity="1" stop-color="rgb(0%, 89.343262%, 67.626953%)" offset="0.0195312"/><stop stop-opacity="1" stop-color="rgb(0%, 89.059448%, 67.604065%)" offset="0.0234375"/><stop stop-opacity="1" stop-color="rgb(0%, 88.775635%, 67.579651%)" offset="0.0273437"/><stop stop-opacity="1" stop-color="rgb(0%, 88.491821%, 67.556763%)" offset="0.03125"/><stop stop-opacity="1" stop-color="rgb(0%, 88.208008%, 67.532349%)" offset="0.0351562"/><stop stop-opacity="1" stop-color="rgb(0%, 87.92572%, 67.507935%)" offset="0.0390625"/><stop stop-opacity="1" stop-color="rgb(0%, 87.641907%, 67.483521%)" offset="0.0429688"/><stop stop-opacity="1" stop-color="rgb(0%, 87.358093%, 67.460632%)" offset="0.046875"/><stop stop-opacity="1" stop-color="rgb(0%, 87.07428%, 67.436218%)" offset="0.0507812"/><stop stop-opacity="1" stop-color="rgb(0%, 86.790466%, 67.41333%)" offset="0.0546875"/><stop stop-opacity="1" stop-color="rgb(0%, 86.506653%, 67.388916%)" offset="0.0585937"/><stop stop-opacity="1" stop-color="rgb(0%, 86.222839%, 67.366028%)" offset="0.0625"/><stop stop-opacity="1" stop-color="rgb(0%, 85.939026%, 67.341614%)" offset="0.0664062"/><stop stop-opacity="1" stop-color="rgb(0%, 85.655212%, 67.318726%)" offset="0.0703125"/><stop stop-opacity="1" stop-color="rgb(0%, 85.371399%, 67.294312%)" offset="0.0742188"/><stop stop-opacity="1" stop-color="rgb(0%, 85.087585%, 67.271423%)" offset="0.078125"/><stop stop-opacity="1" stop-color="rgb(0%, 84.803772%, 67.247009%)" offset="0.0820313"/><stop stop-opacity="1" stop-color="rgb(0%, 84.519958%, 67.224121%)" offset="0.0859375"/><stop stop-opacity="1" stop-color="rgb(0%, 84.236145%, 67.199707%)" offset="0.0898438"/><stop stop-opacity="1" stop-color="rgb(0%, 83.952332%, 67.176819%)" offset="0.09375"/><stop stop-opacity="1" stop-color="rgb(0%, 83.668518%, 67.152405%)" offset="0.0976562"/><stop stop-opacity="1" stop-color="rgb(0%, 83.384705%, 67.127991%)" offset="0.101562"/><stop stop-opacity="1" stop-color="rgb(0%, 83.100891%, 67.103577%)" offset="0.105469"/><stop stop-opacity="1" stop-color="rgb(0%, 82.818604%, 67.080688%)" offset="0.109375"/><stop stop-opacity="1" stop-color="rgb(0%, 82.53479%, 67.056274%)" offset="0.113281"/><stop stop-opacity="1" stop-color="rgb(0%, 82.250977%, 67.033386%)" offset="0.117188"/><stop stop-opacity="1" stop-color="rgb(0%, 81.967163%, 67.008972%)" offset="0.121094"/><stop stop-opacity="1" stop-color="rgb(0%, 81.68335%, 66.986084%)" offset="0.125"/><stop stop-opacity="1" stop-color="rgb(0%, 81.399536%, 66.96167%)" offset="0.128906"/><stop stop-opacity="1" stop-color="rgb(0%, 81.115723%, 66.938782%)" offset="0.132812"/><stop stop-opacity="1" stop-color="rgb(0%, 80.831909%, 66.914368%)" offset="0.136719"/><stop stop-opacity="1" stop-color="rgb(0%, 80.548096%, 66.891479%)" offset="0.140625"/><stop stop-opacity="1" stop-color="rgb(0%, 80.264282%, 66.867065%)" offset="0.144531"/><stop stop-opacity="1" stop-color="rgb(0%, 79.980469%, 66.844177%)" offset="0.148437"/><stop stop-opacity="1" stop-color="rgb(0%, 79.696655%, 66.819763%)" offset="0.152344"/><stop stop-opacity="1" stop-color="rgb(0%, 79.412842%, 66.796875%)" offset="0.15625"/><stop stop-opacity="1" stop-color="rgb(0%, 79.129028%, 66.772461%)" offset="0.160156"/><stop stop-opacity="1" stop-color="rgb(0%, 78.845215%, 66.749573%)" offset="0.164062"/><stop stop-opacity="1" stop-color="rgb(0%, 78.561401%, 66.725159%)" offset="0.167969"/><stop stop-opacity="1" stop-color="rgb(0%, 78.277588%, 66.700745%)" offset="0.171875"/><stop stop-opacity="1" stop-color="rgb(0%, 77.993774%, 66.676331%)" offset="0.175781"/><stop stop-opacity="1" stop-color="rgb(0%, 77.711487%, 66.653442%)" offset="0.179688"/><stop stop-opacity="1" stop-color="rgb(0%, 77.427673%, 66.629028%)" offset="0.183594"/><stop stop-opacity="1" stop-color="rgb(0%, 77.14386%, 66.60614%)" offset="0.1875"/><stop stop-opacity="1" stop-color="rgb(0%, 76.860046%, 66.581726%)" offset="0.191406"/><stop stop-opacity="1" stop-color="rgb(0%, 76.576233%, 66.558838%)" offset="0.195312"/><stop stop-opacity="1" stop-color="rgb(0%, 76.292419%, 66.534424%)" offset="0.199219"/><stop stop-opacity="1" stop-color="rgb(0%, 76.008606%, 66.511536%)" offset="0.203125"/><stop stop-opacity="1" stop-color="rgb(0%, 75.724792%, 66.487122%)" offset="0.207031"/><stop stop-opacity="1" stop-color="rgb(0%, 75.440979%, 66.464233%)" offset="0.210938"/><stop stop-opacity="1" stop-color="rgb(0%, 75.157166%, 66.439819%)" offset="0.214844"/><stop stop-opacity="1" stop-color="rgb(0%, 74.873352%, 66.416931%)" offset="0.21875"/><stop stop-opacity="1" stop-color="rgb(0%, 74.589539%, 66.392517%)" offset="0.222656"/><stop stop-opacity="1" stop-color="rgb(0%, 74.305725%, 66.369629%)" offset="0.226562"/><stop stop-opacity="1" stop-color="rgb(0%, 74.021912%, 66.345215%)" offset="0.230469"/><stop stop-opacity="1" stop-color="rgb(0%, 73.738098%, 66.320801%)" offset="0.234375"/><stop stop-opacity="1" stop-color="rgb(0%, 73.454285%, 66.296387%)" offset="0.238281"/><stop stop-opacity="1" stop-color="rgb(0%, 73.170471%, 66.273499%)" offset="0.242187"/><stop stop-opacity="1" stop-color="rgb(0%, 72.886658%, 66.249084%)" offset="0.246094"/><stop stop-opacity="1" stop-color="rgb(0%, 72.60437%, 66.226196%)" offset="0.25"/><stop stop-opacity="1" stop-color="rgb(0%, 72.320557%, 66.201782%)" offset="0.253906"/><stop stop-opacity="1" stop-color="rgb(0%, 72.036743%, 66.178894%)" offset="0.257812"/><stop stop-opacity="1" stop-color="rgb(0%, 71.75293%, 66.15448%)" offset="0.261719"/><stop stop-opacity="1" stop-color="rgb(0%, 71.469116%, 66.131592%)" offset="0.265625"/><stop stop-opacity="1" stop-color="rgb(0%, 71.185303%, 66.107178%)" offset="0.269531"/><stop stop-opacity="1" stop-color="rgb(0%, 70.901489%, 66.08429%)" offset="0.273437"/><stop stop-opacity="1" stop-color="rgb(0%, 70.617676%, 66.059875%)" offset="0.277344"/><stop stop-opacity="1" stop-color="rgb(0%, 70.333862%, 66.036987%)" offset="0.28125"/><stop stop-opacity="1" stop-color="rgb(0%, 70.050049%, 66.012573%)" offset="0.285156"/><stop stop-opacity="1" stop-color="rgb(0%, 69.766235%, 65.989685%)" offset="0.289062"/><stop stop-opacity="1" stop-color="rgb(0%, 69.482422%, 65.965271%)" offset="0.292969"/><stop stop-opacity="1" stop-color="rgb(0%, 69.198608%, 65.942383%)" offset="0.296875"/><stop stop-opacity="1" stop-color="rgb(0%, 68.914795%, 65.917969%)" offset="0.300781"/><stop stop-opacity="1" stop-color="rgb(0%, 68.630981%, 65.893555%)" offset="0.304687"/><stop stop-opacity="1" stop-color="rgb(0%, 68.347168%, 65.869141%)" offset="0.308594"/><stop stop-opacity="1" stop-color="rgb(0%, 68.063354%, 65.846252%)" offset="0.3125"/><stop stop-opacity="1" stop-color="rgb(0%, 67.779541%, 65.821838%)" offset="0.316406"/><stop stop-opacity="1" stop-color="rgb(0%, 67.497253%, 65.79895%)" offset="0.320312"/><stop stop-opacity="1" stop-color="rgb(0%, 67.21344%, 65.774536%)" offset="0.324219"/><stop stop-opacity="1" stop-color="rgb(0%, 66.929626%, 65.751648%)" offset="0.328125"/><stop stop-opacity="1" stop-color="rgb(0%, 66.645813%, 65.727234%)" offset="0.332031"/><stop stop-opacity="1" stop-color="rgb(0%, 66.362%, 65.704346%)" offset="0.335938"/><stop stop-opacity="1" stop-color="rgb(0%, 66.078186%, 65.679932%)" offset="0.339844"/><stop stop-opacity="1" stop-color="rgb(0%, 65.794373%, 65.657043%)" offset="0.34375"/><stop stop-opacity="1" stop-color="rgb(0%, 65.510559%, 65.632629%)" offset="0.347656"/><stop stop-opacity="1" stop-color="rgb(0%, 65.226746%, 65.609741%)" offset="0.351562"/><stop stop-opacity="1" stop-color="rgb(0%, 64.942932%, 65.585327%)" offset="0.355469"/><stop stop-opacity="1" stop-color="rgb(0%, 64.659119%, 65.562439%)" offset="0.359375"/><stop stop-opacity="1" stop-color="rgb(0%, 64.375305%, 65.538025%)" offset="0.363281"/><stop stop-opacity="1" stop-color="rgb(0%, 64.091492%, 65.515137%)" offset="0.367187"/><stop stop-opacity="1" stop-color="rgb(0%, 63.807678%, 65.490723%)" offset="0.371094"/><stop stop-opacity="1" stop-color="rgb(0%, 63.523865%, 65.466309%)" offset="0.375"/><stop stop-opacity="1" stop-color="rgb(0%, 63.240051%, 65.441895%)" offset="0.378906"/><stop stop-opacity="1" stop-color="rgb(0%, 62.956238%, 65.419006%)" offset="0.382812"/><stop stop-opacity="1" stop-color="rgb(0%, 62.672424%, 65.394592%)" offset="0.386719"/><stop stop-opacity="1" stop-color="rgb(0%, 62.390137%, 65.371704%)" offset="0.390625"/><stop stop-opacity="1" stop-color="rgb(0%, 62.106323%, 65.34729%)" offset="0.394531"/><stop stop-opacity="1" stop-color="rgb(0%, 61.82251%, 65.324402%)" offset="0.398437"/><stop stop-opacity="1" stop-color="rgb(0%, 61.538696%, 65.299988%)" offset="0.402344"/><stop stop-opacity="1" stop-color="rgb(0%, 61.254883%, 65.2771%)" offset="0.40625"/><stop stop-opacity="1" stop-color="rgb(0%, 60.971069%, 65.252686%)" offset="0.410156"/><stop stop-opacity="1" stop-color="rgb(0%, 60.687256%, 65.229797%)" offset="0.414062"/><stop stop-opacity="1" stop-color="rgb(0%, 60.403442%, 65.205383%)" offset="0.417969"/><stop stop-opacity="1" stop-color="rgb(0%, 60.119629%, 65.182495%)" offset="0.421875"/><stop stop-opacity="1" stop-color="rgb(0%, 59.835815%, 65.158081%)" offset="0.425781"/><stop stop-opacity="1" stop-color="rgb(0%, 59.552002%, 65.135193%)" offset="0.429687"/><stop stop-opacity="1" stop-color="rgb(0%, 59.268188%, 65.110779%)" offset="0.433594"/><stop stop-opacity="1" stop-color="rgb(0%, 58.984375%, 65.086365%)" offset="0.4375"/><stop stop-opacity="1" stop-color="rgb(0%, 58.700562%, 65.061951%)" offset="0.441406"/><stop stop-opacity="1" stop-color="rgb(0%, 58.416748%, 65.039062%)" offset="0.445312"/><stop stop-opacity="1" stop-color="rgb(0%, 58.132935%, 65.014648%)" offset="0.449219"/><stop stop-opacity="1" stop-color="rgb(0%, 57.849121%, 64.99176%)" offset="0.453125"/><stop stop-opacity="1" stop-color="rgb(0%, 57.565308%, 64.967346%)" offset="0.457031"/><stop stop-opacity="1" stop-color="rgb(0%, 57.28302%, 64.944458%)" offset="0.460937"/><stop stop-opacity="1" stop-color="rgb(0%, 56.999207%, 64.920044%)" offset="0.464844"/><stop stop-opacity="1" stop-color="rgb(0%, 56.715393%, 64.897156%)" offset="0.46875"/><stop stop-opacity="1" stop-color="rgb(0%, 56.43158%, 64.872742%)" offset="0.472656"/><stop stop-opacity="1" stop-color="rgb(0%, 56.147766%, 64.849854%)" offset="0.476562"/><stop stop-opacity="1" stop-color="rgb(0%, 55.863953%, 64.825439%)" offset="0.480469"/><stop stop-opacity="1" stop-color="rgb(0%, 55.580139%, 64.802551%)" offset="0.484375"/><stop stop-opacity="1" stop-color="rgb(0%, 55.296326%, 64.778137%)" offset="0.488281"/><stop stop-opacity="1" stop-color="rgb(0%, 55.012512%, 64.755249%)" offset="0.492187"/><stop stop-opacity="1" stop-color="rgb(0%, 54.728699%, 64.730835%)" offset="0.496094"/><stop stop-opacity="1" stop-color="rgb(0%, 54.444885%, 64.707947%)" offset="0.5"/><stop stop-opacity="1" stop-color="rgb(0%, 54.161072%, 64.683533%)" offset="0.503906"/><stop stop-opacity="1" stop-color="rgb(0%, 53.877258%, 64.659119%)" offset="0.507812"/><stop stop-opacity="1" stop-color="rgb(0%, 53.593445%, 64.634705%)" offset="0.511719"/><stop stop-opacity="1" stop-color="rgb(0%, 53.309631%, 64.611816%)" offset="0.515625"/><stop stop-opacity="1" stop-color="rgb(0%, 53.025818%, 64.587402%)" offset="0.519531"/><stop stop-opacity="1" stop-color="rgb(0%, 52.742004%, 64.564514%)" offset="0.523438"/><stop stop-opacity="1" stop-color="rgb(0%, 52.458191%, 64.5401%)" offset="0.527344"/><stop stop-opacity="1" stop-color="rgb(0%, 52.175903%, 64.517212%)" offset="0.53125"/><stop stop-opacity="1" stop-color="rgb(0%, 51.89209%, 64.492798%)" offset="0.535156"/><stop stop-opacity="1" stop-color="rgb(0%, 51.608276%, 64.46991%)" offset="0.539062"/><stop stop-opacity="1" stop-color="rgb(0%, 51.324463%, 64.445496%)" offset="0.542969"/><stop stop-opacity="1" stop-color="rgb(0%, 51.040649%, 64.422607%)" offset="0.546875"/><stop stop-opacity="1" stop-color="rgb(0%, 50.756836%, 64.398193%)" offset="0.550781"/><stop stop-opacity="1" stop-color="rgb(0%, 50.473022%, 64.375305%)" offset="0.554688"/><stop stop-opacity="1" stop-color="rgb(0%, 50.189209%, 64.350891%)" offset="0.558594"/><stop stop-opacity="1" stop-color="rgb(0%, 49.905396%, 64.328003%)" offset="0.5625"/><stop stop-opacity="1" stop-color="rgb(0%, 49.621582%, 64.303589%)" offset="0.566406"/><stop stop-opacity="1" stop-color="rgb(0%, 49.337769%, 64.279175%)" offset="0.570312"/><stop stop-opacity="1" stop-color="rgb(0%, 49.053955%, 64.254761%)" offset="0.574219"/><stop stop-opacity="1" stop-color="rgb(0%, 48.770142%, 64.231873%)" offset="0.578125"/><stop stop-opacity="1" stop-color="rgb(0%, 48.486328%, 64.207458%)" offset="0.582031"/><stop stop-opacity="1" stop-color="rgb(0%, 48.202515%, 64.18457%)" offset="0.585938"/><stop stop-opacity="1" stop-color="rgb(0%, 47.918701%, 64.160156%)" offset="0.589844"/><stop stop-opacity="1" stop-color="rgb(0%, 47.634888%, 64.137268%)" offset="0.59375"/><stop stop-opacity="1" stop-color="rgb(0%, 47.351074%, 64.112854%)" offset="0.597656"/><stop stop-opacity="1" stop-color="rgb(0%, 47.068787%, 64.089966%)" offset="0.601562"/><stop stop-opacity="1" stop-color="rgb(0%, 46.784973%, 64.065552%)" offset="0.605469"/><stop stop-opacity="1" stop-color="rgb(0%, 46.50116%, 64.042664%)" offset="0.609375"/><stop stop-opacity="1" stop-color="rgb(0%, 46.217346%, 64.01825%)" offset="0.613281"/><stop stop-opacity="1" stop-color="rgb(0%, 45.933533%, 63.995361%)" offset="0.617188"/><stop stop-opacity="1" stop-color="rgb(0%, 45.649719%, 63.970947%)" offset="0.621094"/><stop stop-opacity="1" stop-color="rgb(0%, 45.365906%, 63.948059%)" offset="0.625"/><stop stop-opacity="1" stop-color="rgb(0%, 45.082092%, 63.923645%)" offset="0.628906"/><stop stop-opacity="1" stop-color="rgb(0%, 44.798279%, 63.900757%)" offset="0.632812"/><stop stop-opacity="1" stop-color="rgb(0%, 44.514465%, 63.876343%)" offset="0.636719"/><stop stop-opacity="1" stop-color="rgb(0%, 44.230652%, 63.851929%)" offset="0.640625"/><stop stop-opacity="1" stop-color="rgb(0%, 43.946838%, 63.827515%)" offset="0.644531"/><stop stop-opacity="1" stop-color="rgb(0%, 43.663025%, 63.804626%)" offset="0.648438"/><stop stop-opacity="1" stop-color="rgb(0%, 43.379211%, 63.780212%)" offset="0.652344"/><stop stop-opacity="1" stop-color="rgb(0%, 43.095398%, 63.757324%)" offset="0.65625"/><stop stop-opacity="1" stop-color="rgb(0%, 42.811584%, 63.73291%)" offset="0.660156"/><stop stop-opacity="1" stop-color="rgb(0%, 42.527771%, 63.710022%)" offset="0.664062"/><stop stop-opacity="1" stop-color="rgb(0%, 42.243958%, 63.685608%)" offset="0.667969"/><stop stop-opacity="1" stop-color="rgb(0%, 41.96167%, 63.66272%)" offset="0.671875"/><stop stop-opacity="1" stop-color="rgb(0%, 41.677856%, 63.638306%)" offset="0.675781"/><stop stop-opacity="1" stop-color="rgb(0%, 41.394043%, 63.615417%)" offset="0.679688"/><stop stop-opacity="1" stop-color="rgb(0%, 41.110229%, 63.591003%)" offset="0.683594"/><stop stop-opacity="1" stop-color="rgb(0%, 40.826416%, 63.568115%)" offset="0.6875"/><stop stop-opacity="1" stop-color="rgb(0%, 40.542603%, 63.543701%)" offset="0.691406"/><stop stop-opacity="1" stop-color="rgb(0%, 40.258789%, 63.520813%)" offset="0.695312"/><stop stop-opacity="1" stop-color="rgb(0%, 39.974976%, 63.496399%)" offset="0.699219"/><stop stop-opacity="1" stop-color="rgb(0%, 39.691162%, 63.473511%)" offset="0.703125"/><stop stop-opacity="1" stop-color="rgb(0%, 39.407349%, 63.449097%)" offset="0.707031"/><stop stop-opacity="1" stop-color="rgb(0%, 39.123535%, 63.424683%)" offset="0.710938"/><stop stop-opacity="1" stop-color="rgb(0%, 38.839722%, 63.400269%)" offset="0.714844"/><stop stop-opacity="1" stop-color="rgb(0%, 38.555908%, 63.37738%)" offset="0.71875"/><stop stop-opacity="1" stop-color="rgb(0%, 38.272095%, 63.352966%)" offset="0.722656"/><stop stop-opacity="1" stop-color="rgb(0%, 37.988281%, 63.330078%)" offset="0.726562"/><stop stop-opacity="1" stop-color="rgb(0%, 37.704468%, 63.305664%)" offset="0.730469"/><stop stop-opacity="1" stop-color="rgb(0%, 37.420654%, 63.282776%)" offset="0.734375"/><stop stop-opacity="1" stop-color="rgb(0%, 37.136841%, 63.258362%)" offset="0.738281"/><stop stop-opacity="1" stop-color="rgb(0%, 36.854553%, 63.235474%)" offset="0.742188"/><stop stop-opacity="1" stop-color="rgb(0%, 36.57074%, 63.21106%)" offset="0.746094"/><stop stop-opacity="1" stop-color="rgb(0%, 36.286926%, 63.188171%)" offset="0.75"/><stop stop-opacity="1" stop-color="rgb(0%, 36.003113%, 63.163757%)" offset="0.753906"/><stop stop-opacity="1" stop-color="rgb(0%, 35.719299%, 63.140869%)" offset="0.757812"/><stop stop-opacity="1" stop-color="rgb(0%, 35.435486%, 63.116455%)" offset="0.761719"/><stop stop-opacity="1" stop-color="rgb(0%, 35.151672%, 63.093567%)" offset="0.765625"/><stop stop-opacity="1" stop-color="rgb(0%, 34.867859%, 63.069153%)" offset="0.769531"/><stop stop-opacity="1" stop-color="rgb(0%, 34.584045%, 63.044739%)" offset="0.773438"/><stop stop-opacity="1" stop-color="rgb(0%, 34.300232%, 63.020325%)" offset="0.777344"/><stop stop-opacity="1" stop-color="rgb(0%, 34.016418%, 62.997437%)" offset="0.78125"/><stop stop-opacity="1" stop-color="rgb(0%, 33.732605%, 62.973022%)" offset="0.785156"/><stop stop-opacity="1" stop-color="rgb(0%, 33.448792%, 62.950134%)" offset="0.789062"/><stop stop-opacity="1" stop-color="rgb(0%, 33.164978%, 62.92572%)" offset="0.792969"/><stop stop-opacity="1" stop-color="rgb(0%, 32.881165%, 62.902832%)" offset="0.796875"/><stop stop-opacity="1" stop-color="rgb(0%, 32.597351%, 62.878418%)" offset="0.800781"/><stop stop-opacity="1" stop-color="rgb(0%, 32.313538%, 62.85553%)" offset="0.804688"/><stop stop-opacity="1" stop-color="rgb(0%, 32.029724%, 62.831116%)" offset="0.808594"/><stop stop-opacity="1" stop-color="rgb(0%, 31.747437%, 62.808228%)" offset="0.8125"/><stop stop-opacity="1" stop-color="rgb(0%, 31.463623%, 62.783813%)" offset="0.816406"/><stop stop-opacity="1" stop-color="rgb(0%, 31.17981%, 62.760925%)" offset="0.820312"/><stop stop-opacity="1" stop-color="rgb(0%, 30.895996%, 62.736511%)" offset="0.824219"/><stop stop-opacity="1" stop-color="rgb(0%, 30.612183%, 62.713623%)" offset="0.828125"/><stop stop-opacity="1" stop-color="rgb(0%, 30.328369%, 62.689209%)" offset="0.832031"/><stop stop-opacity="1" stop-color="rgb(0%, 30.044556%, 62.666321%)" offset="0.835938"/><stop stop-opacity="1" stop-color="rgb(0%, 29.760742%, 62.641907%)" offset="0.839844"/><stop stop-opacity="1" stop-color="rgb(0%, 29.476929%, 62.617493%)" offset="0.84375"/><stop stop-opacity="1" stop-color="rgb(0%, 29.193115%, 62.593079%)" offset="0.847656"/><stop stop-opacity="1" stop-color="rgb(0%, 28.909302%, 62.57019%)" offset="0.851562"/><stop stop-opacity="1" stop-color="rgb(0%, 28.625488%, 62.545776%)" offset="0.855469"/><stop stop-opacity="1" stop-color="rgb(0%, 28.341675%, 62.522888%)" offset="0.859375"/><stop stop-opacity="1" stop-color="rgb(0%, 28.057861%, 62.498474%)" offset="0.863281"/><stop stop-opacity="1" stop-color="rgb(0%, 27.774048%, 62.475586%)" offset="0.867188"/><stop stop-opacity="1" stop-color="rgb(0%, 27.490234%, 62.451172%)" offset="0.871094"/><stop stop-opacity="1" stop-color="rgb(0%, 27.206421%, 62.428284%)" offset="0.875"/><stop stop-opacity="1" stop-color="rgb(0%, 26.922607%, 62.40387%)" offset="0.878906"/><stop stop-opacity="1" stop-color="rgb(0%, 26.64032%, 62.380981%)" offset="0.882812"/><stop stop-opacity="1" stop-color="rgb(0%, 26.356506%, 62.356567%)" offset="0.886719"/><stop stop-opacity="1" stop-color="rgb(0%, 26.072693%, 62.333679%)" offset="0.890625"/><stop stop-opacity="1" stop-color="rgb(0%, 25.788879%, 62.309265%)" offset="0.894531"/><stop stop-opacity="1" stop-color="rgb(0%, 25.505066%, 62.286377%)" offset="0.898438"/><stop stop-opacity="1" stop-color="rgb(0%, 25.221252%, 62.261963%)" offset="0.902344"/><stop stop-opacity="1" stop-color="rgb(0%, 24.937439%, 62.237549%)" offset="0.90625"/><stop stop-opacity="1" stop-color="rgb(0%, 24.653625%, 62.213135%)" offset="0.910156"/><stop stop-opacity="1" stop-color="rgb(0%, 24.369812%, 62.190247%)" offset="0.914062"/><stop stop-opacity="1" stop-color="rgb(0%, 24.085999%, 62.165833%)" offset="0.917969"/><stop stop-opacity="1" stop-color="rgb(0%, 23.802185%, 62.142944%)" offset="0.921875"/><stop stop-opacity="1" stop-color="rgb(0%, 23.518372%, 62.11853%)" offset="0.925781"/><stop stop-opacity="1" stop-color="rgb(0%, 23.234558%, 62.095642%)" offset="0.929688"/><stop stop-opacity="1" stop-color="rgb(0%, 22.950745%, 62.071228%)" offset="0.933594"/><stop stop-opacity="1" stop-color="rgb(0%, 22.666931%, 62.04834%)" offset="0.9375"/><stop stop-opacity="1" stop-color="rgb(0%, 22.383118%, 62.023926%)" offset="0.941406"/><stop stop-opacity="1" stop-color="rgb(0%, 22.099304%, 62.001038%)" offset="0.945312"/><stop stop-opacity="1" stop-color="rgb(0%, 21.815491%, 61.976624%)" offset="0.949219"/><stop stop-opacity="1" stop-color="rgb(0%, 21.533203%, 61.953735%)" offset="0.953125"/><stop stop-opacity="1" stop-color="rgb(0%, 21.24939%, 61.929321%)" offset="0.957031"/><stop stop-opacity="1" stop-color="rgb(0%, 20.965576%, 61.906433%)" offset="0.960938"/><stop stop-opacity="1" stop-color="rgb(0%, 20.681763%, 61.882019%)" offset="0.964844"/><stop stop-opacity="1" stop-color="rgb(0%, 20.397949%, 61.859131%)" offset="0.96875"/><stop stop-opacity="1" stop-color="rgb(0%, 20.114136%, 61.834717%)" offset="0.972656"/><stop stop-opacity="1" stop-color="rgb(0%, 19.830322%, 61.810303%)" offset="0.976562"/><stop stop-opacity="1" stop-color="rgb(0%, 19.546509%, 61.785889%)" offset="0.980469"/><stop stop-opacity="1" stop-color="rgb(0%, 19.262695%, 61.763%)" offset="0.984375"/><stop stop-opacity="1" stop-color="rgb(0%, 18.978882%, 61.738586%)" offset="0.988281"/><stop stop-opacity="1" stop-color="rgb(0%, 18.695068%, 61.715698%)" offset="0.992187"/><stop stop-opacity="1" stop-color="rgb(0%, 18.411255%, 61.691284%)" offset="0.996094"/><stop stop-opacity="1" stop-color="rgb(0%, 18.127441%, 61.668396%)" offset="1"/></linearGradient></defs><g clip-path="url(#e6ba3bf8a7)"><path fill="#282252" d="M 112.003906 56 C 112.003906 57.835938 111.914062 59.664062 111.734375 61.492188 C 111.554688 63.316406 111.285156 65.128906 110.925781 66.925781 C 110.570312 68.726562 110.125 70.503906 109.59375 72.257812 C 109.058594 74.011719 108.441406 75.738281 107.742188 77.433594 C 107.039062 79.128906 106.253906 80.785156 105.390625 82.402344 C 104.527344 84.019531 103.585938 85.589844 102.566406 87.113281 C 101.546875 88.640625 100.457031 90.109375 99.292969 91.527344 C 98.128906 92.945312 96.898438 94.304688 95.601562 95.601562 C 94.304688 96.898438 92.945312 98.128906 91.527344 99.292969 C 90.109375 100.457031 88.640625 101.546875 87.113281 102.566406 C 85.589844 103.585938 84.019531 104.527344 82.402344 105.390625 C 80.785156 106.253906 79.128906 107.039062 77.433594 107.742188 C 75.738281 108.441406 74.011719 109.058594 72.257812 109.59375 C 70.503906 110.125 68.726562 110.570312 66.925781 110.925781 C 65.128906 111.285156 63.316406 111.554688 61.492188 111.734375 C 59.664062 111.914062 57.835938 112.003906 56 112.003906 C 54.167969 112.003906 52.339844 111.914062 50.511719 111.734375 C 48.6875 111.554688 46.875 111.285156 45.078125 110.925781 C 43.277344 110.570312 41.5 110.125 39.746094 109.59375 C 37.992188 109.058594 36.265625 108.441406 34.570312 107.742188 C 32.875 107.039062 31.21875 106.253906 29.601562 105.390625 C 27.984375 104.527344 26.414062 103.585938 24.890625 102.566406 C 23.363281 101.546875 21.890625 100.457031 20.476562 99.292969 C 19.058594 98.128906 17.699219 96.898438 16.402344 95.601562 C 15.105469 94.304688 13.875 92.945312 12.710938 91.527344 C 11.546875 90.109375 10.457031 88.640625 9.4375 87.113281 C 8.417969 85.589844 7.476562 84.019531 6.613281 82.402344 C 5.746094 80.785156 4.964844 79.128906 4.261719 77.433594 C 3.5625 75.738281 2.945312 74.011719 2.410156 72.257812 C 1.878906 70.503906 1.433594 68.726562 1.074219 66.925781 C 0.71875 65.128906 0.449219 63.316406 0.269531 61.492188 C 0.0898438 59.664062 0 57.835938 0 56 C 0 54.167969 0.0898438 52.339844 0.269531 50.511719 C 0.449219 48.6875 0.71875 46.875 1.074219 45.078125 C 1.433594 43.277344 1.878906 41.5 2.410156 39.746094 C 2.945312 37.992188 3.5625 36.265625 4.261719 34.570312 C 4.964844 32.875 5.746094 31.21875 6.613281 29.601562 C 7.476562 27.984375 8.417969 26.414062 9.4375 24.890625 C 10.457031 23.363281 11.546875 21.890625 12.710938 20.476562 C 13.875 19.058594 15.105469 17.699219 16.402344 16.402344 C 17.699219 15.105469 19.058594 13.875 20.476562 12.710938 C 21.890625 11.546875 23.363281 10.457031 24.890625 9.4375 C 26.414062 8.417969 27.984375 7.476562 29.601562 6.613281 C 31.21875 5.746094 32.875 4.964844 34.570312 4.261719 C 36.265625 3.5625 37.992188 2.945312 39.746094 2.410156 C 41.5 1.878906 43.277344 1.433594 45.078125 1.074219 C 46.875 0.71875 48.6875 0.449219 50.511719 0.269531 C 52.339844 0.0898438 54.167969 0 56 0 C 57.835938 0 59.664062 0.0898438 61.492188 0.269531 C 63.316406 0.449219 65.128906 0.71875 66.925781 1.074219 C 68.726562 1.433594 70.503906 1.878906 72.257812 2.410156 C 74.011719 2.945312 75.738281 3.5625 77.433594 4.261719 C 79.128906 4.964844 80.785156 5.746094 82.402344 6.613281 C 84.019531 7.476562 85.589844 8.417969 87.113281 9.4375 C 88.640625 10.457031 90.109375 11.546875 91.527344 12.710938 C 92.945312 13.875 94.304688 15.105469 95.601562 16.402344 C 96.898438 17.699219 98.128906 19.058594 99.292969 20.476562 C 100.457031 21.890625 101.546875 23.363281 102.566406 24.890625 C 103.585938 26.414062 104.527344 27.984375 105.390625 29.601562 C 106.253906 31.21875 107.039062 32.875 107.742188 34.570312 C 108.441406 36.265625 109.058594 37.992188 109.59375 39.746094 C 110.125 41.5 110.570312 43.277344 110.925781 45.078125 C 111.285156 46.875 111.554688 48.6875 111.734375 50.511719 C 111.914062 52.339844 112.003906 54.167969 112.003906 56 Z M 112.003906 56 " fill-opacity="1" fill-rule="nonzero"/></g><g clip-path="url(#e375040f94)"><g clip-path="url(#84dddb2bf5)"><path fill="url(#8f95a6ff7f)" d="M 22.269531 21.910156 L 22.269531 89.644531 L 89.734375 89.644531 L 89.734375 21.910156 Z M 22.269531 21.910156 " fill-rule="nonzero"/></g></g></svg>