<svg xmlns="http://www.w3.org/2000/svg" xmlns:xlink="http://www.w3.org/1999/xlink" width="150" zoomAndPan="magnify" viewBox="0 0 112.5 112.499997" height="150" preserveAspectRatio="xMidYMid meet" version="1.0"><defs><clipPath id="b16a0fca9d"><path d="M 20 12.25 L 87 12.25 L 87 86 L 20 86 Z M 20 12.25 " clip-rule="nonzero"/></clipPath><clipPath id="afb4435da9"><path d="M 60 52 L 112 52 L 112 99.613281 L 60 99.613281 Z M 60 52 " clip-rule="nonzero"/></clipPath></defs><g clip-path="url(#b16a0fca9d)"><path fill="#1f476d" d="M 84.402344 49.574219 C 85.667969 44.617188 86.269531 39.265625 86.1875 33.65625 L 86.152344 31.121094 L 53.546875 12.265625 L 20.949219 31.121094 L 20.910156 33.65625 C 20.589844 55.792969 30.820312 72.96875 51.320312 84.699219 L 53.546875 85.976562 L 55.777344 84.699219 C 59.179688 82.753906 62.339844 80.628906 65.171875 78.382812 L 78.585938 53.921875 C 79.816406 51.671875 81.957031 50.109375 84.402344 49.574219 Z M 80.675781 35.152344 C 80.601562 44.828125 78.253906 53.484375 73.699219 60.871094 C 69.347656 67.9375 62.8125 74.101562 54.28125 79.191406 C 54.054688 79.324219 53.800781 79.390625 53.546875 79.390625 C 53.296875 79.390625 53.042969 79.324219 52.816406 79.191406 C 44.285156 74.101562 37.75 67.9375 33.398438 60.871094 C 28.84375 53.484375 26.5 44.828125 26.425781 35.152344 C 26.417969 34.640625 26.691406 34.167969 27.136719 33.910156 L 52.835938 19.046875 C 53.277344 18.792969 53.820312 18.792969 54.261719 19.046875 L 79.964844 33.910156 C 80.40625 34.167969 80.679688 34.640625 80.675781 35.152344 Z M 80.675781 35.152344 " fill-opacity="1" fill-rule="evenodd"/></g><path fill="#2579bc" d="M 53.546875 76.304688 C 69.492188 66.542969 77.4375 53.328125 77.808594 35.957031 L 53.546875 21.921875 L 29.289062 35.957031 C 29.660156 53.328125 37.601562 66.542969 53.546875 76.304688 Z M 53.546875 76.304688 " fill-opacity="1" fill-rule="evenodd"/><path fill="#1f476d" d="M 90.394531 69.625 L 89.078125 83.28125 C 89.003906 84.011719 88.390625 84.566406 87.65625 84.566406 L 84.910156 84.566406 C 84.175781 84.566406 83.558594 84.011719 83.488281 83.28125 L 82.167969 69.625 C 82.070312 68.582031 82.417969 67.5625 83.148438 66.757812 C 83.949219 65.878906 85.089844 65.375 86.285156 65.375 C 87.472656 65.375 88.617188 65.878906 89.417969 66.757812 C 90.148438 67.5625 90.496094 68.582031 90.394531 69.625 Z M 85.613281 57.761719 L 66.109375 93.339844 C 65.96875 93.59375 65.976562 93.84375 66.121094 94.09375 C 66.273438 94.34375 66.484375 94.464844 66.777344 94.464844 L 105.785156 94.464844 C 106.078125 94.464844 106.292969 94.34375 106.441406 94.09375 C 106.589844 93.84375 106.59375 93.59375 106.453125 93.339844 L 86.953125 57.761719 C 86.804688 57.503906 86.582031 57.371094 86.285156 57.371094 C 85.980469 57.371094 85.757812 57.503906 85.613281 57.761719 Z M 86.285156 85.449219 C 88.171875 85.449219 89.707031 86.984375 89.707031 88.871094 C 89.707031 90.757812 88.171875 92.289062 86.285156 92.289062 C 84.394531 92.289062 82.855469 90.757812 82.855469 88.871094 C 82.855469 86.984375 84.394531 85.449219 86.285156 85.449219 Z M 86.285156 85.449219 " fill-opacity="1" fill-rule="evenodd"/><path fill="#2579bc" d="M 86.855469 88.871094 C 86.855469 88.550781 86.601562 88.296875 86.285156 88.296875 C 85.964844 88.296875 85.707031 88.550781 85.707031 88.871094 C 85.707031 89.1875 85.964844 89.441406 86.285156 89.441406 C 86.601562 89.441406 86.855469 89.1875 86.855469 88.871094 Z M 86.855469 88.871094 " fill-opacity="1" fill-rule="evenodd"/><path fill="#2579bc" d="M 86.359375 81.71875 L 87.558594 69.351562 C 87.585938 69.050781 87.4375 68.816406 87.304688 68.671875 C 87.050781 68.394531 86.660156 68.222656 86.285156 68.222656 C 85.90625 68.222656 85.511719 68.394531 85.261719 68.671875 C 85.128906 68.816406 84.980469 69.050781 85.007812 69.351562 L 86.207031 81.71875 Z M 86.359375 81.71875 " fill-opacity="1" fill-rule="evenodd"/><g clip-path="url(#afb4435da9)"><path fill="#2579bc" d="M 89.453125 56.394531 L 108.957031 91.972656 C 109.574219 93.101562 109.554688 94.4375 108.894531 95.546875 C 108.238281 96.652344 107.078125 97.3125 105.785156 97.3125 L 66.777344 97.3125 C 65.488281 97.3125 64.328125 96.652344 63.667969 95.546875 C 63.011719 94.4375 62.988281 93.105469 63.605469 91.972656 L 83.113281 56.394531 C 83.757812 55.222656 84.941406 54.519531 86.285156 54.519531 C 87.625 54.519531 88.808594 55.222656 89.453125 56.394531 Z M 66.777344 99.621094 L 105.785156 99.621094 C 107.898438 99.621094 109.804688 98.535156 110.882812 96.722656 C 111.960938 94.90625 111.996094 92.71875 110.984375 90.867188 L 91.480469 55.289062 C 91.480469 55.289062 91.480469 55.289062 91.476562 55.289062 C 90.425781 53.363281 88.480469 52.214844 86.285156 52.214844 C 84.085938 52.214844 82.144531 53.363281 81.085938 55.289062 L 61.582031 90.867188 C 60.566406 92.71875 60.605469 94.90625 61.683594 96.722656 C 62.761719 98.535156 64.664062 99.621094 66.777344 99.621094 Z M 66.777344 99.621094 " fill-opacity="1" fill-rule="evenodd"/></g><path fill="#1f476d" d="M 13.785156 36.476562 L 9.800781 32.0625 C 10.324219 31.238281 10.628906 30.265625 10.628906 29.21875 C 10.628906 26.296875 8.246094 23.914062 5.316406 23.914062 C 2.382812 23.914062 0 26.296875 0 29.21875 C 0 32.144531 2.382812 34.523438 5.316406 34.523438 C 6.164062 34.523438 6.96875 34.324219 7.683594 33.96875 L 12.089844 38.855469 C 12.363281 39.152344 12.746094 39.324219 13.152344 39.324219 L 18.15625 39.324219 C 18.09375 38.382812 18.050781 37.433594 18.023438 36.476562 Z M 7.777344 29.21875 C 7.777344 30.578125 6.671875 31.675781 5.316406 31.675781 C 3.957031 31.675781 2.851562 30.578125 2.851562 29.21875 C 2.851562 27.863281 3.957031 26.761719 5.316406 26.761719 C 6.671875 26.761719 7.777344 27.863281 7.777344 29.21875 Z M 7.777344 29.21875 " fill-opacity="1" fill-rule="evenodd"/><path fill="#1f476d" d="M 11.28125 46.355469 C 10.65625 44.121094 8.597656 42.472656 6.160156 42.472656 C 3.234375 42.472656 0.847656 44.851562 0.847656 47.78125 C 0.847656 50.707031 3.234375 53.085938 6.160156 53.085938 C 8.597656 53.085938 10.65625 51.4375 11.28125 49.203125 L 19.625 49.203125 C 19.40625 48.265625 19.207031 47.316406 19.03125 46.355469 Z M 6.160156 45.320312 C 7.519531 45.320312 8.625 46.425781 8.625 47.78125 C 8.625 49.132812 7.519531 50.238281 6.160156 50.238281 C 4.804688 50.238281 3.699219 49.132812 3.699219 47.78125 C 3.699219 46.425781 4.804688 45.320312 6.160156 45.320312 Z M 6.160156 45.320312 " fill-opacity="1" fill-rule="evenodd"/><path fill="#1f476d" d="M 15.820312 56.789062 L 11.554688 61.976562 C 10.898438 61.6875 10.171875 61.523438 9.410156 61.523438 C 6.480469 61.523438 4.09375 63.90625 4.09375 66.832031 C 4.09375 69.757812 6.480469 72.136719 9.410156 72.136719 C 12.339844 72.136719 14.722656 69.757812 14.722656 66.832031 C 14.722656 65.699219 14.367188 64.648438 13.757812 63.785156 L 17.597656 59.117188 L 22.976562 59.117188 C 22.558594 58.179688 22.164062 57.230469 21.792969 56.269531 L 16.925781 56.269531 C 16.5 56.269531 16.09375 56.460938 15.820312 56.789062 Z M 9.410156 64.371094 C 10.769531 64.371094 11.871094 65.476562 11.871094 66.832031 C 11.871094 68.1875 10.769531 69.289062 9.410156 69.289062 C 8.050781 69.289062 6.949219 68.1875 6.949219 66.832031 C 6.949219 65.476562 8.050781 64.371094 9.410156 64.371094 Z M 9.410156 64.371094 " fill-opacity="1" fill-rule="evenodd"/><path fill="#1f476d" d="M 22.003906 67.945312 L 19.691406 73.417969 C 19.46875 73.390625 19.246094 73.375 19.019531 73.375 C 16.085938 73.375 13.703125 75.757812 13.703125 78.679688 C 13.703125 81.605469 16.085938 83.988281 19.019531 83.988281 C 21.945312 83.988281 24.332031 81.605469 24.332031 78.679688 C 24.332031 77 23.542969 75.5 22.320312 74.527344 L 24.265625 69.921875 L 29.460938 69.921875 C 28.746094 68.992188 28.0625 68.042969 27.410156 67.074219 L 23.316406 67.074219 C 22.742188 67.074219 22.226562 67.417969 22.003906 67.945312 Z M 19.019531 76.222656 C 20.375 76.222656 21.476562 77.324219 21.476562 78.679688 C 21.476562 80.039062 20.375 81.140625 19.019531 81.140625 C 17.660156 81.140625 16.554688 80.039062 16.554688 78.679688 C 16.554688 77.324219 17.660156 76.222656 19.019531 76.222656 Z M 19.019531 76.222656 " fill-opacity="1" fill-rule="evenodd"/><path fill="#1f476d" d="M 33.082031 82.820312 C 32.441406 82.546875 31.742188 82.398438 31.007812 82.398438 C 28.078125 82.398438 25.691406 84.777344 25.691406 87.703125 C 25.691406 90.628906 28.078125 93.007812 31.007812 93.007812 C 33.9375 93.007812 36.324219 90.628906 36.324219 87.703125 C 36.324219 86.542969 35.945312 85.46875 35.308594 84.59375 L 39.109375 79.828125 C 38.371094 79.21875 37.652344 78.597656 36.949219 77.96875 Z M 31.007812 85.246094 C 32.363281 85.246094 33.46875 86.347656 33.46875 87.703125 C 33.46875 89.058594 32.363281 90.160156 31.007812 90.160156 C 29.648438 90.160156 28.542969 89.058594 28.542969 87.703125 C 28.542969 86.347656 29.648438 85.246094 31.007812 85.246094 Z M 31.007812 85.246094 " fill-opacity="1" fill-rule="evenodd"/><path fill="#1f476d" d="M 87.480469 49.203125 L 95.816406 49.203125 C 96.441406 51.4375 98.5 53.085938 100.9375 53.085938 C 103.867188 53.085938 106.25 50.707031 106.25 47.78125 C 106.25 44.851562 103.867188 42.472656 100.9375 42.472656 C 98.5 42.472656 96.441406 44.121094 95.816406 46.355469 L 88.070312 46.355469 C 87.898438 47.308594 87.699219 48.257812 87.480469 49.203125 Z M 98.476562 47.78125 C 98.476562 46.425781 99.582031 45.320312 100.9375 45.320312 C 102.292969 45.320312 103.398438 46.425781 103.398438 47.78125 C 103.398438 49.132812 102.292969 50.238281 100.9375 50.238281 C 99.582031 50.238281 98.476562 49.132812 98.476562 47.78125 Z M 98.476562 47.78125 " fill-opacity="1" fill-rule="evenodd"/><path fill="#1f476d" d="M 95.007812 38.855469 L 99.417969 33.96875 C 100.128906 34.324219 100.933594 34.523438 101.785156 34.523438 C 104.714844 34.523438 107.097656 32.144531 107.097656 29.21875 C 107.097656 26.296875 104.714844 23.914062 101.785156 23.914062 C 98.851562 23.914062 96.46875 26.296875 96.46875 29.21875 C 96.46875 30.265625 96.777344 31.238281 97.296875 32.058594 L 93.3125 36.476562 L 89.074219 36.476562 C 89.050781 37.425781 89.003906 38.375 88.941406 39.324219 L 93.945312 39.324219 C 94.351562 39.324219 94.734375 39.152344 95.007812 38.855469 Z M 101.785156 31.675781 C 100.425781 31.675781 99.320312 30.578125 99.320312 29.21875 C 99.320312 27.863281 100.425781 26.761719 101.785156 26.761719 C 103.140625 26.761719 104.246094 27.863281 104.246094 29.21875 C 104.246094 30.578125 103.140625 31.675781 101.785156 31.675781 Z M 101.785156 31.675781 " fill-opacity="1" fill-rule="evenodd"/></svg>