<svg xml:space="preserve" style="max-height: 500px" viewBox="0 0 504 453" y="0px" x="0px" xmlns:xlink="http://www.w3.org/1999/xlink" xmlns="http://www.w3.org/2000/svg" version="1.1" width="504" height="453">
<g id="BACKGROUND">
	<g>
		<g>
			<rect height="500" width="500" style="fill:#F6F6F6;"/>
		</g>
	</g>
</g>
<g id="OBJECTS">
	<rect height="106.031" width="500" style="fill:#C9C9C9;" y="393.969"/>
	<ellipse ry="12.186" rx="227.235" cy="431.317" cx="240.166" style="fill:#ABABAB;"/>
	<g>
		<g>
			
				<ellipse ry="146.254" rx="146.254" cy="228.299" cx="246.061" style="fill:#DDDDDD;" transform="matrix(0.7071 -0.7071 0.7071 0.7071 -89.362 240.8583)"/>
			<g>
				<g>
					<path d="M242.339,386.91c0.011-1.622,1.342-2.936,2.965-2.926l0,0c1.622,0.009,2.924,1.33,2.913,2.952&#10;&#9;&#9;&#9;&#9;&#9;&#9;l0,0c0.002,1.623-1.33,2.935-2.953,2.926l0,0c-0.011,0-0.023,0-0.047-0.001l0,0C243.62,389.828,242.331,388.508,242.339,386.91&#10;&#9;&#9;&#9;&#9;&#9;&#9;z M232.12,389.262c-1.62-0.139-2.813-1.563-2.674-3.183l0,0c0.14-1.62,1.563-2.813,3.183-2.674l0,0&#10;&#9;&#9;&#9;&#9;&#9;&#9;c1.62,0.14,2.813,1.563,2.674,3.183l0,0c-0.137,1.55-1.455,2.721-2.984,2.69l0,0&#10;&#9;&#9;&#9;&#9;&#9;&#9;C232.25,389.276,232.191,389.263,232.12,389.262z M255.266,386.694c-0.119-1.625,1.086-3.034,2.711-3.155l0,0&#10;&#9;&#9;&#9;&#9;&#9;&#9;c1.613-0.12,3.034,1.086,3.155,2.71l0,0c0.12,1.614-1.098,3.024-2.711,3.155l0,0l0,0l0,0c-0.094-0.002-0.189,0.008-0.283,0.006&#10;&#9;&#9;&#9;&#9;&#9;&#9;l0,0C256.634,389.379,255.388,388.213,255.266,386.694z M219.068,387.606L219.068,387.606L219.068,387.606&#10;&#9;&#9;&#9;&#9;&#9;&#9;c-1.605-0.269-2.679-1.796-2.411-3.389l0,0c0.268-1.605,1.795-2.68,3.389-2.412l0,0c1.605,0.268,2.679,1.784,2.411,3.389l0,0&#10;&#9;&#9;&#9;&#9;&#9;&#9;c-0.253,1.453-1.521,2.473-2.954,2.444l0,0C219.35,387.634,219.208,387.632,219.068,387.606z M268.132,385.431&#10;&#9;&#9;&#9;&#9;&#9;&#9;c-0.261-1.605,0.84-3.11,2.433-3.372l0,0c1.605-0.249,3.111,0.84,3.371,2.444l0,0c0.25,1.605-0.84,3.111-2.444,3.372l0,0&#10;&#9;&#9;&#9;&#9;&#9;&#9;c0,0,0,0,0-0.011l0,0c-0.177,0.032-0.355,0.04-0.519,0.036l0,0C269.576,387.871,268.361,386.858,268.132,385.431z&#10;&#9;&#9;&#9;&#9;&#9;&#9; M206.19,384.87c-1.579-0.397-2.523-1.991-2.125-3.571l0,0c0.397-1.567,2.004-2.522,3.571-2.113l0,0&#10;&#9;&#9;&#9;&#9;&#9;&#9;c1.579,0.397,2.522,1.991,2.125,3.571l0,0c-0.345,1.345-1.574,2.236-2.903,2.209l0,0&#10;&#9;&#9;&#9;&#9;&#9;&#9;C206.635,384.962,206.412,384.935,206.19,384.87z M280.844,383.117c-0.38-1.583,0.582-3.174,2.154-3.553l0.012,0&#10;&#9;&#9;&#9;&#9;&#9;&#9;c1.572-0.391,3.163,0.582,3.542,2.154l0,0c0.391,1.572-0.57,3.163-2.154,3.554l0,0l0,0l0,0&#10;&#9;&#9;&#9;&#9;&#9;&#9;c-0.248,0.065-0.507,0.084-0.754,0.079l0,0C282.338,385.324,281.17,384.429,280.844,383.117z M193.569,381.107c0,0,0,0,0.011,0&#10;&#9;&#9;&#9;&#9;&#9;&#9;l0,0c-1.541-0.537-2.353-2.212-1.828-3.742l0,0c0.526-1.54,2.2-2.353,3.742-1.828l0,0c1.529,0.538,2.353,2.213,1.816,3.742l0,0&#10;&#9;&#9;&#9;&#9;&#9;&#9;c-0.425,1.237-1.594,2.013-2.839,1.988l0,0C194.177,381.26,193.872,381.207,193.569,381.107z M293.329,379.766&#10;&#9;&#9;&#9;&#9;&#9;&#9;c-0.521-1.54,0.313-3.204,1.852-3.725l0,0c1.539-0.509,3.204,0.313,3.725,1.864l0,0c0.509,1.539-0.324,3.191-1.852,3.713l0,0&#10;&#9;&#9;&#9;&#9;&#9;&#9;l0,0l0,0c-0.332,0.11-0.674,0.162-1.003,0.155l0,0C294.852,381.748,293.728,380.973,293.329,379.766z M181.31,376.292&#10;&#9;&#9;&#9;&#9;&#9;&#9;c-1.491-0.654-2.161-2.385-1.508-3.876l0,0c0.654-1.479,2.385-2.15,3.876-1.496l0,0c1.48,0.643,2.162,2.385,1.508,3.864l0,0&#10;&#9;&#9;&#9;&#9;&#9;&#9;c-0.493,1.118-1.6,1.778-2.752,1.754l0,0C182.058,376.53,181.672,376.452,181.31,376.292z M305.483,375.394&#10;&#9;&#9;&#9;&#9;&#9;&#9;c-0.639-1.494,0.055-3.221,1.549-3.86l0,0c1.483-0.64,3.221,0.055,3.861,1.549l0,0c0.639,1.483-0.055,3.221-1.549,3.859l0,0&#10;&#9;&#9;&#9;&#9;&#9;&#9;c-0.392,0.169-0.805,0.242-1.216,0.233l0,0C307.011,377.154,305.954,376.486,305.483,375.394z M169.484,370.497&#10;&#9;&#9;&#9;&#9;&#9;&#9;c-1.431-0.77-1.958-2.556-1.188-3.986l0,0c0.77-1.431,2.556-1.958,3.986-1.188l0,0c1.43,0.782,1.958,2.568,1.176,3.987l0,0&#10;&#9;&#9;&#9;&#9;&#9;&#9;c-0.538,1-1.573,1.566-2.643,1.544l0,0C170.358,370.845,169.902,370.73,169.484,370.497z M317.246,370.04&#10;&#9;&#9;&#9;&#9;&#9;&#9;c-0.758-1.427-0.216-3.215,1.222-3.973l0,0c1.438-0.758,3.215-0.215,3.973,1.223l0,0c0.758,1.438,0.204,3.214-1.222,3.972l0,0&#10;&#9;&#9;&#9;&#9;&#9;&#9;c-0.464,0.25-0.949,0.357-1.43,0.347l0,0C318.755,371.588,317.767,371.016,317.246,370.04z M158.17,363.739L158.17,363.739&#10;&#9;&#9;&#9;&#9;&#9;&#9;L158.17,363.739c-1.357-0.886-1.743-2.704-0.857-4.062l0,0c0.886-1.357,2.717-1.743,4.074-0.857l0,0&#10;&#9;&#9;&#9;&#9;&#9;&#9;c1.357,0.897,1.731,2.716,0.845,4.073l0,0c-0.571,0.883-1.545,1.344-2.52,1.324l0,0&#10;&#9;&#9;&#9;&#9;&#9;&#9;C159.184,364.206,158.646,364.055,158.17,363.739z M328.523,363.747c-0.866-1.371-0.475-3.185,0.894-4.062l0,0&#10;&#9;&#9;&#9;&#9;&#9;&#9;c1.371-0.877,3.185-0.475,4.061,0.896l0,0c0.878,1.358,0.475,3.185-0.894,4.05l0,0c-0.501,0.331-1.08,0.483-1.644,0.471l0,0&#10;&#9;&#9;&#9;&#9;&#9;&#9;C330,365.082,329.081,364.605,328.523,363.747z M147.451,356.099c-1.284-1.003-1.516-2.854-0.514-4.126l0,0&#10;&#9;&#9;&#9;&#9;&#9;&#9;c0.991-1.285,2.841-1.517,4.114-0.515l0,0c1.285,0.99,1.517,2.841,0.526,4.126l0,0c-0.592,0.751-1.493,1.145-2.386,1.127l0,0&#10;&#9;&#9;&#9;&#9;&#9;&#9;C148.58,356.698,147.973,356.498,147.451,356.099z M339.265,356.537c-0.985-1.29-0.735-3.132,0.554-4.115l0,0&#10;&#9;&#9;&#9;&#9;&#9;&#9;c1.29-0.985,3.132-0.735,4.117,0.555l0,0c0.984,1.303,0.734,3.143-0.556,4.128l0,0c-0.549,0.412-1.2,0.61-1.846,0.597l0,0&#10;&#9;&#9;&#9;&#9;&#9;&#9;C340.676,357.683,339.827,357.278,339.265,356.537z M137.397,347.603c-1.2-1.107-1.279-2.966-0.185-4.155l0,0&#10;&#9;&#9;&#9;&#9;&#9;&#9;c1.095-1.2,2.954-1.279,4.155-0.185l0,0c1.188,1.095,1.28,2.966,0.173,4.154l0,0c-0.589,0.647-1.407,0.971-2.218,0.954l0,0&#10;&#9;&#9;&#9;&#9;&#9;&#9;C138.628,348.357,137.94,348.095,137.397,347.603z M349.379,348.492c-1.092-1.211-0.996-3.067,0.216-4.158l0,0&#10;&#9;&#9;&#9;&#9;&#9;&#9;c1.21-1.081,3.065-0.984,4.157,0.227l0,0c1.081,1.21,0.984,3.065-0.226,4.145l0,0c-0.576,0.529-1.31,0.773-2.026,0.759l0,0&#10;&#9;&#9;&#9;&#9;&#9;&#9;C350.71,349.448,349.942,349.114,349.379,348.492z M128.065,338.309c-1.104-1.187-1.043-3.044,0.156-4.148l0,0&#10;&#9;&#9;&#9;&#9;&#9;&#9;c1.187-1.104,3.043-1.03,4.148,0.157l0,0c1.104,1.186,1.031,3.055-0.156,4.159l0,0c-0.575,0.529-1.321,0.795-2.062,0.78l0,0&#10;&#9;&#9;&#9;&#9;&#9;&#9;C129.386,339.241,128.628,338.92,128.065,338.309z M358.791,339.643c-1.176-1.117-1.22-2.976-0.114-4.165l0,0&#10;&#9;&#9;&#9;&#9;&#9;&#9;c1.119-1.176,2.976-1.22,4.165-0.114l0,0c1.177,1.117,1.22,2.976,0.114,4.165l0,0l0,0l0,0&#10;&#9;&#9;&#9;&#9;&#9;&#9;c-0.601,0.623-1.406,0.923-2.205,0.907l0,0C360.045,340.421,359.345,340.16,358.791,339.643z M119.511,328.302&#10;&#9;&#9;&#9;&#9;&#9;&#9;c-0.997-1.278-0.782-3.131,0.497-4.128l0,0c1.279-1.008,3.121-0.783,4.129,0.496l0,0c0.997,1.279,0.782,3.121-0.497,4.129l0,0&#10;&#9;&#9;&#9;&#9;&#9;&#9;c-0.55,0.435-1.224,0.633-1.87,0.619l0,0C120.911,329.401,120.084,329.02,119.511,328.302z M367.466,330.052&#10;&#9;&#9;&#9;&#9;&#9;&#9;c-1.261-1.015-1.469-2.864-0.443-4.137l0,0.013c1.014-1.273,2.863-1.471,4.125-0.456l0,0c1.272,1.014,1.469,2.863,0.456,4.125&#10;&#9;&#9;&#9;&#9;&#9;&#9;l0,0c-0.592,0.74-1.47,1.121-2.351,1.103l0,0C368.629,330.686,367.998,330.474,367.466,330.052z M111.806,317.62&#10;&#9;&#9;&#9;&#9;&#9;&#9;c0,0,0,0,0,0.012l0,0c-0.889-1.359-0.522-3.186,0.837-4.075l0,0c1.347-0.901,3.174-0.522,4.075,0.825l0,0&#10;&#9;&#9;&#9;&#9;&#9;&#9;c0.889,1.36,0.522,3.186-0.836,4.075l0,0c-0.513,0.342-1.104,0.494-1.68,0.482l0,0&#10;&#9;&#9;&#9;&#9;&#9;&#9;C113.272,318.92,112.365,318.466,111.806,317.62z M375.333,319.796c-1.334-0.909-1.696-2.739-0.786-4.084l0,0&#10;&#9;&#9;&#9;&#9;&#9;&#9;c0.91-1.346,2.739-1.696,4.085-0.786l0,0c1.345,0.91,1.696,2.728,0.786,4.073l0,0c-0.583,0.858-1.533,1.321-2.497,1.301l0,0&#10;&#9;&#9;&#9;&#9;&#9;&#9;C376.38,320.288,375.82,320.123,375.333,319.796z M105.007,306.356c-0.782-1.415-0.263-3.203,1.164-3.984l0,0&#10;&#9;&#9;&#9;&#9;&#9;&#9;c1.415-0.783,3.203-0.263,3.985,1.164l0,0c0.782,1.415,0.263,3.203-1.164,3.984l0,0c-0.464,0.261-0.972,0.368-1.465,0.358l0,0&#10;&#9;&#9;&#9;&#9;&#9;&#9;C106.505,307.857,105.528,307.32,105.007,306.356z M382.341,308.923c-1.418-0.805-1.91-2.591-1.116-4.009l0,0&#10;&#9;&#9;&#9;&#9;&#9;&#9;c0.793-1.419,2.591-1.91,3.997-1.117l0,0c1.418,0.794,1.922,2.591,1.128,3.997l0,0c0,0,0,0-0.012,0l0,0&#10;&#9;&#9;&#9;&#9;&#9;&#9;c-0.549,0.977-1.571,1.52-2.618,1.498l0,0C383.251,309.283,382.783,309.167,382.341,308.923z M99.147,294.584&#10;&#9;&#9;&#9;&#9;&#9;&#9;c-0.663-1.483-0.004-3.222,1.479-3.885l0,0c1.483-0.664,3.222-0.005,3.885,1.479l0,0c0.664,1.483,0.004,3.222-1.479,3.885l0,0&#10;&#9;&#9;&#9;&#9;&#9;&#9;c-0.415,0.18-0.84,0.265-1.263,0.256l0,0C100.664,296.297,99.631,295.652,99.147,294.584z M388.432,297.501&#10;&#9;&#9;&#9;&#9;&#9;&#9;c-1.48-0.677-2.126-2.418-1.449-3.886l0,0c0.678-1.48,2.419-2.126,3.898-1.449l0,0c1.48,0.678,2.126,2.419,1.449,3.898l0,0&#10;&#9;&#9;&#9;&#9;&#9;&#9;c-0.505,1.095-1.6,1.731-2.741,1.707l0,0C389.202,297.764,388.804,297.686,388.432,297.501z M94.273,282.36&#10;&#9;&#9;&#9;&#9;&#9;&#9;c-0.533-1.539,0.266-3.216,1.806-3.749l0,0c1.528-0.545,3.204,0.266,3.737,1.794l0,0c0.544,1.528-0.266,3.204-1.794,3.749l0,0&#10;&#9;&#9;&#9;&#9;&#9;&#9;c-0.344,0.123-0.686,0.174-1.039,0.167l0,0C95.797,284.297,94.695,283.545,94.273,282.36z M393.567,285.638&#10;&#9;&#9;&#9;&#9;&#9;&#9;c-1.528-0.561-2.317-2.247-1.768-3.764l0,0c0.561-1.528,2.247-2.317,3.764-1.769l0,0c1.528,0.561,2.317,2.247,1.768,3.764l0,0&#10;&#9;&#9;&#9;&#9;&#9;&#9;l0,0l0,0c-0.447,1.214-1.603,1.966-2.826,1.941l0,0C394.188,285.803,393.872,285.75,393.567,285.638z M90.429,269.771&#10;&#9;&#9;&#9;&#9;&#9;&#9;c-0.415-1.572,0.524-3.176,2.096-3.591l0,0c1.572-0.414,3.175,0.524,3.59,2.097l0,0c0.403,1.572-0.536,3.175-2.108,3.59l0,0&#10;&#9;&#9;&#9;&#9;&#9;&#9;c-0.26,0.077-0.531,0.107-0.801,0.101l0,0C91.924,271.941,90.766,271.071,90.429,269.771z M397.688,273.389&#10;&#9;&#9;&#9;&#9;&#9;&#9;c-1.566-0.433-2.485-2.038-2.053-3.605l0,0c0.42-1.567,2.038-2.497,3.606-2.065l0,0c1.567,0.421,2.485,2.038,2.065,3.605l0,0&#10;&#9;&#9;&#9;&#9;&#9;&#9;c-0.369,1.333-1.585,2.19-2.902,2.163l0,0C398.169,273.481,397.934,273.452,397.688,273.389z M87.625,256.908L87.625,256.908&#10;&#9;&#9;&#9;&#9;&#9;&#9;L87.625,256.908c-0.284-1.605,0.782-3.123,2.387-3.408l0,0c1.605-0.273,3.123,0.793,3.395,2.398l0,0&#10;&#9;&#9;&#9;&#9;&#9;&#9;c0.285,1.593-0.781,3.111-2.386,3.396l0,0c-0.189,0.032-0.377,0.051-0.565,0.048l0,0&#10;&#9;&#9;&#9;&#9;&#9;&#9;C89.081,259.313,87.866,258.312,87.625,256.908z M400.805,260.836c-1.594-0.292-2.655-1.818-2.352-3.423l0,0&#10;&#9;&#9;&#9;&#9;&#9;&#9;c0.292-1.593,1.818-2.644,3.423-2.352l0,0c1.593,0.292,2.643,1.83,2.352,3.423l0,0l0,0l0,0&#10;&#9;&#9;&#9;&#9;&#9;&#9;c-0.265,1.441-1.533,2.438-2.942,2.409l0,0C401.121,260.89,400.969,260.875,400.805,260.836z M85.883,243.856L85.883,243.856&#10;&#9;&#9;&#9;&#9;&#9;&#9;L85.883,243.856c-0.143-1.613,1.05-3.047,2.664-3.19l0,0c1.614-0.155,3.048,1.039,3.191,2.653l0,0&#10;&#9;&#9;&#9;&#9;&#9;&#9;c0.154,1.614-1.039,3.048-2.653,3.202l0,0c-0.118,0.009-0.224,0.007-0.329,0.005l0,0&#10;&#9;&#9;&#9;&#9;&#9;&#9;C87.275,246.495,86.028,245.364,85.883,243.856z M402.866,248.086c-1.606-0.162-2.788-1.609-2.626-3.229l0,0&#10;&#9;&#9;&#9;&#9;&#9;&#9;c0.163-1.608,1.61-2.789,3.229-2.626l0,0c1.607,0.174,2.789,1.609,2.626,3.229l0,0l0,0l0,0&#10;&#9;&#9;&#9;&#9;&#9;&#9;c-0.16,1.526-1.466,2.675-2.983,2.643l0,0C403.031,248.101,402.949,248.087,402.866,248.086z M85.225,230.708&#10;&#9;&#9;&#9;&#9;&#9;&#9;c-0.014-1.623,1.284-2.948,2.906-2.962l0,0c1.623-0.014,2.949,1.284,2.974,2.907l0,0c0.014,1.623-1.295,2.948-2.918,2.973l0,0&#10;&#9;&#9;&#9;&#9;&#9;&#9;c-0.023-0.001-0.059-0.001-0.083-0.002l0,0C86.518,233.592,85.239,232.308,85.225,230.708z M401.019,232.197&#10;&#9;&#9;&#9;&#9;&#9;&#9;c0.033-1.622,1.377-2.911,2.999-2.878l0,0c1.622,0.033,2.911,1.377,2.878,2.999l0,0l0,0l0,0&#10;&#9;&#9;&#9;&#9;&#9;&#9;c-0.034,1.622-1.377,2.911-2.999,2.878l0,0C402.275,235.163,400.986,233.82,401.019,232.197z M88.348,220.696&#10;&#9;&#9;&#9;&#9;&#9;&#9;c-1.62-0.116-2.838-1.517-2.734-3.137l0,0c0,0,0,0,0.012,0l0,0c0.103-1.62,1.516-2.838,3.136-2.722l0,0&#10;&#9;&#9;&#9;&#9;&#9;&#9;c1.609,0.116,2.838,1.517,2.722,3.137l0,0c-0.114,1.562-1.433,2.757-2.984,2.725l0,0&#10;&#9;&#9;&#9;&#9;&#9;&#9;C88.442,220.698,88.395,220.697,88.348,220.696z M400.924,222.531l-0.012,0c-0.06-1.624,1.202-2.985,2.826-3.058l0,0&#10;&#9;&#9;&#9;&#9;&#9;&#9;c1.624-0.061,2.986,1.19,3.058,2.814l0,0l0,0l0,0c0.061,1.624-1.203,2.997-2.827,3.057l0,0&#10;&#9;&#9;&#9;&#9;&#9;&#9;c-0.059-0.001-0.117,0.01-0.176,0.008l0,0C402.254,225.321,400.986,224.096,400.924,222.531z M89.542,207.834&#10;&#9;&#9;&#9;&#9;&#9;&#9;c-1.606-0.257-2.715-1.749-2.459-3.355l0,0c0.245-1.606,1.737-2.704,3.343-2.459l0,0c1.606,0.244,2.704,1.737,2.46,3.343l0,0&#10;&#9;&#9;&#9;&#9;&#9;&#9;c-0.219,1.477-1.51,2.532-2.956,2.503l0,0C89.8,207.863,89.671,207.848,89.542,207.834z M399.892,209.893&#10;&#9;&#9;&#9;&#9;&#9;&#9;c-0.202-1.615,0.945-3.085,2.548-3.275l0,0c1.615-0.202,3.085,0.945,3.286,2.561l0,0c0.191,1.603-0.957,3.073-2.559,3.275l0,0&#10;&#9;&#9;&#9;&#9;&#9;&#9;c-0.141,0.009-0.283,0.017-0.424,0.014l0,0C401.297,212.438,400.073,211.366,399.892,209.893z M91.78,195.099&#10;&#9;&#9;&#9;&#9;&#9;&#9;c-1.58-0.374-2.558-1.958-2.185-3.537l0,0c0.385-1.579,1.969-2.558,3.549-2.185l0,0c1.58,0.386,2.546,1.97,2.172,3.549l0,0&#10;&#9;&#9;&#9;&#9;&#9;&#9;c-0.322,1.37-1.564,2.284-2.915,2.257l0,0C92.19,195.178,91.99,195.15,91.78,195.099z M397.821,197.374&#10;&#9;&#9;&#9;&#9;&#9;&#9;c-0.331-1.582,0.7-3.137,2.282-3.468l0,0c1.595-0.332,3.149,0.688,3.48,2.282l0,0c0.32,1.583-0.7,3.137-2.282,3.469l0,0&#10;&#9;&#9;&#9;&#9;&#9;&#9;c-0.224,0.054-0.448,0.073-0.659,0.069l0,0C399.302,199.698,398.111,198.745,397.821,197.374z M95.059,182.597&#10;&#9;&#9;&#9;&#9;&#9;&#9;c-1.542-0.502-2.389-2.165-1.887-3.708l0,0c0.514-1.541,2.177-2.389,3.719-1.875l0,0c1.542,0.502,2.378,2.153,1.876,3.707l0,0&#10;&#9;&#9;&#9;&#9;&#9;&#9;c-0.414,1.25-1.594,2.048-2.852,2.023l0,0C95.633,182.738,95.34,182.685,95.059,182.597z M394.736,185.082&#10;&#9;&#9;&#9;&#9;&#9;&#9;c-0.462-1.561,0.43-3.189,1.992-3.651l0,0c1.549-0.462,3.189,0.43,3.651,1.98l0,0c0.461,1.562-0.43,3.19-1.992,3.651l0,0&#10;&#9;&#9;&#9;&#9;&#9;&#9;c-0.296,0.088-0.59,0.129-0.896,0.123l0,0C396.245,187.16,395.109,186.336,394.736,185.082z M99.355,170.398&#10;&#9;&#9;&#9;&#9;&#9;&#9;c-1.492-0.63-2.197-2.361-1.567-3.854l0,0c0.631-1.492,2.362-2.197,3.854-1.567l0,0c1.492,0.631,2.198,2.35,1.567,3.854l0,0&#10;&#9;&#9;&#9;&#9;&#9;&#9;c-0.482,1.142-1.601,1.813-2.777,1.789l0,0C100.08,170.613,99.717,170.547,99.355,170.398z M390.644,173.076&#10;&#9;&#9;&#9;&#9;&#9;&#9;c-0.58-1.517,0.173-3.219,1.689-3.799l0,0c1.506-0.592,3.207,0.16,3.798,1.677l0,0c0.581,1.517-0.172,3.219-1.677,3.799l0,0&#10;&#9;&#9;&#9;&#9;&#9;&#9;c-0.368,0.145-0.758,0.208-1.121,0.2l0,0C392.169,174.929,391.091,174.225,390.644,173.076z M104.655,158.596&#10;&#9;&#9;&#9;&#9;&#9;&#9;c-1.443-0.759-2.005-2.534-1.247-3.965l0,0c0.747-1.442,2.523-2.006,3.965-1.247l0,0c1.443,0.747,1.994,2.522,1.248,3.965l0,0&#10;&#9;&#9;&#9;&#9;&#9;&#9;c-0.539,1.023-1.597,1.602-2.678,1.579l0,0C105.507,158.92,105.062,158.805,104.655,158.596z M385.592,161.448l0,0.012&#10;&#9;&#9;&#9;&#9;&#9;&#9;c-0.711-1.461-0.098-3.224,1.364-3.935l0,0c1.46-0.71,3.212-0.099,3.922,1.362l0,0c0.711,1.461,0.099,3.224-1.362,3.923l0,0&#10;&#9;&#9;&#9;&#9;&#9;&#9;c-0.428,0.215-0.888,0.311-1.335,0.302l0,0C387.111,163.091,386.089,162.482,385.592,161.448z M110.897,147.261&#10;&#9;&#9;&#9;&#9;&#9;&#9;c-1.381-0.863-1.791-2.67-0.916-4.051l0,0c0.863-1.37,2.682-1.779,4.052-0.916l0,0c1.369,0.874,1.779,2.682,0.916,4.064l0,0&#10;&#9;&#9;&#9;&#9;&#9;&#9;c-0.571,0.894-1.557,1.378-2.544,1.358l0,0C111.887,147.704,111.361,147.564,110.897,147.261z M379.591,150.283&#10;&#9;&#9;&#9;&#9;&#9;&#9;c-0.829-1.393-0.356-3.205,1.036-4.023l0,0c1.393-0.83,3.206-0.368,4.023,1.035l0,0l0,0l0,0&#10;&#9;&#9;&#9;&#9;&#9;&#9;c0.83,1.393,0.369,3.194-1.035,4.023l0,0c-0.488,0.284-1.02,0.414-1.549,0.403l0,0&#10;&#9;&#9;&#9;&#9;&#9;&#9;C381.079,151.702,380.124,151.188,379.591,150.283z M118.045,136.485c-1.297-0.967-1.565-2.819-0.586-4.104l0,0&#10;&#9;&#9;&#9;&#9;&#9;&#9;c0.979-1.308,2.819-1.564,4.116-0.585l0,0c1.297,0.979,1.553,2.819,0.585,4.115l0,0c-0.592,0.788-1.506,1.192-2.411,1.173l0,0&#10;&#9;&#9;&#9;&#9;&#9;&#9;C119.15,137.072,118.554,136.872,118.045,136.485z M372.697,139.641c-0.937-1.324-0.617-3.164,0.708-4.101l0,0&#10;&#9;&#9;&#9;&#9;&#9;&#9;c1.324-0.937,3.152-0.617,4.101,0.708l0,0c0.936,1.325,0.617,3.164-0.708,4.089l0,0c-0.537,0.377-1.152,0.552-1.752,0.54l0,0&#10;&#9;&#9;&#9;&#9;&#9;&#9;C374.141,140.859,373.257,140.429,372.697,139.641z M126.037,126.338c-1.2-1.083-1.315-2.943-0.243-4.155l0,0&#10;&#9;&#9;&#9;&#9;&#9;&#9;c1.083-1.213,2.943-1.315,4.156-0.244l0,0c1.212,1.084,1.327,2.943,0.244,4.156l0,0c-0.602,0.67-1.432,1.005-2.254,0.988l0,0&#10;&#9;&#9;&#9;&#9;&#9;&#9;C127.257,127.068,126.593,126.819,126.037,126.338z M364.967,129.582c-1.044-1.244-0.877-3.087,0.368-4.131l0,0&#10;&#9;&#9;&#9;&#9;&#9;&#9;c1.244-1.045,3.099-0.877,4.131,0.367l0,0c1.045,1.244,0.876,3.099-0.368,4.143l0,0c-0.562,0.47-1.26,0.691-1.942,0.677l0,0&#10;&#9;&#9;&#9;&#9;&#9;&#9;C366.333,130.621,365.53,130.264,364.967,129.582z M134.84,116.866c-1.117-1.175-1.078-3.032,0.097-4.148l0,0&#10;&#9;&#9;&#9;&#9;&#9;&#9;c1.175-1.128,3.033-1.09,4.161,0.086l0,0c1.117,1.175,1.078,3.032-0.097,4.16l0,0c-0.588,0.552-1.346,0.831-2.086,0.815l0,0&#10;&#9;&#9;&#9;&#9;&#9;&#9;C136.162,117.763,135.404,117.454,134.84,116.866z M356.425,120.199l0.011,0c-1.141-1.152-1.125-3.01,0.027-4.15l0,0&#10;&#9;&#9;&#9;&#9;&#9;&#9;c1.152-1.14,3.01-1.125,4.149,0.027l0,0c1.141,1.152,1.126,3.01-0.026,4.15l0,0c-0.588,0.588-1.359,0.866-2.122,0.85l0,0&#10;&#9;&#9;&#9;&#9;&#9;&#9;C357.724,121.061,356.989,120.763,356.425,120.199z M144.391,108.15c-1.032-1.268-0.829-3.121,0.427-4.141l0,0&#10;&#9;&#9;&#9;&#9;&#9;&#9;c1.267-1.021,3.11-0.83,4.142,0.438l0,0c1.02,1.256,0.818,3.11-0.438,4.13l0,0c-0.562,0.459-1.237,0.669-1.906,0.655l0,0&#10;&#9;&#9;&#9;&#9;&#9;&#9;C145.78,109.214,144.953,108.843,144.391,108.15z M347.161,111.531L347.161,111.531c-1.225-1.06-1.363-2.909-0.303-4.145l0,0&#10;&#9;&#9;&#9;&#9;&#9;&#9;c1.06-1.225,2.909-1.363,4.145-0.303l0,0c1.225,1.06,1.364,2.909,0.303,4.145l0,0c-0.59,0.694-1.444,1.04-2.29,1.023l0,0&#10;&#9;&#9;&#9;&#9;&#9;&#9;C348.358,112.237,347.704,112,347.161,111.531z M154.608,100.224c-0.925-1.336-0.57-3.163,0.766-4.076l0,0&#10;&#9;&#9;&#9;&#9;&#9;&#9;c1.335-0.925,3.163-0.581,4.087,0.766l0,0c0.913,1.336,0.57,3.163-0.766,4.088l0,0c-0.525,0.353-1.127,0.518-1.715,0.506l0,0&#10;&#9;&#9;&#9;&#9;&#9;&#9;C156.051,101.489,155.167,101.047,154.608,100.224z M337.224,103.647L337.224,103.647c-1.309-0.956-1.6-2.796-0.645-4.105l0,0&#10;&#9;&#9;&#9;&#9;&#9;&#9;c0.956-1.309,2.796-1.6,4.104-0.644l0,0l0,0l0,0c1.31,0.956,1.601,2.796,0.645,4.106l0,0c-0.592,0.811-1.506,1.227-2.435,1.208&#10;&#9;&#9;&#9;&#9;&#9;&#9;l0,0C338.306,104.199,337.721,104.022,337.224,103.647z M165.43,93.169c-0.806-1.404-0.311-3.204,1.105-3.998l0,0&#10;&#9;&#9;&#9;&#9;&#9;&#9;c1.404-0.806,3.205-0.322,3.999,1.093l0,0c0.806,1.404,0.321,3.205-1.094,4.011l0,0c-0.476,0.272-0.996,0.391-1.513,0.381l0,0&#10;&#9;&#9;&#9;&#9;&#9;&#9;C166.928,94.634,165.962,94.108,165.43,93.169z M326.669,96.598c-1.381-0.84-1.826-2.647-0.975-4.029l0,0&#10;&#9;&#9;&#9;&#9;&#9;&#9;c0.839-1.394,2.648-1.827,4.041-0.975l0,0c0,0,0,0,0-0.012l0,0c1.381,0.852,1.815,2.66,0.974,4.041l0,0&#10;&#9;&#9;&#9;&#9;&#9;&#9;c-0.56,0.929-1.558,1.426-2.568,1.405l0,0C327.636,97.018,327.133,96.878,326.669,96.598z M176.797,87.03&#10;&#9;&#9;&#9;&#9;&#9;&#9;c-0.687-1.472-0.051-3.223,1.421-3.91l0,0l0,0l0,0c1.472-0.687,3.223-0.051,3.91,1.421l0,0c0.687,1.472,0.051,3.222-1.421,3.91&#10;&#9;&#9;&#9;&#9;&#9;&#9;l0,0c-0.427,0.191-0.864,0.288-1.299,0.279l0,0C178.314,88.708,177.293,88.075,176.797,87.03z M315.578,90.443L315.578,90.443&#10;&#9;&#9;&#9;&#9;&#9;&#9;c-1.455-0.724-2.041-2.487-1.306-3.942l0,0c0.724-1.455,2.488-2.03,3.943-1.306l0,0c1.455,0.724,2.029,2.488,1.306,3.943l0,0&#10;&#9;&#9;&#9;&#9;&#9;&#9;c-0.527,1.047-1.585,1.648-2.691,1.626l0,0C316.407,90.754,315.974,90.652,315.578,90.443z M188.627,81.83&#10;&#9;&#9;&#9;&#9;&#9;&#9;c-0.568-1.517,0.219-3.205,1.736-3.774l0,0l0,0l0,0c1.528-0.556,3.217,0.219,3.773,1.747l0,0&#10;&#9;&#9;&#9;&#9;&#9;&#9;c0.569,1.517-0.207,3.206-1.735,3.774l0,0c-0.356,0.122-0.721,0.185-1.074,0.178l0,0&#10;&#9;&#9;&#9;&#9;&#9;&#9;C190.152,83.731,189.061,83.003,188.627,81.83z M304.01,85.22c-1.504-0.607-2.233-2.315-1.626-3.82l0,0&#10;&#9;&#9;&#9;&#9;&#9;&#9;c0.608-1.504,2.316-2.233,3.821-1.626l0,0c1.504,0.607,2.233,2.315,1.625,3.819l0,0c-0.459,1.166-1.602,1.86-2.778,1.836l0,0&#10;&#9;&#9;&#9;&#9;&#9;&#9;C304.7,85.422,304.349,85.356,304.01,85.22z M200.848,77.626c-0.438-1.562,0.477-3.177,2.05-3.615l0,0l0,0l0,0&#10;&#9;&#9;&#9;&#9;&#9;&#9;c1.561-0.438,3.177,0.477,3.615,2.039l0,0c0.438,1.572-0.477,3.188-2.05,3.626l0,0c-0.272,0.077-0.567,0.118-0.837,0.113l0,0&#10;&#9;&#9;&#9;&#9;&#9;&#9;C202.356,79.762,201.209,78.915,200.848,77.626z M292.07,80.964L292.07,80.964c-1.554-0.479-2.426-2.119-1.948-3.673l0,0&#10;&#9;&#9;&#9;&#9;&#9;&#9;c0.491-1.554,2.132-2.413,3.686-1.935l0,0c1.542,0.479,2.414,2.119,1.935,3.673l0,0c-0.403,1.285-1.596,2.095-2.865,2.069l0,0&#10;&#9;&#9;&#9;&#9;&#9;&#9;C292.608,81.093,292.338,81.052,292.07,80.964z M213.377,74.451c-0.308-1.594,0.735-3.136,2.34-3.444l0,0c0,0,0,0-0.012,0l0,0&#10;&#9;&#9;&#9;&#9;&#9;&#9;c1.606-0.308,3.136,0.747,3.444,2.34l0,0c0.308,1.593-0.734,3.124-2.328,3.432l-0.012,0c-0.201,0.043-0.412,0.062-0.613,0.058&#10;&#9;&#9;&#9;&#9;&#9;&#9;l0,0C214.845,76.809,213.642,75.832,213.377,74.451z M279.814,77.713c-1.592-0.35-2.595-1.923-2.232-3.503l0,0&#10;&#9;&#9;&#9;&#9;&#9;&#9;c0.35-1.592,1.911-2.582,3.503-2.232l0,0c1.58,0.35,2.582,1.923,2.232,3.503l0,0c-0.311,1.393-1.553,2.331-2.928,2.303l0,0&#10;&#9;&#9;&#9;&#9;&#9;&#9;C280.201,77.78,280.001,77.752,279.814,77.713z M226.12,72.302c-0.167-1.614,0.992-3.06,2.606-3.238l0,0&#10;&#9;&#9;&#9;&#9;&#9;&#9;c1.614-0.167,3.072,1.004,3.239,2.618l0,0c0.178,1.615-0.992,3.06-2.607,3.227l0,0c-0.13,0.021-0.259,0.018-0.376,0.016l0,0&#10;&#9;&#9;&#9;&#9;&#9;&#9;C227.525,74.895,226.278,73.788,226.12,72.302z M267.326,75.48L267.326,75.48c-1.606-0.221-2.739-1.702-2.519-3.309l0,0&#10;&#9;&#9;&#9;&#9;&#9;&#9;c0.222-1.618,1.715-2.739,3.321-2.518l0,0l0,0l0,0c1.606,0.221,2.729,1.702,2.507,3.309l0,0&#10;&#9;&#9;&#9;&#9;&#9;&#9;c-0.208,1.501-1.5,2.568-2.969,2.537l0,0C267.549,75.497,267.444,75.495,267.326,75.48z M239.006,71.216&#10;&#9;&#9;&#9;&#9;&#9;&#9;c-0.049-1.624,1.237-2.973,2.86-3.01l0,0l0,0l0,0c1.624-0.049,2.973,1.237,3.01,2.86l0,0c0.038,1.623-1.237,2.973-2.86,3.01&#10;&#9;&#9;&#9;&#9;&#9;&#9;l0,0c-0.047-0.001-0.094-0.002-0.141-0.003l0,0C240.311,74.041,239.044,72.792,239.006,71.216z M251.929,71.165&#10;&#9;&#9;&#9;&#9;&#9;&#9;c0.092-1.62,1.47-2.862,3.091-2.77l0,0c1.62,0.093,2.862,1.482,2.781,3.103l0,0c-0.092,1.621-1.482,2.862-3.102,2.769l0,0&#10;&#9;&#9;&#9;&#9;&#9;&#9;C253.078,74.175,251.837,72.798,251.929,71.165z" style="fill:#DDDDDD;"/>
				</g>
			</g>
		</g>
	</g>
	<g>
		<g>
			<g>
				<path d="M242.179,429.515v0.075l-143.66,0.677l-0.662-144.156l40.685-0.18&#10;&#9;&#9;&#9;&#9;&#9;c-0.09-19.095,15.321-34.641,34.4-34.731c19.094-0.09,34.641,15.321,34.731,34.4l33.844-0.15l0.18,40.504&#10;&#9;&#9;&#9;&#9;&#9;c-0.707-0.045-1.428-0.06-2.165-0.06c-19.094,0.09-34.505,15.637-34.415,34.731c0.09,19.094,15.636,34.49,34.731,34.4&#10;&#9;&#9;&#9;&#9;&#9;c0.736,0,1.458-0.03,2.18-0.075L242.179,429.515z" style="fill:#116DDC;"/>
			</g>
		</g>
	</g>
	<g>
		<g>
			<path d="M353.166,285.931c0.09-19.095-15.321-34.641-34.4-34.731c-19.094-0.09-34.641,15.321-34.731,34.4&#10;&#9;&#9;&#9;&#9;l-25.108-0.105l0.18,40.459c-0.707-0.045-1.428-0.06-2.165-0.06c-19.094,0.09-34.505,15.637-34.415,34.731&#10;&#9;&#9;&#9;&#9;c0.09,19.094,15.636,34.49,34.731,34.4c0.737,0,1.458-0.03,2.18-0.075l0.15,33.243c-0.002,0-0.005,0.001-0.007,0.001v1.451&#10;&#9;&#9;&#9;&#9;l133.609,0.623l0.661-144.156L353.166,285.931z" style="fill:#FF553B;"/>
		</g>
	</g>
	<g>
		<g>
			<path d="M240.08,128.068c0.72-0.003,1.442,0.027,2.16,0.072l0.072-40.512l-33.83-0.055l-69.147-0.115&#10;&#9;&#9;&#9;&#9;l-40.69-0.082l-0.25,144.158l0.048,0.005l0.005-0.128l40.688-0.295c-0.122-16.948,11.982-31.13,28.055-34.21&#10;&#9;&#9;&#9;&#9;c2.03-0.39,4.12-0.607,6.267-0.62c15.52-0.11,28.715,10.02,33.185,24.067c1.033,3.24,1.608,6.675,1.63,10.25l33.798-0.252&#10;&#9;&#9;&#9;&#9;l0.055-33.208c-0.72,0.035-1.453,0.065-2.173,0.068c-19.105-0.035-34.545-15.543-34.517-34.633&#10;&#9;&#9;&#9;&#9;C205.47,143.473,220.975,128.033,240.08,128.068z M124.752,99.063c-1.607,0-2.907-1.3-2.907-2.908c0-1.605,1.3-2.905,2.907-2.905&#10;&#9;&#9;&#9;&#9;c1.605,0,2.905,1.3,2.905,2.905C127.657,97.762,126.357,99.063,124.752,99.063z M213.05,96.155c0-1.605,1.3-2.905,2.905-2.905&#10;&#9;&#9;&#9;&#9;s2.907,1.3,2.907,2.905c0,1.607-1.302,2.908-2.907,2.908S213.05,97.762,213.05,96.155z" style="fill:#00ACB3;"/>
		</g>
		<g>
			<g>
				<path d="M123.501,96.333c0,0.69,0.56,1.25,1.25,1.25s1.25-0.56,1.25-1.25V0h-2.5V96.333z" style="fill:#32324C;"/>
			</g>
			<g>
				<path d="M214.706,96.333c0,0.69,0.56,1.25,1.25,1.25c0.69,0,1.25-0.56,1.25-1.25V0h-2.5V96.333z" style="fill:#32324C;"/>
			</g>
		</g>
	</g>
	<g>
		<g>
			<g>
				<g>
					<g>
						<path d="M85.371,335.867h6.823l4.344-52.454l-4.882-48.113l-18.436-1.726l11.056,54.844&#10;&#9;&#9;&#9;&#9;&#9;&#9;&#9;C81.152,301.093,83.763,317.312,85.371,335.867z" style="fill:#202030;"/>
					</g>
				</g>
				<path d="M85.174,335.457c0,0-0.411,0.574-0.411,1.76c0,1.186,0.116,5.275,0.116,5.275h19.968&#10;&#9;&#9;&#9;&#9;&#9;c0,0,0.073-3.11-2.456-4.77c-2.529-1.66-6.417-0.034-10.132-2.642C92.259,335.079,91.264,335.988,85.174,335.457z" style="fill:#7C4550;"/>
			</g>
			<g>
				<g>
					<g>
						<path d="M52.192,335.472c1.32-14.218,7.518-42.831,11.47-49.001l0.038-53.644l18.018,4.271&#10;&#9;&#9;&#9;&#9;&#9;&#9;&#9;l-5.384,49.488l-17.235,48.494C57.044,336.229,54.657,336.011,52.192,335.472z" style="fill:#32324C;"/>
					</g>
				</g>
				<path d="M52.192,335.472c0,0-0.455,0.605-0.455,1.791c0,1.186,0,5.229,0,5.229h19.95&#10;&#9;&#9;&#9;&#9;&#9;c0,0,0.073-3.11-2.456-4.77c-2.529-1.66-6.417-0.034-10.132-2.642C59.099,335.079,58.283,336.003,52.192,335.472z" style="fill:#7C4550;"/>
			</g>
			<g>
				<g>
					<path d="M93.027,201.773l0.142,37.172c-17.964,6.437-30.732-2.09-30.732-2.09l5.549-30.722&#10;&#9;&#9;&#9;&#9;&#9;&#9;l-6.871-25.755l4.648-2.339l0.941-0.476h0.003l2.043-1.028l6.453-3.25l12.967,1.678l1.8,0.232l1.065,0.137l1.366,0.177&#10;&#9;&#9;&#9;&#9;&#9;&#9;c-0.627,4.227-0.18,9.372,0.349,14.587c0.965,2.085,1.76,4.405,1.805,6.472c0.042,1.839-0.563,3.261-1.382,4.337&#10;&#9;&#9;&#9;&#9;&#9;&#9;c-0.003,0.003-0.003,0.003-0.003,0.003c-0.053,0.069-0.106,0.135-0.159,0.201L93.027,201.773z" style="fill:#8F3EDD;"/>
				</g>
			</g>
			<g>
				<g>
					<path d="M93.011,201.11l0.016,0.663c-1.718,0.468-5.581,1.34-10.494,1.34&#10;&#9;&#9;&#9;&#9;&#9;&#9;c-2.349,0-4.939-0.198-7.645-0.737c-0.217-0.042-0.354-0.251-0.312-0.465c0.042-0.217,0.251-0.354,0.465-0.312&#10;&#9;&#9;&#9;&#9;&#9;&#9;c8.67,1.723,16.069-0.092,18.128-0.69C93.117,200.978,93.064,201.044,93.011,201.11z" style="fill:#7426C8;"/>
				</g>
			</g>
			<g>
				<g>
					<g>
						<path d="M87.888,146.561c0,0,2.357,1.985,2.759,4.587c0.402,2.602-0.7,4.625-0.7,4.625L87.888,146.561z" style="fill:#32324C;"/>
					</g>
				</g>
				<g>
					<g>
						<path d="M87.115,149.066c-4.291,2.549-12.72,2.426-12.72,2.426c-6.466,2.104-2.661,16.651-2.661,16.651&#10;&#9;&#9;&#9;&#9;&#9;&#9;&#9;c-6.293-0.658-7.493-13.385-7.493-13.385c-0.573,0.143-1.11,0.227-1.615,0.257c-7.018,0.423-7.536-9.386-1.602-11.3&#10;&#9;&#9;&#9;&#9;&#9;&#9;&#9;c3.409-1.1,5.166,1.045,5.946,2.548c0.374,0.718,0.524,1.292,0.524,1.292c1.93-2.547,11.972-7.425,16.691-6.565&#10;&#9;&#9;&#9;&#9;&#9;&#9;&#9;C88.787,141.827,90.667,146.956,87.115,149.066z" style="fill:#32324C;"/>
					</g>
				</g>
				<g>
					<g>
						<path d="M67.493,147.555c0,0-2.65,2.545-3.252,7.203c-0.573,0.143-1.11,0.227-1.615,0.257&#10;&#9;&#9;&#9;&#9;&#9;&#9;&#9;c0.122-1.452,0.81-6.777,4.343-8.751C67.343,146.982,67.493,147.555,67.493,147.555z" style="fill:#8F3EDD;"/>
					</g>
				</g>
				<g>
					<g>
						<path d="M81.734,168.39l0.334,4.911l0.153,2.251c-2.551,2.428-7.475,0.136-7.475,0.136l-1.283-7.811&#10;&#9;&#9;&#9;&#9;&#9;&#9;&#9;c1.191-1.038,4.526-0.084,6.609,0.224C81.053,168.247,81.734,168.39,81.734,168.39z" style="fill:#FFAF82;"/>
					</g>
				</g>
				<g>
					<g>
						<path d="M81.734,168.39l0.334,4.911c-3.394-0.352-6.726-4.579-6.726-4.579l4.73-0.621&#10;&#9;&#9;&#9;&#9;&#9;&#9;&#9;C81.053,168.247,81.734,168.39,81.734,168.39z" style="fill:#F88968;"/>
					</g>
				</g>
				<g>
					<g>
						<path d="M87.278,169.164c-5.609,3.418-13.062,0.254-15.383-0.892c-0.464-0.23-0.723-0.378-0.723-0.378&#10;&#9;&#9;&#9;&#9;&#9;&#9;&#9;s-0.37-1.166-0.774-2.892c-0.43-1.833-0.902-4.299-1.012-6.66c-0.131-2.826,0.253-5.504,1.843-6.78l16.867-4.029&#10;&#9;&#9;&#9;&#9;&#9;&#9;&#9;c0,0,0.069,0.205,0.184,0.576C89.226,151.167,93.279,165.507,87.278,169.164z" style="fill:#FFAF82;"/>
					</g>
				</g>
				<g>
					<g>
						<path d="M71.895,168.272c-0.464-0.23-0.723-0.378-0.723-0.378s-0.37-1.166-0.774-2.892l1.424,0.389&#10;&#9;&#9;&#9;&#9;&#9;&#9;&#9;C71.822,165.39,72.991,166.943,71.895,168.272z" style="fill:#32324C;"/>
					</g>
				</g>
				<g>
					<g>
						<g>
							<path d="M72.137,159.466c0,0-2.408-2.398-3.964-0.362c-1.715,2.243,0.743,8.021,5.003,6.925&#10;&#9;&#9;&#9;&#9;&#9;&#9;&#9;&#9;L72.137,159.466z" style="fill:#FFAF82;"/>
						</g>
					</g>
				</g>
				<g>
					<g>
						<path d="M88.28,148.109c-1.627,0.831-8.711,4.252-14.088,3.877c0,0,0.082,0.434,0.182,1.111h0&#10;&#9;&#9;&#9;&#9;&#9;&#9;&#9;c0,0,0.003,0.013,0.005,0.036c0.006,0.025,0.011,0.061,0.019,0.107c0.147,0.895,0.927,5.8,0.709,8.573&#10;&#9;&#9;&#9;&#9;&#9;&#9;&#9;c-0.24,3.064,0.592,5.486,1.846,5.539c0,0-0.957,0.552-2.042-1.224c-1.087-1.776-2.001-5.734-2.001-5.734&#10;&#9;&#9;&#9;&#9;&#9;&#9;&#9;c-0.703-0.792-1.846-2.383-3.526-2.084c-0.132-2.825,0.254-5.472,1.845-6.747l16.866-4.03&#10;&#9;&#9;&#9;&#9;&#9;&#9;&#9;C88.095,147.532,88.164,147.735,88.28,148.109z" style="fill:#32324C;"/>
					</g>
				</g>
			</g>
			<g>
				<path d="M66.415,180.031c5.576,3.228,15.125,10.339,18.464,13.48c0,0,7.221-1.227,12.285-1.503&#10;&#9;&#9;&#9;&#9;&#9;c4.644-0.254,18.872-4.286,18.872-4.286l1.878,5.13c0,0-23.912,9.704-33.693,8.115c-4.803-0.78-9.615-3.024-13.338-5.159&#10;&#9;&#9;&#9;&#9;&#9;c-3.964-2.274-7.49-5.239-10.463-8.71c-0.307-0.358-0.509-0.599-0.527-0.629C57.488,182.278,62.234,177.61,66.415,180.031z" style="fill:#7426C8;"/>
				<path d="M116.036,187.721c0,0,0.888-0.641,1.399-1.174c1.373-1.431,4.685-3.638,4.933-2.873&#10;&#9;&#9;&#9;&#9;&#9;c0.188,0.58-0.792,0.988-1.021,1.738c-0.267,0.871,2.432-0.172,3.914-0.417c2.574-0.426,2.592,3.472,0.688,5.56&#10;&#9;&#9;&#9;&#9;&#9;c-1.904,2.088-5.534,3.604-8.034,2.297L116.036,187.721z" style="fill:#FFAF82;"/>
			</g>
			<path d="M98.5,179.99c-2.603-2.139-6.099-4.479-6.099-4.479c-1.328,5.136-0.179,8.482-0.179,8.482&#10;&#9;&#9;&#9;&#9;s3.248,3.421,6.278,4.681V179.99z" style="fill:#7426C8;"/>
		</g>
		<g>
			<g>
				<g>
					<g>
						<path d="M77.513,345.167L56.09,428.934c-0.188,0.736,0.256,1.333,0.992,1.333&#10;&#9;&#9;&#9;&#9;&#9;&#9;&#9;c0.736,0,1.485-0.597,1.674-1.333l21.423-83.768H77.513z" style="fill:#EB402F;"/>
					</g>
				</g>
				<g>
					<g>
						<g>
							<path d="M42.506,345.167l-21.423,83.768c-0.188,0.736,0.256,1.333,0.992,1.333&#10;&#9;&#9;&#9;&#9;&#9;&#9;&#9;&#9;c0.736,0,1.485-0.597,1.674-1.333l21.423-83.768H42.506z" style="fill:#EB402F;"/>
						</g>
					</g>
				</g>
				<g>
					<g>
						<path d="M79.128,345.167H43.592c-0.635,0.129-1.222,0.662-1.386,1.302&#10;&#9;&#9;&#9;&#9;&#9;&#9;&#9;c-0.188,0.736,0.256,1.333,0.992,1.333h34.974c0.736,0,1.485-0.597,1.674-1.333C80.009,345.83,79.695,345.296,79.128,345.167z" style="fill:#EB402F;"/>
					</g>
					<g>
						<path d="M38.926,364.506H73.9c0.736,0,1.485-0.597,1.674-1.333c0.188-0.736-0.256-1.333-0.992-1.333&#10;&#9;&#9;&#9;&#9;&#9;&#9;&#9;H39.608c-0.736,0-1.485,0.597-1.674,1.333C37.746,363.909,38.19,364.506,38.926,364.506z" style="fill:#EB402F;"/>
					</g>
					<g>
						<path d="M34.654,381.21h34.974c0.736,0,1.485-0.597,1.674-1.333c0.188-0.736-0.256-1.333-0.992-1.333&#10;&#9;&#9;&#9;&#9;&#9;&#9;&#9;H35.336c-0.736,0-1.485,0.597-1.674,1.333C33.474,380.613,33.918,381.21,34.654,381.21z" style="fill:#EB402F;"/>
					</g>
					<g>
						<path d="M30.383,397.868h34.974c0.736,0,1.485-0.616,1.674-1.377c0.188-0.76-0.256-1.377-0.992-1.377&#10;&#9;&#9;&#9;&#9;&#9;&#9;&#9;H31.064c-0.736,0-1.485,0.616-1.674,1.377C29.202,397.252,29.646,397.868,30.383,397.868z" style="fill:#EB402F;"/>
					</g>
					<g>
						<path d="M26.111,414.617h34.974c0.736,0,1.485-0.597,1.674-1.333c0.188-0.736-0.256-1.333-0.992-1.333&#10;&#9;&#9;&#9;&#9;&#9;&#9;&#9;H26.792c-0.736,0-1.485,0.596-1.674,1.333C24.93,414.021,25.374,414.617,26.111,414.617z" style="fill:#EB402F;"/>
					</g>
				</g>
			</g>
			<g>
				<g>
					<g>
						<path d="M78.171,345.167h-2.666l21.423,83.768c0.188,0.736,0.938,1.333,1.674,1.333&#10;&#9;&#9;&#9;&#9;&#9;&#9;&#9;c0.736,0,1.18-0.597,0.992-1.333L78.171,345.167z" style="fill:#FF553B;"/>
					</g>
				</g>
				<g>
					<g>
						<g>
							<path d="M134.601,428.934l-21.423-83.768h-2.665l21.423,83.768c0.188,0.736,0.937,1.333,1.673,1.333&#10;&#9;&#9;&#9;&#9;&#9;&#9;&#9;&#9;S134.79,429.67,134.601,428.934z" style="fill:#FF553B;"/>
						</g>
					</g>
				</g>
				<g>
					<g>
						<path d="M112.092,345.167H76.556c-0.567,0.13-0.881,0.663-0.718,1.302&#10;&#9;&#9;&#9;&#9;&#9;&#9;&#9;c0.188,0.736,0.938,1.333,1.674,1.333h34.974c0.736,0,1.18-0.597,0.992-1.333&#10;&#9;&#9;&#9;&#9;&#9;&#9;&#9;C113.314,345.829,112.726,345.295,112.092,345.167z" style="fill:#FF553B;"/>
					</g>
					<path d="M112.242,347.802H42.486c-1.385,0-2.507-1.123-2.507-2.507v-0.295&#10;&#9;&#9;&#9;&#9;&#9;&#9;c0-1.385,1.123-2.507,2.507-2.507h69.756c1.385,0,2.507,1.122,2.507,2.507v0.295&#10;&#9;&#9;&#9;&#9;&#9;&#9;C114.749,346.679,113.626,347.802,112.242,347.802z" style="fill:#FF553B;"/>
					<g>
						<path d="M116.758,364.506H81.784c-0.736,0-1.485-0.597-1.674-1.333&#10;&#9;&#9;&#9;&#9;&#9;&#9;&#9;c-0.188-0.736,0.256-1.333,0.992-1.333h34.974c0.736,0,1.485,0.597,1.674,1.333&#10;&#9;&#9;&#9;&#9;&#9;&#9;&#9;C117.938,363.909,117.494,364.506,116.758,364.506z" style="fill:#FF553B;"/>
					</g>
					<g>
						<path d="M121.03,381.21H86.056c-0.736,0-1.485-0.597-1.674-1.333c-0.188-0.736,0.256-1.333,0.992-1.333&#10;&#9;&#9;&#9;&#9;&#9;&#9;&#9;h34.974c0.736,0,1.485,0.597,1.674,1.333C122.21,380.613,121.766,381.21,121.03,381.21z" style="fill:#FF553B;"/>
					</g>
					<g>
						<path d="M125.302,397.868H90.328c-0.736,0-1.485-0.616-1.674-1.377&#10;&#9;&#9;&#9;&#9;&#9;&#9;&#9;c-0.188-0.76,0.256-1.377,0.992-1.377h34.974c0.736,0,1.485,0.616,1.674,1.377&#10;&#9;&#9;&#9;&#9;&#9;&#9;&#9;C126.482,397.252,126.038,397.868,125.302,397.868z" style="fill:#FF553B;"/>
					</g>
					<g>
						<path d="M129.574,414.617H94.6c-0.736,0-1.485-0.597-1.674-1.333c-0.188-0.736,0.256-1.333,0.992-1.333&#10;&#9;&#9;&#9;&#9;&#9;&#9;&#9;h34.974c0.736,0,1.485,0.596,1.674,1.333C130.754,414.021,130.31,414.617,129.574,414.617z" style="fill:#FF553B;"/>
					</g>
				</g>
			</g>
		</g>
	</g>
	<g>
		<path d="M405.876,342.802c0,0-16.073,24.223-21.141,35.678l6.474,46.396&#10;&#9;&#9;&#9;c2.072,1.283,4.427,1.152,6.907,0.393c0,0-1.018-10.088-0.201-18.568c0.657-6.82,2.162-18.799,0.657-24.926&#10;&#9;&#9;&#9;c0,0,17.238-24.752,19.088-30.922L405.876,342.802z" style="fill:#202030;"/>
		<path d="M417.369,344.562c0,0,1.169,31.7,2.125,44.19l26.341,36.124c2.014,1.277,4.365,1.215,6.907,0.393&#10;&#9;&#9;&#9;c0,0-5.922-13.501-9.657-21.158c-3.735-7.657-6.917-16.516-9.838-20.693c0,0,2.161-34.244,0.871-40.555L417.369,344.562z" style="fill:#32324C;"/>
		<g>
			<g>
				<path d="M409.892,277.736c0,0,7.872-1.538,12.107,0.983c4.236,2.522,2.135,9.793-1.585,11.418&#10;&#9;&#9;&#9;&#9;&#9;s-16.151,2.622-17.832,0.794C400.902,289.102,399.891,279.909,409.892,277.736z" style="fill:#00ACB3;"/>
			</g>
			<g>
				<g>
					<path d="M400.56,350.92c1.164,1.281,4.348,1.79,7.016,1.889c0.184,0.008,0.365,0.012,0.543,0.015&#10;&#9;&#9;&#9;&#9;&#9;&#9;c0.464,0.008,0.903,0.003,1.307-0.011c4.314-0.157,8.577-0.707,12.797-1.577c0.782-0.162,1.601-0.387,2.431-0.668&#10;&#9;&#9;&#9;&#9;&#9;&#9;c0.167-0.056,0.335-0.115,0.504-0.175c4.261-1.544,8.754-4.456,10.699-7.411l-6.844-15.26l-1.332-41.156l-9.767-1.258&#10;&#9;&#9;&#9;&#9;&#9;&#9;l-0.524-0.068l-2.192-0.282l-1.74-0.223l-9.39,3.268l-1.528,0.531L402,288.72l-6.717,2.337L400.56,350.92z" style="fill:#00ACB3;"/>
				</g>
			</g>
			<g>
				<g>
					<path d="M412.054,291.913c6.914-1.414,7.296-7.833,7.299-7.898c0.007-0.144-0.104-0.265-0.247-0.272&#10;&#9;&#9;&#9;&#9;&#9;&#9;c-0.143-0.008-0.266,0.104-0.272,0.247c-0.012,0.249-0.375,6.083-6.881,7.413c-0.036,0.007-0.071,0.014-0.107,0.022&#10;&#9;&#9;&#9;&#9;&#9;&#9;c-0.135,0.034-0.233,0.164-0.206,0.305c0.028,0.141,0.164,0.233,0.305,0.206C411.981,291.928,412.019,291.92,412.054,291.913z" style="fill:#0090A4;"/>
				</g>
			</g>
			<g>
				<g>
					<path d="M405.362,292.262c0.139-0.028,0.23-0.163,0.204-0.303c-0.026-0.141-0.162-0.234-0.303-0.209&#10;&#9;&#9;&#9;&#9;&#9;&#9;c-0.092,0.016-2.119,0.339-3.185-2.276c-0.054-0.133-0.205-0.197-0.339-0.143c-0.133,0.054-0.197,0.206-0.143,0.339&#10;&#9;&#9;&#9;&#9;&#9;&#9;c1.232,3.023,3.736,2.597,3.761,2.592C405.359,292.263,405.361,292.263,405.362,292.262z" style="fill:#0090A4;"/>
				</g>
			</g>
			<g>
				<path d="M420.762,330.523c0,0,1.148,5.413,3.395,10.142c0,0-12.421,4.711-20.499,2.244&#10;&#9;&#9;&#9;&#9;&#9;c0,0-1.747-4.593-1.918-10.144L420.762,330.523z" style="fill:#0090A4;"/>
			</g>
			<g>
				<path d="M415.558,316.66c0.007-0.001,0.015-0.003,0.022-0.005c0.138-0.041,0.217-0.186,0.176-0.324&#10;&#9;&#9;&#9;&#9;&#9;c-1.849-6.245-2.687-22.779-2.696-22.946c-0.007-0.144-0.129-0.254-0.273-0.247c-0.144,0.007-0.254,0.129-0.247,0.273&#10;&#9;&#9;&#9;&#9;&#9;c0.008,0.167,0.85,16.763,2.716,23.068C415.295,316.609,415.427,316.687,415.558,316.66z" style="fill:#FFFFFF;"/>
			</g>
			<g>
				<path d="M406.892,317.103c0.007-0.001,0.015-0.003,0.022-0.006c0.138-0.041,0.217-0.186,0.176-0.323&#10;&#9;&#9;&#9;&#9;&#9;c-1.848-6.245-2.632-22.921-2.64-23.089c-0.007-0.144-0.128-0.255-0.272-0.248c-0.143,0.006-0.254,0.128-0.248,0.272&#10;&#9;&#9;&#9;&#9;&#9;c0.008,0.168,0.795,16.908,2.661,23.213C406.63,317.053,406.761,317.13,406.892,317.103z" style="fill:#FFFFFF;"/>
			</g>
		</g>
		<g>
			<g>
				<g>
					<path d="M390.747,261.572c0,0-2.219,1.952-0.733,6.206c1.485,4.255,3.243,4.485,3.243,4.485&#10;&#9;&#9;&#9;&#9;&#9;&#9;S394.469,262.215,390.747,261.572z" style="fill:#32324C;"/>
				</g>
			</g>
			<g>
				<g>
					<path d="M403.172,281.047l1.248,5.455l0.572,2.5c3.573,1.806,8.181-2.305,8.181-2.305l-1.022-8.705&#10;&#9;&#9;&#9;&#9;&#9;&#9;c-1.637-0.739-5.098,1.177-7.264,2.195C403.865,280.668,403.172,281.047,403.172,281.047z" style="fill:#FFAF82;"/>
				</g>
			</g>
			<g>
				<g>
					<path d="M403.172,281.047l1.248,5.455c3.579-1.497,5.819-7.191,5.819-7.191l-5.353,0.877&#10;&#9;&#9;&#9;&#9;&#9;&#9;C403.865,280.668,403.172,281.047,403.172,281.047z" style="fill:#F88968;"/>
				</g>
			</g>
			<g>
				<g>
					<path d="M390.671,268.713c0.029,0.19,0.058,0.381,0.093,0.576c0.291,1.707,0.727,3.576,1.221,5.439&#10;&#9;&#9;&#9;&#9;&#9;&#9;c0.104,0.39,0.211,0.78,0.32,1.167c0.094,0.334,0.188,0.668,0.284,0.999c0.201,0.687,0.403,1.366,0.605,2.021&#10;&#9;&#9;&#9;&#9;&#9;&#9;c0.14,0.456,0.278,0.902,0.417,1.335c0.098,0.304,0.215,0.596,0.348,0.874c0.422,0.874,1.02,1.621,1.733,2.213&#10;&#9;&#9;&#9;&#9;&#9;&#9;c1.73,1.436,4.15,1.961,6.435,1.158c1.869-0.658,3.927-1.431,5.833-2.259c0.094-0.039,0.186-0.078,0.28-0.121&#10;&#9;&#9;&#9;&#9;&#9;&#9;c1.526-0.67,2.944-1.375,4.078-2.082c0.126-0.246,0.246-0.497,0.358-0.749c0.984-2.201,1.423-4.575,1.544-6.989&#10;&#9;&#9;&#9;&#9;&#9;&#9;c0.047-0.963,0.046-1.933,0.006-2.9c-0.003-0.078,0.002-0.153,0.008-0.227c-0.674-4.798-1.606-9.465-1.606-9.465&#10;&#9;&#9;&#9;&#9;&#9;&#9;c-6.161-5.791-20.444-1.206-22.006,3.878C390.264,264.743,390.342,266.58,390.671,268.713z" style="fill:#FFAF82;"/>
				</g>
			</g>
			<g>
				<g>
					<path d="M412.678,279.284c0.984-2.2,1.422-4.576,1.542-6.99c-0.697,0.106-1.58,0.445-2.69,1.16&#10;&#9;&#9;&#9;&#9;&#9;&#9;C411.53,273.455,411.745,276.956,412.678,279.284z" style="fill:#32324C;"/>
				</g>
			</g>
			<g>
				<g>
					<path d="M413.94,267.175c0,0-2.551-1.197-4.141,1.796l-1.532,0.214c0,0-0.351-3.159-1.333-4.762&#10;&#9;&#9;&#9;&#9;&#9;&#9;c-0.982-1.603-3.908-1.151-4.627-3.103c0,0-6.96,4.916-11.762,2.553c-5.374-2.645,9.148-11.913,17.034-9.294&#10;&#9;&#9;&#9;&#9;&#9;&#9;C413.767,256.634,414.306,261.663,413.94,267.175z" style="fill:#32324C;"/>
				</g>
			</g>
			<g>
				<g>
					<g>
						<path d="M409.799,268.971c0,0,1.949-3.168,4.141-1.796c2.416,1.512,1.616,7.894-2.798,8.367&#10;&#9;&#9;&#9;&#9;&#9;&#9;&#9;L409.799,268.971z" style="fill:#FFAF82;"/>
					</g>
				</g>
			</g>
			<g>
				<g>
					<path d="M398.385,255.266c0,0-4.325,1.332-8.419,0.208c-4.388-1.205-5.504,7.17-0.27,8.013&#10;&#9;&#9;&#9;&#9;&#9;&#9;C394.929,264.329,398.385,255.266,398.385,255.266z" style="fill:#32324C;"/>
				</g>
			</g>
			<g>
				<g>
					<path d="M392.369,276.775c-0.033,0.514,0.039,0.836,0.151,1.162c0.162,0.473,0.455,0.766,0.674,0.977&#10;&#9;&#9;&#9;&#9;&#9;&#9;c0.307-0.456,0.926-1.167,2.998-0.912c1.101,0.133,1.779,0.506,2.992-0.11c1.048-0.533,2.366-1.376,3.67-1.655&#10;&#9;&#9;&#9;&#9;&#9;&#9;c0.013-0.002,0.026-0.004,0.038-0.008c1.701-0.34,2.942,1.327,2.037,2.676c-1.604,2.389-3.694,4.295-6.478,4.42&#10;&#9;&#9;&#9;&#9;&#9;&#9;c-2.053,0.094-4.089-1.488-4.938-5.078c-0.015-0.014-0.304,0.379-0.322,0.366c0.233,6.232,6.048,8.271,8.458,8.122&#10;&#9;&#9;&#9;&#9;&#9;&#9;c0.826-0.052,1.781-0.419,2.752-1.001c1.46-0.876,2.667-2.083,3.56-3.498c0.72-1.131,1.238-2.396,1.522-3.729&#10;&#9;&#9;&#9;&#9;&#9;&#9;c0.887-4.14,0.315-9.536,0.315-9.536l-1.532,0.214c0,0-0.073,3.186-1.264,5.893c-1.067-0.435-2.715-0.92-4.422-0.703&#10;&#9;&#9;&#9;&#9;&#9;&#9;c-0.886,0.113-1.71,0.459-2.43,0.88c-1.817,1.071-3.778,1.279-5.884,1.156C393.292,276.355,392.553,276.305,392.369,276.775z" style="fill:#32324C;"/>
				</g>
			</g>
		</g>
		<path d="M398.115,425.268c0,0,0.455,0.605,0.455,1.791c0,1.186,0,5.229,0,5.229h-19.95&#10;&#9;&#9;&#9;c0,0-0.073-3.11,2.457-4.77c2.529-1.66,6.417-0.034,10.132-2.643C391.209,424.875,392.025,425.799,398.115,425.268z" style="fill:#7C4550;"/>
		<path d="M452.742,425.268c0,0,0.455,0.605,0.455,1.791c0,1.186,0,5.229,0,5.229h-19.95&#10;&#9;&#9;&#9;c0,0-0.073-3.11,2.456-4.77c2.529-1.66,6.417-0.034,10.132-2.643C445.835,424.875,446.651,425.799,452.742,425.268z" style="fill:#7C4550;"/>
		<g>
			<path d="M423.1,288.402c-3.884,5.141-9.919,15.403-11.775,19.595c0,0-7.13,1.676-11.904,3.388&#10;&#9;&#9;&#9;&#9;c-4.378,1.571-19.055,3.384-19.055,3.384l0.263,5.457c0,0,25.804-0.35,34.199-5.615c4.122-2.585,7.684-6.522,10.285-9.936&#10;&#9;&#9;&#9;&#9;c2.769-3.636,4.866-7.738,6.256-12.091c0.143-0.449,0.237-0.75,0.241-0.784C432.199,287.004,426.012,284.547,423.1,288.402z" style="fill:#0090A4;"/>
			<path d="M380.366,314.77c0,0-1.068-0.246-1.746-0.538c-1.821-0.785-5.73-1.532-5.662-0.731&#10;&#9;&#9;&#9;&#9;c0.052,0.608,1.114,0.603,1.616,1.204c0.584,0.699-2.308,0.787-3.769,1.136c-2.537,0.608-1.039,4.206,1.527,5.391&#10;&#9;&#9;&#9;&#9;c2.566,1.184,6.5,1.17,8.296-1.006L380.366,314.77z" style="fill:#FFAF82;"/>
		</g>
		<path d="M393.768,303.984c1.584-1.508,2.463-2.164,2.463-2.164s-0.16-6.362-0.949-10.763&#10;&#9;&#9;&#9;c0,0-0.596,0.418-1.46,1.103L393.768,303.984z" style="fill:#0090A4;"/>
	</g>
	<g>
		<g>
			<g>
				<g>
					<g>
						<path d="M314.6,244.046c2.654,1.195,5.033,0.854,7.25-0.386l4.232-36.036&#10;&#9;&#9;&#9;&#9;&#9;&#9;&#9;c-7.045-10.825-15.89-21.973-26.084-31.773l-18.866-1.766c0.964,11.476,16.346,24.267,33.046,34.5&#10;&#9;&#9;&#9;&#9;&#9;&#9;&#9;C312.06,217.538,314.179,233.996,314.6,244.046z" style="fill:#202030;"/>
					</g>
				</g>
				<path d="M314.6,244.046c0,0-0.421,0.587-0.421,1.8c0,1.213,0.119,5.398,0.119,5.398h20.434&#10;&#9;&#9;&#9;&#9;&#9;c0,0,0.075-3.182-2.514-4.881c-2.588-1.699-6.566-0.035-10.368-2.704C321.85,243.66,320.832,244.59,314.6,244.046z" style="fill:#7C4550;"/>
			</g>
			<g>
				<g>
					<g>
						<path d="M255.334,278.355c1.35-14.549,7.693-43.828,11.738-50.142l0.039-54.894l18.437,4.37&#10;&#9;&#9;&#9;&#9;&#9;&#9;&#9;l-5.51,50.64l-17.637,49.623C260.299,279.13,257.857,278.907,255.334,278.355z" style="fill:#32324C;"/>
					</g>
				</g>
				<path d="M255.334,278.355c0,0-0.466,0.619-0.466,1.832c0,1.213,0,5.351,0,5.351h20.415&#10;&#9;&#9;&#9;&#9;&#9;c0,0,0.075-3.182-2.514-4.881c-2.588-1.699-6.566-0.035-10.368-2.704C262.402,277.953,261.567,278.899,255.334,278.355z" style="fill:#7C4550;"/>
			</g>
			<g>
				<g>
					<g>
						<path d="M302.186,177.6c-0.9,1.515-3.972,2.673-6.614,3.315c-0.182,0.045-0.362,0.086-0.538,0.126&#10;&#9;&#9;&#9;&#9;&#9;&#9;&#9;c-0.461,0.102-0.9,0.187-1.306,0.255c-4.335,0.724-8.699,1.044-13.087,1.036c-0.813-0.002-1.675-0.059-2.561-0.171&#10;&#9;&#9;&#9;&#9;&#9;&#9;&#9;c-0.178-0.022-0.358-0.047-0.538-0.072c-4.566-0.671-9.641-2.66-12.184-5.21l3.714-16.617l-7.065-41.325l9.486-3.246&#10;&#9;&#9;&#9;&#9;&#9;&#9;&#9;l0.509-0.175l2.129-0.729l1.69-0.578l10.033,1.344l1.632,0.218l0.576,0.077l7.177,0.961L302.186,177.6z" style="fill:#FF553B;"/>
					</g>
				</g>
			</g>
			<path d="M295.239,116.811c0,0,11.942,1.981,20.525,2.127l17.531-2.127l-1.348,5.439&#10;&#9;&#9;&#9;&#9;c0,0-9.85,3.5-16.933,3.417c-7.083-0.083-18.825-0.53-18.825-0.53L295.239,116.811z" style="fill:#EB402F;"/>
			<g>
				<g>
					<g>
						<g>
							<path d="M287.737,86.436c0,0,2.705,1.138,2.649,5.614c-0.056,4.476-1.639,5.248-1.639,5.248&#10;&#9;&#9;&#9;&#9;&#9;&#9;&#9;&#9;S284.434,88.217,287.737,86.436z" style="fill:#162D47;"/>
						</g>
					</g>
				</g>
				<g>
					<g>
						<g>
							<path d="M282.18,108.7l0.546,5.532l0.25,2.535c-2.795,2.828-8.432,0.411-8.432,0.411l-1.784-8.521&#10;&#9;&#9;&#9;&#9;&#9;&#9;&#9;&#9;c1.308-1.212,5.173-0.501,7.534-0.225C281.408,108.562,282.18,108.7,282.18,108.7z" style="fill:#FFAF82;"/>
						</g>
					</g>
				</g>
				<g>
					<g>
						<g>
							<path d="M282.18,108.7l0.546,5.532c-3.843-0.28-7.75-4.937-7.75-4.937l5.318-0.863&#10;&#9;&#9;&#9;&#9;&#9;&#9;&#9;&#9;C281.408,108.562,282.18,108.7,282.18,108.7z" style="fill:#F88968;"/>
						</g>
					</g>
				</g>
				<g>
					<g>
						<g>
							<path d="M290.062,93.138c0.033,0.189,0.065,0.377,0.094,0.572c0.265,1.7,0.443,3.597,0.566,5.508&#10;&#9;&#9;&#9;&#9;&#9;&#9;&#9;&#9;c0.025,0.4,0.047,0.801,0.066,1.2c0.017,0.344,0.034,0.688,0.048,1.03c0.028,0.71,0.051,1.413,0.068,2.094&#10;&#9;&#9;&#9;&#9;&#9;&#9;&#9;&#9;c0.012,0.474,0.023,0.938,0.028,1.389c0.004,0.318-0.014,0.629-0.052,0.933c-0.121,0.956-0.449,1.849-0.934,2.631&#10;&#9;&#9;&#9;&#9;&#9;&#9;&#9;&#9;c-1.176,1.898-3.29,3.156-5.696,3.122c-1.968-0.029-4.15-0.108-6.206-0.287c-0.101-0.007-0.2-0.015-0.302-0.025&#10;&#9;&#9;&#9;&#9;&#9;&#9;&#9;&#9;c-1.648-0.15-3.207-0.366-4.498-0.674c-0.196-0.192-0.389-0.39-0.574-0.592c-1.621-1.762-2.784-3.86-3.659-6.095&#10;&#9;&#9;&#9;&#9;&#9;&#9;&#9;&#9;c-0.348-0.892-0.653-1.806-0.921-2.729c-0.022-0.075-0.05-0.143-0.079-0.211c-0.161-0.866-0.312-1.73-0.452-2.564&#10;&#9;&#9;&#9;&#9;&#9;&#9;&#9;&#9;c-1.033-6.162,3.235-11.957,9.427-12.788c4.897-0.658,9.867,0.359,11.5,2.64C289.192,89.27,289.698,91.025,290.062,93.138z" style="fill:#FFAF82;"/>
						</g>
					</g>
				</g>
				<g>
					<g>
						<g>
							<path d="M272.671,110.038c-1.621-1.762-2.783-3.861-3.658-6.096c0.69-0.12,1.628-0.079,2.9,0.244&#10;&#9;&#9;&#9;&#9;&#9;&#9;&#9;&#9;C271.912,104.186,272.815,107.552,272.671,110.038z" style="fill:#162D47;"/>
						</g>
					</g>
				</g>
				<g>
					<g>
						<g>
							<path d="M267.661,99.032c0,0,2.024-1.932,4.467,0.385l1.51-0.282c0,0-0.666-3.086-0.247-4.906&#10;&#9;&#9;&#9;&#9;&#9;&#9;&#9;&#9;c0.419-1.82,3.318-2.317,3.378-4.382c0,0,7.713,2.084,11.378-0.848c8.284-6.629-12.23-9.311-18.57-4.026&#10;&#9;&#9;&#9;&#9;&#9;&#9;&#9;&#9;C264.867,88.899,265.577,93.956,267.661,99.032z" style="fill:#162D47;"/>
						</g>
					</g>
				</g>
				<g>
					<g>
						<g>
							<g>
								<path d="M272.128,99.417c0,0-2.835-2.369-4.467-0.385c-1.798,2.187,0.969,7.944,5.276,6.997&#10;&#9;&#9;&#9;&#9;&#9;&#9;&#9;&#9;&#9;L272.128,99.417z" style="fill:#FFAF82;"/>
							</g>
						</g>
					</g>
				</g>
			</g>
		</g>
		<g>
			<g>
				<g>
					<path d="M472.643,120.857l-8.362,33.779c-4.788-1.73-10.029-2.43-15.443-1.874&#10;&#9;&#9;&#9;&#9;&#9;&#9;c-10.529,1.082-19.487,6.719-25.115,14.749c-4.71,6.666-7.104,14.998-6.204,23.747c1.373,13.356,10.076,24.205,21.717,28.948&#10;&#9;&#9;&#9;&#9;&#9;&#9;c2.618,1.061,5.386,1.819,8.269,2.218l-7.593,30.676l-37.315-9.238c4.32-17.523-6.357-35.228-23.882-39.563&#10;&#9;&#9;&#9;&#9;&#9;&#9;c-17.51-4.337-35.228,6.357-39.564,23.867l-31.483-7.797l7.872-31.778c-0.678-0.127-1.343-0.27-2.009-0.428&#10;&#9;&#9;&#9;&#9;&#9;&#9;c-17.525-4.335-28.203-22.055-23.882-39.563c4.336-17.51,22.056-28.188,39.564-23.867c0.668,0.173,1.337,0.361,1.978,0.567&#10;&#9;&#9;&#9;&#9;&#9;&#9;l9.209-37.16l0.046,0.01L472.643,120.857z" style="fill:#FFC127;"/>
				</g>
			</g>
		</g>
		<g>
			<path d="M262.007,118.938c0,0-3.911,5.05-0.841,11.701c3.07,6.652,22.17,16.908,22.17,16.908l22.802,2.848&#10;&#9;&#9;&#9;&#9;l1.717-5.744c0,0-4.097-0.942-7.058-1.539c-2.96-0.597-10.469-3.326-14.645-2.814&#10;&#9;&#9;&#9;&#9;C286.152,140.298,268.619,123.586,262.007,118.938z" style="fill:#EB402F;"/>
			<path d="M307.855,144.651c0,0,1.091-0.042,1.816-0.255c1.947-0.573,6.01-0.848,5.841-0.043&#10;&#9;&#9;&#9;&#9;c-0.128,0.611-1.206,0.475-1.791,1.023c-0.68,0.638,2.247,1.084,3.688,1.62c2.502,0.931,0.536,4.401-2.217,5.287&#10;&#9;&#9;&#9;&#9;c-2.753,0.886-7.5,0.544-9.055-1.889L307.855,144.651z" style="fill:#FFAF82;"/>
		</g>
	</g>
	<g>
		<g>
			<path d="M82.431,96.525l0.15-5.326l-4.653-0.131c-0.258-1.619-0.837-3.136-1.679-4.475l3.629-3.43&#10;&#9;&#9;&#9;&#9;l-3.66-3.872l-3.74,3.535c-0.908-0.574-1.897-1.028-2.949-1.343l0.137-4.861l-5.326-0.15l-0.131,4.653&#10;&#9;&#9;&#9;&#9;c-1.619,0.258-3.136,0.836-4.475,1.679l-2.999-3.173l-3.872,3.66l3.104,3.284c-0.733,1.158-1.275,2.447-1.577,3.831l-4.653-0.131&#10;&#9;&#9;&#9;&#9;l-0.15,5.326l4.861,0.137c0.358,1.495,0.994,2.881,1.857,4.104l-3.65,3.451l3.66,3.872l3.958-3.741&#10;&#9;&#9;&#9;&#9;c1.01,0.564,2.109,0.986,3.274,1.239l-0.131,4.653l5.326,0.15l0.137-4.861c1.069-0.256,2.082-0.653,3.02-1.175l3.535,3.74&#10;&#9;&#9;&#9;&#9;l3.872-3.66l-3.43-3.628c0.745-1.049,1.316-2.228,1.694-3.492L82.431,96.525z M65.959,97.838&#10;&#9;&#9;&#9;&#9;c-2.692-0.076-4.821-2.328-4.745-5.02c0.076-2.692,2.327-4.821,5.02-4.745c2.692,0.076,4.821,2.328,4.745,5.02&#10;&#9;&#9;&#9;&#9;C70.903,95.785,68.651,97.914,65.959,97.838z" style="fill:#DDDDDD;"/>
			<path d="M53.256,122.081l0.085-3.014l-2.633-0.074c-0.146-0.916-0.474-1.774-0.95-2.533l2.054-1.941&#10;&#9;&#9;&#9;&#9;l-2.071-2.191l-2.116,2.001c-0.514-0.325-1.073-0.582-1.669-0.76l0.077-2.751l-3.014-0.085l-0.074,2.633&#10;&#9;&#9;&#9;&#9;c-0.916,0.146-1.774,0.473-2.532,0.95l-1.697-1.795l-2.191,2.071l1.757,1.858c-0.415,0.656-0.722,1.385-0.892,2.168l-2.633-0.074&#10;&#9;&#9;&#9;&#9;l-0.085,3.014l2.751,0.077c0.202,0.846,0.563,1.63,1.051,2.323l-2.066,1.953l2.071,2.191l2.239-2.117&#10;&#9;&#9;&#9;&#9;c0.572,0.319,1.193,0.558,1.853,0.701l-0.074,2.633l3.014,0.085l0.077-2.751c0.605-0.145,1.178-0.37,1.709-0.665l2.001,2.116&#10;&#9;&#9;&#9;&#9;l2.191-2.071l-1.941-2.053c0.422-0.594,0.744-1.261,0.959-1.976L53.256,122.081z M43.934,122.824&#10;&#9;&#9;&#9;&#9;c-1.523-0.043-2.728-1.318-2.685-2.841c0.043-1.523,1.317-2.728,2.841-2.685c1.523,0.043,2.728,1.317,2.685,2.841&#10;&#9;&#9;&#9;&#9;C46.732,121.662,45.458,122.867,43.934,122.824z" style="fill:#DDDDDD;"/>
		</g>
		<g>
			<path d="M471.123,285.498l-3.998-3.522l-3.077,3.492c-1.41-0.838-2.945-1.363-4.514-1.572l-0.315-4.983&#10;&#9;&#9;&#9;&#9;l-5.318,0.336l0.325,5.136c-1.022,0.331-2.003,0.8-2.919,1.408l-3.649-3.215l-3.522,3.998l3.493,3.077&#10;&#9;&#9;&#9;&#9;c-0.838,1.409-1.363,2.945-1.572,4.514l-4.357,0.276l0.337,5.318l4.509-0.285c0.422,1.304,1.065,2.546,1.936,3.663l-3.077,3.493&#10;&#9;&#9;&#9;&#9;l3.998,3.522l3.215-3.649c1.378,0.681,2.85,1.079,4.342,1.198l0.317,5.013l5.317-0.336l-0.344-5.435&#10;&#9;&#9;&#9;&#9;c1.08-0.416,2.107-0.99,3.047-1.724l3.493,3.077l3.522-3.998l-3.649-3.215c0.487-0.985,0.83-2.018,1.029-3.073l5.136-0.325&#10;&#9;&#9;&#9;&#9;l-0.336-5.318l-4.983,0.315c-0.33-1.244-0.871-2.437-1.6-3.536L471.123,285.498z M461.595,298.999&#10;&#9;&#9;&#9;&#9;c-1.78,2.021-4.873,2.216-6.893,0.436c-2.021-1.78-2.217-4.873-0.436-6.894c1.78-2.021,4.873-2.216,6.894-0.436&#10;&#9;&#9;&#9;&#9;C463.18,293.886,463.376,296.978,461.595,298.999z" style="fill:#DDDDDD;"/>
			<path d="M472.103,324.271l-2.262-1.993l-1.741,1.976c-0.798-0.474-1.667-0.771-2.554-0.89l-0.178-2.82&#10;&#9;&#9;&#9;&#9;l-3.009,0.19l0.184,2.907c-0.578,0.187-1.134,0.453-1.652,0.797l-2.065-1.819l-1.993,2.262l1.977,1.741&#10;&#9;&#9;&#9;&#9;c-0.474,0.798-0.771,1.667-0.89,2.554l-2.465,0.156l0.19,3.009l2.552-0.161c0.239,0.738,0.602,1.441,1.096,2.073l-1.741,1.977&#10;&#9;&#9;&#9;&#9;l2.263,1.993l1.819-2.065c0.78,0.385,1.613,0.61,2.457,0.678l0.18,2.837l3.009-0.19l-0.195-3.076&#10;&#9;&#9;&#9;&#9;c0.611-0.235,1.192-0.561,1.724-0.976l1.976,1.741l1.993-2.262l-2.065-1.819c0.276-0.557,0.47-1.142,0.582-1.739l2.906-0.184&#10;&#9;&#9;&#9;&#9;l-0.19-3.009l-2.82,0.178c-0.187-0.704-0.493-1.379-0.906-2.001L472.103,324.271z M466.712,331.911&#10;&#9;&#9;&#9;&#9;c-1.008,1.143-2.758,1.254-3.901,0.247c-1.143-1.007-1.254-2.757-0.247-3.901c1.007-1.144,2.757-1.254,3.901-0.247&#10;&#9;&#9;&#9;&#9;C467.608,329.017,467.719,330.767,466.712,331.911z" style="fill:#DDDDDD;"/>
		</g>
	</g>
</g>
<g id="DESIGNED_BY_FREEPIK">
	<g>
		<g id="XMLID_1_">
			<g id="XMLID_20_">
				<path d="M260.104,465.465c-0.432,0.443-0.803,0.931-1.108,1.453l-0.465-0.241&#10;&#9;&#9;&#9;&#9;&#9;c-0.067-0.298-0.349-0.503-0.659-0.466c-0.331,0.039-0.568,0.339-0.529,0.67c0.039,0.331,0.339,0.568,0.67,0.529&#10;&#9;&#9;&#9;&#9;&#9;c0.065-0.008,0.127-0.026,0.183-0.052l0.452,0.234c-0.251,0.554-0.433,1.139-0.539,1.744l0.747,0.132&#10;&#9;&#9;&#9;&#9;&#9;c0.23-1.306,0.85-2.507,1.792-3.473L260.104,465.465z" style="fill:#112129;" id="XMLID_28_"/>
				<path d="M265.592,463.163c-0.171,0-0.341,0.006-0.51,0.017l-0.074-0.626&#10;&#9;&#9;&#9;&#9;&#9;c0.188-0.149,0.296-0.389,0.266-0.645c-0.046-0.393-0.402-0.674-0.795-0.628c-0.393,0.046-0.674,0.402-0.628,0.795&#10;&#9;&#9;&#9;&#9;&#9;c0.03,0.254,0.189,0.461,0.405,0.564l0.073,0.624c-0.714,0.116-1.403,0.332-2.06,0.646l0.327,0.684&#10;&#9;&#9;&#9;&#9;&#9;c0.934-0.447,1.942-0.673,2.995-0.673c0.496,0,0.993,0.053,1.475,0.158l0.161-0.741&#10;&#9;&#9;&#9;&#9;&#9;C266.692,463.222,266.142,463.163,265.592,463.163z" style="fill:#112129;" id="XMLID_27_"/>
				<path d="M272.194,465.711c0.331-0.04,0.566-0.341,0.526-0.672&#10;&#9;&#9;&#9;&#9;&#9;c-0.04-0.331-0.341-0.566-0.672-0.526c-0.309,0.038-0.535,0.304-0.53,0.609l-0.416,0.363c-0.418-0.43-0.89-0.813-1.408-1.139&#10;&#9;&#9;&#9;&#9;&#9;l-0.404,0.641c1.134,0.715,2.021,1.726,2.563,2.925l0.691-0.313c-0.251-0.554-0.568-1.072-0.942-1.545l0.402-0.351&#10;&#9;&#9;&#9;&#9;&#9;C272.065,465.716,272.129,465.719,272.194,465.711z" style="fill:#112129;" id="XMLID_26_"/>
				<path d="M265.044,473.372c-0.386,0.023-0.775,0.035-1.157,0.035&#10;&#9;&#9;&#9;&#9;&#9;c-0.88,0-1.733-0.061-2.478-0.179c-0.39-0.062-0.846-0.155-1.27-0.292c1.046,1.861,3.069,3.125,5.388,3.125&#10;&#9;&#9;&#9;&#9;&#9;c2.855,0,5.262-1.916,5.95-4.504c-0.682,0.449-1.505,0.825-2.459,1.123C267.839,473.047,266.464,473.286,265.044,473.372z" style="fill:#112129;" id="XMLID_25_"/>
				<path d="M265.592,464.68c-3.352,0-6.08,2.666-6.08,5.943c0,0.426,0.046,0.849,0.137,1.261&#10;&#9;&#9;&#9;&#9;&#9;c0.673,0.483,2.706,0.89,5.348,0.731c2.879-0.173,5.297-0.957,6.672-2.159c-0.005-0.195-0.021-0.39-0.045-0.582&#10;&#9;&#9;&#9;&#9;&#9;C271.244,466.913,268.65,464.68,265.592,464.68z M263.432,471.194c-1.02,0-1.85-0.83-1.85-1.85c0-1.02,0.83-1.85,1.85-1.85&#10;&#9;&#9;&#9;&#9;&#9;c1.02,0,1.85,0.83,1.85,1.85C265.282,470.365,264.452,471.194,263.432,471.194z M268.17,470.286c-0.75,0-1.36-0.61-1.36-1.36&#10;&#9;&#9;&#9;&#9;&#9;s0.61-1.361,1.36-1.361c0.75,0,1.361,0.61,1.361,1.361S268.92,470.286,268.17,470.286z" style="fill:#112129;" id="XMLID_21_"/>
			</g>
			<path d="M281.595,466.547c-0.295-0.116-0.805-0.309-1.382-0.237&#10;&#9;&#9;&#9;&#9;c-0.551,0.069-0.844,0.341-0.844,1.007v0.866h2.228v1.717h-2.228v5.455h-1.932v-5.455h-1.34v-1.717h1.34v-0.888&#10;&#9;&#9;&#9;&#9;c0-1.68,0.896-2.783,2.568-2.783c0.643,0,1.157,0.122,1.59,0.308L281.595,466.547z" style="fill:#112129;" id="XMLID_18_"/>
			<path d="M286.298,469.879c-0.177-0.03-0.358-0.046-0.526-0.046&#10;&#9;&#9;&#9;&#9;c-0.896,0-1.51,0.548-1.51,1.614v3.908h-1.932v-7.172h1.873v0.785c0.451-0.673,1.14-0.977,2.021-0.977&#10;&#9;&#9;&#9;&#9;c0.414,0,0.848,0.128,1.094,0.337L286.298,469.879z" style="fill:#112129;" id="XMLID_16_"/>
			<path d="M293.965,471.757c0,0.222-0.015,0.489-0.037,0.651h-5.085&#10;&#9;&#9;&#9;&#9;c0.207,1.036,0.933,1.488,1.843,1.488c0.622,0,1.295-0.252,1.813-0.688l1.132,1.243c-0.814,0.748-1.85,1.088-3.057,1.088&#10;&#9;&#9;&#9;&#9;c-2.198,0-3.723-1.495-3.723-3.753c0-2.258,1.48-3.797,3.627-3.797C292.544,467.99,293.958,469.522,293.965,471.757z&#10;&#9;&#9;&#9;&#9; M288.851,471.091h3.175c-0.177-0.918-0.733-1.436-1.562-1.436C289.554,469.655,289.021,470.203,288.851,471.091z" style="fill:#112129;" id="XMLID_13_"/>
			<path d="M301.618,471.757c0,0.222-0.015,0.489-0.037,0.651h-5.085&#10;&#9;&#9;&#9;&#9;c0.207,1.036,0.933,1.488,1.843,1.488c0.622,0,1.295-0.252,1.813-0.688l1.132,1.243c-0.814,0.748-1.85,1.088-3.057,1.088&#10;&#9;&#9;&#9;&#9;c-2.198,0-3.723-1.495-3.723-3.753c0-2.258,1.48-3.797,3.627-3.797C300.197,467.99,301.611,469.522,301.618,471.757z&#10;&#9;&#9;&#9;&#9; M296.504,471.091h3.175c-0.178-0.918-0.733-1.436-1.562-1.436C297.207,469.655,296.674,470.203,296.504,471.091z" style="fill:#112129;" id="XMLID_10_"/>
			<path d="M309.964,471.764c0,2.154-1.495,3.775-3.471,3.775&#10;&#9;&#9;&#9;&#9;c-0.962,0-1.643-0.378-2.109-0.933v3.708h-1.924v-10.133h1.887v0.792c0.466-0.585,1.155-0.984,2.139-0.984&#10;&#9;&#9;&#9;&#9;C308.469,467.99,309.964,469.61,309.964,471.764z M304.287,471.764c0,1.132,0.747,1.976,1.843,1.976&#10;&#9;&#9;&#9;&#9;c1.14,0,1.85-0.881,1.85-1.976c0-1.095-0.71-1.976-1.85-1.976C305.035,469.788,304.287,470.632,304.287,471.764z" style="fill:#112129;" id="XMLID_7_"/>
			<path d="M313.068,465.836c0,0.696-0.54,1.229-1.236,1.229c-0.696,0-1.229-0.533-1.229-1.229&#10;&#9;&#9;&#9;&#9;c0-0.696,0.533-1.243,1.229-1.243C312.527,464.592,313.068,465.14,313.068,465.836z M312.809,475.354h-1.932v-7.172h1.932&#10;&#9;&#9;&#9;&#9;V475.354z" style="fill:#112129;" id="XMLID_4_"/>
			<path d="M316.032,470.736l2.701-2.554h2.368l-3.479,3.375l3.501,3.797h-2.376l-2.716-2.901&#10;&#9;&#9;&#9;&#9;v2.901H314.1v-10.658h1.932V470.736z" style="fill:#112129;" id="XMLID_2_"/>
		</g>
		<g>
			<path d="M184.412,475.289v-1.055c-0.527,0.718-1.391,1.23-2.387,1.23c-1.846,0-3.149-1.406-3.149-3.706&#10;&#9;&#9;&#9;&#9;c0-2.256,1.289-3.721,3.149-3.721c0.952,0,1.816,0.469,2.387,1.245v-3.765h1.099v9.77H184.412z M184.412,473.37v-3.208&#10;&#9;&#9;&#9;&#9;c-0.395-0.615-1.245-1.143-2.124-1.143c-1.421,0-2.27,1.172-2.27,2.739c0,1.567,0.85,2.724,2.27,2.724&#10;&#9;&#9;&#9;&#9;C183.168,474.483,184.017,473.986,184.412,473.37z" style="fill:#112129;"/>
			<path d="M186.932,471.744c0-2.051,1.465-3.706,3.486-3.706c2.139,0,3.398,1.67,3.398,3.794v0.279h-5.727&#10;&#9;&#9;&#9;&#9;c0.088,1.333,1.025,2.446,2.549,2.446c0.805,0,1.626-0.322,2.182-0.894l0.527,0.718c-0.703,0.703-1.655,1.084-2.812,1.084&#10;&#9;&#9;&#9;&#9;C188.44,475.465,186.932,473.956,186.932,471.744z M190.403,468.947c-1.509,0-2.256,1.274-2.314,2.358h4.643&#10;&#9;&#9;&#9;&#9;C192.718,470.25,192.015,468.947,190.403,468.947z" style="fill:#112129;"/>
			<path d="M194.607,474.351l0.571-0.791c0.469,0.542,1.362,1.011,2.329,1.011c1.084,0,1.67-0.513,1.67-1.216&#10;&#9;&#9;&#9;&#9;c0-1.714-4.38-0.659-4.38-3.281c0-1.098,0.952-2.036,2.636-2.036c1.201,0,2.051,0.454,2.622,1.026l-0.513,0.762&#10;&#9;&#9;&#9;&#9;c-0.424-0.513-1.201-0.894-2.109-0.894c-0.967,0-1.567,0.483-1.567,1.113c0,1.552,4.38,0.527,4.38,3.281&#10;&#9;&#9;&#9;&#9;c0,1.187-0.952,2.138-2.783,2.138C196.306,475.465,195.325,475.113,194.607,474.351z" style="fill:#112129;"/>
			<path d="M201.477,466.471c0-0.41,0.337-0.747,0.732-0.747c0.41,0,0.747,0.337,0.747,0.747&#10;&#9;&#9;&#9;&#9;c0,0.41-0.337,0.732-0.747,0.732C201.814,467.203,201.477,466.881,201.477,466.471z M201.667,475.289v-7.075h1.099v7.075H201.667&#10;&#9;&#9;&#9;&#9;z" style="fill:#112129;"/>
			<path d="M204.582,477.105l0.556-0.82c0.586,0.703,1.289,0.967,2.3,0.967c1.172,0,2.27-0.571,2.27-2.124&#10;&#9;&#9;&#9;&#9;v-1.011c-0.513,0.718-1.377,1.26-2.373,1.26c-1.845,0-3.149-1.377-3.149-3.662c0-2.27,1.289-3.677,3.149-3.677&#10;&#9;&#9;&#9;&#9;c0.952,0,1.802,0.469,2.373,1.245v-1.069h1.098v6.87c0,2.344-1.641,3.076-3.369,3.076&#10;&#9;&#9;&#9;&#9;C206.237,478.16,205.417,477.926,204.582,477.105z M209.709,473.253v-3.091c-0.381-0.615-1.23-1.143-2.109-1.143&#10;&#9;&#9;&#9;&#9;c-1.421,0-2.27,1.128-2.27,2.695c0,1.553,0.849,2.695,2.27,2.695C208.478,474.41,209.328,473.868,209.709,473.253z" style="fill:#112129;"/>
			<path d="M217.413,475.289v-4.629c0-1.245-0.63-1.641-1.582-1.641c-0.865,0-1.685,0.527-2.095,1.099v5.17&#10;&#9;&#9;&#9;&#9;h-1.099v-7.075h1.099v1.025c0.498-0.586,1.465-1.201,2.519-1.201c1.48,0,2.256,0.747,2.256,2.285v4.966H217.413z" style="fill:#112129;"/>
			<path d="M219.932,471.744c0-2.051,1.465-3.706,3.486-3.706c2.139,0,3.398,1.67,3.398,3.794v0.279h-5.727&#10;&#9;&#9;&#9;&#9;c0.088,1.333,1.025,2.446,2.549,2.446c0.806,0,1.626-0.322,2.183-0.894l0.527,0.718c-0.703,0.703-1.655,1.084-2.812,1.084&#10;&#9;&#9;&#9;&#9;C221.441,475.465,219.932,473.956,219.932,471.744z M223.404,468.947c-1.509,0-2.256,1.274-2.314,2.358h4.643&#10;&#9;&#9;&#9;&#9;C225.718,470.25,225.015,468.947,223.404,468.947z" style="fill:#112129;"/>
			<path d="M233.35,475.289v-1.055c-0.527,0.718-1.392,1.23-2.388,1.23c-1.846,0-3.149-1.406-3.149-3.706&#10;&#9;&#9;&#9;&#9;c0-2.256,1.289-3.721,3.149-3.721c0.952,0,1.817,0.469,2.388,1.245v-3.765h1.098v9.77H233.35z M233.35,473.37v-3.208&#10;&#9;&#9;&#9;&#9;c-0.396-0.615-1.245-1.143-2.124-1.143c-1.421,0-2.27,1.172-2.27,2.739c0,1.567,0.849,2.724,2.27,2.724&#10;&#9;&#9;&#9;&#9;C232.105,474.483,232.954,473.986,233.35,473.37z" style="fill:#112129;"/>
			<path d="M239.692,475.289v-9.77h1.098v3.765c0.572-0.776,1.421-1.245,2.388-1.245&#10;&#9;&#9;&#9;&#9;c1.845,0,3.149,1.465,3.149,3.721c0,2.299-1.304,3.706-3.149,3.706c-0.996,0-1.86-0.513-2.388-1.23v1.055H239.692z&#10;&#9;&#9;&#9;&#9; M242.9,474.483c1.436,0,2.285-1.157,2.285-2.724c0-1.568-0.85-2.739-2.285-2.739c-0.864,0-1.728,0.527-2.109,1.143v3.208&#10;&#9;&#9;&#9;&#9;C241.171,473.986,242.036,474.483,242.9,474.483z" style="fill:#112129;"/>
			<path d="M247.528,477.061c0.161,0.073,0.425,0.117,0.601,0.117c0.483,0,0.805-0.161,1.055-0.747&#10;&#9;&#9;&#9;&#9;l0.469-1.069l-2.959-7.148h1.187l2.358,5.8l2.344-5.8h1.201l-3.545,8.51c-0.425,1.025-1.143,1.421-2.08,1.435&#10;&#9;&#9;&#9;&#9;c-0.234,0-0.601-0.044-0.806-0.103L247.528,477.061z" style="fill:#112129;"/>
		</g>
	</g>
</g>
</svg>