<svg xmlns="http://www.w3.org/2000/svg" xmlns:xlink="http://www.w3.org/1999/xlink" width="1080" zoomAndPan="magnify" viewBox="0 0 810 809.999993" height="1080" preserveAspectRatio="xMidYMid meet" version="1.0"><defs><clipPath id="c99ebfbefa"><path d="M 546 309 L 684.300781 309 L 684.300781 516 L 546 516 Z M 546 309 " clip-rule="nonzero"/></clipPath><clipPath id="ecfc9aca02"><path d="M 328 176.75 L 516 176.75 L 516 360 L 328 360 Z M 328 176.75 " clip-rule="nonzero"/></clipPath><clipPath id="cb379a5b4a"><path d="M 89.425781 89.425781 L 720.574219 89.425781 L 720.574219 720.574219 L 89.425781 720.574219 Z M 89.425781 89.425781 " clip-rule="nonzero"/></clipPath><clipPath id="1851af4dbc"><path d="M 405 89.425781 C 230.710938 89.425781 89.425781 230.710938 89.425781 405 C 89.425781 579.289062 230.710938 720.574219 405 720.574219 C 579.289062 720.574219 720.574219 579.289062 720.574219 405 C 720.574219 230.710938 579.289062 89.425781 405 89.425781 Z M 405 89.425781 " clip-rule="nonzero"/></clipPath><linearGradient x1="0.00000347768" gradientTransform="matrix(2.465439, 0, 0, 2.465439, 89.423846, 89.423849)" y1="0.00000347768" x2="255.999998" gradientUnits="userSpaceOnUse" y2="255.999998" id="bd74759165"><stop stop-opacity="1" stop-color="rgb(99.998474%, 43.099976%, 0%)" offset="0"/><stop stop-opacity="1" stop-color="rgb(99.256897%, 42.918396%, 0.437927%)" offset="0.00390625"/><stop stop-opacity="1" stop-color="rgb(98.516846%, 42.738342%, 0.875854%)" offset="0.0078125"/><stop stop-opacity="1" stop-color="rgb(97.775269%, 42.556763%, 1.313782%)" offset="0.0117187"/><stop stop-opacity="1" stop-color="rgb(97.033691%, 42.376709%, 1.751709%)" offset="0.015625"/><stop stop-opacity="1" stop-color="rgb(96.292114%, 42.196655%, 2.189636%)" offset="0.0195312"/><stop stop-opacity="1" stop-color="rgb(95.550537%, 42.016602%, 2.629089%)" offset="0.0234375"/><stop stop-opacity="1" stop-color="rgb(94.80896%, 41.835022%, 3.067017%)" offset="0.0273437"/><stop stop-opacity="1" stop-color="rgb(94.067383%, 41.654968%, 3.504944%)" offset="0.03125"/><stop stop-opacity="1" stop-color="rgb(93.325806%, 41.474915%, 3.942871%)" offset="0.0351562"/><stop stop-opacity="1" stop-color="rgb(92.585754%, 41.294861%, 4.382324%)" offset="0.0390625"/><stop stop-opacity="1" stop-color="rgb(91.844177%, 41.113281%, 4.820251%)" offset="0.0429687"/><stop stop-opacity="1" stop-color="rgb(91.1026%, 40.933228%, 5.258179%)" offset="0.046875"/><stop stop-opacity="1" stop-color="rgb(90.361023%, 40.753174%, 5.696106%)" offset="0.0507812"/><stop stop-opacity="1" stop-color="rgb(89.619446%, 40.57312%, 6.135559%)" offset="0.0546875"/><stop stop-opacity="1" stop-color="rgb(88.877869%, 40.391541%, 6.573486%)" offset="0.0585937"/><stop stop-opacity="1" stop-color="rgb(88.136292%, 40.211487%, 7.011414%)" offset="0.0625"/><stop stop-opacity="1" stop-color="rgb(87.394714%, 40.031433%, 7.449341%)" offset="0.0664062"/><stop stop-opacity="1" stop-color="rgb(86.654663%, 39.851379%, 7.888794%)" offset="0.0703125"/><stop stop-opacity="1" stop-color="rgb(85.913086%, 39.6698%, 8.326721%)" offset="0.0742187"/><stop stop-opacity="1" stop-color="rgb(85.171509%, 39.489746%, 8.764648%)" offset="0.078125"/><stop stop-opacity="1" stop-color="rgb(84.429932%, 39.309692%, 9.202576%)" offset="0.0820312"/><stop stop-opacity="1" stop-color="rgb(83.688354%, 39.129639%, 9.642029%)" offset="0.0859375"/><stop stop-opacity="1" stop-color="rgb(82.946777%, 38.948059%, 10.079956%)" offset="0.0898437"/><stop stop-opacity="1" stop-color="rgb(82.2052%, 38.768005%, 10.517883%)" offset="0.09375"/><stop stop-opacity="1" stop-color="rgb(81.463623%, 38.586426%, 10.955811%)" offset="0.0976562"/><stop stop-opacity="1" stop-color="rgb(80.722046%, 38.406372%, 11.395264%)" offset="0.101562"/><stop stop-opacity="1" stop-color="rgb(79.980469%, 38.226318%, 11.833191%)" offset="0.105469"/><stop stop-opacity="1" stop-color="rgb(79.240417%, 38.046265%, 12.271118%)" offset="0.109375"/><stop stop-opacity="1" stop-color="rgb(78.49884%, 37.864685%, 12.709045%)" offset="0.113281"/><stop stop-opacity="1" stop-color="rgb(77.757263%, 37.684631%, 13.146973%)" offset="0.117187"/><stop stop-opacity="1" stop-color="rgb(77.015686%, 37.504578%, 13.5849%)" offset="0.121094"/><stop stop-opacity="1" stop-color="rgb(76.274109%, 37.324524%, 14.024353%)" offset="0.125"/><stop stop-opacity="1" stop-color="rgb(75.532532%, 37.142944%, 14.46228%)" offset="0.128906"/><stop stop-opacity="1" stop-color="rgb(74.790955%, 36.962891%, 14.900208%)" offset="0.132812"/><stop stop-opacity="1" stop-color="rgb(74.049377%, 36.782837%, 15.338135%)" offset="0.136719"/><stop stop-opacity="1" stop-color="rgb(73.309326%, 36.602783%, 15.777588%)" offset="0.140625"/><stop stop-opacity="1" stop-color="rgb(72.567749%, 36.421204%, 16.215515%)" offset="0.144531"/><stop stop-opacity="1" stop-color="rgb(71.826172%, 36.24115%, 16.653442%)" offset="0.148438"/><stop stop-opacity="1" stop-color="rgb(71.084595%, 36.061096%, 17.09137%)" offset="0.152344"/><stop stop-opacity="1" stop-color="rgb(70.343018%, 35.881042%, 17.530823%)" offset="0.15625"/><stop stop-opacity="1" stop-color="rgb(69.60144%, 35.699463%, 17.96875%)" offset="0.160156"/><stop stop-opacity="1" stop-color="rgb(68.859863%, 35.519409%, 18.406677%)" offset="0.164062"/><stop stop-opacity="1" stop-color="rgb(68.118286%, 35.339355%, 18.844604%)" offset="0.167969"/><stop stop-opacity="1" stop-color="rgb(67.376709%, 35.159302%, 19.284058%)" offset="0.171875"/><stop stop-opacity="1" stop-color="rgb(66.635132%, 34.977722%, 19.721985%)" offset="0.175781"/><stop stop-opacity="1" stop-color="rgb(65.895081%, 34.797668%, 20.159912%)" offset="0.179687"/><stop stop-opacity="1" stop-color="rgb(65.153503%, 34.616089%, 20.597839%)" offset="0.183594"/><stop stop-opacity="1" stop-color="rgb(64.411926%, 34.436035%, 21.037292%)" offset="0.1875"/><stop stop-opacity="1" stop-color="rgb(63.670349%, 34.255981%, 21.47522%)" offset="0.191406"/><stop stop-opacity="1" stop-color="rgb(62.928772%, 34.075928%, 21.913147%)" offset="0.195312"/><stop stop-opacity="1" stop-color="rgb(62.187195%, 33.894348%, 22.351074%)" offset="0.199219"/><stop stop-opacity="1" stop-color="rgb(61.445618%, 33.714294%, 22.790527%)" offset="0.203125"/><stop stop-opacity="1" stop-color="rgb(60.704041%, 33.534241%, 23.228455%)" offset="0.207031"/><stop stop-opacity="1" stop-color="rgb(59.963989%, 33.354187%, 23.666382%)" offset="0.210938"/><stop stop-opacity="1" stop-color="rgb(59.222412%, 33.172607%, 24.104309%)" offset="0.214844"/><stop stop-opacity="1" stop-color="rgb(58.480835%, 32.992554%, 24.542236%)" offset="0.21875"/><stop stop-opacity="1" stop-color="rgb(57.739258%, 32.8125%, 24.980164%)" offset="0.222656"/><stop stop-opacity="1" stop-color="rgb(56.997681%, 32.632446%, 25.419617%)" offset="0.226562"/><stop stop-opacity="1" stop-color="rgb(56.256104%, 32.450867%, 25.857544%)" offset="0.230469"/><stop stop-opacity="1" stop-color="rgb(55.514526%, 32.270813%, 26.295471%)" offset="0.234375"/><stop stop-opacity="1" stop-color="rgb(54.772949%, 32.090759%, 26.733398%)" offset="0.238281"/><stop stop-opacity="1" stop-color="rgb(54.031372%, 31.910706%, 27.172852%)" offset="0.242188"/><stop stop-opacity="1" stop-color="rgb(53.289795%, 31.729126%, 27.610779%)" offset="0.246094"/><stop stop-opacity="1" stop-color="rgb(52.549744%, 31.549072%, 28.048706%)" offset="0.25"/><stop stop-opacity="1" stop-color="rgb(51.808167%, 31.369019%, 28.486633%)" offset="0.253906"/><stop stop-opacity="1" stop-color="rgb(51.066589%, 31.188965%, 28.926086%)" offset="0.257812"/><stop stop-opacity="1" stop-color="rgb(50.325012%, 31.007385%, 29.364014%)" offset="0.261719"/><stop stop-opacity="1" stop-color="rgb(49.583435%, 30.827332%, 29.801941%)" offset="0.265625"/><stop stop-opacity="1" stop-color="rgb(48.841858%, 30.645752%, 30.239868%)" offset="0.269531"/><stop stop-opacity="1" stop-color="rgb(48.100281%, 30.465698%, 30.679321%)" offset="0.273437"/><stop stop-opacity="1" stop-color="rgb(47.358704%, 30.285645%, 31.117249%)" offset="0.277344"/><stop stop-opacity="1" stop-color="rgb(46.618652%, 30.105591%, 31.555176%)" offset="0.28125"/><stop stop-opacity="1" stop-color="rgb(45.877075%, 29.924011%, 31.993103%)" offset="0.285156"/><stop stop-opacity="1" stop-color="rgb(45.135498%, 29.743958%, 32.432556%)" offset="0.289062"/><stop stop-opacity="1" stop-color="rgb(44.393921%, 29.563904%, 32.870483%)" offset="0.292969"/><stop stop-opacity="1" stop-color="rgb(43.652344%, 29.38385%, 33.308411%)" offset="0.296875"/><stop stop-opacity="1" stop-color="rgb(42.910767%, 29.202271%, 33.746338%)" offset="0.300781"/><stop stop-opacity="1" stop-color="rgb(42.169189%, 29.022217%, 34.185791%)" offset="0.304687"/><stop stop-opacity="1" stop-color="rgb(41.427612%, 28.842163%, 34.623718%)" offset="0.308594"/><stop stop-opacity="1" stop-color="rgb(40.686035%, 28.662109%, 35.061646%)" offset="0.3125"/><stop stop-opacity="1" stop-color="rgb(39.944458%, 28.48053%, 35.499573%)" offset="0.316406"/><stop stop-opacity="1" stop-color="rgb(39.204407%, 28.300476%, 35.939026%)" offset="0.320312"/><stop stop-opacity="1" stop-color="rgb(38.46283%, 28.120422%, 36.376953%)" offset="0.324219"/><stop stop-opacity="1" stop-color="rgb(37.721252%, 27.940369%, 36.81488%)" offset="0.328125"/><stop stop-opacity="1" stop-color="rgb(36.979675%, 27.758789%, 37.252808%)" offset="0.332031"/><stop stop-opacity="1" stop-color="rgb(36.238098%, 27.578735%, 37.690735%)" offset="0.335938"/><stop stop-opacity="1" stop-color="rgb(35.496521%, 27.398682%, 38.128662%)" offset="0.339844"/><stop stop-opacity="1" stop-color="rgb(34.754944%, 27.218628%, 38.568115%)" offset="0.34375"/><stop stop-opacity="1" stop-color="rgb(34.013367%, 27.037048%, 39.006042%)" offset="0.347656"/><stop stop-opacity="1" stop-color="rgb(33.273315%, 26.856995%, 39.44397%)" offset="0.351562"/><stop stop-opacity="1" stop-color="rgb(32.531738%, 26.675415%, 39.881897%)" offset="0.355469"/><stop stop-opacity="1" stop-color="rgb(31.790161%, 26.495361%, 40.32135%)" offset="0.359375"/><stop stop-opacity="1" stop-color="rgb(31.048584%, 26.315308%, 40.759277%)" offset="0.363281"/><stop stop-opacity="1" stop-color="rgb(30.307007%, 26.135254%, 41.197205%)" offset="0.367187"/><stop stop-opacity="1" stop-color="rgb(29.56543%, 25.953674%, 41.635132%)" offset="0.371094"/><stop stop-opacity="1" stop-color="rgb(28.823853%, 25.773621%, 42.074585%)" offset="0.375"/><stop stop-opacity="1" stop-color="rgb(28.082275%, 25.593567%, 42.512512%)" offset="0.378906"/><stop stop-opacity="1" stop-color="rgb(27.340698%, 25.413513%, 42.950439%)" offset="0.382812"/><stop stop-opacity="1" stop-color="rgb(26.599121%, 25.231934%, 43.388367%)" offset="0.386719"/><stop stop-opacity="1" stop-color="rgb(25.85907%, 25.05188%, 43.82782%)" offset="0.390625"/><stop stop-opacity="1" stop-color="rgb(25.117493%, 24.871826%, 44.265747%)" offset="0.394531"/><stop stop-opacity="1" stop-color="rgb(24.375916%, 24.691772%, 44.703674%)" offset="0.398437"/><stop stop-opacity="1" stop-color="rgb(23.634338%, 24.510193%, 45.141602%)" offset="0.402344"/><stop stop-opacity="1" stop-color="rgb(22.892761%, 24.330139%, 45.581055%)" offset="0.40625"/><stop stop-opacity="1" stop-color="rgb(22.151184%, 24.150085%, 46.018982%)" offset="0.410156"/><stop stop-opacity="1" stop-color="rgb(21.409607%, 23.970032%, 46.456909%)" offset="0.414062"/><stop stop-opacity="1" stop-color="rgb(20.66803%, 23.788452%, 46.894836%)" offset="0.417969"/><stop stop-opacity="1" stop-color="rgb(19.927979%, 23.608398%, 47.33429%)" offset="0.421875"/><stop stop-opacity="1" stop-color="rgb(19.186401%, 23.428345%, 47.772217%)" offset="0.425781"/><stop stop-opacity="1" stop-color="rgb(18.444824%, 23.248291%, 48.210144%)" offset="0.429688"/><stop stop-opacity="1" stop-color="rgb(17.703247%, 23.066711%, 48.648071%)" offset="0.433594"/><stop stop-opacity="1" stop-color="rgb(16.96167%, 22.886658%, 49.085999%)" offset="0.4375"/><stop stop-opacity="1" stop-color="rgb(16.220093%, 22.706604%, 49.523926%)" offset="0.441406"/><stop stop-opacity="1" stop-color="rgb(15.478516%, 22.52655%, 49.963379%)" offset="0.445312"/><stop stop-opacity="1" stop-color="rgb(14.736938%, 22.344971%, 50.401306%)" offset="0.449219"/><stop stop-opacity="1" stop-color="rgb(13.995361%, 22.164917%, 50.839233%)" offset="0.453125"/><stop stop-opacity="1" stop-color="rgb(13.253784%, 21.983337%, 51.277161%)" offset="0.457031"/><stop stop-opacity="1" stop-color="rgb(12.513733%, 21.803284%, 51.716614%)" offset="0.460937"/><stop stop-opacity="1" stop-color="rgb(11.772156%, 21.62323%, 52.154541%)" offset="0.464844"/><stop stop-opacity="1" stop-color="rgb(11.030579%, 21.443176%, 52.592468%)" offset="0.46875"/><stop stop-opacity="1" stop-color="rgb(10.289001%, 21.261597%, 53.030396%)" offset="0.472656"/><stop stop-opacity="1" stop-color="rgb(9.547424%, 21.081543%, 53.469849%)" offset="0.476562"/><stop stop-opacity="1" stop-color="rgb(8.805847%, 20.901489%, 53.907776%)" offset="0.480469"/><stop stop-opacity="1" stop-color="rgb(8.06427%, 20.721436%, 54.345703%)" offset="0.484375"/><stop stop-opacity="1" stop-color="rgb(7.322693%, 20.539856%, 54.78363%)" offset="0.488281"/><stop stop-opacity="1" stop-color="rgb(6.582642%, 20.359802%, 55.223083%)" offset="0.492187"/><stop stop-opacity="1" stop-color="rgb(5.841064%, 20.179749%, 55.661011%)" offset="0.496094"/><stop stop-opacity="1" stop-color="rgb(5.099487%, 19.999695%, 56.098938%)" offset="0.5"/><stop stop-opacity="1" stop-color="rgb(5.059814%, 20.480347%, 56.442261%)" offset="0.503906"/><stop stop-opacity="1" stop-color="rgb(5.020142%, 20.960999%, 56.785583%)" offset="0.507812"/><stop stop-opacity="1" stop-color="rgb(4.978943%, 21.44165%, 57.12738%)" offset="0.511719"/><stop stop-opacity="1" stop-color="rgb(4.93927%, 21.923828%, 57.470703%)" offset="0.515625"/><stop stop-opacity="1" stop-color="rgb(4.899597%, 22.40448%, 57.814026%)" offset="0.519531"/><stop stop-opacity="1" stop-color="rgb(4.859924%, 22.886658%, 58.157349%)" offset="0.523437"/><stop stop-opacity="1" stop-color="rgb(4.820251%, 23.36731%, 58.499146%)" offset="0.527344"/><stop stop-opacity="1" stop-color="rgb(4.780579%, 23.849487%, 58.842468%)" offset="0.53125"/><stop stop-opacity="1" stop-color="rgb(4.740906%, 24.330139%, 59.185791%)" offset="0.535156"/><stop stop-opacity="1" stop-color="rgb(4.701233%, 24.812317%, 59.529114%)" offset="0.539062"/><stop stop-opacity="1" stop-color="rgb(4.660034%, 25.292969%, 59.870911%)" offset="0.542969"/><stop stop-opacity="1" stop-color="rgb(4.620361%, 25.773621%, 60.214233%)" offset="0.546875"/><stop stop-opacity="1" stop-color="rgb(4.580688%, 26.254272%, 60.557556%)" offset="0.550781"/><stop stop-opacity="1" stop-color="rgb(4.541016%, 26.73645%, 60.900879%)" offset="0.554687"/><stop stop-opacity="1" stop-color="rgb(4.501343%, 27.217102%, 61.242676%)" offset="0.558594"/><stop stop-opacity="1" stop-color="rgb(4.46167%, 27.69928%, 61.585999%)" offset="0.5625"/><stop stop-opacity="1" stop-color="rgb(4.421997%, 28.179932%, 61.929321%)" offset="0.566406"/><stop stop-opacity="1" stop-color="rgb(4.382324%, 28.662109%, 62.272644%)" offset="0.570312"/><stop stop-opacity="1" stop-color="rgb(4.342651%, 29.142761%, 62.615967%)" offset="0.574219"/><stop stop-opacity="1" stop-color="rgb(4.302979%, 29.624939%, 62.95929%)" offset="0.578125"/><stop stop-opacity="1" stop-color="rgb(4.26178%, 30.105591%, 63.301086%)" offset="0.582031"/><stop stop-opacity="1" stop-color="rgb(4.222107%, 30.586243%, 63.644409%)" offset="0.585937"/><stop stop-opacity="1" stop-color="rgb(4.182434%, 31.066895%, 63.987732%)" offset="0.589844"/><stop stop-opacity="1" stop-color="rgb(4.142761%, 31.549072%, 64.331055%)" offset="0.59375"/><stop stop-opacity="1" stop-color="rgb(4.103088%, 32.029724%, 64.672852%)" offset="0.597656"/><stop stop-opacity="1" stop-color="rgb(4.063416%, 32.511902%, 65.016174%)" offset="0.601562"/><stop stop-opacity="1" stop-color="rgb(4.023743%, 32.992554%, 65.359497%)" offset="0.605469"/><stop stop-opacity="1" stop-color="rgb(3.98407%, 33.474731%, 65.70282%)" offset="0.609375"/><stop stop-opacity="1" stop-color="rgb(3.942871%, 33.955383%, 66.044617%)" offset="0.613281"/><stop stop-opacity="1" stop-color="rgb(3.903198%, 34.436035%, 66.387939%)" offset="0.617188"/><stop stop-opacity="1" stop-color="rgb(3.863525%, 34.916687%, 66.731262%)" offset="0.621094"/><stop stop-opacity="1" stop-color="rgb(3.823853%, 35.398865%, 67.074585%)" offset="0.625"/><stop stop-opacity="1" stop-color="rgb(3.78418%, 35.879517%, 67.416382%)" offset="0.628906"/><stop stop-opacity="1" stop-color="rgb(3.744507%, 36.361694%, 67.759705%)" offset="0.632812"/><stop stop-opacity="1" stop-color="rgb(3.704834%, 36.842346%, 68.103027%)" offset="0.636719"/><stop stop-opacity="1" stop-color="rgb(3.665161%, 37.324524%, 68.44635%)" offset="0.640625"/><stop stop-opacity="1" stop-color="rgb(3.625488%, 37.805176%, 68.788147%)" offset="0.644531"/><stop stop-opacity="1" stop-color="rgb(3.585815%, 38.287354%, 69.13147%)" offset="0.648438"/><stop stop-opacity="1" stop-color="rgb(3.544617%, 38.768005%, 69.474792%)" offset="0.652344"/><stop stop-opacity="1" stop-color="rgb(3.504944%, 39.248657%, 69.818115%)" offset="0.65625"/><stop stop-opacity="1" stop-color="rgb(3.465271%, 39.729309%, 70.159912%)" offset="0.660156"/><stop stop-opacity="1" stop-color="rgb(3.425598%, 40.211487%, 70.503235%)" offset="0.664062"/><stop stop-opacity="1" stop-color="rgb(3.385925%, 40.692139%, 70.846558%)" offset="0.667969"/><stop stop-opacity="1" stop-color="rgb(3.346252%, 41.174316%, 71.18988%)" offset="0.671875"/><stop stop-opacity="1" stop-color="rgb(3.30658%, 41.654968%, 71.533203%)" offset="0.675781"/><stop stop-opacity="1" stop-color="rgb(3.266907%, 42.137146%, 71.876526%)" offset="0.679688"/><stop stop-opacity="1" stop-color="rgb(3.225708%, 42.617798%, 72.218323%)" offset="0.683594"/><stop stop-opacity="1" stop-color="rgb(3.186035%, 43.099976%, 72.561646%)" offset="0.6875"/><stop stop-opacity="1" stop-color="rgb(3.146362%, 43.580627%, 72.904968%)" offset="0.691406"/><stop stop-opacity="1" stop-color="rgb(3.106689%, 44.061279%, 73.248291%)" offset="0.695312"/><stop stop-opacity="1" stop-color="rgb(3.067017%, 44.541931%, 73.590088%)" offset="0.699219"/><stop stop-opacity="1" stop-color="rgb(3.027344%, 45.024109%, 73.933411%)" offset="0.703125"/><stop stop-opacity="1" stop-color="rgb(2.987671%, 45.504761%, 74.276733%)" offset="0.707031"/><stop stop-opacity="1" stop-color="rgb(2.947998%, 45.986938%, 74.620056%)" offset="0.710938"/><stop stop-opacity="1" stop-color="rgb(2.908325%, 46.46759%, 74.961853%)" offset="0.714844"/><stop stop-opacity="1" stop-color="rgb(2.868652%, 46.949768%, 75.305176%)" offset="0.71875"/><stop stop-opacity="1" stop-color="rgb(2.827454%, 47.43042%, 75.648499%)" offset="0.722656"/><stop stop-opacity="1" stop-color="rgb(2.787781%, 47.911072%, 75.991821%)" offset="0.726563"/><stop stop-opacity="1" stop-color="rgb(2.748108%, 48.391724%, 76.333618%)" offset="0.730469"/><stop stop-opacity="1" stop-color="rgb(2.708435%, 48.873901%, 76.676941%)" offset="0.734375"/><stop stop-opacity="1" stop-color="rgb(2.668762%, 49.354553%, 77.020264%)" offset="0.738281"/><stop stop-opacity="1" stop-color="rgb(2.629089%, 49.836731%, 77.363586%)" offset="0.742188"/><stop stop-opacity="1" stop-color="rgb(2.589417%, 50.317383%, 77.705383%)" offset="0.746094"/><stop stop-opacity="1" stop-color="rgb(2.549744%, 50.799561%, 78.048706%)" offset="0.75"/><stop stop-opacity="1" stop-color="rgb(2.508545%, 51.280212%, 78.392029%)" offset="0.753906"/><stop stop-opacity="1" stop-color="rgb(2.468872%, 51.76239%, 78.735352%)" offset="0.757812"/><stop stop-opacity="1" stop-color="rgb(2.429199%, 52.243042%, 79.077148%)" offset="0.761719"/><stop stop-opacity="1" stop-color="rgb(2.389526%, 52.723694%, 79.420471%)" offset="0.765625"/><stop stop-opacity="1" stop-color="rgb(2.349854%, 53.204346%, 79.763794%)" offset="0.769531"/><stop stop-opacity="1" stop-color="rgb(2.310181%, 53.686523%, 80.107117%)" offset="0.773437"/><stop stop-opacity="1" stop-color="rgb(2.270508%, 54.167175%, 80.448914%)" offset="0.777344"/><stop stop-opacity="1" stop-color="rgb(2.230835%, 54.649353%, 80.792236%)" offset="0.78125"/><stop stop-opacity="1" stop-color="rgb(2.191162%, 55.130005%, 81.135559%)" offset="0.785156"/><stop stop-opacity="1" stop-color="rgb(2.151489%, 55.612183%, 81.478882%)" offset="0.789062"/><stop stop-opacity="1" stop-color="rgb(2.110291%, 56.092834%, 81.822205%)" offset="0.792969"/><stop stop-opacity="1" stop-color="rgb(2.070618%, 56.573486%, 82.165527%)" offset="0.796875"/><stop stop-opacity="1" stop-color="rgb(2.030945%, 57.054138%, 82.507324%)" offset="0.800781"/><stop stop-opacity="1" stop-color="rgb(1.991272%, 57.536316%, 82.850647%)" offset="0.804687"/><stop stop-opacity="1" stop-color="rgb(1.951599%, 58.016968%, 83.19397%)" offset="0.808594"/><stop stop-opacity="1" stop-color="rgb(1.911926%, 58.499146%, 83.537292%)" offset="0.8125"/><stop stop-opacity="1" stop-color="rgb(1.872253%, 58.979797%, 83.879089%)" offset="0.816406"/><stop stop-opacity="1" stop-color="rgb(1.832581%, 59.461975%, 84.222412%)" offset="0.820312"/><stop stop-opacity="1" stop-color="rgb(1.791382%, 59.942627%, 84.565735%)" offset="0.824219"/><stop stop-opacity="1" stop-color="rgb(1.751709%, 60.424805%, 84.909058%)" offset="0.828125"/><stop stop-opacity="1" stop-color="rgb(1.712036%, 60.905457%, 85.250854%)" offset="0.832031"/><stop stop-opacity="1" stop-color="rgb(1.672363%, 61.386108%, 85.594177%)" offset="0.835938"/><stop stop-opacity="1" stop-color="rgb(1.63269%, 61.86676%, 85.9375%)" offset="0.839844"/><stop stop-opacity="1" stop-color="rgb(1.593018%, 62.348938%, 86.280823%)" offset="0.84375"/><stop stop-opacity="1" stop-color="rgb(1.553345%, 62.82959%, 86.62262%)" offset="0.847656"/><stop stop-opacity="1" stop-color="rgb(1.513672%, 63.311768%, 86.965942%)" offset="0.851562"/><stop stop-opacity="1" stop-color="rgb(1.473999%, 63.792419%, 87.309265%)" offset="0.855469"/><stop stop-opacity="1" stop-color="rgb(1.434326%, 64.274597%, 87.652588%)" offset="0.859375"/><stop stop-opacity="1" stop-color="rgb(1.393127%, 64.755249%, 87.994385%)" offset="0.863281"/><stop stop-opacity="1" stop-color="rgb(1.353455%, 65.237427%, 88.337708%)" offset="0.867188"/><stop stop-opacity="1" stop-color="rgb(1.313782%, 65.718079%, 88.68103%)" offset="0.871094"/><stop stop-opacity="1" stop-color="rgb(1.274109%, 66.19873%, 89.024353%)" offset="0.875"/><stop stop-opacity="1" stop-color="rgb(1.234436%, 66.679382%, 89.36615%)" offset="0.878906"/><stop stop-opacity="1" stop-color="rgb(1.194763%, 67.16156%, 89.709473%)" offset="0.882812"/><stop stop-opacity="1" stop-color="rgb(1.15509%, 67.642212%, 90.052795%)" offset="0.886719"/><stop stop-opacity="1" stop-color="rgb(1.115417%, 68.12439%, 90.396118%)" offset="0.890625"/><stop stop-opacity="1" stop-color="rgb(1.074219%, 68.605042%, 90.739441%)" offset="0.894531"/><stop stop-opacity="1" stop-color="rgb(1.034546%, 69.087219%, 91.082764%)" offset="0.898438"/><stop stop-opacity="1" stop-color="rgb(0.994873%, 69.567871%, 91.424561%)" offset="0.902344"/><stop stop-opacity="1" stop-color="rgb(0.9552%, 70.048523%, 91.767883%)" offset="0.90625"/><stop stop-opacity="1" stop-color="rgb(0.915527%, 70.529175%, 92.111206%)" offset="0.910156"/><stop stop-opacity="1" stop-color="rgb(0.875854%, 71.011353%, 92.454529%)" offset="0.914062"/><stop stop-opacity="1" stop-color="rgb(0.836182%, 71.492004%, 92.796326%)" offset="0.917969"/><stop stop-opacity="1" stop-color="rgb(0.796509%, 71.974182%, 93.139648%)" offset="0.921875"/><stop stop-opacity="1" stop-color="rgb(0.756836%, 72.454834%, 93.482971%)" offset="0.925781"/><stop stop-opacity="1" stop-color="rgb(0.717163%, 72.937012%, 93.826294%)" offset="0.929688"/><stop stop-opacity="1" stop-color="rgb(0.675964%, 73.417664%, 94.168091%)" offset="0.933594"/><stop stop-opacity="1" stop-color="rgb(0.636292%, 73.899841%, 94.511414%)" offset="0.9375"/><stop stop-opacity="1" stop-color="rgb(0.596619%, 74.380493%, 94.854736%)" offset="0.941406"/><stop stop-opacity="1" stop-color="rgb(0.556946%, 74.861145%, 95.198059%)" offset="0.945313"/><stop stop-opacity="1" stop-color="rgb(0.517273%, 75.341797%, 95.539856%)" offset="0.949219"/><stop stop-opacity="1" stop-color="rgb(0.4776%, 75.823975%, 95.883179%)" offset="0.953125"/><stop stop-opacity="1" stop-color="rgb(0.437927%, 76.304626%, 96.226501%)" offset="0.957031"/><stop stop-opacity="1" stop-color="rgb(0.398254%, 76.786804%, 96.569824%)" offset="0.960938"/><stop stop-opacity="1" stop-color="rgb(0.357056%, 77.267456%, 96.911621%)" offset="0.964844"/><stop stop-opacity="1" stop-color="rgb(0.317383%, 77.749634%, 97.254944%)" offset="0.96875"/><stop stop-opacity="1" stop-color="rgb(0.27771%, 78.230286%, 97.598267%)" offset="0.972656"/><stop stop-opacity="1" stop-color="rgb(0.238037%, 78.712463%, 97.941589%)" offset="0.976563"/><stop stop-opacity="1" stop-color="rgb(0.198364%, 79.193115%, 98.283386%)" offset="0.980469"/><stop stop-opacity="1" stop-color="rgb(0.158691%, 79.673767%, 98.626709%)" offset="0.984375"/><stop stop-opacity="1" stop-color="rgb(0.119019%, 80.154419%, 98.970032%)" offset="0.988281"/><stop stop-opacity="1" stop-color="rgb(0.0793457%, 80.636597%, 99.313354%)" offset="0.992188"/><stop stop-opacity="1" stop-color="rgb(0.0396729%, 81.117249%, 99.655151%)" offset="0.996094"/><stop stop-opacity="1" stop-color="rgb(0%, 81.599426%, 99.998474%)" offset="1"/></linearGradient><clipPath id="ccf3168494"><path d="M 546 319 L 684.300781 319 L 684.300781 525 L 546 525 Z M 546 319 " clip-rule="nonzero"/></clipPath><clipPath id="ee91e4ea0e"><path d="M 328 186.394531 L 516 186.394531 L 516 369 L 328 369 Z M 328 186.394531 " clip-rule="nonzero"/></clipPath><clipPath id="7ff7837bc9"><path d="M 546 319 L 684.300781 319 L 684.300781 525 L 546 525 Z M 546 319 " clip-rule="nonzero"/></clipPath><clipPath id="b86cd3e2ce"><path d="M 328 186.394531 L 516 186.394531 L 516 369 L 328 369 Z M 328 186.394531 " clip-rule="nonzero"/></clipPath></defs><path fill="#ffffff" d="M 235.953125 515.332031 C 234.324219 515.332031 232.683594 515.117188 231.039062 514.652344 L 174.035156 498.78125 C 169.253906 497.449219 165.292969 494.332031 162.875 490 C 160.460938 485.671875 159.890625 480.660156 161.257812 475.902344 L 205.316406 323.109375 C 208.113281 313.421875 218.273438 307.746094 227.992188 310.449219 L 284.996094 326.320312 C 289.78125 327.652344 293.742188 330.769531 296.15625 335.101562 C 298.574219 339.433594 299.15625 344.441406 297.777344 349.210938 L 253.71875 502.007812 C 251.386719 510.039062 243.960938 515.332031 235.953125 515.332031 Z M 234.226562 503.195312 C 237.679688 504.160156 241.285156 502.136719 242.285156 498.699219 L 286.34375 345.90625 C 286.828125 344.214844 286.628906 342.429688 285.769531 340.894531 C 284.914062 339.359375 283.511719 338.253906 281.808594 337.777344 L 224.792969 321.90625 C 221.34375 320.941406 217.738281 322.964844 216.738281 326.402344 L 172.679688 479.199219 C 172.191406 480.886719 172.394531 482.671875 173.25 484.207031 C 174.109375 485.742188 175.511719 486.847656 177.214844 487.324219 Z M 234.226562 503.195312 " fill-opacity="1" fill-rule="nonzero"/><path fill="#ffffff" d="M 243.507812 383.894531 C 241.710938 383.894531 239.902344 383.644531 238.132812 383.15625 C 232.992188 381.730469 228.71875 378.386719 226.101562 373.746094 C 223.484375 369.105469 222.832031 363.714844 224.257812 358.585938 C 227.207031 347.988281 238.238281 341.765625 248.839844 344.714844 C 259.441406 347.664062 265.664062 358.695312 262.710938 369.296875 C 261.285156 374.4375 257.941406 378.707031 253.300781 381.324219 C 250.253906 383.027344 246.898438 383.894531 243.507812 383.894531 Z M 243.460938 355.875 C 242.09375 355.875 240.738281 356.230469 239.511719 356.921875 C 237.632812 357.980469 236.285156 359.707031 235.703125 361.777344 C 234.515625 366.058594 237.023438 370.507812 241.308594 371.699219 C 243.378906 372.28125 245.554688 372.007812 247.433594 370.949219 C 249.316406 369.890625 250.660156 368.164062 251.242188 366.09375 C 252.433594 361.8125 249.921875 357.363281 245.640625 356.171875 C 244.914062 355.96875 244.1875 355.875 243.460938 355.875 Z M 256.964844 367.691406 Z M 256.964844 367.691406 " fill-opacity="1" fill-rule="nonzero"/><g clip-path="url(#c99ebfbefa)"><path fill="#ffffff" d="M 608.613281 515.332031 C 600.59375 515.332031 593.167969 510.050781 590.847656 501.996094 L 546.789062 349.199219 C 545.421875 344.429688 545.992188 339.421875 548.40625 335.089844 C 550.824219 330.757812 554.785156 327.640625 559.566406 326.308594 L 616.582031 310.4375 C 626.292969 307.734375 636.464844 313.410156 639.261719 323.097656 L 683.320312 475.890625 C 684.6875 480.660156 684.117188 485.671875 681.703125 489.988281 C 679.285156 494.320312 675.324219 497.4375 670.542969 498.769531 L 613.527344 514.640625 C 611.882812 515.105469 610.230469 515.332031 608.613281 515.332031 Z M 621.507812 321.667969 C 620.925781 321.667969 620.34375 321.738281 619.761719 321.90625 L 562.746094 337.777344 C 561.042969 338.253906 559.640625 339.359375 558.78125 340.894531 C 557.925781 342.429688 557.722656 344.214844 558.210938 345.90625 L 602.269531 498.699219 C 603.257812 502.136719 606.875 504.160156 610.324219 503.195312 L 667.328125 487.324219 C 669.03125 486.847656 670.433594 485.742188 671.289062 484.207031 C 672.148438 482.671875 672.351562 480.886719 671.863281 479.199219 L 627.804688 326.402344 C 626.996094 323.535156 624.351562 321.667969 621.507812 321.667969 Z M 618.167969 316.171875 Z M 618.167969 316.171875 " fill-opacity="1" fill-rule="nonzero"/></g><path fill="#ffffff" d="M 600.640625 383.894531 C 591.90625 383.894531 583.863281 378.113281 581.414062 369.285156 C 579.984375 364.144531 580.640625 358.765625 583.257812 354.125 C 585.875 349.484375 590.144531 346.140625 595.285156 344.714844 C 605.886719 341.765625 616.917969 347.988281 619.867188 358.585938 C 622.816406 369.1875 616.59375 380.21875 605.996094 383.167969 C 604.199219 383.65625 602.402344 383.894531 600.640625 383.894531 Z M 600.628906 355.875 C 599.914062 355.875 599.1875 355.96875 598.476562 356.171875 C 596.40625 356.753906 594.679688 358.101562 593.621094 359.980469 C 592.5625 361.859375 592.300781 364.023438 592.871094 366.105469 C 593.453125 368.175781 594.796875 369.902344 596.679688 370.960938 C 598.546875 372.019531 600.722656 372.28125 602.804688 371.710938 C 607.089844 370.519531 609.597656 366.070312 608.410156 361.789062 C 607.398438 358.21875 604.160156 355.875 600.628906 355.875 Z M 600.628906 355.875 " fill-opacity="1" fill-rule="nonzero"/><path fill="#ffffff" d="M 538.292969 516.105469 C 535.105469 516.105469 532.464844 513.582031 532.359375 510.371094 C 532.238281 507.085938 534.796875 504.339844 538.082031 504.207031 C 538.378906 504.195312 567.777344 502.898438 590.742188 487.003906 C 593.441406 485.136719 597.152344 485.8125 599.023438 488.515625 C 600.890625 491.214844 600.210938 494.914062 597.511719 496.796875 C 571.621094 514.714844 539.851562 516.058594 538.519531 516.105469 C 538.4375 516.105469 538.367188 516.105469 538.292969 516.105469 Z M 538.292969 516.105469 " fill-opacity="1" fill-rule="nonzero"/><path fill="#ffffff" d="M 269.875 509.191406 C 268.351562 509.191406 266.828125 508.609375 265.664062 507.457031 L 248.03125 489.824219 C 245.710938 487.503906 245.710938 483.730469 248.03125 481.410156 C 250.351562 479.089844 254.121094 479.089844 256.441406 481.410156 L 274.074219 499.042969 C 276.394531 501.363281 276.394531 505.136719 274.074219 507.457031 C 272.921875 508.621094 271.398438 509.191406 269.875 509.191406 Z M 269.875 509.191406 " fill-opacity="1" fill-rule="nonzero"/><path fill="#ffffff" d="M 386.640625 615.847656 C 378.871094 615.847656 371.117188 612.894531 365.203125 606.984375 L 355.054688 596.832031 C 352.734375 594.515625 352.734375 590.742188 355.054688 588.421875 C 357.375 586.101562 361.144531 586.101562 363.464844 588.421875 L 373.613281 598.570312 C 380.800781 605.757812 392.484375 605.757812 399.671875 598.570312 C 403.15625 595.109375 405.074219 590.480469 405.074219 585.554688 C 405.074219 583.164062 404.621094 580.832031 403.726562 578.617188 C 402.8125 576.34375 401.457031 574.300781 399.683594 572.527344 C 397.363281 570.207031 397.363281 566.433594 399.683594 564.113281 C 402.003906 561.792969 405.773438 561.792969 408.09375 564.113281 L 430.6875 586.695312 C 437.875 593.882812 449.558594 593.882812 456.746094 586.695312 C 460.21875 583.222656 462.148438 578.582031 462.148438 573.667969 C 462.148438 568.753906 460.230469 564.125 456.746094 560.640625 C 454.425781 558.320312 454.425781 554.546875 456.746094 552.226562 C 459.066406 549.90625 462.835938 549.90625 465.15625 552.226562 C 470.878906 557.949219 474.035156 565.566406 474.035156 573.667969 C 474.035156 581.769531 470.878906 589.386719 465.15625 595.109375 C 453.332031 606.933594 434.089844 606.933594 422.277344 595.109375 L 416.71875 589.550781 C 415.863281 596.15625 412.867188 602.246094 408.082031 607.007812 C 402.15625 612.894531 394.398438 615.847656 386.640625 615.847656 Z M 386.640625 615.847656 " fill-opacity="1" fill-rule="nonzero"/><path fill="#ffffff" d="M 488.097656 579.414062 C 480.328125 579.414062 472.570312 576.464844 466.65625 570.550781 L 411.152344 515.058594 C 408.832031 512.738281 408.832031 508.96875 411.152344 506.648438 C 413.472656 504.328125 417.242188 504.328125 419.5625 506.648438 L 475.054688 562.140625 C 482.242188 569.324219 493.925781 569.324219 501.113281 562.140625 C 508.300781 554.953125 508.300781 543.269531 501.113281 536.082031 L 445.609375 480.589844 C 443.289062 478.269531 443.289062 474.5 445.609375 472.179688 C 447.929688 469.859375 451.699219 469.859375 454.019531 472.179688 L 509.523438 527.671875 C 521.351562 539.496094 521.351562 558.738281 509.523438 570.550781 C 503.625 576.464844 495.855469 579.414062 488.097656 579.414062 Z M 488.097656 579.414062 " fill-opacity="1" fill-rule="nonzero"/><path fill="#ffffff" d="M 514.238281 536.628906 C 506.132812 536.628906 498.519531 533.476562 492.796875 527.742188 C 490.476562 525.421875 490.476562 521.648438 492.796875 519.332031 C 495.117188 517.011719 498.886719 517.011719 501.207031 519.332031 C 504.695312 522.816406 509.3125 524.730469 514.238281 524.730469 C 519.164062 524.730469 523.777344 522.816406 527.265625 519.332031 C 530.027344 516.558594 531.808594 513.058594 532.417969 509.230469 C 532.582031 508.242188 532.667969 507.277344 532.667969 506.300781 C 532.667969 501.386719 530.75 496.757812 527.265625 493.261719 L 439.148438 405.144531 C 432.734375 398.730469 423.324219 396.28125 414.601562 398.730469 C 410.128906 399.992188 406.09375 402.46875 402.941406 405.894531 L 375.480469 435.710938 C 375.421875 435.769531 375.375 435.828125 375.316406 435.890625 C 362.394531 448.808594 341.382812 448.808594 328.460938 435.890625 C 318.085938 425.515625 315.742188 409.855469 322.617188 396.921875 C 331.449219 380.335938 346.699219 357.601562 369.257812 343.382812 C 369.34375 343.335938 369.425781 343.273438 369.507812 343.226562 C 388.058594 331.613281 408.390625 327.710938 429.925781 331.613281 C 433.164062 332.089844 477.996094 338.980469 513.164062 363.085938 L 551.273438 346.617188 C 554.296875 345.320312 557.796875 346.703125 559.09375 349.722656 C 560.402344 352.734375 559.007812 356.242188 555.988281 357.539062 L 514.820312 375.328125 C 512.890625 376.160156 510.667969 375.910156 508.976562 374.6875 C 475.34375 350.367188 428.59375 343.441406 428.128906 343.382812 C 428.058594 343.371094 427.976562 343.359375 427.90625 343.347656 C 409.25 339.945312 391.652344 343.335938 375.613281 353.449219 C 375.53125 353.496094 375.457031 353.542969 375.375 353.589844 C 355.148438 366.429688 341.238281 387.261719 333.125 402.515625 C 328.722656 410.796875 330.222656 420.828125 336.871094 427.476562 C 345.117188 435.722656 358.527344 435.757812 366.820312 427.5625 L 394.199219 397.839844 C 398.835938 392.792969 404.785156 389.140625 411.390625 387.285156 C 424.25 383.667969 438.125 387.285156 447.570312 396.734375 L 535.6875 484.851562 C 541.410156 490.585938 544.566406 498.199219 544.566406 506.289062 C 544.566406 507.933594 544.433594 509.5625 544.171875 511.132812 C 543.183594 517.402344 540.257812 523.160156 535.699219 527.730469 C 529.953125 533.476562 522.339844 536.628906 514.238281 536.628906 Z M 514.238281 536.628906 " fill-opacity="1" fill-rule="nonzero"/><path fill="#ffffff" d="M 289.839844 361.859375 C 287.128906 361.859375 284.675781 359.992188 284.046875 357.230469 C 283.320312 354.03125 285.320312 350.84375 288.519531 350.105469 C 327.199219 341.300781 370.6875 342.417969 372.578125 342.464844 C 375.792969 342.550781 378.386719 345.179688 378.386719 348.414062 C 378.386719 351.757812 375.613281 354.484375 372.257812 354.363281 C 370.472656 354.316406 328.414062 353.222656 291.160156 361.703125 C 290.71875 361.8125 290.28125 361.859375 289.839844 361.859375 Z M 289.839844 361.859375 " fill-opacity="1" fill-rule="nonzero"/><path fill="#ffffff" d="M 283.710938 532.847656 C 277.882812 532.847656 272.398438 530.574219 268.28125 526.457031 C 264.164062 522.339844 261.890625 516.855469 261.890625 511.023438 C 261.890625 505.195312 264.164062 499.722656 268.28125 495.59375 L 287.054688 476.820312 C 295.5625 468.3125 309.414062 468.3125 317.917969 476.820312 C 322.035156 480.933594 324.308594 486.421875 324.308594 492.25 C 324.308594 498.082031 322.035156 503.566406 317.917969 507.683594 C 315.597656 510.003906 311.828125 510.003906 309.507812 507.683594 C 307.1875 505.363281 307.1875 501.589844 309.507812 499.269531 C 311.386719 497.390625 312.410156 494.902344 312.410156 492.25 C 312.410156 489.597656 311.375 487.109375 309.507812 485.230469 C 305.640625 481.363281 299.347656 481.363281 295.46875 485.230469 L 276.691406 504.003906 C 274.8125 505.886719 273.789062 508.371094 273.789062 511.023438 C 273.789062 513.679688 274.824219 516.164062 276.691406 518.046875 C 278.574219 519.925781 281.058594 520.949219 283.710938 520.949219 C 286.367188 520.949219 288.851562 519.914062 290.730469 518.046875 C 293.050781 515.726562 296.824219 515.726562 299.144531 518.046875 C 301.464844 520.367188 301.464844 524.136719 299.144531 526.457031 C 295.015625 530.574219 289.542969 532.847656 283.710938 532.847656 Z M 283.710938 532.847656 " fill-opacity="1" fill-rule="nonzero"/><path fill="#ffffff" d="M 299.464844 561.984375 C 293.875 561.984375 288.292969 559.855469 284.035156 555.605469 C 279.917969 551.492188 277.644531 546.003906 277.644531 540.175781 C 277.644531 534.34375 279.917969 528.859375 284.035156 524.742188 L 309.496094 499.28125 C 318.003906 490.773438 331.851562 490.773438 340.359375 499.28125 C 344.476562 503.410156 346.75 508.882812 346.75 514.714844 C 346.75 520.542969 344.476562 526.027344 340.359375 530.144531 C 338.039062 532.464844 334.265625 532.464844 331.945312 530.144531 C 329.625 527.824219 329.625 524.054688 331.945312 521.734375 C 333.828125 519.855469 334.851562 517.367188 334.851562 514.714844 C 334.851562 512.058594 333.816406 509.574219 331.945312 507.695312 C 328.082031 503.828125 321.773438 503.828125 317.90625 507.695312 L 292.445312 533.15625 C 290.566406 535.035156 289.542969 537.523438 289.542969 540.175781 C 289.542969 542.828125 290.578125 545.316406 292.445312 547.195312 C 296.3125 551.0625 302.605469 551.0625 306.484375 547.195312 C 308.804688 544.875 312.578125 544.875 314.898438 547.195312 C 317.21875 549.515625 317.21875 553.285156 314.898438 555.605469 C 310.648438 559.855469 305.058594 561.984375 299.464844 561.984375 Z M 299.464844 561.984375 " fill-opacity="1" fill-rule="nonzero"/><path fill="#ffffff" d="M 314.527344 591.835938 C 308.699219 591.835938 303.214844 589.5625 299.097656 585.449219 C 294.980469 581.332031 292.707031 575.847656 292.707031 570.015625 C 292.707031 564.1875 294.980469 558.710938 299.097656 554.582031 L 331.957031 521.722656 C 340.464844 513.214844 354.316406 513.214844 362.824219 521.722656 C 366.9375 525.851562 369.210938 531.324219 369.210938 537.152344 C 369.210938 542.984375 366.9375 548.46875 362.824219 552.585938 L 329.960938 585.449219 C 325.832031 589.5625 320.359375 591.835938 314.527344 591.835938 Z M 347.378906 527.230469 C 344.832031 527.230469 342.296875 528.195312 340.359375 530.132812 L 307.496094 562.996094 C 305.617188 564.875 304.59375 567.363281 304.59375 570.015625 C 304.59375 572.667969 305.628906 575.15625 307.496094 577.035156 C 309.375 578.914062 311.863281 579.9375 314.515625 579.9375 C 317.167969 579.9375 319.65625 578.902344 321.535156 577.035156 L 354.398438 544.171875 C 356.277344 542.292969 357.300781 539.804688 357.300781 537.152344 C 357.300781 534.5 356.265625 532.011719 354.398438 530.132812 C 352.472656 528.195312 349.925781 527.230469 347.378906 527.230469 Z M 347.378906 527.230469 " fill-opacity="1" fill-rule="nonzero"/><path fill="#ffffff" d="M 346.511719 604.746094 C 340.679688 604.746094 335.195312 602.472656 331.078125 598.355469 C 326.960938 594.238281 324.6875 588.753906 324.6875 582.925781 C 324.6875 577.09375 326.960938 571.609375 331.078125 567.492188 C 333.398438 565.171875 337.171875 565.171875 339.492188 567.492188 C 341.808594 569.8125 341.808594 573.585938 339.492188 575.90625 C 337.609375 577.785156 336.585938 580.273438 336.585938 582.925781 C 336.585938 585.578125 337.621094 588.066406 339.492188 589.945312 C 341.371094 591.824219 343.855469 592.847656 346.511719 592.847656 C 349.164062 592.847656 351.648438 591.8125 353.53125 589.945312 L 376.851562 566.625 C 380.71875 562.757812 380.71875 556.453125 376.851562 552.585938 C 372.984375 548.71875 366.6875 548.71875 362.808594 552.585938 C 360.492188 554.90625 356.71875 554.90625 354.398438 552.585938 C 352.078125 550.265625 352.078125 546.492188 354.398438 544.171875 C 362.90625 535.667969 376.753906 535.667969 385.261719 544.171875 C 393.769531 552.679688 393.769531 566.53125 385.261719 575.035156 L 361.941406 598.355469 C 357.824219 602.472656 352.339844 604.746094 346.511719 604.746094 Z M 346.511719 604.746094 " fill-opacity="1" fill-rule="nonzero"/><g clip-path="url(#ecfc9aca02)"><path fill="#ffffff" d="M 482.46875 359.085938 C 481.21875 359.085938 479.957031 358.695312 478.886719 357.886719 C 476.269531 355.898438 475.746094 352.175781 477.734375 349.558594 C 494.808594 327.011719 503.824219 300 503.824219 271.480469 L 503.824219 220.953125 L 422.277344 189.242188 L 340.738281 220.9375 L 340.738281 271.46875 C 340.738281 297.980469 348.628906 323.417969 363.558594 345.035156 C 365.429688 347.738281 364.75 351.449219 362.050781 353.316406 C 359.347656 355.183594 355.636719 354.507812 353.769531 351.804688 C 337.457031 328.199219 328.828125 300.417969 328.828125 271.480469 L 328.828125 216.882812 C 328.828125 214.429688 330.339844 212.230469 332.625 211.335938 L 420.113281 177.332031 C 421.503906 176.796875 423.039062 176.796875 424.417969 177.332031 L 511.90625 211.335938 C 514.1875 212.230469 515.699219 214.429688 515.699219 216.882812 L 515.699219 271.480469 C 515.699219 302.621094 505.847656 332.101562 487.203125 356.742188 C 486.039062 358.265625 484.265625 359.085938 482.46875 359.085938 Z M 482.46875 359.085938 " fill-opacity="1" fill-rule="nonzero"/></g><path fill="#ffffff" d="M 451.84375 348.460938 C 450.402344 348.460938 448.964844 347.949219 447.820312 346.902344 C 445.394531 344.679688 445.238281 340.917969 447.453125 338.503906 C 464.277344 320.15625 473.546875 296.359375 473.546875 271.480469 L 473.546875 241.652344 L 422.277344 221.710938 L 371.007812 241.640625 L 371.007812 271.46875 C 371.007812 295.148438 379.492188 318.0625 394.898438 336.015625 C 397.042969 338.515625 396.753906 342.261719 394.257812 344.40625 C 391.769531 346.546875 388.011719 346.261719 385.867188 343.761719 C 368.605469 323.65625 359.097656 297.980469 359.097656 271.457031 L 359.097656 237.5625 C 359.097656 235.109375 360.609375 232.910156 362.894531 232.015625 L 420.113281 209.777344 C 421.503906 209.242188 423.039062 209.242188 424.417969 209.777344 L 481.636719 232.015625 C 483.921875 232.910156 485.429688 235.109375 485.429688 237.5625 L 485.429688 271.457031 C 485.429688 299.324219 475.054688 325.976562 456.222656 346.523438 C 455.054688 347.808594 453.449219 348.460938 451.84375 348.460938 Z M 451.84375 348.460938 " fill-opacity="1" fill-rule="nonzero"/><path fill="#ffffff" d="M 410.628906 310.375 C 409.105469 310.375 407.582031 309.792969 406.417969 308.640625 L 389.855469 292.078125 C 387.535156 289.757812 387.535156 285.984375 389.855469 283.664062 C 392.175781 281.34375 395.945312 281.34375 398.265625 283.664062 L 410.628906 296.027344 L 446.289062 260.371094 C 448.605469 258.050781 452.378906 258.050781 454.699219 260.371094 C 457.019531 262.691406 457.019531 266.460938 454.699219 268.78125 L 414.828125 308.652344 C 413.675781 309.792969 412.152344 310.375 410.628906 310.375 Z M 410.628906 310.375 " fill-opacity="1" fill-rule="nonzero"/><g clip-path="url(#cb379a5b4a)"><g clip-path="url(#1851af4dbc)"><path fill="url(#bd74759165)" d="M 89.425781 89.425781 L 89.425781 720.574219 L 720.574219 720.574219 L 720.574219 89.425781 Z M 89.425781 89.425781 " fill-rule="nonzero"/></g></g><path fill="#ffffff" d="M 235.953125 524.976562 C 234.324219 524.976562 232.683594 524.765625 231.039062 524.300781 L 174.035156 508.425781 C 169.253906 507.09375 165.292969 503.976562 162.875 499.648438 C 160.460938 495.316406 159.890625 490.308594 161.257812 485.546875 L 205.316406 332.753906 C 208.113281 323.066406 218.273438 317.394531 227.992188 320.09375 L 284.996094 335.964844 C 289.78125 337.296875 293.742188 340.414062 296.15625 344.746094 C 298.574219 349.078125 299.15625 354.085938 297.777344 358.859375 L 253.71875 511.652344 C 251.386719 519.683594 243.960938 524.976562 235.953125 524.976562 Z M 234.226562 512.84375 C 237.679688 513.804688 241.285156 511.78125 242.285156 508.34375 L 286.34375 355.550781 C 286.828125 353.859375 286.628906 352.074219 285.769531 350.539062 C 284.914062 349.007812 283.511719 347.898438 281.808594 347.421875 L 224.792969 331.550781 C 221.34375 330.585938 217.738281 332.609375 216.738281 336.050781 L 172.679688 488.84375 C 172.191406 490.53125 172.394531 492.316406 173.25 493.851562 C 174.109375 495.386719 175.511719 496.492188 177.214844 496.96875 Z M 234.226562 512.84375 " fill-opacity="1" fill-rule="nonzero"/><path fill="#ffffff" d="M 243.507812 393.539062 C 241.710938 393.539062 239.902344 393.289062 238.132812 392.800781 C 232.992188 391.375 228.71875 388.03125 226.101562 383.390625 C 223.484375 378.75 222.832031 373.359375 224.257812 368.234375 C 227.207031 357.632812 238.238281 351.410156 248.839844 354.359375 C 259.441406 357.3125 265.664062 368.339844 262.710938 378.941406 C 261.285156 384.082031 257.941406 388.351562 253.300781 390.96875 C 250.253906 392.671875 246.898438 393.539062 243.507812 393.539062 Z M 243.460938 365.519531 C 242.09375 365.519531 240.738281 365.878906 239.511719 366.566406 C 237.632812 367.625 236.285156 369.351562 235.703125 371.421875 C 234.515625 375.707031 237.023438 380.15625 241.308594 381.34375 C 243.378906 381.929688 245.554688 381.652344 247.433594 380.59375 C 249.316406 379.535156 250.660156 377.8125 251.242188 375.742188 C 252.433594 371.457031 249.921875 367.007812 245.640625 365.816406 C 244.914062 365.617188 244.1875 365.519531 243.460938 365.519531 Z M 256.964844 377.335938 Z M 256.964844 377.335938 " fill-opacity="1" fill-rule="nonzero"/><g clip-path="url(#ccf3168494)"><path fill="#ffffff" d="M 608.613281 524.976562 C 600.59375 524.976562 593.167969 519.695312 590.847656 511.640625 L 546.789062 358.84375 C 545.421875 354.074219 545.992188 349.066406 548.40625 344.734375 C 550.824219 340.402344 554.785156 337.285156 559.566406 335.953125 L 616.582031 320.082031 C 626.292969 317.382812 636.464844 323.054688 639.261719 332.742188 L 683.320312 485.535156 C 684.6875 490.308594 684.117188 495.316406 681.703125 499.636719 C 679.285156 503.964844 675.324219 507.082031 670.542969 508.414062 L 613.527344 524.289062 C 611.882812 524.75 610.230469 524.976562 608.613281 524.976562 Z M 621.507812 331.3125 C 620.925781 331.3125 620.34375 331.386719 619.761719 331.550781 L 562.746094 347.421875 C 561.042969 347.898438 559.640625 349.007812 558.78125 350.539062 C 557.925781 352.074219 557.722656 353.859375 558.210938 355.550781 L 602.269531 508.34375 C 603.257812 511.78125 606.875 513.804688 610.324219 512.84375 L 667.328125 496.96875 C 669.03125 496.492188 670.433594 495.386719 671.289062 493.851562 C 672.148438 492.316406 672.351562 490.53125 671.863281 488.84375 L 627.804688 336.050781 C 626.996094 333.179688 624.351562 331.3125 621.507812 331.3125 Z M 618.167969 325.816406 Z M 618.167969 325.816406 " fill-opacity="1" fill-rule="nonzero"/></g><path fill="#ffffff" d="M 600.640625 393.539062 C 591.90625 393.539062 583.863281 387.757812 581.414062 378.929688 C 579.984375 373.789062 580.640625 368.410156 583.257812 363.769531 C 585.875 359.132812 590.144531 355.789062 595.285156 354.359375 C 605.886719 351.410156 616.917969 357.632812 619.867188 368.234375 C 622.816406 378.835938 616.59375 389.863281 605.996094 392.816406 C 604.199219 393.300781 602.402344 393.539062 600.640625 393.539062 Z M 600.628906 365.519531 C 599.914062 365.519531 599.1875 365.617188 598.476562 365.816406 C 596.40625 366.402344 594.679688 367.746094 593.621094 369.625 C 592.5625 371.503906 592.300781 373.671875 592.871094 375.753906 C 593.453125 377.824219 594.796875 379.546875 596.679688 380.605469 C 598.546875 381.667969 600.722656 381.929688 602.804688 381.355469 C 607.089844 380.167969 609.597656 375.71875 608.410156 371.433594 C 607.398438 367.863281 604.160156 365.519531 600.628906 365.519531 Z M 600.628906 365.519531 " fill-opacity="1" fill-rule="nonzero"/><path fill="#ffffff" d="M 538.292969 525.75 C 535.105469 525.75 532.464844 523.230469 532.359375 520.015625 C 532.238281 516.734375 534.796875 513.984375 538.082031 513.851562 C 538.378906 513.839844 567.777344 512.542969 590.742188 496.648438 C 593.441406 494.78125 597.152344 495.457031 599.023438 498.160156 C 600.890625 500.859375 600.210938 504.5625 597.511719 506.441406 C 571.621094 524.359375 539.851562 525.703125 538.519531 525.75 C 538.4375 525.75 538.367188 525.75 538.292969 525.75 Z M 538.292969 525.75 " fill-opacity="1" fill-rule="nonzero"/><path fill="#ffffff" d="M 269.875 518.839844 C 268.351562 518.839844 266.828125 518.253906 265.664062 517.101562 L 248.03125 499.46875 C 245.710938 497.148438 245.710938 493.375 248.03125 491.054688 C 250.351562 488.738281 254.121094 488.738281 256.441406 491.054688 L 274.074219 508.6875 C 276.394531 511.007812 276.394531 514.78125 274.074219 517.101562 C 272.921875 518.265625 271.398438 518.839844 269.875 518.839844 Z M 269.875 518.839844 " fill-opacity="1" fill-rule="nonzero"/><path fill="#ffffff" d="M 386.640625 625.492188 C 378.871094 625.492188 371.117188 622.542969 365.203125 616.628906 L 355.054688 606.480469 C 352.734375 604.160156 352.734375 600.386719 355.054688 598.066406 C 357.375 595.746094 361.144531 595.746094 363.464844 598.066406 L 373.613281 608.214844 C 380.800781 615.402344 392.484375 615.402344 399.671875 608.214844 C 403.15625 604.753906 405.074219 600.125 405.074219 595.199219 C 405.074219 592.808594 404.621094 590.476562 403.726562 588.261719 C 402.8125 585.992188 401.457031 583.945312 399.683594 582.171875 C 397.363281 579.851562 397.363281 576.078125 399.683594 573.757812 C 402.003906 571.441406 405.773438 571.441406 408.09375 573.757812 L 430.6875 596.34375 C 437.875 603.527344 449.558594 603.527344 456.746094 596.34375 C 460.21875 592.867188 462.148438 588.226562 462.148438 583.3125 C 462.148438 578.398438 460.230469 573.773438 456.746094 570.285156 C 454.425781 567.964844 454.425781 564.195312 456.746094 561.875 C 459.066406 559.554688 462.835938 559.554688 465.15625 561.875 C 470.878906 567.597656 474.035156 575.210938 474.035156 583.3125 C 474.035156 591.417969 470.878906 599.03125 465.15625 604.753906 C 453.332031 616.582031 434.089844 616.582031 422.277344 604.753906 L 416.71875 599.199219 C 415.863281 605.800781 412.867188 611.894531 408.082031 616.652344 C 402.15625 622.542969 394.398438 625.492188 386.640625 625.492188 Z M 386.640625 625.492188 " fill-opacity="1" fill-rule="nonzero"/><path fill="#ffffff" d="M 488.097656 589.0625 C 480.328125 589.0625 472.570312 586.109375 466.65625 580.195312 L 411.152344 524.703125 C 408.832031 522.382812 408.832031 518.613281 411.152344 516.292969 C 413.472656 513.972656 417.242188 513.972656 419.5625 516.292969 L 475.054688 571.785156 C 482.242188 578.972656 493.925781 578.972656 501.113281 571.785156 C 508.300781 564.597656 508.300781 552.914062 501.113281 545.726562 L 445.609375 490.234375 C 443.289062 487.914062 443.289062 484.144531 445.609375 481.824219 C 447.929688 479.503906 451.699219 479.503906 454.019531 481.824219 L 509.523438 537.316406 C 521.351562 549.144531 521.351562 568.382812 509.523438 580.195312 C 503.625 586.109375 495.855469 589.0625 488.097656 589.0625 Z M 488.097656 589.0625 " fill-opacity="1" fill-rule="nonzero"/><path fill="#ffffff" d="M 514.238281 546.273438 C 506.132812 546.273438 498.519531 543.121094 492.796875 537.386719 C 490.476562 535.066406 490.476562 531.296875 492.796875 528.976562 C 495.117188 526.65625 498.886719 526.65625 501.207031 528.976562 C 504.695312 532.460938 509.3125 534.378906 514.238281 534.378906 C 519.164062 534.378906 523.777344 532.460938 527.265625 528.976562 C 530.027344 526.203125 531.808594 522.707031 532.417969 518.875 C 532.582031 517.886719 532.667969 516.921875 532.667969 515.945312 C 532.667969 511.035156 530.75 506.40625 527.265625 502.90625 L 439.148438 414.789062 C 432.734375 408.378906 423.324219 405.925781 414.601562 408.378906 C 410.128906 409.636719 406.09375 412.113281 402.941406 415.539062 L 375.480469 445.355469 C 375.421875 445.414062 375.375 445.476562 375.316406 445.535156 C 362.394531 458.457031 341.382812 458.457031 328.460938 445.535156 C 318.085938 435.160156 315.742188 419.5 322.617188 406.570312 C 331.449219 389.984375 346.699219 367.246094 369.257812 353.027344 C 369.34375 352.980469 369.425781 352.921875 369.507812 352.871094 C 388.058594 341.261719 408.390625 337.359375 429.925781 341.261719 C 433.164062 341.734375 477.996094 348.625 513.164062 372.730469 L 551.273438 356.265625 C 554.296875 354.96875 557.796875 356.347656 559.09375 359.367188 C 560.402344 362.378906 559.007812 365.890625 555.988281 367.1875 L 514.820312 384.972656 C 512.890625 385.804688 510.667969 385.558594 508.976562 384.332031 C 475.34375 360.011719 428.59375 353.085938 428.128906 353.027344 C 428.058594 353.015625 427.976562 353.003906 427.90625 352.992188 C 409.25 349.589844 391.652344 352.980469 375.613281 363.09375 C 375.53125 363.140625 375.457031 363.1875 375.375 363.234375 C 355.148438 376.074219 341.238281 396.90625 333.125 412.160156 C 328.722656 420.441406 330.222656 430.472656 336.871094 437.121094 C 345.117188 445.367188 358.527344 445.402344 366.820312 437.207031 L 394.199219 407.484375 C 398.835938 402.441406 404.785156 398.789062 411.390625 396.929688 C 424.25 393.3125 438.125 396.929688 447.570312 406.378906 L 535.6875 494.496094 C 541.410156 500.230469 544.566406 507.84375 544.566406 515.933594 C 544.566406 517.578125 544.433594 519.207031 544.171875 520.777344 C 543.183594 527.046875 540.257812 532.808594 535.699219 537.375 C 529.953125 543.121094 522.339844 546.273438 514.238281 546.273438 Z M 514.238281 546.273438 " fill-opacity="1" fill-rule="nonzero"/><path fill="#ffffff" d="M 289.839844 371.503906 C 287.128906 371.503906 284.675781 369.636719 284.046875 366.875 C 283.320312 363.675781 285.320312 360.488281 288.519531 359.75 C 327.199219 350.945312 370.6875 352.0625 372.578125 352.109375 C 375.792969 352.195312 378.386719 354.824219 378.386719 358.058594 C 378.386719 361.402344 375.613281 364.128906 372.257812 364.007812 C 370.472656 363.960938 328.414062 362.867188 291.160156 371.351562 C 290.71875 371.457031 290.28125 371.503906 289.839844 371.503906 Z M 289.839844 371.503906 " fill-opacity="1" fill-rule="nonzero"/><path fill="#ffffff" d="M 283.710938 542.492188 C 277.882812 542.492188 272.398438 540.21875 268.28125 536.101562 C 264.164062 531.984375 261.890625 526.5 261.890625 520.671875 C 261.890625 514.839844 264.164062 509.367188 268.28125 505.238281 L 287.054688 486.464844 C 295.5625 477.957031 309.414062 477.957031 317.917969 486.464844 C 322.035156 490.582031 324.308594 496.066406 324.308594 501.894531 C 324.308594 507.726562 322.035156 513.210938 317.917969 517.328125 C 315.597656 519.648438 311.828125 519.648438 309.507812 517.328125 C 307.1875 515.007812 307.1875 511.234375 309.507812 508.914062 C 311.386719 507.035156 312.410156 504.550781 312.410156 501.894531 C 312.410156 499.242188 311.375 496.753906 309.507812 494.875 C 305.640625 491.007812 299.347656 491.007812 295.46875 494.875 L 276.691406 513.652344 C 274.8125 515.53125 273.789062 518.015625 273.789062 520.671875 C 273.789062 523.324219 274.824219 525.8125 276.691406 527.691406 C 278.574219 529.570312 281.058594 530.59375 283.710938 530.59375 C 286.367188 530.59375 288.851562 529.558594 290.730469 527.691406 C 293.050781 525.371094 296.824219 525.371094 299.144531 527.691406 C 301.464844 530.011719 301.464844 533.78125 299.144531 536.101562 C 295.015625 540.21875 289.542969 542.492188 283.710938 542.492188 Z M 283.710938 542.492188 " fill-opacity="1" fill-rule="nonzero"/><path fill="#ffffff" d="M 299.464844 571.628906 C 293.875 571.628906 288.292969 569.5 284.035156 565.253906 C 279.917969 561.136719 277.644531 555.652344 277.644531 549.820312 C 277.644531 543.992188 279.917969 538.507812 284.035156 534.390625 L 309.496094 508.925781 C 318.003906 500.421875 331.851562 500.421875 340.359375 508.925781 C 344.476562 513.054688 346.75 518.527344 346.75 524.359375 C 346.75 530.1875 344.476562 535.675781 340.359375 539.789062 C 338.039062 542.109375 334.265625 542.109375 331.945312 539.789062 C 329.625 537.472656 329.625 533.699219 331.945312 531.378906 C 333.828125 529.5 334.851562 527.011719 334.851562 524.359375 C 334.851562 521.707031 333.816406 519.21875 331.945312 517.339844 C 328.082031 513.472656 321.773438 513.472656 317.90625 517.339844 L 292.445312 542.800781 C 290.566406 544.679688 289.542969 547.167969 289.542969 549.820312 C 289.542969 552.472656 290.578125 554.960938 292.445312 556.839844 C 296.3125 560.707031 302.605469 560.707031 306.484375 556.839844 C 308.804688 554.519531 312.578125 554.519531 314.898438 556.839844 C 317.21875 559.160156 317.21875 562.933594 314.898438 565.253906 C 310.648438 569.5 305.058594 571.628906 299.464844 571.628906 Z M 299.464844 571.628906 " fill-opacity="1" fill-rule="nonzero"/><path fill="#ffffff" d="M 314.527344 601.480469 C 308.699219 601.480469 303.214844 599.210938 299.097656 595.09375 C 294.980469 590.976562 292.707031 585.492188 292.707031 579.660156 C 292.707031 573.832031 294.980469 568.359375 299.097656 564.230469 L 331.957031 531.367188 C 340.464844 522.859375 354.316406 522.859375 362.824219 531.367188 C 366.9375 535.496094 369.210938 540.96875 369.210938 546.796875 C 369.210938 552.628906 366.9375 558.113281 362.824219 562.230469 L 329.960938 595.09375 C 325.832031 599.210938 320.359375 601.480469 314.527344 601.480469 Z M 347.378906 536.875 C 344.832031 536.875 342.296875 537.839844 340.359375 539.777344 L 307.496094 572.640625 C 305.617188 574.519531 304.59375 577.007812 304.59375 579.660156 C 304.59375 582.3125 305.628906 584.800781 307.496094 586.679688 C 309.375 588.5625 311.863281 589.585938 314.515625 589.585938 C 317.167969 589.585938 319.65625 588.550781 321.535156 586.679688 L 354.398438 553.820312 C 356.277344 551.9375 357.300781 549.453125 357.300781 546.796875 C 357.300781 544.144531 356.265625 541.660156 354.398438 539.777344 C 352.472656 537.839844 349.925781 536.875 347.378906 536.875 Z M 347.378906 536.875 " fill-opacity="1" fill-rule="nonzero"/><path fill="#ffffff" d="M 346.511719 614.390625 C 340.679688 614.390625 335.195312 612.117188 331.078125 608.003906 C 326.960938 603.886719 324.6875 598.402344 324.6875 592.570312 C 324.6875 586.742188 326.960938 581.253906 331.078125 577.140625 C 333.398438 574.820312 337.171875 574.820312 339.492188 577.140625 C 341.808594 579.457031 341.808594 583.230469 339.492188 585.550781 C 337.609375 587.429688 336.585938 589.917969 336.585938 592.570312 C 336.585938 595.222656 337.621094 597.710938 339.492188 599.589844 C 341.371094 601.46875 343.855469 602.492188 346.511719 602.492188 C 349.164062 602.492188 351.648438 601.457031 353.53125 599.589844 L 376.851562 576.269531 C 380.71875 572.402344 380.71875 566.097656 376.851562 562.230469 C 372.984375 558.363281 366.6875 558.363281 362.808594 562.230469 C 360.492188 564.550781 356.71875 564.550781 354.398438 562.230469 C 352.078125 559.910156 352.078125 556.140625 354.398438 553.820312 C 362.90625 545.3125 376.753906 545.3125 385.261719 553.820312 C 393.769531 562.324219 393.769531 576.175781 385.261719 584.683594 L 361.941406 608.003906 C 357.824219 612.117188 352.339844 614.390625 346.511719 614.390625 Z M 346.511719 614.390625 " fill-opacity="1" fill-rule="nonzero"/><g clip-path="url(#ee91e4ea0e)"><path fill="#ffffff" d="M 482.46875 368.734375 C 481.21875 368.734375 479.957031 368.339844 478.886719 367.53125 C 476.269531 365.542969 475.746094 361.820312 477.734375 359.203125 C 494.808594 336.65625 503.824219 309.648438 503.824219 281.128906 L 503.824219 230.597656 L 422.277344 198.886719 L 340.738281 230.585938 L 340.738281 281.117188 C 340.738281 307.625 348.628906 333.0625 363.558594 354.679688 C 365.429688 357.382812 364.75 361.09375 362.050781 362.960938 C 359.347656 364.832031 355.636719 364.152344 353.769531 361.453125 C 337.457031 337.84375 328.828125 310.0625 328.828125 281.128906 L 328.828125 226.527344 C 328.828125 224.078125 330.339844 221.875 332.625 220.984375 L 420.113281 186.980469 C 421.503906 186.441406 423.039062 186.441406 424.417969 186.980469 L 511.90625 220.984375 C 514.1875 221.875 515.699219 224.078125 515.699219 226.527344 L 515.699219 281.128906 C 515.699219 312.265625 505.847656 341.75 487.203125 366.390625 C 486.039062 367.910156 484.265625 368.734375 482.46875 368.734375 Z M 482.46875 368.734375 " fill-opacity="1" fill-rule="nonzero"/></g><path fill="#ffffff" d="M 451.84375 358.109375 C 450.402344 358.109375 448.964844 357.597656 447.820312 356.550781 C 445.394531 354.324219 445.238281 350.566406 447.453125 348.148438 C 464.277344 329.800781 473.546875 306.007812 473.546875 281.128906 L 473.546875 251.300781 L 422.277344 231.359375 L 371.007812 251.289062 L 371.007812 281.117188 C 371.007812 304.792969 379.492188 327.707031 394.898438 345.664062 C 397.042969 348.160156 396.753906 351.910156 394.257812 354.050781 C 391.769531 356.191406 388.011719 355.90625 385.867188 353.410156 C 368.605469 333.300781 359.097656 307.625 359.097656 281.105469 L 359.097656 247.207031 C 359.097656 244.753906 360.609375 242.554688 362.894531 241.660156 L 420.113281 219.425781 C 421.503906 218.890625 423.039062 218.890625 424.417969 219.425781 L 481.636719 241.660156 C 483.921875 242.554688 485.429688 244.753906 485.429688 247.207031 L 485.429688 281.105469 C 485.429688 308.96875 475.054688 335.621094 456.222656 356.167969 C 455.054688 357.453125 453.449219 358.109375 451.84375 358.109375 Z M 451.84375 358.109375 " fill-opacity="1" fill-rule="nonzero"/><path fill="#ffffff" d="M 410.628906 320.023438 C 409.105469 320.023438 407.582031 319.4375 406.417969 318.285156 L 389.855469 301.722656 C 387.535156 299.402344 387.535156 295.632812 389.855469 293.3125 C 392.175781 290.992188 395.945312 290.992188 398.265625 293.3125 L 410.628906 305.671875 L 446.289062 270.015625 C 448.605469 267.695312 452.378906 267.695312 454.699219 270.015625 C 457.019531 272.335938 457.019531 276.105469 454.699219 278.425781 L 414.828125 318.296875 C 413.675781 319.4375 412.152344 320.023438 410.628906 320.023438 Z M 410.628906 320.023438 " fill-opacity="1" fill-rule="nonzero"/><path fill="#ffffff" d="M 235.953125 524.976562 C 234.324219 524.976562 232.683594 524.765625 231.039062 524.300781 L 174.035156 508.425781 C 169.253906 507.09375 165.292969 503.976562 162.875 499.648438 C 160.460938 495.316406 159.890625 490.308594 161.257812 485.546875 L 205.316406 332.753906 C 208.113281 323.066406 218.273438 317.394531 227.992188 320.09375 L 284.996094 335.964844 C 289.78125 337.296875 293.742188 340.414062 296.15625 344.746094 C 298.574219 349.078125 299.15625 354.085938 297.777344 358.859375 L 253.71875 511.652344 C 251.386719 519.683594 243.960938 524.976562 235.953125 524.976562 Z M 234.226562 512.84375 C 237.679688 513.804688 241.285156 511.78125 242.285156 508.34375 L 286.34375 355.550781 C 286.828125 353.859375 286.628906 352.074219 285.769531 350.539062 C 284.914062 349.007812 283.511719 347.898438 281.808594 347.421875 L 224.792969 331.550781 C 221.34375 330.585938 217.738281 332.609375 216.738281 336.050781 L 172.679688 488.84375 C 172.191406 490.53125 172.394531 492.316406 173.25 493.851562 C 174.109375 495.386719 175.511719 496.492188 177.214844 496.96875 Z M 234.226562 512.84375 " fill-opacity="1" fill-rule="nonzero"/><path fill="#ffffff" d="M 243.507812 393.539062 C 241.710938 393.539062 239.902344 393.289062 238.132812 392.800781 C 232.992188 391.375 228.71875 388.03125 226.101562 383.390625 C 223.484375 378.75 222.832031 373.359375 224.257812 368.234375 C 227.207031 357.632812 238.238281 351.410156 248.839844 354.359375 C 259.441406 357.3125 265.664062 368.339844 262.710938 378.941406 C 261.285156 384.082031 257.941406 388.351562 253.300781 390.96875 C 250.253906 392.671875 246.898438 393.539062 243.507812 393.539062 Z M 243.460938 365.519531 C 242.09375 365.519531 240.738281 365.878906 239.511719 366.566406 C 237.632812 367.625 236.285156 369.351562 235.703125 371.421875 C 234.515625 375.707031 237.023438 380.15625 241.308594 381.34375 C 243.378906 381.929688 245.554688 381.652344 247.433594 380.59375 C 249.316406 379.535156 250.660156 377.8125 251.242188 375.742188 C 252.433594 371.457031 249.921875 367.007812 245.640625 365.816406 C 244.914062 365.617188 244.1875 365.519531 243.460938 365.519531 Z M 256.964844 377.335938 Z M 256.964844 377.335938 " fill-opacity="1" fill-rule="nonzero"/><g clip-path="url(#7ff7837bc9)"><path fill="#ffffff" d="M 608.613281 524.976562 C 600.59375 524.976562 593.167969 519.695312 590.847656 511.640625 L 546.789062 358.84375 C 545.421875 354.074219 545.992188 349.066406 548.40625 344.734375 C 550.824219 340.402344 554.785156 337.285156 559.566406 335.953125 L 616.582031 320.082031 C 626.292969 317.382812 636.464844 323.054688 639.261719 332.742188 L 683.320312 485.535156 C 684.6875 490.308594 684.117188 495.316406 681.703125 499.636719 C 679.285156 503.964844 675.324219 507.082031 670.542969 508.414062 L 613.527344 524.289062 C 611.882812 524.75 610.230469 524.976562 608.613281 524.976562 Z M 621.507812 331.3125 C 620.925781 331.3125 620.34375 331.386719 619.761719 331.550781 L 562.746094 347.421875 C 561.042969 347.898438 559.640625 349.007812 558.78125 350.539062 C 557.925781 352.074219 557.722656 353.859375 558.210938 355.550781 L 602.269531 508.34375 C 603.257812 511.78125 606.875 513.804688 610.324219 512.84375 L 667.328125 496.96875 C 669.03125 496.492188 670.433594 495.386719 671.289062 493.851562 C 672.148438 492.316406 672.351562 490.53125 671.863281 488.84375 L 627.804688 336.050781 C 626.996094 333.179688 624.351562 331.3125 621.507812 331.3125 Z M 618.167969 325.816406 Z M 618.167969 325.816406 " fill-opacity="1" fill-rule="nonzero"/></g><path fill="#ffffff" d="M 600.640625 393.539062 C 591.90625 393.539062 583.863281 387.757812 581.414062 378.929688 C 579.984375 373.789062 580.640625 368.410156 583.257812 363.769531 C 585.875 359.132812 590.144531 355.789062 595.285156 354.359375 C 605.886719 351.410156 616.917969 357.632812 619.867188 368.234375 C 622.816406 378.835938 616.59375 389.863281 605.996094 392.816406 C 604.199219 393.300781 602.402344 393.539062 600.640625 393.539062 Z M 600.628906 365.519531 C 599.914062 365.519531 599.1875 365.617188 598.476562 365.816406 C 596.40625 366.402344 594.679688 367.746094 593.621094 369.625 C 592.5625 371.503906 592.300781 373.671875 592.871094 375.753906 C 593.453125 377.824219 594.796875 379.546875 596.679688 380.605469 C 598.546875 381.667969 600.722656 381.929688 602.804688 381.355469 C 607.089844 380.167969 609.597656 375.71875 608.410156 371.433594 C 607.398438 367.863281 604.160156 365.519531 600.628906 365.519531 Z M 600.628906 365.519531 " fill-opacity="1" fill-rule="nonzero"/><path fill="#ffffff" d="M 538.292969 525.75 C 535.105469 525.75 532.464844 523.230469 532.359375 520.015625 C 532.238281 516.734375 534.796875 513.984375 538.082031 513.851562 C 538.378906 513.839844 567.777344 512.542969 590.742188 496.648438 C 593.441406 494.78125 597.152344 495.457031 599.023438 498.160156 C 600.890625 500.859375 600.210938 504.5625 597.511719 506.441406 C 571.621094 524.359375 539.851562 525.703125 538.519531 525.75 C 538.4375 525.75 538.367188 525.75 538.292969 525.75 Z M 538.292969 525.75 " fill-opacity="1" fill-rule="nonzero"/><path fill="#ffffff" d="M 269.875 518.839844 C 268.351562 518.839844 266.828125 518.253906 265.664062 517.101562 L 248.03125 499.46875 C 245.710938 497.148438 245.710938 493.375 248.03125 491.054688 C 250.351562 488.738281 254.121094 488.738281 256.441406 491.054688 L 274.074219 508.6875 C 276.394531 511.007812 276.394531 514.78125 274.074219 517.101562 C 272.921875 518.265625 271.398438 518.839844 269.875 518.839844 Z M 269.875 518.839844 " fill-opacity="1" fill-rule="nonzero"/><path fill="#ffffff" d="M 386.640625 625.492188 C 378.871094 625.492188 371.117188 622.542969 365.203125 616.628906 L 355.054688 606.480469 C 352.734375 604.160156 352.734375 600.386719 355.054688 598.066406 C 357.375 595.746094 361.144531 595.746094 363.464844 598.066406 L 373.613281 608.214844 C 380.800781 615.402344 392.484375 615.402344 399.671875 608.214844 C 403.15625 604.753906 405.074219 600.125 405.074219 595.199219 C 405.074219 592.808594 404.621094 590.476562 403.726562 588.261719 C 402.8125 585.992188 401.457031 583.945312 399.683594 582.171875 C 397.363281 579.851562 397.363281 576.078125 399.683594 573.757812 C 402.003906 571.441406 405.773438 571.441406 408.09375 573.757812 L 430.6875 596.34375 C 437.875 603.527344 449.558594 603.527344 456.746094 596.34375 C 460.21875 592.867188 462.148438 588.226562 462.148438 583.3125 C 462.148438 578.398438 460.230469 573.773438 456.746094 570.285156 C 454.425781 567.964844 454.425781 564.195312 456.746094 561.875 C 459.066406 559.554688 462.835938 559.554688 465.15625 561.875 C 470.878906 567.597656 474.035156 575.210938 474.035156 583.3125 C 474.035156 591.417969 470.878906 599.03125 465.15625 604.753906 C 453.332031 616.582031 434.089844 616.582031 422.277344 604.753906 L 416.71875 599.199219 C 415.863281 605.800781 412.867188 611.894531 408.082031 616.652344 C 402.15625 622.542969 394.398438 625.492188 386.640625 625.492188 Z M 386.640625 625.492188 " fill-opacity="1" fill-rule="nonzero"/><path fill="#ffffff" d="M 488.097656 589.0625 C 480.328125 589.0625 472.570312 586.109375 466.65625 580.195312 L 411.152344 524.703125 C 408.832031 522.382812 408.832031 518.613281 411.152344 516.292969 C 413.472656 513.972656 417.242188 513.972656 419.5625 516.292969 L 475.054688 571.785156 C 482.242188 578.972656 493.925781 578.972656 501.113281 571.785156 C 508.300781 564.597656 508.300781 552.914062 501.113281 545.726562 L 445.609375 490.234375 C 443.289062 487.914062 443.289062 484.144531 445.609375 481.824219 C 447.929688 479.503906 451.699219 479.503906 454.019531 481.824219 L 509.523438 537.316406 C 521.351562 549.144531 521.351562 568.382812 509.523438 580.195312 C 503.625 586.109375 495.855469 589.0625 488.097656 589.0625 Z M 488.097656 589.0625 " fill-opacity="1" fill-rule="nonzero"/><path fill="#ffffff" d="M 514.238281 546.273438 C 506.132812 546.273438 498.519531 543.121094 492.796875 537.386719 C 490.476562 535.066406 490.476562 531.296875 492.796875 528.976562 C 495.117188 526.65625 498.886719 526.65625 501.207031 528.976562 C 504.695312 532.460938 509.3125 534.378906 514.238281 534.378906 C 519.164062 534.378906 523.777344 532.460938 527.265625 528.976562 C 530.027344 526.203125 531.808594 522.707031 532.417969 518.875 C 532.582031 517.886719 532.667969 516.921875 532.667969 515.945312 C 532.667969 511.035156 530.75 506.40625 527.265625 502.90625 L 439.148438 414.789062 C 432.734375 408.378906 423.324219 405.925781 414.601562 408.378906 C 410.128906 409.636719 406.09375 412.113281 402.941406 415.539062 L 375.480469 445.355469 C 375.421875 445.414062 375.375 445.476562 375.316406 445.535156 C 362.394531 458.457031 341.382812 458.457031 328.460938 445.535156 C 318.085938 435.160156 315.742188 419.5 322.617188 406.570312 C 331.449219 389.984375 346.699219 367.246094 369.257812 353.027344 C 369.34375 352.980469 369.425781 352.921875 369.507812 352.871094 C 388.058594 341.261719 408.390625 337.359375 429.925781 341.261719 C 433.164062 341.734375 477.996094 348.625 513.164062 372.730469 L 551.273438 356.265625 C 554.296875 354.96875 557.796875 356.347656 559.09375 359.367188 C 560.402344 362.378906 559.007812 365.890625 555.988281 367.1875 L 514.820312 384.972656 C 512.890625 385.804688 510.667969 385.558594 508.976562 384.332031 C 475.34375 360.011719 428.59375 353.085938 428.128906 353.027344 C 428.058594 353.015625 427.976562 353.003906 427.90625 352.992188 C 409.25 349.589844 391.652344 352.980469 375.613281 363.09375 C 375.53125 363.140625 375.457031 363.1875 375.375 363.234375 C 355.148438 376.074219 341.238281 396.90625 333.125 412.160156 C 328.722656 420.441406 330.222656 430.472656 336.871094 437.121094 C 345.117188 445.367188 358.527344 445.402344 366.820312 437.207031 L 394.199219 407.484375 C 398.835938 402.441406 404.785156 398.789062 411.390625 396.929688 C 424.25 393.3125 438.125 396.929688 447.570312 406.378906 L 535.6875 494.496094 C 541.410156 500.230469 544.566406 507.84375 544.566406 515.933594 C 544.566406 517.578125 544.433594 519.207031 544.171875 520.777344 C 543.183594 527.046875 540.257812 532.808594 535.699219 537.375 C 529.953125 543.121094 522.339844 546.273438 514.238281 546.273438 Z M 514.238281 546.273438 " fill-opacity="1" fill-rule="nonzero"/><path fill="#ffffff" d="M 289.839844 371.503906 C 287.128906 371.503906 284.675781 369.636719 284.046875 366.875 C 283.320312 363.675781 285.320312 360.488281 288.519531 359.75 C 327.199219 350.945312 370.6875 352.0625 372.578125 352.109375 C 375.792969 352.195312 378.386719 354.824219 378.386719 358.058594 C 378.386719 361.402344 375.613281 364.128906 372.257812 364.007812 C 370.472656 363.960938 328.414062 362.867188 291.160156 371.351562 C 290.71875 371.457031 290.28125 371.503906 289.839844 371.503906 Z M 289.839844 371.503906 " fill-opacity="1" fill-rule="nonzero"/><path fill="#ffffff" d="M 283.710938 542.492188 C 277.882812 542.492188 272.398438 540.21875 268.28125 536.101562 C 264.164062 531.984375 261.890625 526.5 261.890625 520.671875 C 261.890625 514.839844 264.164062 509.367188 268.28125 505.238281 L 287.054688 486.464844 C 295.5625 477.957031 309.414062 477.957031 317.917969 486.464844 C 322.035156 490.582031 324.308594 496.066406 324.308594 501.894531 C 324.308594 507.726562 322.035156 513.210938 317.917969 517.328125 C 315.597656 519.648438 311.828125 519.648438 309.507812 517.328125 C 307.1875 515.007812 307.1875 511.234375 309.507812 508.914062 C 311.386719 507.035156 312.410156 504.550781 312.410156 501.894531 C 312.410156 499.242188 311.375 496.753906 309.507812 494.875 C 305.640625 491.007812 299.347656 491.007812 295.46875 494.875 L 276.691406 513.652344 C 274.8125 515.53125 273.789062 518.015625 273.789062 520.671875 C 273.789062 523.324219 274.824219 525.8125 276.691406 527.691406 C 278.574219 529.570312 281.058594 530.59375 283.710938 530.59375 C 286.367188 530.59375 288.851562 529.558594 290.730469 527.691406 C 293.050781 525.371094 296.824219 525.371094 299.144531 527.691406 C 301.464844 530.011719 301.464844 533.78125 299.144531 536.101562 C 295.015625 540.21875 289.542969 542.492188 283.710938 542.492188 Z M 283.710938 542.492188 " fill-opacity="1" fill-rule="nonzero"/><path fill="#ffffff" d="M 299.464844 571.628906 C 293.875 571.628906 288.292969 569.5 284.035156 565.253906 C 279.917969 561.136719 277.644531 555.652344 277.644531 549.820312 C 277.644531 543.992188 279.917969 538.507812 284.035156 534.390625 L 309.496094 508.925781 C 318.003906 500.421875 331.851562 500.421875 340.359375 508.925781 C 344.476562 513.054688 346.75 518.527344 346.75 524.359375 C 346.75 530.1875 344.476562 535.675781 340.359375 539.789062 C 338.039062 542.109375 334.265625 542.109375 331.945312 539.789062 C 329.625 537.472656 329.625 533.699219 331.945312 531.378906 C 333.828125 529.5 334.851562 527.011719 334.851562 524.359375 C 334.851562 521.707031 333.816406 519.21875 331.945312 517.339844 C 328.082031 513.472656 321.773438 513.472656 317.90625 517.339844 L 292.445312 542.800781 C 290.566406 544.679688 289.542969 547.167969 289.542969 549.820312 C 289.542969 552.472656 290.578125 554.960938 292.445312 556.839844 C 296.3125 560.707031 302.605469 560.707031 306.484375 556.839844 C 308.804688 554.519531 312.578125 554.519531 314.898438 556.839844 C 317.21875 559.160156 317.21875 562.933594 314.898438 565.253906 C 310.648438 569.5 305.058594 571.628906 299.464844 571.628906 Z M 299.464844 571.628906 " fill-opacity="1" fill-rule="nonzero"/><path fill="#ffffff" d="M 314.527344 601.480469 C 308.699219 601.480469 303.214844 599.210938 299.097656 595.09375 C 294.980469 590.976562 292.707031 585.492188 292.707031 579.660156 C 292.707031 573.832031 294.980469 568.359375 299.097656 564.230469 L 331.957031 531.367188 C 340.464844 522.859375 354.316406 522.859375 362.824219 531.367188 C 366.9375 535.496094 369.210938 540.96875 369.210938 546.796875 C 369.210938 552.628906 366.9375 558.113281 362.824219 562.230469 L 329.960938 595.09375 C 325.832031 599.210938 320.359375 601.480469 314.527344 601.480469 Z M 347.378906 536.875 C 344.832031 536.875 342.296875 537.839844 340.359375 539.777344 L 307.496094 572.640625 C 305.617188 574.519531 304.59375 577.007812 304.59375 579.660156 C 304.59375 582.3125 305.628906 584.800781 307.496094 586.679688 C 309.375 588.5625 311.863281 589.585938 314.515625 589.585938 C 317.167969 589.585938 319.65625 588.550781 321.535156 586.679688 L 354.398438 553.820312 C 356.277344 551.9375 357.300781 549.453125 357.300781 546.796875 C 357.300781 544.144531 356.265625 541.660156 354.398438 539.777344 C 352.472656 537.839844 349.925781 536.875 347.378906 536.875 Z M 347.378906 536.875 " fill-opacity="1" fill-rule="nonzero"/><path fill="#ffffff" d="M 346.511719 614.390625 C 340.679688 614.390625 335.195312 612.117188 331.078125 608.003906 C 326.960938 603.886719 324.6875 598.402344 324.6875 592.570312 C 324.6875 586.742188 326.960938 581.253906 331.078125 577.140625 C 333.398438 574.820312 337.171875 574.820312 339.492188 577.140625 C 341.808594 579.457031 341.808594 583.230469 339.492188 585.550781 C 337.609375 587.429688 336.585938 589.917969 336.585938 592.570312 C 336.585938 595.222656 337.621094 597.710938 339.492188 599.589844 C 341.371094 601.46875 343.855469 602.492188 346.511719 602.492188 C 349.164062 602.492188 351.648438 601.457031 353.53125 599.589844 L 376.851562 576.269531 C 380.71875 572.402344 380.71875 566.097656 376.851562 562.230469 C 372.984375 558.363281 366.6875 558.363281 362.808594 562.230469 C 360.492188 564.550781 356.71875 564.550781 354.398438 562.230469 C 352.078125 559.910156 352.078125 556.140625 354.398438 553.820312 C 362.90625 545.3125 376.753906 545.3125 385.261719 553.820312 C 393.769531 562.324219 393.769531 576.175781 385.261719 584.683594 L 361.941406 608.003906 C 357.824219 612.117188 352.339844 614.390625 346.511719 614.390625 Z M 346.511719 614.390625 " fill-opacity="1" fill-rule="nonzero"/><g clip-path="url(#b86cd3e2ce)"><path fill="#ffffff" d="M 482.46875 368.734375 C 481.21875 368.734375 479.957031 368.339844 478.886719 367.53125 C 476.269531 365.542969 475.746094 361.820312 477.734375 359.203125 C 494.808594 336.65625 503.824219 309.648438 503.824219 281.128906 L 503.824219 230.597656 L 422.277344 198.886719 L 340.738281 230.585938 L 340.738281 281.117188 C 340.738281 307.625 348.628906 333.0625 363.558594 354.679688 C 365.429688 357.382812 364.75 361.09375 362.050781 362.960938 C 359.347656 364.832031 355.636719 364.152344 353.769531 361.453125 C 337.457031 337.84375 328.828125 310.0625 328.828125 281.128906 L 328.828125 226.527344 C 328.828125 224.078125 330.339844 221.875 332.625 220.984375 L 420.113281 186.980469 C 421.503906 186.441406 423.039062 186.441406 424.417969 186.980469 L 511.90625 220.984375 C 514.1875 221.875 515.699219 224.078125 515.699219 226.527344 L 515.699219 281.128906 C 515.699219 312.265625 505.847656 341.75 487.203125 366.390625 C 486.039062 367.910156 484.265625 368.734375 482.46875 368.734375 Z M 482.46875 368.734375 " fill-opacity="1" fill-rule="nonzero"/></g><path fill="#ffffff" d="M 451.84375 358.109375 C 450.402344 358.109375 448.964844 357.597656 447.820312 356.550781 C 445.394531 354.324219 445.238281 350.566406 447.453125 348.148438 C 464.277344 329.800781 473.546875 306.007812 473.546875 281.128906 L 473.546875 251.300781 L 422.277344 231.359375 L 371.007812 251.289062 L 371.007812 281.117188 C 371.007812 304.792969 379.492188 327.707031 394.898438 345.664062 C 397.042969 348.160156 396.753906 351.910156 394.257812 354.050781 C 391.769531 356.191406 388.011719 355.90625 385.867188 353.410156 C 368.605469 333.300781 359.097656 307.625 359.097656 281.105469 L 359.097656 247.207031 C 359.097656 244.753906 360.609375 242.554688 362.894531 241.660156 L 420.113281 219.425781 C 421.503906 218.890625 423.039062 218.890625 424.417969 219.425781 L 481.636719 241.660156 C 483.921875 242.554688 485.429688 244.753906 485.429688 247.207031 L 485.429688 281.105469 C 485.429688 308.96875 475.054688 335.621094 456.222656 356.167969 C 455.054688 357.453125 453.449219 358.109375 451.84375 358.109375 Z M 451.84375 358.109375 " fill-opacity="1" fill-rule="nonzero"/><path fill="#ffffff" d="M 410.628906 320.023438 C 409.105469 320.023438 407.582031 319.4375 406.417969 318.285156 L 389.855469 301.722656 C 387.535156 299.402344 387.535156 295.632812 389.855469 293.3125 C 392.175781 290.992188 395.945312 290.992188 398.265625 293.3125 L 410.628906 305.671875 L 446.289062 270.015625 C 448.605469 267.695312 452.378906 267.695312 454.699219 270.015625 C 457.019531 272.335938 457.019531 276.105469 454.699219 278.425781 L 414.828125 318.296875 C 413.675781 319.4375 412.152344 320.023438 410.628906 320.023438 Z M 410.628906 320.023438 " fill-opacity="1" fill-rule="nonzero"/></svg>