<svg xmlns="http://www.w3.org/2000/svg" xmlns:xlink="http://www.w3.org/1999/xlink" width="1080" zoomAndPan="magnify" viewBox="0 0 810 809.999993" height="1080" preserveAspectRatio="xMidYMid meet" version="1.0"><defs><clipPath id="ba032e0e39"><path d="M 554 85.242188 L 630 85.242188 L 630 161 L 554 161 Z M 554 85.242188 " clip-rule="nonzero"/></clipPath><clipPath id="df0b8ece70"><path d="M 88 85.242188 L 496 85.242188 L 496 347 L 88 347 Z M 88 85.242188 " clip-rule="nonzero"/></clipPath><clipPath id="aa6faee9af"><path d="M 88 85.242188 L 497 85.242188 L 497 348 L 88 348 Z M 88 85.242188 " clip-rule="nonzero"/></clipPath><clipPath id="9431067d96"><path d="M 487 407 L 697 407 L 697 553.992188 L 487 553.992188 Z M 487 407 " clip-rule="nonzero"/></clipPath><clipPath id="4a63805738"><path d="M 469 334 L 769.957031 334 L 769.957031 553.992188 L 469 553.992188 Z M 469 334 " clip-rule="nonzero"/></clipPath></defs><path fill="#da6404" d="M 476.8125 191.339844 C 486.582031 180.886719 502.972656 180.335938 513.425781 190.109375 C 523.875 199.878906 524.425781 216.269531 514.65625 226.722656 C 504.882812 237.171875 488.488281 237.722656 478.039062 227.953125 C 467.589844 218.183594 467.039062 201.789062 476.8125 191.339844 Z M 466.800781 260.398438 C 467.191406 259.980469 467.542969 259.539062 467.875 259.085938 C 472.914062 261.898438 478.273438 263.886719 483.769531 265.054688 C 483.722656 265.613281 483.695312 266.175781 483.714844 266.746094 C 483.972656 274.449219 490.425781 280.480469 498.125 280.222656 C 505.824219 279.964844 511.855469 273.511719 511.597656 265.8125 C 511.578125 265.238281 511.515625 264.675781 511.429688 264.121094 C 516.832031 262.589844 522.050781 260.242188 526.886719 257.105469 C 527.25 257.53125 527.628906 257.949219 528.046875 258.34375 C 533.675781 263.601562 542.503906 263.304688 547.765625 257.679688 C 553.027344 252.050781 552.730469 243.222656 547.101562 237.960938 C 546.683594 237.570312 546.238281 237.21875 545.785156 236.886719 C 548.597656 231.847656 550.585938 226.488281 551.753906 220.992188 C 552.3125 221.042969 552.878906 221.066406 553.449219 221.046875 C 561.152344 220.789062 567.183594 214.335938 566.925781 206.636719 C 566.664062 198.9375 560.210938 192.90625 552.511719 193.164062 C 551.9375 193.183594 551.378906 193.246094 550.824219 193.335938 C 549.289062 187.929688 546.945312 182.710938 543.804688 177.875 C 544.234375 177.515625 544.648438 177.132812 545.042969 176.714844 C 550.304688 171.085938 550.007812 162.261719 544.378906 157 C 538.753906 151.738281 529.925781 152.035156 524.664062 157.664062 C 524.269531 158.082031 523.917969 158.523438 523.589844 158.976562 C 518.550781 156.164062 513.191406 154.175781 507.691406 153.007812 C 507.742188 152.449219 507.769531 151.886719 507.75 151.3125 C 507.492188 143.613281 501.039062 137.582031 493.339844 137.839844 C 485.640625 138.097656 479.609375 144.550781 479.867188 152.25 C 479.886719 152.824219 479.949219 153.382812 480.035156 153.9375 C 474.628906 155.472656 469.414062 157.816406 464.574219 160.957031 C 464.21875 160.53125 463.835938 160.113281 463.417969 159.71875 C 457.789062 154.457031 448.964844 154.753906 443.699219 160.382812 C 438.4375 166.011719 438.734375 174.835938 444.363281 180.101562 C 444.78125 180.492188 445.226562 180.839844 445.675781 181.175781 C 442.867188 186.214844 440.875 191.570312 439.710938 197.070312 C 439.152344 197.019531 438.589844 196.996094 438.011719 197.015625 C 430.316406 197.273438 424.28125 203.726562 424.542969 211.425781 C 424.800781 219.125 431.25 225.15625 438.953125 224.898438 C 439.527344 224.878906 440.085938 224.8125 440.636719 224.726562 C 442.171875 230.132812 444.519531 235.347656 447.660156 240.1875 C 447.230469 240.546875 446.8125 240.925781 446.421875 241.34375 C 441.160156 246.972656 441.457031 255.800781 447.085938 261.0625 C 452.710938 266.324219 461.539062 266.027344 466.800781 260.398438 " fill-opacity="1" fill-rule="nonzero"/><g clip-path="url(#ba032e0e39)"><path fill="#da6404" d="M 582.082031 113.980469 C 587.214844 108.488281 595.832031 108.199219 601.324219 113.335938 C 606.816406 118.46875 607.105469 127.082031 601.96875 132.574219 C 596.835938 138.066406 588.21875 138.359375 582.726562 133.222656 C 577.238281 128.085938 576.945312 119.472656 582.082031 113.980469 Z M 576.824219 150.273438 C 577.027344 150.054688 577.210938 149.820312 577.386719 149.585938 C 580.035156 151.058594 582.851562 152.105469 585.742188 152.71875 C 585.714844 153.015625 585.699219 153.308594 585.710938 153.609375 C 585.84375 157.65625 589.234375 160.828125 593.285156 160.691406 C 597.332031 160.554688 600.5 157.164062 600.363281 153.121094 C 600.351562 152.816406 600.320312 152.523438 600.277344 152.230469 C 603.117188 151.425781 605.859375 150.191406 608.398438 148.542969 C 608.585938 148.765625 608.789062 148.988281 609.007812 149.191406 C 611.964844 151.957031 616.605469 151.800781 619.371094 148.84375 C 622.136719 145.886719 621.980469 141.25 619.019531 138.480469 C 618.800781 138.277344 618.570312 138.09375 618.332031 137.917969 C 619.808594 135.269531 620.851562 132.453125 621.46875 129.5625 C 621.761719 129.589844 622.058594 129.605469 622.355469 129.59375 C 626.40625 129.460938 629.574219 126.066406 629.4375 122.023438 C 629.304688 117.972656 625.910156 114.804688 621.867188 114.941406 C 621.566406 114.953125 621.269531 114.984375 620.980469 115.027344 C 620.171875 112.1875 618.9375 109.449219 617.289062 106.90625 C 617.511719 106.714844 617.734375 106.519531 617.941406 106.296875 C 620.703125 103.339844 620.546875 98.699219 617.59375 95.933594 C 614.632812 93.167969 609.996094 93.324219 607.230469 96.285156 C 607.023438 96.503906 606.839844 96.734375 606.664062 96.972656 C 604.015625 95.496094 601.199219 94.453125 598.3125 93.835938 C 598.339844 93.542969 598.351562 93.25 598.339844 92.945312 C 598.207031 88.898438 594.816406 85.730469 590.769531 85.867188 C 586.722656 86 583.554688 89.390625 583.6875 93.4375 C 583.699219 93.738281 583.730469 94.035156 583.777344 94.328125 C 580.9375 95.132812 578.195312 96.367188 575.652344 98.015625 C 575.464844 97.792969 575.265625 97.570312 575.042969 97.367188 C 572.085938 94.601562 567.445312 94.757812 564.683594 97.714844 C 561.917969 100.671875 562.074219 105.308594 565.03125 108.074219 C 565.25 108.28125 565.484375 108.464844 565.722656 108.640625 C 564.246094 111.285156 563.199219 114.105469 562.585938 116.992188 C 562.292969 116.96875 561.996094 116.953125 561.695312 116.960938 C 557.648438 117.097656 554.476562 120.488281 554.613281 124.535156 C 554.75 128.582031 558.140625 131.753906 562.183594 131.617188 C 562.488281 131.605469 562.78125 131.570312 563.074219 131.527344 C 563.878906 134.371094 565.113281 137.109375 566.761719 139.652344 C 566.539062 139.839844 566.316406 140.039062 566.113281 140.261719 C 563.347656 143.21875 563.503906 147.859375 566.460938 150.621094 C 569.417969 153.386719 574.054688 153.230469 576.824219 150.273438 " fill-opacity="1" fill-rule="nonzero"/></g><g clip-path="url(#df0b8ece70)"><path fill="#ffffff" d="M 481.734375 346.636719 L 102.96875 346.636719 C 95.238281 346.636719 88.972656 340.367188 88.972656 332.636719 L 88.972656 99.859375 C 88.972656 92.128906 95.238281 85.859375 102.96875 85.859375 L 481.734375 85.859375 C 489.464844 85.859375 495.730469 92.128906 495.730469 99.859375 L 495.730469 332.636719 C 495.730469 340.367188 489.464844 346.636719 481.734375 346.636719 " fill-opacity="1" fill-rule="nonzero"/></g><g clip-path="url(#aa6faee9af)"><path fill="#004aad" d="M 102.96875 86.425781 C 95.5625 86.425781 89.535156 92.453125 89.535156 99.859375 L 89.535156 332.636719 C 89.535156 340.046875 95.5625 346.074219 102.96875 346.074219 L 481.734375 346.074219 C 489.140625 346.074219 495.167969 340.046875 495.167969 332.636719 L 495.167969 99.859375 C 495.167969 92.453125 489.140625 86.425781 481.734375 86.425781 Z M 481.734375 347.203125 L 102.96875 347.203125 C 94.941406 347.203125 88.40625 340.667969 88.40625 332.636719 L 88.40625 99.859375 C 88.40625 91.832031 94.941406 85.296875 102.96875 85.296875 L 481.734375 85.296875 C 489.765625 85.296875 496.296875 91.832031 496.296875 99.859375 L 496.296875 332.636719 C 496.296875 340.667969 489.765625 347.203125 481.734375 347.203125 " fill-opacity="1" fill-rule="nonzero"/></g><path fill="#004aad" d="M 474.316406 328.386719 L 235.777344 328.386719 C 235.464844 328.386719 235.210938 328.132812 235.210938 327.824219 C 235.210938 327.511719 235.464844 327.257812 235.777344 327.257812 L 474.316406 327.257812 C 474.628906 327.257812 474.878906 327.511719 474.878906 327.824219 C 474.878906 328.132812 474.628906 328.386719 474.316406 328.386719 " fill-opacity="1" fill-rule="nonzero"/><path fill="#162667" d="M 342.988281 328.386719 L 110.386719 328.386719 C 110.074219 328.386719 109.824219 328.132812 109.824219 327.824219 C 109.824219 327.511719 110.074219 327.257812 110.386719 327.257812 L 342.988281 327.257812 C 343.300781 327.257812 343.554688 327.511719 343.554688 327.824219 C 343.554688 328.132812 343.300781 328.386719 342.988281 328.386719 " fill-opacity="1" fill-rule="nonzero"/><path fill="#162667" d="M 351.363281 327.824219 C 351.363281 332.445312 347.617188 336.195312 342.988281 336.195312 C 338.363281 336.195312 334.617188 332.445312 334.617188 327.824219 C 334.617188 323.199219 338.363281 319.453125 342.988281 319.453125 C 347.617188 319.453125 351.363281 323.199219 351.363281 327.824219 " fill-opacity="1" fill-rule="nonzero"/><path fill="#ffffff" d="M 275.558594 112.5625 L 362.09375 112.5625 C 365.160156 112.5625 367.648438 115.054688 367.648438 118.128906 L 367.648438 157.65625 C 367.648438 160.730469 365.160156 163.226562 362.09375 163.226562 L 248.746094 163.226562 L 270.003906 143.792969 L 270.003906 118.128906 C 270.003906 115.054688 272.492188 112.5625 275.558594 112.5625 " fill-opacity="1" fill-rule="nonzero"/><path fill="#004aad" d="M 270.003906 143.792969 L 270.011719 143.792969 Z M 250.199219 162.660156 L 362.09375 162.660156 C 364.84375 162.660156 367.082031 160.414062 367.082031 157.65625 L 367.082031 118.128906 C 367.082031 115.371094 364.84375 113.125 362.09375 113.125 L 275.558594 113.125 C 272.808594 113.125 270.566406 115.371094 270.566406 118.128906 L 270.566406 143.792969 C 270.566406 143.949219 270.503906 144.101562 270.382812 144.210938 Z M 362.09375 163.789062 L 248.746094 163.789062 C 248.515625 163.789062 248.308594 163.644531 248.222656 163.425781 C 248.136719 163.210938 248.199219 162.964844 248.367188 162.808594 L 269.4375 143.542969 L 269.4375 118.128906 C 269.4375 114.75 272.183594 112 275.558594 112 L 362.09375 112 C 365.464844 112 368.210938 114.75 368.210938 118.128906 L 368.210938 157.65625 C 368.210938 161.035156 365.464844 163.789062 362.09375 163.789062 " fill-opacity="1" fill-rule="nonzero"/><path fill="#004aad" d="M 355.757812 127.625 L 341.132812 127.625 C 340.820312 127.625 340.566406 127.375 340.566406 127.0625 C 340.566406 126.75 340.820312 126.5 341.132812 126.5 L 355.757812 126.5 C 356.070312 126.5 356.324219 126.75 356.324219 127.0625 C 356.324219 127.375 356.070312 127.625 355.757812 127.625 " fill-opacity="1" fill-rule="nonzero"/><path fill="#004aad" d="M 328.484375 127.625 L 281.855469 127.625 C 281.546875 127.625 281.292969 127.375 281.292969 127.0625 C 281.292969 126.75 281.546875 126.5 281.855469 126.5 L 328.484375 126.5 C 328.796875 126.5 329.046875 126.75 329.046875 127.0625 C 329.046875 127.375 328.796875 127.625 328.484375 127.625 " fill-opacity="1" fill-rule="nonzero"/><path fill="#004aad" d="M 355.757812 138.457031 L 310.472656 138.457031 C 310.160156 138.457031 309.90625 138.203125 309.90625 137.894531 C 309.90625 137.582031 310.160156 137.328125 310.472656 137.328125 L 355.757812 137.328125 C 356.070312 137.328125 356.324219 137.582031 356.324219 137.894531 C 356.324219 138.203125 356.070312 138.457031 355.757812 138.457031 " fill-opacity="1" fill-rule="nonzero"/><path fill="#004aad" d="M 300.121094 138.457031 L 281.855469 138.457031 C 281.546875 138.457031 281.292969 138.203125 281.292969 137.894531 C 281.292969 137.582031 281.546875 137.328125 281.855469 137.328125 L 300.121094 137.328125 C 300.429688 137.328125 300.683594 137.582031 300.683594 137.894531 C 300.683594 138.203125 300.429688 138.457031 300.121094 138.457031 " fill-opacity="1" fill-rule="nonzero"/><path fill="#004aad" d="M 355.757812 149.285156 L 334.617188 149.285156 C 334.304688 149.285156 334.054688 149.03125 334.054688 148.722656 C 334.054688 148.410156 334.304688 148.160156 334.617188 148.160156 L 355.757812 148.160156 C 356.070312 148.160156 356.324219 148.410156 356.324219 148.722656 C 356.324219 149.03125 356.070312 149.285156 355.757812 149.285156 " fill-opacity="1" fill-rule="nonzero"/><path fill="#004aad" d="M 321.96875 149.285156 L 281.855469 149.285156 C 281.546875 149.285156 281.292969 149.03125 281.292969 148.722656 C 281.292969 148.410156 281.546875 148.160156 281.855469 148.160156 L 321.96875 148.160156 C 322.277344 148.160156 322.53125 148.410156 322.53125 148.722656 C 322.53125 149.03125 322.277344 149.285156 321.96875 149.285156 " fill-opacity="1" fill-rule="nonzero"/><path fill="#004aad" d="M 221.804688 165.578125 C 221.804688 165.578125 236.578125 147.921875 228.078125 140.589844 C 219.578125 133.261719 212.515625 143.507812 199.59375 140.589844 C 186.671875 137.675781 177.6875 135.65625 155.707031 161.988281 C 133.726562 188.316406 71.953125 251.402344 102.101562 266.234375 C 132.253906 281.074219 221.804688 165.578125 221.804688 165.578125 " fill-opacity="1" fill-rule="nonzero"/><path fill="#ffffff" d="M 360.578125 230.546875 C 359.835938 228.4375 357.777344 227.007812 355.613281 226.429688 C 353.457031 225.847656 351.175781 225.984375 348.941406 226.121094 C 334.734375 227 320.53125 227.878906 306.328125 228.757812 C 315.816406 233.738281 326.464844 235.9375 337.089844 236.566406 C 341.507812 236.828125 363.722656 239.484375 360.578125 230.546875 " fill-opacity="1" fill-rule="nonzero"/><path fill="#004aad" d="M 308.449219 229.191406 C 316.542969 233.066406 326.175781 235.355469 337.125 236.003906 C 337.535156 236.027344 338.101562 236.074219 338.785156 236.125 C 343.730469 236.519531 356.867188 237.570312 359.769531 233.800781 C 360.394531 232.988281 360.488281 231.984375 360.046875 230.734375 C 359.433594 228.980469 357.722656 227.578125 355.46875 226.972656 C 353.375 226.414062 351.140625 226.550781 348.976562 226.683594 Z M 347.757812 237.695312 C 344.277344 237.695312 340.90625 237.425781 338.695312 237.25 C 338.019531 237.195312 337.464844 237.152344 337.058594 237.128906 C 325.097656 236.421875 314.671875 233.773438 306.066406 229.257812 C 305.839844 229.136719 305.722656 228.886719 305.777344 228.640625 C 305.832031 228.394531 306.042969 228.210938 306.292969 228.195312 L 348.90625 225.558594 C 351.054688 225.425781 353.488281 225.277344 355.761719 225.882812 C 358.371094 226.585938 360.371094 228.257812 361.113281 230.359375 C 361.679688 231.972656 361.527344 233.363281 360.660156 234.488281 C 358.679688 237.0625 353.097656 237.695312 347.757812 237.695312 " fill-opacity="1" fill-rule="nonzero"/><path fill="#ffffff" d="M 283.167969 230.09375 C 288.519531 217.828125 305.984375 212.300781 312.050781 210.5625 C 318.121094 208.820312 318.949219 217.105469 309.34375 221.972656 C 299.734375 226.839844 302.859375 228.957031 302.859375 228.957031 C 302.859375 228.957031 360.4375 228.847656 363.160156 234.945312 C 363.160156 234.945312 366.765625 243.820312 344.050781 243.871094 C 337.621094 243.886719 331.816406 247.730469 329.324219 253.660156 C 328.621094 255.332031 327.835938 257.191406 326.996094 259.164062 C 309.015625 259.4375 290.972656 254.75 275.40625 245.738281 C 278.9375 238.929688 281.8125 233.210938 283.167969 230.09375 " fill-opacity="1" fill-rule="nonzero"/><path fill="#004aad" d="M 327.550781 258.421875 C 327.476562 258.421875 327.402344 258.40625 327.332031 258.375 C 327.042969 258.253906 326.910156 257.921875 327.03125 257.636719 C 327.785156 255.867188 328.050781 255.242188 328.601562 253.925781 L 328.808594 253.4375 C 331.386719 247.300781 337.367188 243.324219 344.046875 243.308594 C 356.28125 243.28125 360.601562 240.699219 362.074219 238.535156 C 363.257812 236.796875 362.660156 235.222656 362.636719 235.15625 C 360.753906 230.949219 325.875 229.484375 302.859375 229.519531 C 302.746094 229.519531 302.636719 229.484375 302.542969 229.421875 C 302.25 229.222656 301.761719 228.65625 301.816406 227.796875 C 301.933594 225.984375 304.378906 223.855469 309.085938 221.46875 C 315.054688 218.445312 316.628906 214.261719 315.839844 212.257812 C 315.355469 211.019531 314 210.589844 312.210938 211.101562 C 301.707031 214.113281 288.234375 219.894531 283.6875 230.320312 C 282.632812 232.738281 280.570312 236.9375 277.558594 242.800781 C 277.417969 243.078125 277.078125 243.1875 276.800781 243.042969 C 276.523438 242.902344 276.414062 242.5625 276.558594 242.285156 C 279.554688 236.445312 281.609375 232.269531 282.652344 229.871094 C 287.378906 219.039062 301.164062 213.097656 311.894531 210.019531 C 314.730469 209.207031 316.332031 210.429688 316.890625 211.84375 C 317.992188 214.648438 315.808594 219.328125 309.597656 222.476562 C 303.707031 225.457031 302.980469 227.238281 302.941406 227.867188 C 302.925781 228.121094 303.011719 228.296875 303.085938 228.394531 C 304.976562 228.394531 318.433594 228.425781 332.015625 229.101562 C 361.832031 230.589844 363.222656 233.695312 363.675781 234.71875 C 363.71875 234.820312 364.535156 236.898438 363.027344 239.140625 C 360.683594 242.628906 354.296875 244.414062 344.050781 244.433594 C 337.828125 244.449219 332.25 248.152344 329.84375 253.875 L 329.640625 254.363281 C 329.085938 255.679688 328.824219 256.308594 328.070312 258.078125 C 327.976562 258.292969 327.765625 258.421875 327.550781 258.421875 " fill-opacity="1" fill-rule="nonzero"/><path fill="#162667" d="M 237.757812 226.390625 C 237.757812 226.390625 260.757812 229.421875 259.105469 244.769531 C 257.449219 260.117188 257.308594 281.863281 257.308594 281.863281 C 257.308594 281.863281 265.03125 265.75 275.40625 245.738281 C 290.972656 254.75 309.015625 259.4375 326.996094 259.164062 C 317.28125 281.941406 303.699219 313.195312 292.917969 324.429688 C 277.683594 340.300781 242.585938 366.351562 219.222656 308.175781 C 195.863281 250.003906 237.757812 226.390625 237.757812 226.390625 " fill-opacity="1" fill-rule="nonzero"/><path fill="#162667" d="M 237.757812 226.390625 L 251.9375 241.921875 C 251.9375 241.921875 241.9375 295.734375 238.855469 302.894531 C 230.714844 321.792969 140.867188 311.285156 122.40625 310.390625 C 103.945312 309.5 94.707031 292.082031 94.097656 285.164062 C 93.488281 278.242188 133.089844 225.773438 133.089844 225.773438 C 133.089844 225.773438 180.75 223.5 237.757812 226.390625 " fill-opacity="1" fill-rule="nonzero"/><path fill="#004aad" d="M 227.953125 306.429688 C 227.722656 306.429688 227.507812 306.285156 227.425781 306.058594 C 227.316406 305.761719 227.46875 305.441406 227.761719 305.335938 C 234.898438 302.75 238.152344 294.699219 238.773438 288.589844 C 239.296875 283.429688 238.5625 278.152344 237.851562 273.046875 C 237.578125 271.082031 237.292969 269.050781 237.085938 267.046875 C 236.75 263.847656 236.703125 259.867188 239.332031 257.445312 C 239.5625 257.230469 239.917969 257.246094 240.128906 257.476562 C 240.339844 257.703125 240.324219 258.058594 240.097656 258.273438 C 237.835938 260.355469 237.898438 263.996094 238.203125 266.933594 C 238.410156 268.917969 238.691406 270.9375 238.96875 272.894531 C 239.6875 278.066406 240.433594 283.410156 239.890625 288.703125 C 239.242188 295.136719 235.773438 303.628906 228.144531 306.394531 C 228.082031 306.417969 228.015625 306.429688 227.953125 306.429688 " fill-opacity="1" fill-rule="nonzero"/><path fill="#ffffff" d="M 166.847656 307.308594 C 193.570312 308.1875 225.949219 310.085938 226.9375 314.105469 C 228.078125 318.769531 224.597656 320.039062 224.597656 320.039062 C 224.597656 320.039062 228.296875 323.777344 223.421875 328.667969 C 223.421875 328.667969 225.699219 333.953125 221.804688 336.871094 C 221.804688 336.871094 222.179688 344.226562 215.332031 344.242188 C 210.042969 344.257812 190.121094 350.390625 169.105469 355.171875 C 164.207031 339.777344 163.378906 323.085938 166.847656 307.308594 " fill-opacity="1" fill-rule="nonzero"/><path fill="#004aad" d="M 173.144531 354.796875 C 172.886719 354.796875 172.65625 354.621094 172.59375 354.363281 C 172.523438 354.058594 172.710938 353.753906 173.015625 353.683594 C 180.273438 351.964844 187.304688 350.140625 193.507812 348.53125 C 203.929688 345.824219 212.15625 343.6875 215.332031 343.679688 C 217.105469 343.675781 218.507812 343.140625 219.503906 342.089844 C 221.382812 340.109375 221.242188 336.929688 221.242188 336.898438 C 221.234375 336.710938 221.316406 336.53125 221.46875 336.417969 C 224.96875 333.792969 222.925781 328.941406 222.90625 328.890625 C 222.8125 328.679688 222.859375 328.433594 223.023438 328.269531 C 227.453125 323.824219 224.332031 320.570312 224.195312 320.433594 C 224.0625 320.296875 224.003906 320.101562 224.046875 319.914062 C 224.089844 319.726562 224.222656 319.574219 224.402344 319.507812 C 224.523438 319.464844 227.390625 318.328125 226.390625 314.238281 C 226.074219 312.949219 219.949219 309.753906 170.042969 307.980469 C 169.730469 307.972656 169.484375 307.710938 169.496094 307.398438 C 169.507812 307.089844 169.761719 306.84375 170.082031 306.855469 C 226.230469 308.847656 227.171875 312.703125 227.484375 313.96875 C 228.40625 317.738281 226.511719 319.53125 225.449219 320.21875 C 226.320312 321.507812 227.832031 324.824219 224.074219 328.804688 C 224.511719 330.078125 225.675781 334.433594 222.375 337.140625 C 222.367188 338.066406 222.1875 340.902344 220.320312 342.867188 C 219.105469 344.148438 217.429688 344.800781 215.335938 344.808594 C 212.304688 344.816406 204.132812 346.933594 193.792969 349.621094 C 187.582031 351.234375 180.546875 353.0625 173.273438 354.78125 C 173.230469 354.792969 173.1875 354.796875 173.144531 354.796875 " fill-opacity="1" fill-rule="nonzero"/><path fill="#162667" d="M 70.082031 319.21875 C 78.613281 296.222656 90.5 267.792969 104.589844 243.761719 C 110.933594 232.945312 122.476562 226.226562 135.011719 225.84375 L 154.332031 225.257812 L 131.746094 306.566406 C 131.746094 306.566406 147.871094 306.683594 166.847656 307.308594 C 163.378906 323.085938 164.207031 339.777344 169.105469 355.171875 C 162.917969 356.578125 156.640625 357.871094 150.613281 358.851562 C 139.269531 360.699219 120.128906 362.625 102.039062 363.339844 C 78.699219 364.269531 61.957031 341.117188 70.082031 319.21875 " fill-opacity="1" fill-rule="nonzero"/><path fill="#004aad" d="M 222.417969 319.882812 C 222.40625 319.882812 222.390625 319.882812 222.378906 319.882812 L 219.929688 319.71875 C 219.621094 319.699219 219.382812 319.429688 219.40625 319.117188 C 219.425781 318.808594 219.6875 318.574219 220.003906 318.59375 L 222.453125 318.757812 C 222.765625 318.777344 223 319.046875 222.980469 319.359375 C 222.960938 319.65625 222.710938 319.882812 222.417969 319.882812 " fill-opacity="1" fill-rule="nonzero"/><path fill="#004aad" d="M 221.433594 328.480469 C 221.425781 328.480469 221.421875 328.480469 221.414062 328.480469 L 218.640625 328.386719 C 218.332031 328.378906 218.085938 328.117188 218.097656 327.804688 C 218.109375 327.496094 218.371094 327.25 218.679688 327.257812 L 221.453125 327.355469 C 221.761719 327.363281 222.007812 327.625 221.996094 327.933594 C 221.988281 328.238281 221.738281 328.480469 221.433594 328.480469 " fill-opacity="1" fill-rule="nonzero"/><path fill="#004aad" d="M 218.824219 337.363281 C 218.800781 337.363281 218.78125 337.359375 218.757812 337.355469 L 215.980469 337.03125 C 215.671875 336.992188 215.453125 336.714844 215.488281 336.40625 C 215.523438 336.09375 215.804688 335.871094 216.113281 335.910156 L 218.890625 336.238281 C 219.199219 336.273438 219.421875 336.554688 219.382812 336.863281 C 219.351562 337.148438 219.105469 337.363281 218.824219 337.363281 " fill-opacity="1" fill-rule="nonzero"/><path fill="#004aad" d="M 121.792969 307.980469 C 121.523438 307.980469 121.28125 307.785156 121.238281 307.507812 C 121.1875 307.203125 121.398438 306.914062 121.703125 306.859375 C 131.191406 305.339844 161.132812 305.976562 162.402344 306.003906 C 162.714844 306.011719 162.960938 306.269531 162.957031 306.578125 C 162.949219 306.890625 162.683594 307.117188 162.378906 307.132812 C 162.070312 307.125 131.269531 306.46875 121.882812 307.972656 C 121.851562 307.980469 121.824219 307.980469 121.792969 307.980469 " fill-opacity="1" fill-rule="nonzero"/><path fill="#004aad" d="M 131.746094 307.132812 C 131.6875 307.132812 131.628906 307.121094 131.570312 307.105469 C 131.273438 307.007812 131.113281 306.6875 131.210938 306.394531 L 141.558594 274.65625 C 141.652344 274.363281 141.972656 274.203125 142.269531 274.296875 C 142.5625 274.394531 142.726562 274.710938 142.628906 275.007812 L 132.28125 306.742188 C 132.203125 306.980469 131.984375 307.132812 131.746094 307.132812 " fill-opacity="1" fill-rule="nonzero"/><path fill="#ffffff" d="M 197.03125 233.140625 L 214.460938 190.644531 L 187.796875 183.355469 L 164.332031 232.84375 C 164.332031 232.84375 186.550781 237.683594 197.03125 233.140625 " fill-opacity="1" fill-rule="nonzero"/><path fill="#004aad" d="M 197.03125 233.140625 L 197.035156 233.140625 Z M 165.148438 232.4375 C 168.957031 233.191406 187.363281 236.542969 196.597656 232.710938 L 213.699219 191.019531 L 188.105469 184.023438 Z M 184.445312 235.660156 C 174.785156 235.660156 164.824219 233.527344 164.210938 233.394531 C 164.042969 233.359375 163.902344 233.246094 163.824219 233.089844 C 163.75 232.9375 163.746094 232.757812 163.820312 232.601562 L 187.289062 183.113281 C 187.40625 182.867188 187.683594 182.738281 187.945312 182.8125 L 214.609375 190.101562 C 214.765625 190.140625 214.894531 190.25 214.96875 190.394531 C 215.039062 190.539062 215.042969 190.707031 214.984375 190.859375 L 197.550781 233.351562 C 197.496094 233.488281 197.390625 233.597656 197.253906 233.65625 C 193.804688 235.15625 189.160156 235.660156 184.445312 235.660156 " fill-opacity="1" fill-rule="nonzero"/><path fill="#004aad" d="M 182.046875 235.449219 C 172.785156 235.449219 162.644531 233.953125 153.0625 229.46875 C 152.78125 229.335938 152.660156 229 152.792969 228.71875 C 152.921875 228.4375 153.257812 228.316406 153.542969 228.449219 C 181.683594 241.625 214.792969 228.566406 215.121094 228.433594 C 215.414062 228.316406 215.742188 228.457031 215.855469 228.746094 C 215.972656 229.035156 215.832031 229.363281 215.542969 229.480469 C 215.320312 229.566406 200.414062 235.449219 182.046875 235.449219 " fill-opacity="1" fill-rule="nonzero"/><path fill="#ffffff" d="M 227.328125 173.472656 C 228.304688 179.1875 228.46875 185.292969 226.023438 190.546875 C 222.722656 197.640625 214.761719 202.0625 206.9375 201.824219 C 199.117188 201.585938 191.722656 197.03125 187.34375 190.546875 C 183.925781 191.785156 179.957031 191.414062 176.828125 189.558594 C 173.699219 187.703125 171.46875 184.402344 170.914062 180.808594 C 170.40625 177.5 171.589844 173.65625 174.597656 172.195312 C 176.292969 171.371094 178.304688 171.421875 180.128906 171.902344 C 183.410156 172.769531 186.304688 175.007812 187.96875 177.960938 C 190.214844 179.019531 192.960938 177.25 193.914062 174.957031 C 194.867188 172.660156 194.558594 170.070312 194.332031 167.59375 C 194.105469 165.121094 194.027344 162.453125 195.34375 160.34375 C 196.558594 158.394531 198.742188 157.292969 200.882812 156.464844 C 204.335938 155.125 207.96875 154.253906 211.652344 153.871094 C 213.898438 153.632812 218.183594 152.824219 220.273438 154.039062 C 222.527344 155.347656 223.605469 160.078125 224.421875 162.375 C 225.710938 165.980469 226.6875 169.695312 227.328125 173.472656 " fill-opacity="1" fill-rule="nonzero"/><path fill="#004aad" d="M 187.34375 189.980469 C 187.527344 189.980469 187.707031 190.070312 187.8125 190.230469 C 192.253906 196.8125 199.589844 201.039062 206.957031 201.261719 C 214.777344 201.5 222.402344 196.996094 225.515625 190.308594 C 227.539062 185.957031 227.949219 180.480469 226.773438 173.566406 C 226.136719 169.839844 225.167969 166.136719 223.894531 162.5625 C 223.738281 162.132812 223.578125 161.621094 223.398438 161.058594 C 222.65625 158.707031 221.636719 155.480469 219.992188 154.523438 C 218.386719 153.59375 215.078125 154.011719 212.890625 154.289062 C 212.457031 154.34375 212.058594 154.394531 211.710938 154.429688 C 208.058594 154.8125 204.484375 155.675781 201.085938 156.992188 C 199.253906 157.699219 196.996094 158.757812 195.820312 160.644531 C 194.566406 162.648438 194.683594 165.257812 194.894531 167.542969 L 194.929688 167.960938 C 195.15625 170.378906 195.386719 172.878906 194.433594 175.171875 C 193.816406 176.664062 192.515625 177.949219 191.039062 178.519531 C 189.886719 178.964844 188.742188 178.949219 187.726562 178.472656 C 187.621094 178.421875 187.535156 178.339844 187.476562 178.238281 C 185.898438 175.433594 183.097656 173.269531 179.984375 172.449219 C 178.617188 172.089844 176.617188 171.839844 174.84375 172.703125 C 172.03125 174.070312 171.019531 177.773438 171.472656 180.722656 C 172.003906 184.171875 174.113281 187.296875 177.117188 189.074219 C 180.121094 190.855469 183.871094 191.207031 187.152344 190.019531 C 187.214844 189.996094 187.28125 189.980469 187.34375 189.980469 Z M 207.546875 202.398438 C 207.339844 202.398438 207.132812 202.394531 206.921875 202.386719 C 199.332031 202.160156 191.785156 197.890625 187.121094 191.21875 C 183.628906 192.347656 179.707031 191.917969 176.542969 190.042969 C 173.253906 188.09375 170.941406 184.675781 170.359375 180.894531 C 169.855469 177.636719 170.894531 173.371094 174.351562 171.6875 C 176.4375 170.675781 178.722656 170.953125 180.273438 171.359375 C 183.660156 172.253906 186.601562 174.492188 188.363281 177.519531 C 189.226562 177.863281 190.070312 177.683594 190.632812 177.46875 C 191.832031 177.003906 192.886719 175.960938 193.394531 174.742188 C 194.238281 172.703125 194.019531 170.347656 193.808594 168.066406 L 193.769531 167.644531 C 193.546875 165.175781 193.425781 162.351562 194.863281 160.046875 C 196.214844 157.878906 198.683594 156.710938 200.679688 155.941406 C 204.167969 154.585938 207.839844 153.703125 211.59375 153.308594 C 211.933594 153.273438 212.324219 153.226562 212.746094 153.171875 C 215.226562 152.855469 218.621094 152.425781 220.558594 153.550781 C 222.582031 154.726562 223.675781 158.191406 224.472656 160.71875 C 224.648438 161.265625 224.804688 161.765625 224.953125 162.183594 C 226.25 165.820312 227.238281 169.585938 227.882812 173.378906 C 229.101562 180.523438 228.660156 186.21875 226.535156 190.785156 C 223.324219 197.691406 215.578125 202.398438 207.546875 202.398438 " fill-opacity="1" fill-rule="nonzero"/><path fill="#004aad" d="M 185.542969 184.554688 C 185.328125 184.554688 185.121094 184.429688 185.027344 184.21875 C 184.125 182.160156 181.542969 180.957031 179.386719 181.585938 C 179.089844 181.671875 178.777344 181.503906 178.691406 181.203125 C 178.601562 180.902344 178.773438 180.589844 179.074219 180.503906 C 181.789062 179.710938 184.921875 181.175781 186.058594 183.765625 C 186.183594 184.046875 186.054688 184.382812 185.769531 184.507812 C 185.695312 184.539062 185.621094 184.554688 185.542969 184.554688 " fill-opacity="1" fill-rule="nonzero"/><path fill="#ffffff" d="M 386.191406 188.539062 L 419.148438 188.539062 C 421.53125 188.539062 423.484375 186.589844 423.484375 184.203125 L 423.484375 117 C 423.484375 114.617188 421.53125 112.667969 419.148438 112.667969 L 386.191406 112.667969 C 383.804688 112.667969 381.855469 114.617188 381.855469 117 L 381.855469 184.203125 C 381.855469 186.589844 383.804688 188.539062 386.191406 188.539062 " fill-opacity="1" fill-rule="nonzero"/><path fill="#004aad" d="M 386.191406 113.230469 C 384.109375 113.230469 382.417969 114.921875 382.417969 117 L 382.417969 184.203125 C 382.417969 186.28125 384.109375 187.976562 386.191406 187.976562 L 419.148438 187.976562 C 421.230469 187.976562 422.921875 186.28125 422.921875 184.203125 L 422.921875 117 C 422.921875 114.921875 421.230469 113.230469 419.148438 113.230469 Z M 419.148438 189.101562 L 386.191406 189.101562 C 383.488281 189.101562 381.292969 186.902344 381.292969 184.203125 L 381.292969 117 C 381.292969 114.300781 383.488281 112.105469 386.191406 112.105469 L 419.148438 112.105469 C 421.847656 112.105469 424.046875 114.300781 424.046875 117 L 424.046875 184.203125 C 424.046875 186.902344 421.847656 189.101562 419.148438 189.101562 " fill-opacity="1" fill-rule="nonzero"/><path fill="#004aad" d="M 406.570312 117.578125 L 398.296875 117.578125 C 397.984375 117.578125 397.734375 117.324219 397.734375 117.011719 C 397.734375 116.703125 397.984375 116.449219 398.296875 116.449219 L 406.570312 116.449219 C 406.878906 116.449219 407.132812 116.703125 407.132812 117.011719 C 407.132812 117.324219 406.878906 117.578125 406.570312 117.578125 " fill-opacity="1" fill-rule="nonzero"/><path fill="#ffffff" d="M 477.707031 115.84375 L 477.707031 185.152344 C 477.707031 186.957031 476.230469 188.433594 474.425781 188.433594 L 439.359375 188.433594 C 437.554688 188.433594 436.078125 186.957031 436.078125 185.152344 L 436.078125 115.84375 C 436.078125 114.039062 437.554688 112.5625 439.359375 112.5625 L 474.425781 112.5625 C 476.230469 112.5625 477.707031 114.039062 477.707031 115.84375 " fill-opacity="1" fill-rule="nonzero"/><path fill="#004aad" d="M 439.363281 113.125 C 437.863281 113.125 436.640625 114.347656 436.640625 115.84375 L 436.640625 185.152344 C 436.640625 186.648438 437.863281 187.871094 439.363281 187.871094 L 474.425781 187.871094 C 475.921875 187.871094 477.144531 186.648438 477.144531 185.152344 L 477.144531 115.84375 C 477.144531 114.347656 475.921875 113.125 474.425781 113.125 Z M 474.425781 188.996094 L 439.363281 188.996094 C 437.242188 188.996094 435.515625 187.273438 435.515625 185.152344 L 435.515625 115.84375 C 435.515625 113.722656 437.242188 112 439.363281 112 L 474.425781 112 C 476.542969 112 478.273438 113.722656 478.273438 115.84375 L 478.273438 185.152344 C 478.273438 187.273438 476.542969 188.996094 474.425781 188.996094 " fill-opacity="1" fill-rule="nonzero"/><path fill="#004aad" d="M 467.34375 112.5625 C 467.34375 114.589844 465.683594 116.253906 463.65625 116.253906 L 449.457031 116.253906 C 447.429688 116.253906 445.765625 114.589844 445.765625 112.5625 L 467.34375 112.5625 " fill-opacity="1" fill-rule="nonzero"/><path fill="#004aad" d="M 412.53125 220.335938 L 391.050781 220.335938 C 390.738281 220.335938 390.488281 220.082031 390.488281 219.769531 L 390.488281 198.292969 C 390.488281 197.980469 390.738281 197.726562 391.050781 197.726562 L 408.503906 197.726562 C 408.816406 197.726562 409.070312 197.980469 409.070312 198.292969 C 409.070312 198.601562 408.816406 198.855469 408.503906 198.855469 L 391.613281 198.855469 L 391.613281 219.207031 L 411.964844 219.207031 L 411.964844 208.453125 C 411.964844 208.140625 412.21875 207.886719 412.53125 207.886719 C 412.839844 207.886719 413.09375 208.140625 413.09375 208.453125 L 413.09375 219.769531 C 413.09375 220.082031 412.839844 220.335938 412.53125 220.335938 " fill-opacity="1" fill-rule="nonzero"/><path fill="#004aad" d="M 401.789062 216.648438 C 401.609375 216.648438 401.4375 216.558594 401.332031 216.410156 L 392.914062 204.628906 C 392.734375 204.375 392.792969 204.023438 393.046875 203.839844 C 393.300781 203.664062 393.652344 203.722656 393.835938 203.976562 L 401.789062 215.113281 L 415.996094 195.316406 C 416.179688 195.066406 416.53125 195.007812 416.785156 195.1875 C 417.039062 195.367188 417.09375 195.722656 416.914062 195.972656 L 402.246094 216.410156 C 402.140625 216.5625 401.972656 216.648438 401.789062 216.648438 " fill-opacity="1" fill-rule="nonzero"/><path fill="#004aad" d="M 412.53125 251.566406 L 391.050781 251.566406 C 390.738281 251.566406 390.488281 251.3125 390.488281 251.003906 L 390.488281 229.523438 C 390.488281 229.210938 390.738281 228.960938 391.050781 228.960938 L 408.503906 228.960938 C 408.816406 228.960938 409.070312 229.210938 409.070312 229.523438 C 409.070312 229.832031 408.816406 230.085938 408.503906 230.085938 L 391.613281 230.085938 L 391.613281 250.4375 L 411.964844 250.4375 L 411.964844 239.683594 C 411.964844 239.371094 412.21875 239.121094 412.53125 239.121094 C 412.839844 239.121094 413.09375 239.371094 413.09375 239.683594 L 413.09375 251.003906 C 413.09375 251.3125 412.839844 251.566406 412.53125 251.566406 " fill-opacity="1" fill-rule="nonzero"/><path fill="#004aad" d="M 401.789062 247.878906 C 401.609375 247.878906 401.4375 247.792969 401.332031 247.640625 L 392.914062 235.859375 C 392.734375 235.609375 392.792969 235.257812 393.046875 235.074219 C 393.300781 234.894531 393.652344 234.953125 393.835938 235.207031 L 401.789062 246.347656 L 415.996094 226.546875 C 416.179688 226.296875 416.53125 226.238281 416.785156 226.421875 C 417.039062 226.601562 417.09375 226.953125 416.914062 227.207031 L 402.246094 247.640625 C 402.140625 247.792969 401.972656 247.878906 401.789062 247.878906 " fill-opacity="1" fill-rule="nonzero"/><path fill="#004aad" d="M 412.53125 282.796875 L 391.050781 282.796875 C 390.738281 282.796875 390.488281 282.542969 390.488281 282.234375 L 390.488281 260.753906 C 390.488281 260.441406 390.738281 260.1875 391.050781 260.1875 L 408.503906 260.1875 C 408.816406 260.1875 409.070312 260.441406 409.070312 260.753906 C 409.070312 261.066406 408.816406 261.316406 408.503906 261.316406 L 391.613281 261.316406 L 391.613281 281.671875 L 411.964844 281.671875 L 411.964844 270.914062 C 411.964844 270.605469 412.21875 270.351562 412.53125 270.351562 C 412.839844 270.351562 413.09375 270.605469 413.09375 270.914062 L 413.09375 282.234375 C 413.09375 282.542969 412.839844 282.796875 412.53125 282.796875 " fill-opacity="1" fill-rule="nonzero"/><path fill="#004aad" d="M 412.53125 314.027344 L 391.050781 314.027344 C 390.738281 314.027344 390.488281 313.773438 390.488281 313.464844 L 390.488281 291.984375 C 390.488281 291.671875 390.738281 291.421875 391.050781 291.421875 L 408.503906 291.421875 C 408.816406 291.421875 409.070312 291.671875 409.070312 291.984375 C 409.070312 292.296875 408.816406 292.546875 408.503906 292.546875 L 391.613281 292.546875 L 391.613281 312.902344 L 411.964844 312.902344 L 411.964844 302.148438 C 411.964844 301.835938 412.21875 301.585938 412.53125 301.585938 C 412.839844 301.585938 413.09375 301.835938 413.09375 302.148438 L 413.09375 313.464844 C 413.09375 313.773438 412.839844 314.027344 412.53125 314.027344 " fill-opacity="1" fill-rule="nonzero"/><path fill="#004aad" d="M 466.753906 220.335938 L 445.273438 220.335938 C 444.964844 220.335938 444.710938 220.082031 444.710938 219.769531 L 444.710938 198.292969 C 444.710938 197.980469 444.964844 197.726562 445.273438 197.726562 L 462.726562 197.726562 C 463.039062 197.726562 463.289062 197.980469 463.289062 198.292969 C 463.289062 198.601562 463.039062 198.855469 462.726562 198.855469 L 445.835938 198.855469 L 445.835938 219.207031 L 466.191406 219.207031 L 466.191406 208.453125 C 466.191406 208.140625 466.441406 207.886719 466.753906 207.886719 C 467.0625 207.886719 467.316406 208.140625 467.316406 208.453125 L 467.316406 219.769531 C 467.316406 220.082031 467.0625 220.335938 466.753906 220.335938 " fill-opacity="1" fill-rule="nonzero"/><path fill="#004aad" d="M 456.011719 216.648438 C 455.832031 216.648438 455.660156 216.558594 455.554688 216.410156 L 447.140625 204.628906 C 446.957031 204.375 447.015625 204.023438 447.269531 203.839844 C 447.523438 203.664062 447.875 203.722656 448.058594 203.976562 L 456.011719 215.113281 L 470.222656 195.316406 C 470.402344 195.066406 470.757812 195.007812 471.007812 195.1875 C 471.261719 195.367188 471.320312 195.722656 471.136719 195.972656 L 456.472656 216.410156 C 456.363281 216.5625 456.195312 216.648438 456.011719 216.648438 " fill-opacity="1" fill-rule="nonzero"/><path fill="#004aad" d="M 466.753906 251.566406 L 445.273438 251.566406 C 444.964844 251.566406 444.710938 251.3125 444.710938 251.003906 L 444.710938 229.523438 C 444.710938 229.210938 444.964844 228.960938 445.273438 228.960938 L 462.726562 228.960938 C 463.039062 228.960938 463.289062 229.210938 463.289062 229.523438 C 463.289062 229.832031 463.039062 230.085938 462.726562 230.085938 L 445.835938 230.085938 L 445.835938 250.4375 L 466.191406 250.4375 L 466.191406 239.683594 C 466.191406 239.371094 466.441406 239.121094 466.753906 239.121094 C 467.0625 239.121094 467.316406 239.371094 467.316406 239.683594 L 467.316406 251.003906 C 467.316406 251.3125 467.0625 251.566406 466.753906 251.566406 " fill-opacity="1" fill-rule="nonzero"/><path fill="#004aad" d="M 456.011719 247.878906 C 455.832031 247.878906 455.660156 247.792969 455.554688 247.640625 L 447.140625 235.859375 C 446.957031 235.609375 447.015625 235.257812 447.269531 235.074219 C 447.523438 234.894531 447.875 234.953125 448.058594 235.207031 L 456.011719 246.347656 L 470.222656 226.546875 C 470.402344 226.296875 470.757812 226.238281 471.007812 226.421875 C 471.261719 226.601562 471.320312 226.953125 471.136719 227.207031 L 456.472656 247.640625 C 456.363281 247.792969 456.195312 247.878906 456.011719 247.878906 " fill-opacity="1" fill-rule="nonzero"/><path fill="#004aad" d="M 466.753906 282.796875 L 445.273438 282.796875 C 444.964844 282.796875 444.710938 282.542969 444.710938 282.234375 L 444.710938 260.753906 C 444.710938 260.441406 444.964844 260.1875 445.273438 260.1875 L 462.726562 260.1875 C 463.039062 260.1875 463.289062 260.441406 463.289062 260.753906 C 463.289062 261.066406 463.039062 261.316406 462.726562 261.316406 L 445.835938 261.316406 L 445.835938 281.671875 L 466.191406 281.671875 L 466.191406 270.914062 C 466.191406 270.605469 466.441406 270.351562 466.753906 270.351562 C 467.0625 270.351562 467.316406 270.605469 467.316406 270.914062 L 467.316406 282.234375 C 467.316406 282.542969 467.0625 282.796875 466.753906 282.796875 " fill-opacity="1" fill-rule="nonzero"/><path fill="#004aad" d="M 456.011719 279.109375 C 455.832031 279.109375 455.660156 279.019531 455.554688 278.875 L 447.140625 267.089844 C 446.957031 266.835938 447.015625 266.488281 447.269531 266.304688 C 447.523438 266.125 447.875 266.183594 448.058594 266.4375 L 456.011719 277.578125 L 470.222656 257.78125 C 470.402344 257.527344 470.757812 257.46875 471.007812 257.652344 C 471.261719 257.832031 471.320312 258.183594 471.136719 258.4375 L 456.472656 278.875 C 456.363281 279.019531 456.195312 279.109375 456.011719 279.109375 " fill-opacity="1" fill-rule="nonzero"/><path fill="#004aad" d="M 466.753906 314.027344 L 445.273438 314.027344 C 444.964844 314.027344 444.710938 313.773438 444.710938 313.464844 L 444.710938 291.984375 C 444.710938 291.671875 444.964844 291.421875 445.273438 291.421875 L 462.726562 291.421875 C 463.039062 291.421875 463.289062 291.671875 463.289062 291.984375 C 463.289062 292.296875 463.039062 292.546875 462.726562 292.546875 L 445.835938 292.546875 L 445.835938 312.902344 L 466.191406 312.902344 L 466.191406 302.148438 C 466.191406 301.835938 466.441406 301.585938 466.753906 301.585938 C 467.0625 301.585938 467.316406 301.835938 467.316406 302.148438 L 467.316406 313.464844 C 467.316406 313.773438 467.0625 314.027344 466.753906 314.027344 " fill-opacity="1" fill-rule="nonzero"/><g clip-path="url(#9431067d96)"><path fill="#162667" d="M 517.996094 553.039062 L 533.445312 495.613281 L 487.339844 452.972656 C 487.339844 452.972656 507.894531 420.585938 523.945312 415.597656 C 539.996094 410.609375 617.570312 406.507812 637.722656 408.46875 C 669.6875 411.578125 683.21875 453.976562 686.914062 457.074219 L 696.714844 473.191406 L 649.957031 504.542969 L 651.734375 553.039062 L 517.996094 553.039062 " fill-opacity="1" fill-rule="nonzero"/></g><path fill="#ffffff" d="M 534.753906 492.953125 C 534.714844 492.953125 534.675781 492.949219 534.636719 492.941406 C 534.332031 492.878906 534.136719 492.582031 534.203125 492.273438 L 540.917969 460.125 C 540.980469 459.820312 541.28125 459.628906 541.585938 459.691406 C 541.890625 459.753906 542.085938 460.050781 542.023438 460.355469 L 535.304688 492.507812 C 535.25 492.773438 535.015625 492.953125 534.753906 492.953125 " fill-opacity="1" fill-rule="nonzero"/><path fill="#ffffff" d="M 638.082031 508.972656 C 637.835938 508.972656 637.613281 508.8125 637.539062 508.5625 C 635.335938 500.949219 632.769531 493.335938 629.925781 485.933594 C 629.8125 485.644531 629.957031 485.316406 630.246094 485.203125 C 630.539062 485.09375 630.863281 485.238281 630.976562 485.53125 C 633.835938 492.960938 636.40625 500.605469 638.625 508.25 C 638.710938 508.546875 638.539062 508.863281 638.238281 508.949219 C 638.1875 508.964844 638.132812 508.972656 638.082031 508.972656 " fill-opacity="1" fill-rule="nonzero"/><path fill="#004aad" d="M 725.765625 481.292969 L 660.414062 481.292969 C 658.492188 481.292969 657.132812 479.417969 657.734375 477.59375 L 687.78125 386.167969 C 688.160156 385.007812 689.242188 384.226562 690.457031 384.226562 L 755.8125 384.226562 C 757.734375 384.226562 759.089844 386.105469 758.492188 387.929688 L 728.445312 479.355469 C 728.066406 480.511719 726.984375 481.292969 725.765625 481.292969 " fill-opacity="1" fill-rule="nonzero"/><path fill="#ffffff" d="M 681.46875 486.304688 C 681.46875 486.304688 670.023438 474.4375 672.289062 472.203125 C 674.550781 469.972656 683.066406 478.40625 683.066406 478.40625 C 683.066406 478.40625 671.816406 464.664062 675.058594 461.632812 C 678.304688 458.59375 690.878906 472.203125 690.878906 472.203125 C 690.878906 472.203125 680.707031 459.230469 683.066406 457.074219 C 685.433594 454.917969 695.992188 463.578125 700.945312 471.691406 C 700.945312 471.691406 689.265625 455.519531 692.164062 453.054688 C 695.058594 450.589844 722.0625 481.644531 722.0625 481.644531 C 722.0625 481.644531 710.953125 535.785156 669.6875 543.175781 C 669.6875 543.175781 651.511719 546.871094 639.351562 511.089844 L 677.152344 486.304688 L 679.304688 488.421875 L 681.46875 486.304688 " fill-opacity="1" fill-rule="nonzero"/><path fill="#004aad" d="M 668.140625 543.859375 C 665.035156 543.859375 657.980469 542.730469 650.582031 533.867188 C 650.386719 533.628906 650.417969 533.273438 650.65625 533.074219 C 650.898438 532.875 651.25 532.90625 651.449219 533.144531 C 660.699219 544.230469 669.488281 542.640625 669.578125 542.621094 C 690.683594 538.839844 703.671875 522.453125 710.855469 509.367188 C 718.046875 496.261719 721.007812 483.78125 721.449219 481.800781 C 720.332031 480.523438 714.328125 473.683594 708.054688 467.09375 C 694.96875 453.347656 692.816406 453.351562 692.519531 453.488281 C 691.183594 454.625 694.550781 461.246094 699.054688 467.984375 C 699.933594 469.117188 700.734375 470.269531 701.425781 471.394531 C 701.582031 471.65625 701.507812 471.992188 701.253906 472.160156 C 701.003906 472.328125 700.664062 472.265625 700.488281 472.019531 C 700.023438 471.378906 699.144531 470.144531 698.101562 468.585938 C 693.574219 462.746094 687.289062 457.738281 684.40625 457.328125 C 683.960938 457.265625 683.636719 457.320312 683.449219 457.492188 C 682.230469 458.605469 686.585938 465.816406 691.324219 471.855469 C 691.511719 472.09375 691.472656 472.4375 691.246094 472.636719 C 691.015625 472.828125 690.671875 472.808594 690.464844 472.585938 C 687.71875 469.617188 679.835938 461.878906 676.375 461.753906 C 675.972656 461.742188 675.667969 461.832031 675.445312 462.039062 C 673.363281 463.988281 679.285156 472.894531 683.507812 478.046875 C 683.695312 478.28125 683.667969 478.621094 683.449219 478.824219 C 683.226562 479.023438 682.886719 479.015625 682.671875 478.808594 C 679.394531 475.566406 673.960938 471.351562 672.683594 472.605469 C 671.566406 473.707031 676.53125 480.375 681.875 485.914062 C 682.089844 486.136719 682.085938 486.496094 681.859375 486.710938 C 681.636719 486.925781 681.277344 486.921875 681.0625 486.695312 C 678.289062 483.816406 669.421875 474.238281 671.890625 471.804688 C 673.359375 470.359375 676.515625 472.175781 679.199219 474.25 C 676.011719 469.738281 672.308594 463.433594 674.675781 461.21875 C 675.121094 460.800781 675.707031 460.601562 676.414062 460.628906 C 678.96875 460.71875 683.089844 463.964844 686.351562 466.9375 C 683.632812 462.871094 681.070312 458.136719 682.691406 456.660156 C 683.136719 456.25 683.769531 456.097656 684.566406 456.214844 C 686.984375 456.558594 690.921875 459.347656 694.613281 462.996094 C 692.101562 458.597656 690.136719 454.035156 691.796875 452.625 C 692.515625 452.015625 694.011719 450.738281 708.609375 466.039062 C 715.648438 473.414062 722.417969 481.199219 722.488281 481.273438 C 722.601562 481.40625 722.648438 481.585938 722.613281 481.757812 C 722.585938 481.894531 719.726562 495.542969 711.839844 509.910156 C 704.542969 523.207031 691.320312 539.871094 669.785156 543.726562 C 669.699219 543.746094 669.113281 543.859375 668.140625 543.859375 " fill-opacity="1" fill-rule="nonzero"/><path fill="#004aad" d="M 662.347656 508.421875 C 662.21875 508.421875 662.09375 508.378906 661.988281 508.289062 C 661.75 508.089844 661.71875 507.734375 661.917969 507.496094 C 662.726562 506.527344 663.605469 505.472656 664.53125 504.355469 C 669.675781 498.164062 676.078125 490.460938 681.089844 485.886719 C 681.320312 485.679688 681.675781 485.695312 681.886719 485.925781 C 682.097656 486.15625 682.078125 486.511719 681.851562 486.722656 C 676.894531 491.238281 670.519531 498.910156 665.398438 505.078125 C 664.472656 506.195312 663.589844 507.25 662.78125 508.222656 C 662.671875 508.355469 662.507812 508.421875 662.347656 508.421875 " fill-opacity="1" fill-rule="nonzero"/><path fill="#004aad" d="M 685.808594 490.824219 C 685.667969 490.824219 685.53125 490.773438 685.417969 490.671875 L 682.074219 487.5 C 681.851562 487.289062 681.839844 486.929688 682.054688 486.703125 C 682.269531 486.476562 682.625 486.46875 682.851562 486.679688 L 686.195312 489.851562 C 686.421875 490.0625 686.429688 490.421875 686.21875 490.648438 C 686.105469 490.765625 685.957031 490.824219 685.808594 490.824219 " fill-opacity="1" fill-rule="nonzero"/><path fill="#004aad" d="M 687.4375 483.921875 C 687.277344 483.921875 687.117188 483.851562 687.007812 483.71875 L 683.371094 479.445312 C 683.171875 479.207031 683.199219 478.851562 683.4375 478.648438 C 683.675781 478.449219 684.03125 478.476562 684.234375 478.714844 L 687.867188 482.992188 C 688.070312 483.230469 688.039062 483.585938 687.800781 483.789062 C 687.699219 483.875 687.566406 483.921875 687.4375 483.921875 " fill-opacity="1" fill-rule="nonzero"/><path fill="#004aad" d="M 695.097656 476.78125 C 694.949219 476.78125 694.804688 476.722656 694.695312 476.609375 L 691.386719 473.230469 C 691.171875 473.003906 691.175781 472.652344 691.398438 472.433594 C 691.621094 472.214844 691.976562 472.21875 692.195312 472.441406 L 695.5 475.824219 C 695.71875 476.046875 695.710938 476.40625 695.488281 476.621094 C 695.378906 476.730469 695.238281 476.78125 695.097656 476.78125 " fill-opacity="1" fill-rule="nonzero"/><path fill="#004aad" d="M 488.710938 475.269531 C 488.464844 475.269531 488.234375 475.105469 488.167969 474.851562 L 483.675781 457.804688 C 483.597656 457.503906 483.777344 457.195312 484.078125 457.117188 C 484.378906 457.039062 484.6875 457.214844 484.765625 457.519531 L 489.257812 474.5625 C 489.335938 474.867188 489.15625 475.171875 488.855469 475.253906 C 488.808594 475.265625 488.761719 475.269531 488.710938 475.269531 " fill-opacity="1" fill-rule="nonzero"/><path fill="#ffffff" d="M 471.148438 376.484375 C 474.4375 385.285156 484.1875 456.683594 484.1875 456.683594 L 487.339844 452.972656 C 487.339844 452.972656 516.492188 470.371094 528.550781 491.085938 C 528.550781 491.085938 511.980469 517.699219 475.011719 517.738281 C 416.480469 517.800781 431.773438 395.804688 431.773438 395.804688 C 431.773438 395.804688 425.300781 396.003906 422.835938 389 C 420.367188 381.988281 420.707031 376.777344 427.714844 377.4375 C 427.714844 377.4375 424.316406 366.433594 433.78125 365.988281 C 433.78125 365.988281 434.402344 352.320312 447.679688 362.960938 C 447.679688 362.960938 430.488281 337.703125 440.730469 334.917969 C 443.546875 334.148438 444.972656 332.773438 449.019531 339.835938 C 453.066406 346.894531 467.859375 367.6875 471.148438 376.484375 " fill-opacity="1" fill-rule="nonzero"/><path fill="#004aad" d="M 474.96875 518.300781 C 464.335938 518.300781 455.390625 514.277344 448.378906 506.34375 C 434.316406 490.425781 430.40625 461.175781 429.597656 439.445312 C 428.808594 418.222656 430.742188 399.84375 431.144531 396.335938 C 429.367188 396.167969 424.410156 395.164062 422.304688 389.183594 C 420.511719 384.097656 420.398438 380.652344 421.964844 378.652344 C 422.972656 377.359375 424.660156 376.742188 426.972656 376.824219 C 426.585938 375.125 425.941406 371.035156 427.921875 368.210938 C 429.054688 366.597656 430.851562 365.671875 433.261719 365.457031 C 433.417969 364.050781 434.109375 360.132812 437.078125 358.789062 C 439.25 357.804688 442.09375 358.453125 445.550781 360.714844 C 442.199219 355.347656 435.179688 343.054688 437.3125 337.28125 C 437.863281 335.792969 438.960938 334.8125 440.582031 334.375 C 440.859375 334.296875 441.125 334.214844 441.382812 334.136719 C 444.105469 333.292969 445.828125 333.128906 449.507812 339.550781 C 450.816406 341.835938 453.257812 345.570312 456.085938 349.890625 C 462.035156 358.980469 469.433594 370.292969 471.675781 376.289062 C 474.75 384.507812 483.21875 445.492188 484.574219 455.355469 L 486.910156 452.609375 C 487.109375 452.371094 487.464844 452.339844 487.703125 452.542969 C 487.941406 452.742188 487.96875 453.097656 487.769531 453.335938 L 484.617188 457.046875 C 484.476562 457.214844 484.242188 457.285156 484.03125 457.222656 C 483.816406 457.160156 483.660156 456.980469 483.628906 456.757812 C 483.53125 456.046875 473.851562 385.324219 470.621094 376.683594 C 468.425781 370.804688 461.058594 359.550781 455.144531 350.511719 C 452.304688 346.171875 449.855469 342.425781 448.53125 340.113281 C 445.121094 334.160156 443.835938 334.554688 441.714844 335.214844 C 441.445312 335.296875 441.171875 335.382812 440.878906 335.460938 C 439.613281 335.808594 438.792969 336.53125 438.371094 337.671875 C 435.859375 344.472656 448.023438 362.464844 448.144531 362.648438 C 448.300781 362.878906 448.265625 363.1875 448.0625 363.378906 C 447.859375 363.566406 447.546875 363.578125 447.324219 363.402344 C 443.085938 360.003906 439.796875 358.800781 437.542969 359.816406 C 434.605469 361.140625 434.347656 365.964844 434.347656 366.011719 C 434.332031 366.304688 434.101562 366.539062 433.808594 366.550781 C 431.515625 366.65625 429.84375 367.4375 428.847656 368.855469 C 426.660156 371.964844 428.238281 377.222656 428.253906 377.273438 C 428.308594 377.453125 428.269531 377.648438 428.152344 377.792969 C 428.03125 377.941406 427.847656 378.019531 427.660156 378 C 425.339844 377.78125 423.722656 378.234375 422.851562 379.34375 C 421.5625 380.996094 421.734375 384.183594 423.363281 388.808594 C 425.664062 395.328125 431.507812 395.25 431.757812 395.242188 C 431.914062 395.230469 432.082031 395.304688 432.191406 395.425781 C 432.300781 395.550781 432.351562 395.710938 432.332031 395.875 C 432.234375 396.667969 422.695312 475.566406 449.226562 505.597656 C 456.011719 513.28125 464.671875 517.175781 474.96875 517.175781 C 474.984375 517.175781 474.996094 517.175781 475.011719 517.175781 C 511.222656 517.136719 527.90625 491.050781 528.070312 490.785156 C 528.234375 490.523438 528.582031 490.441406 528.847656 490.605469 C 529.109375 490.769531 529.191406 491.117188 529.027344 491.382812 C 528.855469 491.660156 524.726562 498.203125 515.984375 504.84375 C 507.921875 510.972656 494.265625 518.28125 475.015625 518.300781 C 475 518.300781 474.984375 518.300781 474.96875 518.300781 " fill-opacity="1" fill-rule="nonzero"/><path fill="#004aad" d="M 464.171875 397.40625 C 460.417969 397.410156 456.679688 395.417969 454.683594 392.21875 C 454.007812 391.136719 453.519531 389.9375 453.042969 388.777344 C 452.285156 386.921875 451.574219 385.164062 450.171875 383.941406 C 449.363281 383.234375 448.382812 382.765625 447.347656 382.265625 C 446.898438 382.046875 446.449219 381.832031 446.011719 381.59375 C 444.035156 380.523438 442.871094 379.203125 442.558594 377.667969 C 442.203125 375.941406 443.078125 373.960938 444.734375 372.734375 C 446.253906 371.613281 448.101562 371.207031 449.703125 370.957031 C 455.808594 370.007812 462.28125 370.859375 467.9375 373.347656 C 468.222656 373.472656 468.351562 373.804688 468.226562 374.089844 C 468.101562 374.375 467.769531 374.503906 467.484375 374.378906 C 462.023438 371.976562 455.769531 371.15625 449.875 372.070312 C 448.40625 372.296875 446.726562 372.664062 445.40625 373.640625 C 444.316406 374.449219 443.351562 375.9375 443.664062 377.445312 C 443.964844 378.925781 445.402344 379.980469 446.550781 380.605469 C 446.96875 380.832031 447.40625 381.039062 447.835938 381.25 C 448.894531 381.757812 449.988281 382.285156 450.914062 383.089844 C 452.515625 384.492188 453.316406 386.453125 454.089844 388.355469 C 454.542969 389.46875 455.011719 390.621094 455.636719 391.621094 C 457.699219 394.921875 461.820312 396.789062 465.660156 396.160156 C 465.96875 396.113281 466.257812 396.320312 466.308594 396.625 C 466.355469 396.933594 466.148438 397.222656 465.84375 397.273438 C 465.289062 397.363281 464.730469 397.40625 464.171875 397.40625 " fill-opacity="1" fill-rule="nonzero"/><path fill="#004aad" d="M 446.65625 389.15625 C 445.757812 389.15625 444.816406 388.9375 443.933594 388.496094 C 442.324219 387.691406 441.113281 386.320312 440.238281 385.222656 C 436.164062 380.082031 433.890625 373.644531 433.835938 367.085938 C 433.832031 366.777344 434.085938 366.519531 434.398438 366.515625 C 434.726562 366.527344 434.960938 366.765625 434.964844 367.078125 C 435.015625 373.386719 437.203125 379.578125 441.121094 384.519531 C 441.925781 385.53125 443.027344 386.78125 444.4375 387.488281 C 445.816406 388.175781 447.351562 388.214844 448.449219 387.589844 C 449.503906 386.988281 450.238281 385.453125 449.640625 384.292969 C 449.5 384.015625 449.609375 383.675781 449.886719 383.535156 C 450.164062 383.394531 450.503906 383.5 450.644531 383.777344 C 451.476562 385.398438 450.726562 387.589844 449.007812 388.570312 C 448.320312 388.960938 447.507812 389.15625 446.65625 389.15625 " fill-opacity="1" fill-rule="nonzero"/><path fill="#004aad" d="M 438.828125 392.605469 C 438.316406 392.605469 437.796875 392.550781 437.28125 392.433594 C 434.570312 391.820312 432.113281 389.746094 430.527344 386.742188 C 429.140625 384.109375 428.550781 381.1875 427.988281 378.367188 C 427.929688 378.058594 428.125 377.761719 428.429688 377.703125 C 428.738281 377.640625 429.035156 377.839844 429.09375 378.144531 C 429.640625 380.886719 430.210938 383.726562 431.527344 386.21875 C 432.953125 388.929688 435.140625 390.792969 437.53125 391.335938 C 440.246094 391.949219 443.144531 390.578125 444.003906 388.277344 C 444.109375 387.984375 444.4375 387.835938 444.726562 387.945312 C 445.019531 388.054688 445.167969 388.375 445.058594 388.667969 C 444.179688 391.035156 441.570312 392.605469 438.828125 392.605469 " fill-opacity="1" fill-rule="nonzero"/><path fill="#004aad" d="M 432.28125 395.636719 C 431.984375 395.636719 431.734375 395.402344 431.71875 395.105469 C 431.703125 394.792969 431.941406 394.527344 432.25 394.511719 C 433.6875 394.429688 435.027344 393.210938 435.238281 391.789062 C 435.285156 391.480469 435.570312 391.269531 435.878906 391.3125 C 436.1875 391.359375 436.398438 391.648438 436.351562 391.957031 C 436.058594 393.910156 434.285156 395.527344 432.3125 395.632812 C 432.300781 395.636719 432.292969 395.636719 432.28125 395.636719 " fill-opacity="1" fill-rule="nonzero"/><path fill="#ffffff" d="M 559.03125 386.453125 L 567.953125 407.96875 L 560.078125 411.578125 C 560.078125 411.578125 559.707031 424.914062 580.894531 424.308594 C 602.082031 423.703125 613 408.066406 613 408.066406 L 597.417969 404.28125 L 585.617188 373.617188 L 559.03125 386.453125 " fill-opacity="1" fill-rule="nonzero"/><path fill="#004aad" d="M 560.078125 412.140625 C 559.863281 412.140625 559.660156 412.015625 559.566406 411.808594 C 559.4375 411.527344 559.5625 411.191406 559.84375 411.0625 L 567.226562 407.679688 L 558.511719 386.671875 C 558.398438 386.394531 558.519531 386.078125 558.789062 385.949219 L 585.371094 373.109375 C 585.511719 373.039062 585.675781 373.035156 585.824219 373.089844 C 585.972656 373.152344 586.085938 373.265625 586.140625 373.414062 L 597.839844 403.800781 L 613.132812 407.515625 C 613.433594 407.59375 613.621094 407.894531 613.546875 408.199219 C 613.472656 408.503906 613.167969 408.6875 612.867188 408.613281 L 597.285156 404.828125 C 597.109375 404.785156 596.960938 404.65625 596.894531 404.484375 L 585.308594 374.390625 L 559.757812 386.730469 L 568.476562 407.75 C 568.59375 408.03125 568.46875 408.351562 568.191406 408.480469 L 560.3125 412.089844 C 560.238281 412.125 560.15625 412.140625 560.078125 412.140625 " fill-opacity="1" fill-rule="nonzero"/><path fill="#004aad" d="M 571.453125 415.953125 C 571.238281 415.953125 571.035156 415.828125 570.9375 415.621094 L 567.980469 409.128906 C 567.851562 408.847656 567.976562 408.511719 568.261719 408.382812 C 568.542969 408.253906 568.878906 408.378906 569.007812 408.664062 L 571.964844 415.15625 C 572.09375 415.4375 571.96875 415.773438 571.6875 415.902344 C 571.613281 415.9375 571.53125 415.953125 571.453125 415.953125 " fill-opacity="1" fill-rule="nonzero"/><path fill="#004aad" d="M 608.484375 358.621094 C 606.300781 355.347656 601.769531 354.105469 599.976562 350.609375 C 598.59375 347.90625 599.25 344.679688 599.527344 341.660156 C 600.261719 333.652344 597.964844 325.394531 593.195312 318.921875 C 589.925781 314.488281 585.394531 310.816406 580.066406 309.425781 C 575.296875 308.1875 570.238281 308.832031 565.433594 309.910156 C 559.824219 311.171875 554.164062 313.117188 549.933594 317.011719 C 544.449219 322.0625 542.082031 329.957031 542.796875 337.378906 C 544.210938 352.089844 555.492188 364.667969 568.824219 370.058594 C 575.507812 372.761719 582.714844 374.015625 589.917969 374.433594 C 593.292969 374.628906 596.730469 374.632812 600 373.761719 C 603.269531 372.886719 606.386719 371.050781 608.214844 368.207031 C 610.050781 365.359375 610.359375 361.433594 608.484375 358.621094 " fill-opacity="1" fill-rule="nonzero"/><path fill="#ffffff" d="M 545.765625 369.917969 C 545.0625 374.328125 544.789062 379.019531 546.609375 383.09375 C 549.390625 389.320312 556.753906 392.679688 563.542969 392.050781 C 570.332031 391.425781 576.449219 387.425781 581.019531 382.363281 C 582.089844 381.175781 583.160156 379.878906 584.65625 379.3125 C 586.554688 378.589844 588.660156 379.210938 590.6875 379.3125 C 595.140625 379.53125 599.605469 376.925781 601.605469 372.949219 C 602.785156 370.609375 603.078125 367.625 601.605469 365.457031 C 600.1875 363.371094 597.449219 362.515625 594.933594 362.695312 C 592.417969 362.875 590.054688 363.914062 587.753906 364.941406 C 588.792969 363.683594 589.042969 361.894531 588.664062 360.304688 C 588.28125 358.714844 587.339844 357.3125 586.226562 356.117188 C 582.492188 352.109375 577.070312 350.148438 571.808594 348.613281 C 560.078125 345.191406 558.582031 340.777344 557.292969 340.976562 C 556.007812 341.175781 554.550781 344.886719 553.972656 345.941406 C 549.902344 353.390625 547.105469 361.535156 545.765625 369.917969 " fill-opacity="1" fill-rule="nonzero"/><path fill="#004aad" d="M 557.382812 341.535156 C 556.648438 341.648438 555.398438 344.28125 554.925781 345.273438 C 554.742188 345.660156 554.585938 345.992188 554.46875 346.207031 C 550.398438 353.65625 547.65625 361.664062 546.324219 370.007812 C 545.71875 373.800781 545.257812 378.6875 547.125 382.863281 C 549.644531 388.507812 556.53125 392.132812 563.492188 391.492188 C 569.492188 390.9375 575.566406 387.558594 580.597656 381.984375 L 580.875 381.679688 C 581.898438 380.535156 582.960938 379.351562 584.457031 378.785156 C 585.953125 378.214844 587.523438 378.40625 589.042969 378.585938 C 589.597656 378.652344 590.171875 378.722656 590.714844 378.75 C 594.929688 378.960938 599.207031 376.464844 601.101562 372.695312 C 602.078125 370.757812 602.601562 367.921875 601.140625 365.773438 C 599.726562 363.695312 597.03125 363.113281 594.972656 363.257812 C 592.527344 363.429688 590.214844 364.460938 587.984375 365.457031 C 587.742188 365.5625 587.460938 365.488281 587.304688 365.28125 C 587.144531 365.070312 587.152344 364.78125 587.316406 364.578125 C 588.175781 363.546875 588.480469 361.960938 588.113281 360.433594 C 587.800781 359.125 587.027344 357.804688 585.816406 356.5 C 582.199219 352.625 576.871094 350.679688 571.652344 349.15625 C 563.371094 346.738281 560.039062 343.769531 558.4375 342.339844 C 558.035156 341.980469 557.53125 341.535156 557.382812 341.535156 Z M 561.898438 392.691406 C 555.066406 392.691406 548.597656 388.929688 546.097656 383.324219 C 544.109375 378.878906 544.578125 373.777344 545.210938 369.828125 L 545.765625 369.917969 L 545.210938 369.828125 C 546.5625 361.359375 549.347656 353.230469 553.480469 345.667969 C 553.589844 345.464844 553.738281 345.152344 553.910156 344.792969 C 554.949219 342.59375 555.988281 340.613281 557.207031 340.421875 C 557.863281 340.316406 558.363281 340.761719 559.1875 341.5 C 560.847656 342.976562 563.933594 345.726562 571.964844 348.074219 C 577.339844 349.640625 582.839844 351.65625 586.640625 355.734375 C 587.984375 357.179688 588.851562 358.671875 589.210938 360.171875 C 589.507812 361.414062 589.445312 362.664062 589.058594 363.753906 C 590.871094 362.984375 592.839844 362.277344 594.894531 362.132812 C 597.257812 361.964844 600.390625 362.664062 602.070312 365.140625 C 603.808594 367.691406 603.230469 370.976562 602.109375 373.203125 C 600.019531 377.359375 595.316406 380.105469 590.660156 379.875 C 590.074219 379.84375 589.480469 379.773438 588.910156 379.707031 C 587.460938 379.53125 586.09375 379.367188 584.855469 379.839844 C 583.617188 380.308594 582.648438 381.386719 581.710938 382.433594 L 581.4375 382.742188 C 576.214844 388.527344 569.878906 392.035156 563.597656 392.613281 C 563.027344 392.664062 562.460938 392.691406 561.898438 392.691406 " fill-opacity="1" fill-rule="nonzero"/><path fill="#004aad" d="M 587.144531 375.203125 C 587.03125 375.203125 586.914062 375.167969 586.816406 375.097656 C 586.5625 374.914062 586.507812 374.558594 586.691406 374.308594 C 588.546875 371.75 591.769531 370.347656 594.90625 370.730469 C 595.214844 370.765625 595.4375 371.046875 595.398438 371.355469 C 595.359375 371.667969 595.078125 371.882812 594.773438 371.847656 C 592.074219 371.519531 589.195312 372.773438 587.601562 374.972656 C 587.492188 375.121094 587.320312 375.203125 587.144531 375.203125 " fill-opacity="1" fill-rule="nonzero"/><path fill="#ffffff" d="M 686.46875 281.339844 C 685.625 280.855469 653.921875 226.347656 659.824219 158.710938 C 660.457031 151.429688 666.789062 145.859375 674.074219 146.464844 C 674.191406 146.472656 674.304688 146.484375 674.421875 146.496094 C 679.683594 147 684.121094 150.636719 685.691406 155.679688 C 689.695312 168.535156 696.730469 202.042969 698.332031 281.339844 L 686.46875 281.339844 " fill-opacity="1" fill-rule="nonzero"/><path fill="#004aad" d="M 686.734375 280.777344 L 697.757812 280.777344 C 696.136719 202.117188 689.171875 168.75 685.15625 155.851562 C 683.644531 150.992188 679.410156 147.542969 674.363281 147.054688 L 674.027344 147.027344 C 667.128906 146.457031 661 151.71875 660.386719 158.761719 C 657.359375 193.457031 664.4375 224.425781 670.910156 244.292969 C 677.949219 265.902344 685.613281 279.148438 686.734375 280.777344 Z M 698.332031 281.902344 L 686.46875 281.902344 C 686.367188 281.902344 686.269531 281.878906 686.183594 281.828125 C 685.390625 281.371094 677.144531 266.828125 670.082031 245.382812 C 663.449219 225.253906 656.191406 193.867188 659.261719 158.664062 C 659.929688 151 666.605469 145.277344 674.121094 145.902344 L 674.472656 145.933594 C 679.96875 146.460938 684.585938 150.222656 686.230469 155.515625 C 690.273438 168.503906 697.292969 202.113281 698.894531 281.328125 C 698.898438 281.480469 698.839844 281.625 698.734375 281.734375 C 698.628906 281.839844 698.484375 281.902344 698.332031 281.902344 " fill-opacity="1" fill-rule="nonzero"/><path fill="#004aad" d="M 688.09375 266.410156 C 687.839844 266.410156 687.609375 266.234375 687.546875 265.976562 C 680.570312 236.933594 676.03125 207.097656 674.054688 177.300781 C 674.035156 176.988281 674.269531 176.722656 674.578125 176.699219 C 674.894531 176.671875 675.160156 176.914062 675.179688 177.226562 C 677.152344 206.960938 681.679688 236.734375 688.640625 265.714844 C 688.714844 266.015625 688.527344 266.320312 688.222656 266.394531 C 688.179688 266.40625 688.136719 266.410156 688.09375 266.410156 " fill-opacity="1" fill-rule="nonzero"/><path fill="#ffffff" d="M 692.34375 281.339844 L 714.304688 281.339844 C 714.304688 281.339844 719.375 195.316406 721.066406 163.152344 C 722.753906 130.984375 709.101562 125.839844 701.773438 127.277344 C 696.65625 128.28125 674.617188 135.039062 692.34375 281.339844 " fill-opacity="1" fill-rule="nonzero"/><path fill="#004aad" d="M 692.84375 280.777344 L 713.777344 280.777344 C 714.207031 273.46875 718.902344 193.605469 720.503906 163.121094 C 721.546875 143.214844 716.644531 134.589844 712.347656 130.859375 C 708.035156 127.117188 703.59375 127.492188 701.886719 127.832031 C 696.007812 128.984375 691.6875 136.417969 689.046875 149.929688 C 684.121094 175.113281 685.394531 219.132812 692.84375 280.777344 Z M 714.304688 281.902344 L 692.34375 281.902344 C 692.0625 281.902344 691.820312 281.691406 691.785156 281.40625 C 680.128906 185.195312 683.636719 130.261719 701.667969 126.722656 C 703.539062 126.355469 708.398438 125.941406 713.085938 130.007812 C 717.570312 133.90625 722.699219 142.820312 721.628906 163.179688 C 719.957031 194.980469 714.921875 280.515625 714.871094 281.375 C 714.851562 281.671875 714.605469 281.902344 714.304688 281.902344 " fill-opacity="1" fill-rule="nonzero"/><path fill="#ffffff" d="M 717.347656 281.339844 L 735.167969 281.339844 C 735.167969 281.339844 744.675781 259.625 751.199219 235.089844 C 757.726562 210.554688 760.386719 182.679688 751.199219 181.328125 C 742.011719 179.976562 727.113281 191.007812 717.347656 281.339844 " fill-opacity="1" fill-rule="nonzero"/><path fill="#004aad" d="M 717.976562 280.777344 L 734.796875 280.777344 C 736.023438 277.925781 744.652344 257.507812 750.65625 234.945312 C 755.785156 215.65625 759.0625 191.484375 754.132812 184.003906 C 753.3125 182.753906 752.324219 182.066406 751.117188 181.886719 C 748.59375 181.515625 746.230469 182.210938 743.898438 184.015625 C 732.746094 192.644531 724.023438 225.199219 717.976562 280.777344 Z M 735.167969 281.902344 L 717.347656 281.902344 C 717.1875 281.902344 717.035156 281.835938 716.929688 281.714844 C 716.820312 281.59375 716.769531 281.4375 716.789062 281.277344 C 722.871094 225.003906 731.761719 191.980469 743.210938 183.121094 C 745.757812 181.148438 748.472656 180.359375 751.28125 180.769531 C 752.804688 180.996094 754.082031 181.875 755.074219 183.378906 C 760.21875 191.195312 757.109375 215.054688 751.746094 235.234375 C 745.285156 259.53125 735.78125 281.347656 735.6875 281.566406 C 735.597656 281.769531 735.390625 281.902344 735.167969 281.902344 " fill-opacity="1" fill-rule="nonzero"/><path fill="#004aad" d="M 725.964844 279.496094 C 725.917969 279.496094 725.867188 279.488281 725.816406 279.472656 C 725.515625 279.390625 725.339844 279.082031 725.421875 278.785156 L 742.5625 215.664062 C 742.644531 215.367188 742.949219 215.1875 743.253906 215.269531 C 743.554688 215.351562 743.730469 215.660156 743.648438 215.960938 L 726.511719 279.078125 C 726.441406 279.328125 726.214844 279.496094 725.964844 279.496094 " fill-opacity="1" fill-rule="nonzero"/><path fill="#004aad" d="M 701.269531 280.210938 C 701.265625 280.210938 701.265625 280.210938 701.261719 280.210938 C 700.953125 280.210938 700.703125 279.957031 700.703125 279.644531 L 701.367188 153.285156 C 701.367188 152.972656 701.617188 152.722656 701.929688 152.722656 C 702.242188 152.722656 702.492188 152.976562 702.492188 153.289062 L 701.832031 279.652344 C 701.828125 279.960938 701.578125 280.210938 701.269531 280.210938 " fill-opacity="1" fill-rule="nonzero"/><path fill="#da6404" d="M 740.949219 274.488281 L 678.445312 274.488281 C 674.78125 274.488281 671.984375 277.769531 672.566406 281.390625 L 681.289062 335.53125 L 738.105469 335.53125 L 746.824219 281.390625 C 747.410156 277.769531 744.613281 274.488281 740.949219 274.488281 " fill-opacity="1" fill-rule="nonzero"/><g clip-path="url(#4a63805738)"><path fill="#004aad" d="M 769.316406 553.601562 L 469.730469 553.601562 C 469.421875 553.601562 469.167969 553.347656 469.167969 553.039062 C 469.167969 552.722656 469.421875 552.472656 469.730469 552.472656 L 768.75 552.472656 L 768.75 336.09375 L 651.953125 336.09375 C 651.644531 336.09375 651.390625 335.839844 651.390625 335.53125 C 651.390625 335.21875 651.644531 334.96875 651.953125 334.96875 L 769.316406 334.96875 C 769.628906 334.96875 769.878906 335.21875 769.878906 335.53125 L 769.878906 553.039062 C 769.878906 553.347656 769.628906 553.601562 769.316406 553.601562 " fill-opacity="1" fill-rule="nonzero"/></g><path fill="#da6404" d="M 190.210938 452.472656 L 95.625 452.691406 L 95.445312 387.75 L 190.027344 387.527344 L 190.210938 452.472656 " fill-opacity="1" fill-rule="nonzero"/><path fill="#ffffff" d="M 161.457031 420.015625 L 132.410156 404.886719 L 132.480469 435.382812 Z M 161.457031 420.015625 " fill-opacity="1" fill-rule="nonzero"/><path fill="#004aad" d="M 198.550781 415.25 C 198.238281 415.25 197.988281 414.996094 197.988281 414.683594 C 197.988281 414.375 198.238281 414.121094 198.550781 414.121094 L 255.296875 414.117188 C 255.609375 414.117188 255.863281 414.371094 255.863281 414.679688 C 255.863281 414.992188 255.609375 415.246094 255.296875 415.246094 L 198.550781 415.25 " fill-opacity="1" fill-rule="nonzero"/><path fill="#004aad" d="M 276.511719 402.214844 C 276.199219 402.214844 275.945312 401.964844 275.945312 401.652344 C 275.945312 401.339844 276.199219 401.089844 276.511719 401.089844 L 317.351562 401.085938 C 317.664062 401.085938 317.914062 401.339844 317.914062 401.652344 C 317.914062 401.960938 317.664062 402.214844 317.351562 402.214844 L 276.511719 402.214844 " fill-opacity="1" fill-rule="nonzero"/><path fill="#004aad" d="M 198.550781 402.21875 C 198.238281 402.21875 197.988281 401.96875 197.988281 401.65625 C 197.988281 401.347656 198.238281 401.09375 198.550781 401.09375 L 267.234375 401.089844 C 267.542969 401.089844 267.796875 401.34375 267.796875 401.652344 C 267.796875 401.964844 267.542969 402.214844 267.234375 402.214844 L 198.550781 402.21875 " fill-opacity="1" fill-rule="nonzero"/><path fill="#004aad" d="M 260.359375 389.191406 C 260.050781 389.191406 259.796875 388.9375 259.796875 388.625 C 259.796875 388.316406 260.050781 388.0625 260.359375 388.0625 L 317.351562 388.0625 C 317.664062 388.0625 317.914062 388.3125 317.914062 388.625 C 317.914062 388.933594 317.664062 389.1875 317.351562 389.1875 L 260.359375 389.191406 " fill-opacity="1" fill-rule="nonzero"/><path fill="#004aad" d="M 198.550781 389.191406 C 198.238281 389.191406 197.988281 388.941406 197.988281 388.628906 C 197.988281 388.316406 198.238281 388.0625 198.550781 388.0625 L 249.492188 388.0625 C 249.804688 388.0625 250.054688 388.316406 250.054688 388.625 C 250.054688 388.9375 249.804688 389.191406 249.492188 389.191406 L 198.550781 389.191406 " fill-opacity="1" fill-rule="nonzero"/><path fill="#da6404" d="M 190.210938 538.058594 L 95.625 538.277344 L 95.445312 473.332031 L 190.027344 473.109375 L 190.210938 538.058594 " fill-opacity="1" fill-rule="nonzero"/><path fill="#ffffff" d="M 161.457031 505.597656 L 132.410156 490.472656 L 132.480469 520.964844 Z M 161.457031 505.597656 " fill-opacity="1" fill-rule="nonzero"/><path fill="#004aad" d="M 198.550781 500.828125 C 198.238281 500.828125 197.988281 500.578125 197.988281 500.265625 C 197.988281 499.957031 198.238281 499.703125 198.550781 499.703125 L 242.613281 499.703125 C 242.921875 499.703125 243.175781 499.957031 243.175781 500.265625 C 243.175781 500.578125 242.921875 500.828125 242.613281 500.828125 L 198.550781 500.828125 " fill-opacity="1" fill-rule="nonzero"/><path fill="#004aad" d="M 276.511719 487.800781 C 276.199219 487.800781 275.945312 487.546875 275.945312 487.238281 C 275.945312 486.925781 276.199219 486.671875 276.511719 486.671875 L 317.351562 486.671875 C 317.664062 486.671875 317.914062 486.925781 317.914062 487.234375 C 317.914062 487.546875 317.664062 487.800781 317.351562 487.800781 L 276.511719 487.800781 " fill-opacity="1" fill-rule="nonzero"/><path fill="#004aad" d="M 234.8125 487.804688 C 234.5 487.804688 234.25 487.550781 234.25 487.242188 C 234.25 486.929688 234.5 486.675781 234.8125 486.675781 L 268.472656 486.675781 C 268.78125 486.675781 269.035156 486.925781 269.035156 487.238281 C 269.035156 487.550781 268.78125 487.800781 268.472656 487.800781 L 234.8125 487.804688 " fill-opacity="1" fill-rule="nonzero"/><path fill="#004aad" d="M 198.550781 487.804688 C 198.238281 487.804688 197.988281 487.550781 197.988281 487.238281 C 197.988281 486.929688 198.238281 486.675781 198.550781 486.675781 L 225.773438 486.675781 C 226.085938 486.675781 226.335938 486.925781 226.335938 487.238281 C 226.335938 487.550781 226.085938 487.800781 225.773438 487.800781 L 198.550781 487.804688 " fill-opacity="1" fill-rule="nonzero"/><path fill="#004aad" d="M 280.398438 474.773438 C 280.085938 474.773438 279.835938 474.519531 279.835938 474.210938 C 279.835938 473.894531 280.085938 473.644531 280.398438 473.644531 L 317.351562 473.644531 C 317.664062 473.644531 317.914062 473.894531 317.914062 474.210938 C 317.914062 474.519531 317.664062 474.773438 317.351562 474.773438 L 280.398438 474.773438 " fill-opacity="1" fill-rule="nonzero"/><path fill="#004aad" d="M 198.550781 474.777344 C 198.238281 474.777344 197.988281 474.523438 197.988281 474.210938 C 197.988281 473.902344 198.238281 473.648438 198.550781 473.648438 L 271.074219 473.644531 C 271.386719 473.644531 271.636719 473.894531 271.636719 474.210938 C 271.636719 474.519531 271.386719 474.773438 271.074219 474.773438 L 198.550781 474.777344 " fill-opacity="1" fill-rule="nonzero"/></svg>