<svg xmlns="http://www.w3.org/2000/svg" xmlns:xlink="http://www.w3.org/1999/xlink" width="1080" zoomAndPan="magnify" viewBox="0 0 810 809.999993" height="1080" preserveAspectRatio="xMidYMid meet" version="1.0"><defs><clipPath id="aaa288cf72"><path d="M 431 188.964844 L 650 188.964844 L 650 586 L 431 586 Z M 431 188.964844 " clip-rule="nonzero"/></clipPath><clipPath id="0c69eb9454"><path d="M 628 493 L 733 493 L 733 680.214844 L 628 680.214844 Z M 628 493 " clip-rule="nonzero"/></clipPath><clipPath id="1351daee38"><path d="M 558 488 L 647 488 L 647 680.214844 L 558 680.214844 Z M 558 488 " clip-rule="nonzero"/></clipPath><clipPath id="abaf352e0f"><path d="M 624 679 L 782.867188 679 L 782.867188 680.214844 L 624 680.214844 Z M 624 679 " clip-rule="nonzero"/></clipPath><clipPath id="68148dad12"><path d="M 46.367188 188.964844 L 156 188.964844 L 156 239 L 46.367188 239 Z M 46.367188 188.964844 " clip-rule="nonzero"/></clipPath></defs><path fill="#caddff" d="M 453.183594 584.4375 L 627.480469 584.4375 C 639.148438 584.4375 648.699219 574.890625 648.699219 563.21875 L 648.699219 210.78125 C 648.699219 199.109375 639.148438 189.558594 627.480469 189.558594 L 453.183594 189.558594 C 441.511719 189.558594 431.960938 199.109375 431.960938 210.78125 L 431.960938 563.21875 C 431.960938 574.890625 441.511719 584.4375 453.183594 584.4375 " fill-opacity="1" fill-rule="nonzero"/><g clip-path="url(#aaa288cf72)"><path fill="#162667" d="M 453.183594 190.152344 C 441.804688 190.152344 432.550781 199.40625 432.550781 210.78125 L 432.550781 563.21875 C 432.550781 574.59375 441.804688 583.847656 453.183594 583.847656 L 627.480469 583.847656 C 638.855469 583.847656 648.109375 574.59375 648.109375 563.21875 L 648.109375 210.78125 C 648.109375 199.40625 638.855469 190.152344 627.480469 190.152344 Z M 627.480469 585.03125 L 453.183594 585.03125 C 441.152344 585.03125 431.367188 575.246094 431.367188 563.21875 L 431.367188 210.78125 C 431.367188 198.753906 441.152344 188.964844 453.183594 188.964844 L 627.480469 188.964844 C 639.507812 188.964844 649.292969 198.753906 649.292969 210.78125 L 649.292969 563.21875 C 649.292969 575.246094 639.507812 585.03125 627.480469 585.03125 " fill-opacity="1" fill-rule="nonzero"/></g><path fill="#caddff" d="M 458.675781 571.90625 L 621.988281 571.90625 C 630.832031 571.90625 638.070312 564.667969 638.070312 555.820312 L 638.070312 217.085938 C 638.070312 208.242188 630.832031 201.003906 621.988281 201.003906 L 458.675781 201.003906 C 449.832031 201.003906 442.59375 208.242188 442.59375 217.085938 L 442.59375 555.820312 C 442.59375 564.667969 449.832031 571.90625 458.675781 571.90625 " fill-opacity="1" fill-rule="nonzero"/><path fill="#162667" d="M 458.675781 201.597656 C 450.136719 201.597656 443.183594 208.542969 443.183594 217.085938 L 443.183594 555.820312 C 443.183594 564.363281 450.136719 571.3125 458.675781 571.3125 L 621.988281 571.3125 C 630.527344 571.3125 637.476562 564.363281 637.476562 555.820312 L 637.476562 217.085938 C 637.476562 208.542969 630.527344 201.597656 621.988281 201.597656 Z M 621.988281 572.496094 L 458.675781 572.496094 C 449.480469 572.496094 442.003906 565.015625 442.003906 555.820312 L 442.003906 217.085938 C 442.003906 207.890625 449.480469 200.414062 458.675781 200.414062 L 621.988281 200.414062 C 631.179688 200.414062 638.660156 207.890625 638.660156 217.085938 L 638.660156 555.820312 C 638.660156 565.015625 631.179688 572.496094 621.988281 572.496094 " fill-opacity="1" fill-rule="nonzero"/><path fill="#162667" d="M 560.644531 212.769531 L 517.566406 212.769531 C 517.238281 212.769531 516.976562 212.503906 516.976562 212.179688 C 516.976562 211.851562 517.238281 211.585938 517.566406 211.585938 L 560.644531 211.585938 C 560.96875 211.585938 561.234375 211.851562 561.234375 212.179688 C 561.234375 212.503906 560.96875 212.769531 560.644531 212.769531 " fill-opacity="1" fill-rule="nonzero"/><path fill="#caddff" d="M 620.648438 379.558594 L 460.015625 379.558594 L 460.015625 290.78125 L 620.648438 290.78125 L 620.648438 379.558594 " fill-opacity="1" fill-rule="nonzero"/><path fill="#162667" d="M 460.605469 378.964844 L 620.054688 378.964844 L 620.054688 291.375 L 460.605469 291.375 Z M 620.648438 380.148438 L 460.015625 380.148438 C 459.6875 380.148438 459.425781 379.886719 459.425781 379.558594 L 459.425781 290.78125 C 459.425781 290.457031 459.6875 290.191406 460.015625 290.191406 L 620.648438 290.191406 C 620.972656 290.191406 621.238281 290.457031 621.238281 290.78125 L 621.238281 379.558594 C 621.238281 379.886719 620.972656 380.148438 620.648438 380.148438 " fill-opacity="1" fill-rule="nonzero"/><path fill="#00b4dd" d="M 620.648438 545.042969 L 460.015625 545.042969 L 460.015625 396.039062 L 620.648438 396.039062 L 620.648438 545.042969 " fill-opacity="1" fill-rule="nonzero"/><path fill="#162667" d="M 487.855469 228.703125 C 476.683594 228.703125 467.59375 237.789062 467.59375 248.964844 C 467.59375 260.136719 476.683594 269.226562 487.855469 269.226562 L 599.761719 269.226562 C 610.933594 269.226562 620.023438 260.136719 620.023438 248.964844 C 620.023438 237.792969 610.933594 228.703125 599.761719 228.703125 Z M 599.761719 270.410156 L 487.855469 270.410156 C 476.03125 270.410156 466.410156 260.789062 466.410156 248.964844 C 466.410156 237.136719 476.03125 227.519531 487.855469 227.519531 L 599.761719 227.519531 C 611.585938 227.519531 621.207031 237.136719 621.207031 248.964844 C 621.207031 260.789062 611.585938 270.410156 599.761719 270.410156 " fill-opacity="1" fill-rule="nonzero"/><path fill="#162667" d="M 487.464844 238.746094 C 483.179688 238.746094 479.691406 242.230469 479.691406 246.519531 C 479.691406 250.808594 483.179688 254.292969 487.464844 254.292969 C 491.753906 254.292969 495.238281 250.808594 495.238281 246.519531 C 495.238281 242.230469 491.753906 238.746094 487.464844 238.746094 Z M 487.464844 255.476562 C 482.527344 255.476562 478.511719 251.460938 478.511719 246.519531 C 478.511719 241.578125 482.527344 237.5625 487.464844 237.5625 C 492.40625 237.5625 496.421875 241.578125 496.421875 246.519531 C 496.421875 251.460938 492.40625 255.476562 487.464844 255.476562 " fill-opacity="1" fill-rule="nonzero"/><path fill="#162667" d="M 501.183594 260.632812 C 501.03125 260.632812 500.878906 260.574219 500.761719 260.460938 L 493.0625 252.757812 C 492.828125 252.527344 492.828125 252.148438 493.0625 251.917969 C 493.292969 251.6875 493.667969 251.6875 493.898438 251.917969 L 501.601562 259.621094 C 501.832031 259.855469 501.832031 260.230469 501.601562 260.460938 C 501.484375 260.574219 501.335938 260.632812 501.183594 260.632812 " fill-opacity="1" fill-rule="nonzero"/><path fill="#00b4dd" d="M 558.152344 248.964844 C 558.152344 244.835938 561.503906 241.492188 565.632812 241.492188 C 569.765625 241.492188 573.109375 244.835938 573.109375 248.964844 C 573.109375 253.089844 569.765625 256.433594 565.632812 256.433594 C 561.503906 256.433594 558.152344 253.089844 558.152344 248.964844 " fill-opacity="1" fill-rule="nonzero"/><path fill="#00b4dd" d="M 536.332031 248.964844 C 536.332031 244.835938 539.675781 241.492188 543.808594 241.492188 C 547.9375 241.492188 551.285156 244.835938 551.285156 248.964844 C 551.285156 253.089844 547.9375 256.433594 543.808594 256.433594 C 539.675781 256.433594 536.332031 253.089844 536.332031 248.964844 " fill-opacity="1" fill-rule="nonzero"/><path fill="#00b4dd" d="M 514.503906 248.964844 C 514.503906 244.835938 517.855469 241.492188 521.984375 241.492188 C 526.113281 241.492188 529.460938 244.835938 529.460938 248.964844 C 529.460938 253.089844 526.113281 256.433594 521.984375 256.433594 C 517.855469 256.433594 514.503906 253.089844 514.503906 248.964844 " fill-opacity="1" fill-rule="nonzero"/><path fill="#caddff" d="M 212.160156 465.089844 C 212.160156 426.046875 243.824219 394.398438 282.875 394.398438 C 321.933594 394.398438 353.597656 426.046875 353.597656 465.089844 C 353.597656 504.132812 321.933594 535.78125 282.875 535.78125 C 243.824219 535.78125 212.160156 504.132812 212.160156 465.089844 Z M 167.945312 465.089844 C 167.945312 477.515625 178.023438 487.589844 190.453125 487.589844 C 191.378906 487.589844 192.289062 487.515625 193.183594 487.40625 C 195.425781 496.4375 198.988281 504.945312 203.667969 512.710938 C 202.957031 513.265625 202.261719 513.855469 201.609375 514.507812 C 192.820312 523.296875 192.820312 537.542969 201.609375 546.332031 C 210.398438 555.117188 224.648438 555.117188 233.441406 546.332031 C 234.09375 545.675781 234.683594 544.984375 235.242188 544.269531 C 243.007812 548.949219 251.519531 552.511719 260.550781 554.75 C 260.445312 555.648438 260.371094 556.554688 260.371094 557.480469 C 260.371094 569.90625 270.449219 579.980469 282.875 579.980469 C 295.308594 579.980469 305.382812 569.90625 305.382812 557.480469 C 305.382812 556.554688 305.3125 555.648438 305.203125 554.75 C 314.238281 552.511719 322.75 548.949219 330.511719 544.269531 C 331.074219 544.984375 331.664062 545.675781 332.316406 546.332031 C 341.105469 555.117188 355.359375 555.117188 364.148438 546.332031 C 372.9375 537.542969 372.9375 523.296875 364.148438 514.507812 C 363.492188 513.855469 362.800781 513.265625 362.085938 512.710938 C 366.769531 504.945312 370.332031 496.4375 372.570312 487.40625 C 373.46875 487.515625 374.375 487.589844 375.304688 487.589844 C 387.730469 487.589844 397.808594 477.515625 397.808594 465.089844 C 397.808594 452.664062 387.730469 442.589844 375.304688 442.589844 C 374.375 442.589844 373.46875 442.664062 372.570312 442.769531 C 370.332031 433.742188 366.765625 425.230469 362.085938 417.46875 C 362.800781 416.914062 363.492188 416.320312 364.148438 415.667969 C 372.9375 406.878906 372.9375 392.636719 364.148438 383.847656 C 355.359375 375.0625 341.105469 375.0625 332.316406 383.847656 C 331.664062 384.503906 331.074219 385.195312 330.511719 385.90625 C 322.75 381.226562 314.238281 377.667969 305.203125 375.425781 C 305.3125 374.53125 305.382812 373.625 305.382812 372.699219 C 305.382812 360.273438 295.308594 350.199219 282.875 350.199219 C 270.449219 350.199219 260.371094 360.273438 260.371094 372.699219 C 260.371094 373.625 260.445312 374.53125 260.550781 375.425781 C 251.519531 377.667969 243.007812 381.226562 235.242188 385.90625 C 234.683594 385.195312 234.09375 384.503906 233.441406 383.847656 C 224.648438 375.0625 210.398438 375.0625 201.609375 383.847656 C 192.820312 392.636719 192.820312 406.878906 201.609375 415.667969 C 202.261719 416.320312 202.957031 416.914062 203.667969 417.46875 C 198.988281 425.230469 195.425781 433.742188 193.183594 442.769531 C 192.289062 442.664062 191.378906 442.589844 190.453125 442.589844 C 178.023438 442.589844 167.945312 452.664062 167.945312 465.089844 " fill-opacity="1" fill-rule="nonzero"/><path fill="#162667" d="M 282.875 394.988281 C 244.210938 394.988281 212.753906 426.433594 212.753906 465.089844 C 212.753906 503.742188 244.210938 535.191406 282.875 535.191406 C 321.542969 535.191406 353.003906 503.742188 353.003906 465.089844 C 353.003906 426.433594 321.542969 394.988281 282.875 394.988281 Z M 282.875 536.375 C 243.558594 536.375 211.570312 504.394531 211.570312 465.089844 C 211.570312 425.78125 243.558594 393.804688 282.875 393.804688 C 322.199219 393.804688 354.1875 425.78125 354.1875 465.089844 C 354.1875 504.394531 322.199219 536.375 282.875 536.375 Z M 235.242188 543.679688 C 235.347656 543.679688 235.453125 543.707031 235.546875 543.761719 C 243.359375 548.472656 251.824219 551.976562 260.695312 554.175781 C 260.984375 554.246094 261.175781 554.523438 261.140625 554.824219 C 261.019531 555.804688 260.960938 556.675781 260.960938 557.480469 C 260.960938 569.5625 270.792969 579.386719 282.875 579.386719 C 294.960938 579.386719 304.792969 569.5625 304.792969 557.480469 C 304.792969 556.675781 304.734375 555.804688 304.617188 554.824219 C 304.582031 554.523438 304.773438 554.246094 305.0625 554.175781 C 313.933594 551.976562 322.394531 548.472656 330.210938 543.761719 C 330.464844 543.609375 330.796875 543.671875 330.980469 543.90625 C 331.585938 544.679688 332.164062 545.339844 332.734375 545.910156 C 341.28125 554.453125 355.183594 554.453125 363.730469 545.910156 C 367.867188 541.773438 370.148438 536.269531 370.148438 530.417969 C 370.148438 524.566406 367.867188 519.066406 363.730469 514.929688 C 363.15625 514.355469 362.5 513.785156 361.722656 513.175781 C 361.488281 512.988281 361.425781 512.660156 361.578125 512.402344 C 366.289062 504.59375 369.796875 496.132812 371.996094 487.265625 C 372.070312 486.972656 372.351562 486.785156 372.640625 486.816406 C 373.628906 486.941406 374.5 486.996094 375.304688 486.996094 C 387.386719 486.996094 397.21875 477.167969 397.21875 465.089844 C 397.21875 453.011719 387.386719 443.179688 375.304688 443.179688 C 374.5 443.179688 373.628906 443.238281 372.640625 443.359375 C 372.351562 443.394531 372.070312 443.203125 371.996094 442.914062 C 369.796875 434.042969 366.289062 425.585938 361.578125 417.773438 C 361.425781 417.515625 361.488281 417.1875 361.722656 417 C 362.5 416.394531 363.15625 415.820312 363.730469 415.246094 C 367.867188 411.113281 370.148438 405.609375 370.148438 399.757812 C 370.148438 393.90625 367.867188 388.40625 363.730469 384.265625 C 355.183594 375.722656 341.28125 375.722656 332.734375 384.265625 C 332.164062 384.839844 331.585938 385.492188 330.980469 386.269531 C 330.796875 386.507812 330.464844 386.566406 330.210938 386.414062 C 322.394531 381.703125 313.933594 378.203125 305.0625 376 C 304.773438 375.929688 304.582031 375.652344 304.617188 375.355469 C 304.734375 374.371094 304.792969 373.503906 304.792969 372.699219 C 304.792969 360.617188 294.960938 350.789062 282.875 350.789062 C 270.792969 350.789062 260.960938 360.617188 260.960938 372.699219 C 260.960938 373.503906 261.019531 374.371094 261.140625 375.355469 C 261.175781 375.652344 260.984375 375.929688 260.695312 376 C 251.824219 378.203125 243.359375 381.703125 235.546875 386.414062 C 235.289062 386.566406 234.960938 386.507812 234.777344 386.269531 C 234.167969 385.492188 233.59375 384.839844 233.023438 384.265625 C 224.476562 375.722656 210.570312 375.722656 202.027344 384.265625 C 197.886719 388.40625 195.609375 393.90625 195.609375 399.757812 C 195.609375 405.609375 197.886719 411.113281 202.027344 415.246094 C 202.597656 415.820312 203.253906 416.390625 204.035156 417.003906 C 204.269531 417.1875 204.328125 417.515625 204.175781 417.773438 C 199.464844 425.585938 195.960938 434.046875 193.757812 442.914062 C 193.6875 443.203125 193.410156 443.394531 193.113281 443.359375 C 192.113281 443.238281 191.269531 443.179688 190.453125 443.179688 C 178.371094 443.179688 168.539062 453.011719 168.539062 465.089844 C 168.539062 477.167969 178.371094 486.996094 190.453125 486.996094 C 191.257812 486.996094 192.128906 486.941406 193.113281 486.816406 C 193.410156 486.785156 193.6875 486.972656 193.757812 487.265625 C 195.960938 496.132812 199.464844 504.59375 204.175781 512.402344 C 204.328125 512.660156 204.269531 512.988281 204.035156 513.175781 C 203.253906 513.785156 202.597656 514.359375 202.027344 514.929688 C 197.886719 519.066406 195.609375 524.566406 195.609375 530.417969 C 195.609375 536.269531 197.886719 541.773438 202.027344 545.910156 C 210.570312 554.453125 224.476562 554.453125 233.023438 545.910156 C 233.59375 545.339844 234.167969 544.679688 234.777344 543.90625 C 234.890625 543.757812 235.066406 543.679688 235.242188 543.679688 Z M 282.875 580.570312 C 270.140625 580.570312 259.777344 570.214844 259.777344 557.480469 C 259.777344 556.773438 259.820312 556.023438 259.90625 555.199219 C 251.269531 553.003906 243.027344 549.589844 235.382812 545.042969 C 234.863281 545.6875 234.359375 546.246094 233.855469 546.746094 C 224.851562 555.753906 210.195312 555.753906 201.191406 546.746094 C 196.828125 542.386719 194.425781 536.585938 194.425781 530.417969 C 194.425781 524.253906 196.828125 518.453125 201.191406 514.089844 C 201.691406 513.589844 202.253906 513.089844 202.894531 512.566406 C 198.347656 504.929688 194.929688 496.6875 192.738281 488.054688 C 191.914062 488.136719 191.160156 488.179688 190.453125 488.179688 C 177.714844 488.179688 167.355469 477.820312 167.355469 465.089844 C 167.355469 452.359375 177.714844 441.996094 190.453125 441.996094 C 191.160156 441.996094 191.910156 442.039062 192.738281 442.125 C 194.929688 433.492188 198.34375 425.25 202.894531 417.609375 C 202.253906 417.085938 201.691406 416.589844 201.191406 416.085938 C 196.828125 411.722656 194.425781 405.925781 194.425781 399.757812 C 194.425781 393.589844 196.828125 387.789062 201.191406 383.429688 C 210.195312 374.425781 224.851562 374.425781 233.855469 383.429688 C 234.359375 383.929688 234.863281 384.492188 235.382812 385.132812 C 243.027344 380.585938 251.269531 377.171875 259.90625 374.980469 C 259.820312 374.15625 259.777344 373.402344 259.777344 372.699219 C 259.777344 359.960938 270.140625 349.605469 282.875 349.605469 C 295.613281 349.605469 305.976562 359.960938 305.976562 372.699219 C 305.976562 373.402344 305.933594 374.15625 305.847656 374.980469 C 314.484375 377.171875 322.730469 380.585938 330.375 385.132812 C 330.894531 384.492188 331.398438 383.929688 331.898438 383.429688 C 340.902344 374.425781 355.558594 374.425781 364.566406 383.429688 C 368.925781 387.789062 371.332031 393.589844 371.332031 399.757812 C 371.332031 405.925781 368.925781 411.722656 364.566406 416.085938 C 364.0625 416.589844 363.503906 417.085938 362.859375 417.609375 C 367.410156 425.25 370.828125 433.492188 373.019531 442.125 C 373.84375 442.039062 374.59375 441.996094 375.304688 441.996094 C 388.039062 441.996094 398.402344 452.359375 398.402344 465.089844 C 398.402344 477.820312 388.039062 488.179688 375.304688 488.179688 C 374.59375 488.179688 373.84375 488.136719 373.019531 488.054688 C 370.824219 496.683594 367.410156 504.925781 362.859375 512.566406 C 363.503906 513.089844 364.0625 513.589844 364.566406 514.089844 C 368.925781 518.453125 371.332031 524.253906 371.332031 530.417969 C 371.332031 536.585938 368.925781 542.386719 364.566406 546.746094 C 355.558594 555.753906 340.902344 555.753906 331.898438 546.746094 C 331.398438 546.246094 330.894531 545.6875 330.375 545.042969 C 322.730469 549.589844 314.484375 553.003906 305.847656 555.199219 C 305.933594 556.023438 305.976562 556.773438 305.976562 557.480469 C 305.976562 570.214844 295.613281 580.570312 282.875 580.570312 " fill-opacity="1" fill-rule="nonzero"/><path fill="#162667" d="M 262.539062 260.59375 C 261.433594 257.269531 259.179688 254.234375 256.027344 252.71875 C 252.871094 251.207031 248.792969 251.460938 246.179688 253.785156 C 244.375 255.386719 243.414062 257.753906 243.007812 260.132812 C 242.371094 263.855469 243.023438 267.863281 245.175781 270.972656 C 247.324219 274.074219 251.050781 276.144531 254.820312 275.921875 C 263.363281 275.417969 264.742188 267.21875 262.539062 260.59375 " fill-opacity="1" fill-rule="nonzero"/><path fill="#162667" d="M 318.164062 299.128906 C 317.605469 295.464844 317.054688 291.671875 318.015625 288.089844 C 318.839844 284.992188 320.773438 282.164062 320.871094 278.957031 C 320.972656 275.472656 318.789062 272.230469 315.953125 270.242188 C 313.117188 268.253906 309.695312 267.328125 306.320312 266.601562 C 298.40625 264.902344 290.296875 264.136719 282.210938 264.332031 C 275.835938 264.484375 269.117188 265.367188 264.074219 269.300781 C 259.066406 273.203125 256.519531 279.460938 254.542969 285.523438 C 248.730469 303.367188 245.972656 322.054688 243.238281 340.636719 C 242.785156 343.695312 242.355469 346.925781 243.535156 349.777344 C 245.195312 353.804688 249.539062 355.90625 253.605469 357.375 C 270.808594 363.578125 289.445312 364.722656 307.675781 363.59375 C 312.113281 363.320312 316.734375 362.855469 320.507812 360.480469 C 329.316406 354.945312 324.703125 342.285156 323.449219 334.023438 C 321.6875 322.390625 319.925781 310.761719 318.164062 299.128906 " fill-opacity="1" fill-rule="nonzero"/><path fill="#caddff" d="M 434.789062 316.269531 C 437.964844 321.835938 441.632812 327.109375 445.933594 331.863281 C 448.195312 334.363281 450.597656 336.75 453.222656 338.867188 C 455.796875 340.945312 458.554688 342.796875 461.398438 344.488281 C 462.171875 344.949219 462.953125 345.398438 463.738281 345.839844 C 478.015625 318.78125 486.046875 291.773438 486.046875 291.773438 C 497.414062 283.5625 490.832031 279.269531 490.832031 279.269531 C 492.609375 272.171875 486.855469 271.542969 486.855469 271.542969 C 485.164062 262.984375 477.554688 266.519531 477.554688 266.519531 C 483.777344 257.375 486.832031 242.421875 468.734375 261.125 C 458.035156 272.179688 444.304688 292.695312 431.960938 310.988281 C 432.863281 312.769531 433.800781 314.535156 434.789062 316.269531 " fill-opacity="1" fill-rule="nonzero"/><path fill="#162667" d="M 464.867188 344.273438 C 464.820312 344.273438 464.769531 344.269531 464.722656 344.253906 C 464.40625 344.175781 464.210938 343.855469 464.292969 343.535156 C 464.550781 342.507812 465.054688 341.8125 465.589844 341.078125 C 465.746094 340.859375 465.914062 340.632812 466.078125 340.386719 C 474.347656 322.664062 480.726562 306.660156 485.574219 291.460938 C 485.617188 291.339844 485.691406 291.234375 485.796875 291.15625 C 488.277344 289.386719 490.625 287.710938 491.628906 285.039062 C 492.085938 283.660156 492.550781 281.109375 490.429688 279.695312 C 490.203125 279.542969 490.109375 279.253906 490.207031 278.996094 C 491.203125 276.332031 489.75 273.164062 486.96875 271.925781 C 486.066406 271.628906 485.882812 270.679688 485.714844 269.84375 C 485.621094 269.359375 485.523438 268.859375 485.292969 268.515625 C 483.160156 265.671875 480.023438 266.15625 477.777344 267.070312 C 477.773438 267.070312 477.765625 267.070312 477.761719 267.074219 C 477.722656 267.085938 477.6875 267.097656 477.648438 267.101562 C 477.648438 267.101562 477.648438 267.101562 477.644531 267.101562 C 477.644531 267.101562 477.65625 267.101562 477.644531 267.101562 C 477.644531 267.105469 477.644531 267.105469 477.644531 267.105469 L 477.640625 267.105469 C 477.640625 267.105469 477.640625 267.105469 477.636719 267.105469 C 477.546875 267.121094 477.457031 267.109375 477.371094 267.082031 C 477.371094 267.082031 477.375 267.082031 477.367188 267.082031 C 477.367188 267.078125 477.367188 267.078125 477.367188 267.078125 C 477.359375 267.078125 477.363281 267.078125 477.363281 267.078125 C 477.363281 267.078125 477.371094 267.085938 477.359375 267.078125 C 477.355469 267.078125 477.359375 267.078125 477.359375 267.078125 C 477.359375 267.078125 477.367188 267.078125 477.359375 267.078125 C 477.355469 267.078125 477.351562 267.078125 477.355469 267.078125 C 477.351562 267.078125 477.355469 267.078125 477.355469 267.078125 C 477.351562 267.078125 477.367188 267.078125 477.351562 267.078125 C 477.351562 267.078125 477.351562 267.078125 477.351562 267.074219 C 477.351562 267.074219 477.351562 267.074219 477.347656 267.074219 C 477.304688 267.058594 477.261719 267.035156 477.222656 267.007812 C 477.222656 267.007812 477.230469 267.007812 477.21875 267.007812 C 477.21875 267.007812 477.222656 267.007812 477.21875 267.007812 C 477.21875 267.007812 477.222656 267.007812 477.214844 267.003906 C 477.214844 267.003906 477.214844 267 477.214844 267 C 477.210938 267 477.210938 267 477.210938 267 C 477.210938 267 477.210938 267 477.207031 267 C 477.207031 267 477.210938 267 477.207031 267 C 477.203125 267 477.203125 267 477.203125 267 C 477.207031 266.996094 477.203125 266.996094 477.203125 266.996094 C 477.183594 266.984375 477.164062 266.964844 477.148438 266.949219 C 477.152344 266.949219 477.148438 266.949219 477.148438 266.949219 C 477.148438 266.949219 477.148438 266.949219 477.144531 266.949219 C 477.144531 266.945312 477.144531 266.945312 477.144531 266.945312 C 477.144531 266.945312 477.140625 266.945312 477.144531 266.945312 C 477.140625 266.945312 477.140625 266.945312 477.140625 266.941406 C 477.140625 266.941406 477.140625 266.941406 477.136719 266.941406 C 477.128906 266.929688 477.117188 266.917969 477.105469 266.90625 C 477.058594 266.851562 477.023438 266.792969 477 266.726562 C 477 266.726562 477 266.722656 476.996094 266.722656 C 476.972656 266.65625 476.964844 266.589844 476.964844 266.519531 C 476.964844 266.480469 476.964844 266.441406 476.972656 266.398438 C 476.992188 266.328125 477.015625 266.257812 477.058594 266.199219 L 477.59375 265.355469 C 480.042969 261.535156 482.804688 257.214844 481.371094 252.914062 C 481.164062 252.800781 480.753906 252.789062 480.535156 252.789062 C 477.246094 253.707031 474.699219 255.976562 472.238281 258.164062 C 471.90625 258.457031 471.578125 258.75 471.25 259.039062 C 458.832031 271.757812 449.546875 285.707031 439.714844 300.472656 C 437.84375 303.296875 435.960938 306.125 434.050781 308.949219 C 433.867188 309.222656 433.496094 309.292969 433.226562 309.109375 C 432.957031 308.925781 432.886719 308.558594 433.070312 308.285156 C 434.976562 305.464844 436.855469 302.640625 438.734375 299.820312 C 448.59375 285.003906 457.90625 271.007812 470.4375 258.179688 C 470.796875 257.863281 471.121094 257.574219 471.449219 257.28125 C 474.035156 254.980469 476.707031 252.605469 480.296875 251.625 C 480.351562 251.609375 480.402344 251.605469 480.453125 251.605469 C 480.882812 251.605469 481.765625 251.605469 482.292969 252.132812 C 482.355469 252.195312 482.40625 252.269531 482.433594 252.351562 C 484.046875 256.875 481.539062 261.34375 479.1875 265.0625 C 479.167969 265.152344 479.117188 265.277344 479.042969 265.417969 C 482.023438 264.71875 484.542969 265.546875 486.257812 267.832031 C 486.636719 268.402344 486.765625 269.042969 486.875 269.613281 C 487.011719 270.304688 487.113281 270.730469 487.394531 270.824219 C 490.644531 272.265625 492.371094 275.839844 491.457031 278.980469 C 493.183594 280.375 493.652344 282.695312 492.746094 285.433594 C 491.628906 288.398438 489.109375 290.246094 486.644531 292.007812 C 481.78125 307.210938 475.398438 323.214844 467.132812 340.929688 C 467.117188 340.957031 467.105469 340.984375 467.089844 341.007812 C 466.90625 341.28125 466.722656 341.53125 466.546875 341.773438 C 466.042969 342.46875 465.644531 343.015625 465.441406 343.824219 C 465.371094 344.09375 465.132812 344.273438 464.867188 344.273438 " fill-opacity="1" fill-rule="nonzero"/><path fill="#162667" d="M 462.675781 297.574219 C 462.410156 297.574219 462.140625 297.550781 461.863281 297.5 C 461.542969 297.441406 461.328125 297.136719 461.386719 296.8125 C 461.445312 296.492188 461.753906 296.28125 462.074219 296.339844 C 463.996094 296.683594 465.746094 295.292969 466.664062 293.992188 C 467.554688 292.730469 468.070312 291.261719 468.609375 289.707031 C 468.75 289.320312 468.882812 288.929688 469.023438 288.542969 C 469.679688 286.769531 470.675781 284.5625 472.574219 283.25 C 473.476562 282.628906 474.492188 282.265625 475.476562 281.917969 C 475.910156 281.761719 476.34375 281.609375 476.769531 281.429688 C 477.84375 280.980469 479.199219 280.164062 479.546875 278.859375 C 479.988281 277.199219 478.449219 275.453125 476.777344 275 C 474.949219 274.503906 472.949219 275.03125 471.058594 275.679688 C 465.816406 277.484375 461.449219 279.925781 458.09375 282.933594 C 457.847656 283.152344 457.472656 283.132812 457.253906 282.890625 C 457.035156 282.644531 457.058594 282.269531 457.300781 282.054688 C 460.78125 278.9375 465.28125 276.417969 470.675781 274.5625 C 472.742188 273.851562 474.953125 273.273438 477.089844 273.855469 C 479.300781 274.457031 481.320312 276.785156 480.691406 279.164062 C 480.21875 280.9375 478.546875 281.96875 477.226562 282.519531 C 476.777344 282.707031 476.320312 282.875 475.875 283.03125 C 474.917969 283.371094 474.019531 283.691406 473.246094 284.226562 C 471.621094 285.347656 470.730469 287.339844 470.136719 288.953125 C 469.996094 289.332031 469.863281 289.714844 469.726562 290.097656 C 469.183594 291.660156 468.621094 293.277344 467.632812 294.675781 C 466.636719 296.082031 464.804688 297.574219 462.675781 297.574219 " fill-opacity="1" fill-rule="nonzero"/><path fill="#162667" d="M 475.480469 287.046875 C 475.328125 287.046875 475.179688 287.042969 475.023438 287.023438 C 473.597656 286.851562 472.160156 285.625 472.292969 284.066406 C 472.320312 283.738281 472.597656 283.5 472.933594 283.527344 C 473.257812 283.550781 473.5 283.835938 473.472656 284.164062 C 473.402344 285.003906 474.304688 285.746094 475.160156 285.84375 C 476 285.945312 476.9375 285.65625 478.117188 284.941406 C 482.269531 282.417969 485.035156 277.839844 485.335938 272.992188 C 485.359375 272.664062 485.617188 272.417969 485.964844 272.4375 C 486.289062 272.457031 486.539062 272.742188 486.519531 273.066406 C 486.195312 278.292969 483.210938 283.234375 478.734375 285.953125 C 477.9375 286.4375 476.765625 287.046875 475.480469 287.046875 " fill-opacity="1" fill-rule="nonzero"/><path fill="#162667" d="M 481.035156 288.050781 C 480.8125 288.050781 480.597656 288.035156 480.390625 288 C 479.117188 287.792969 478.082031 286.871094 477.878906 285.757812 C 477.820312 285.433594 478.035156 285.125 478.355469 285.066406 C 478.683594 285.007812 478.984375 285.21875 479.042969 285.542969 C 479.171875 286.246094 479.914062 286.722656 480.582031 286.832031 C 481.261719 286.941406 482.042969 286.796875 483.03125 286.371094 C 485.820312 285.175781 488.082031 282.882812 489.234375 280.078125 C 489.359375 279.777344 489.707031 279.632812 490.007812 279.757812 C 490.308594 279.882812 490.457031 280.226562 490.328125 280.527344 C 489.058594 283.621094 486.566406 286.148438 483.496094 287.460938 C 482.570312 287.859375 481.769531 288.050781 481.035156 288.050781 " fill-opacity="1" fill-rule="nonzero"/><path fill="#162667" d="M 485.226562 290.902344 C 484.542969 290.902344 483.855469 290.683594 483.308594 290.261719 C 482.414062 289.566406 481.949219 288.347656 482.164062 287.230469 C 482.226562 286.90625 482.542969 286.699219 482.859375 286.757812 C 483.179688 286.820312 483.390625 287.128906 483.328125 287.453125 C 483.199219 288.132812 483.488281 288.902344 484.039062 289.328125 C 484.582031 289.75 485.402344 289.84375 486.027344 289.542969 C 486.324219 289.402344 486.675781 289.53125 486.816406 289.828125 C 486.957031 290.125 486.828125 290.476562 486.53125 290.617188 C 486.125 290.808594 485.679688 290.902344 485.226562 290.902344 " fill-opacity="1" fill-rule="nonzero"/><path fill="#da6404" d="M 134.125 402.914062 C 134.125 402.914062 157.601562 447.378906 193.332031 446.339844 C 229.0625 445.304688 244.445312 413.410156 244.445312 413.410156 C 244.445312 413.410156 233.871094 445.828125 245.546875 454.492188 C 257.222656 463.160156 341.429688 471.535156 347.273438 444.957031 C 351.453125 425.964844 348 413.367188 350.152344 398.269531 C 350.152344 398.269531 408.476562 405.382812 437.691406 383.105469 C 456.203125 368.984375 469.644531 335.039062 469.644531 335.039062 C 469.644531 335.039062 457.699219 309.546875 433.558594 308.621094 L 420.40625 327.082031 C 413.085938 337.351562 401.355469 343.578125 388.742188 343.882812 L 247.140625 347.285156 C 232.480469 347.636719 218.816406 354.972656 210.601562 367.121094 C 201.578125 380.464844 187.023438 395.507812 168.09375 393.402344 L 134.125 402.914062 " fill-opacity="1" fill-rule="nonzero"/><path fill="#162667" d="M 349.652344 396.46875 C 349.324219 396.46875 349.0625 396.207031 349.058594 395.882812 C 349 388.875 350.46875 381.789062 353.316406 375.386719 C 353.449219 375.089844 353.800781 374.957031 354.097656 375.085938 C 354.394531 375.222656 354.53125 375.570312 354.398438 375.867188 C 351.621094 382.117188 350.183594 389.035156 350.242188 395.871094 C 350.242188 396.195312 349.984375 396.464844 349.65625 396.46875 C 349.652344 396.46875 349.652344 396.46875 349.652344 396.46875 " fill-opacity="1" fill-rule="nonzero"/><path fill="#162667" d="M 281.023438 413.980469 C 278.882812 413.980469 276.742188 413.671875 274.6875 413.058594 C 269.304688 411.4375 264.613281 407.710938 261.828125 402.824219 C 261.667969 402.542969 261.765625 402.179688 262.046875 402.019531 C 262.335938 401.855469 262.695312 401.953125 262.855469 402.238281 C 265.496094 406.863281 269.933594 410.390625 275.027344 411.921875 C 280.125 413.457031 285.773438 412.957031 290.527344 410.554688 C 290.816406 410.402344 291.171875 410.519531 291.320312 410.8125 C 291.46875 411.101562 291.351562 411.460938 291.058594 411.609375 C 287.957031 413.179688 284.492188 413.980469 281.023438 413.980469 " fill-opacity="1" fill-rule="nonzero"/><path fill="#162667" d="M 325.71875 409.242188 C 325.429688 409.242188 325.175781 409.035156 325.132812 408.742188 C 325.082031 408.421875 325.304688 408.117188 325.625 408.066406 C 333.140625 406.894531 339.613281 400.328125 340.675781 392.792969 C 341.34375 388.046875 339.921875 383.027344 336.769531 379.03125 C 336.566406 378.773438 336.609375 378.40625 336.867188 378.199219 C 337.125 378 337.496094 378.042969 337.699219 378.300781 C 341.050781 382.546875 342.5625 387.890625 341.847656 392.960938 C 340.714844 400.988281 333.820312 407.984375 325.808594 409.238281 C 325.777344 409.242188 325.746094 409.242188 325.71875 409.242188 " fill-opacity="1" fill-rule="nonzero"/><path fill="#162667" d="M 244.902344 410.269531 C 244.878906 410.269531 244.855469 410.265625 244.828125 410.261719 C 244.503906 410.226562 244.273438 409.929688 244.316406 409.605469 C 244.734375 406.164062 245.164062 402.605469 244.40625 399.195312 C 243.769531 396.3125 241.871094 392.8125 238.453125 391.628906 C 238.148438 391.519531 237.984375 391.183594 238.09375 390.875 C 238.199219 390.566406 238.535156 390.402344 238.84375 390.507812 C 242.085938 391.632812 244.660156 394.863281 245.5625 398.941406 C 246.363281 402.546875 245.898438 406.375 245.488281 409.75 C 245.453125 410.046875 245.199219 410.269531 244.902344 410.269531 " fill-opacity="1" fill-rule="nonzero"/><path fill="#162667" d="M 187.085938 413.410156 L 132.40625 413.410156 C 131.238281 413.410156 130.171875 412.746094 129.648438 411.699219 L 92.109375 336.320312 C 91.089844 334.273438 92.578125 331.867188 94.863281 331.867188 L 149.542969 331.867188 C 150.710938 331.867188 151.777344 332.53125 152.300781 333.578125 L 189.839844 408.957031 C 190.859375 411.003906 189.371094 413.410156 187.085938 413.410156 " fill-opacity="1" fill-rule="nonzero"/><path fill="#caddff" d="M 126.457031 368.507812 C 125.195312 367.980469 123.914062 369.195312 123.148438 370.332031 C 121.058594 373.429688 119.5625 376.921875 118.761719 380.570312 C 119.390625 373.765625 120.019531 366.964844 120.644531 360.160156 C 120.847656 357.972656 120.539062 355.046875 118.382812 354.625 C 116.714844 354.296875 115.3125 355.855469 114.441406 357.316406 C 112.664062 360.3125 111.464844 363.644531 110.921875 367.082031 C 111.726562 362.382812 112.535156 357.683594 113.339844 352.984375 C 113.527344 351.898438 113.703125 350.722656 113.210938 349.734375 C 112.160156 347.621094 108.722656 348.007812 107.285156 349.878906 C 107.070312 350.164062 106.886719 350.464844 106.730469 350.777344 C 106.808594 350.453125 106.882812 350.132812 106.941406 349.8125 C 107.371094 347.511719 106.671875 344.542969 104.398438 344.007812 C 102.984375 343.675781 101.492188 344.503906 100.648438 345.6875 C 99.804688 346.871094 99.484375 348.339844 99.257812 349.777344 C 98.285156 356 98.808594 362.4375 100.714844 368.4375 C 104.226562 382.519531 113.988281 395.28125 125.722656 403.820312 C 122.78125 393.355469 127.445312 382.515625 127.746094 371.648438 C 127.777344 370.445312 127.574219 368.96875 126.457031 368.507812 " fill-opacity="1" fill-rule="nonzero"/><path fill="#162667" d="M 103.753906 344.523438 C 102.695312 344.523438 101.683594 345.257812 101.128906 346.03125 C 100.355469 347.113281 100.054688 348.515625 99.84375 349.867188 C 98.890625 355.949219 99.386719 362.308594 101.277344 368.257812 C 104.464844 381.035156 112.984375 393.371094 124.757812 402.363281 C 123.449219 396.113281 124.574219 389.699219 125.660156 383.476562 C 126.339844 379.59375 127.042969 375.578125 127.152344 371.632812 C 127.179688 370.640625 127.042969 369.390625 126.230469 369.054688 C 125.367188 368.695312 124.324219 369.648438 123.636719 370.660156 C 121.605469 373.675781 120.117188 377.144531 119.339844 380.699219 C 119.273438 381 118.980469 381.203125 118.671875 381.152344 C 118.363281 381.105469 118.144531 380.828125 118.175781 380.515625 L 120.058594 360.109375 C 120.125 359.359375 120.363281 355.617188 118.269531 355.207031 C 116.742188 354.90625 115.441406 356.792969 114.953125 357.621094 C 113.34375 360.328125 112.203125 363.375 111.625 366.480469 L 111.503906 367.183594 C 111.449219 367.503906 111.148438 367.71875 110.824219 367.667969 C 110.503906 367.613281 110.285156 367.308594 110.335938 366.992188 C 110.375 366.75 110.414062 366.511719 110.460938 366.273438 L 112.757812 352.882812 C 112.949219 351.769531 113.074219 350.789062 112.683594 349.996094 C 112.265625 349.15625 111.410156 348.957031 110.9375 348.910156 C 109.746094 348.796875 108.445312 349.34375 107.753906 350.242188 C 107.574219 350.476562 107.414062 350.738281 107.261719 351.039062 C 107.125 351.308594 106.808594 351.433594 106.527344 351.328125 C 106.242188 351.226562 106.085938 350.925781 106.15625 350.632812 C 106.234375 350.324219 106.304688 350.011719 106.359375 349.703125 C 106.703125 347.859375 106.277344 345.058594 104.261719 344.585938 C 104.09375 344.542969 103.921875 344.523438 103.753906 344.523438 Z M 125.722656 404.410156 C 125.601562 404.410156 125.480469 404.375 125.375 404.296875 C 112.699219 395.074219 103.5 382.054688 100.140625 368.582031 C 98.203125 362.496094 97.695312 355.949219 98.671875 349.683594 C 98.90625 348.1875 99.25 346.628906 100.167969 345.34375 C 101.058594 344.09375 102.757812 343.015625 104.53125 343.433594 C 106.679688 343.933594 107.710938 346.320312 107.652344 348.703125 C 108.601562 347.992188 109.851562 347.617188 111.050781 347.730469 C 112.289062 347.851562 113.246094 348.472656 113.742188 349.46875 C 114.339844 350.671875 114.101562 352.066406 113.925781 353.085938 L 112.933594 358.855469 C 113.246094 358.230469 113.578125 357.617188 113.933594 357.015625 C 115.257812 354.78125 116.882812 353.726562 118.496094 354.046875 C 120.53125 354.445312 121.554688 356.75 121.234375 360.214844 L 119.855469 375.191406 C 120.621094 373.371094 121.5625 371.625 122.65625 370 C 123.882812 368.183594 125.390625 367.421875 126.683594 367.960938 C 127.476562 368.289062 128.402344 369.199219 128.335938 371.667969 C 128.226562 375.695312 127.515625 379.753906 126.828125 383.679688 C 125.613281 390.617188 124.46875 397.164062 126.292969 403.660156 C 126.363281 403.902344 126.269531 404.160156 126.0625 404.308594 C 125.960938 404.378906 125.84375 404.410156 125.722656 404.410156 " fill-opacity="1" fill-rule="nonzero"/><path fill="#162667" d="M 103.890625 369.042969 C 103.597656 369.042969 103.339844 368.824219 103.304688 368.519531 C 102.632812 362.820312 103.460938 357.011719 105.699219 351.722656 C 105.824219 351.417969 106.175781 351.28125 106.472656 351.410156 C 106.777344 351.535156 106.917969 351.882812 106.789062 352.183594 C 104.628906 357.28125 103.832031 362.886719 104.480469 368.382812 C 104.519531 368.707031 104.289062 369 103.960938 369.039062 C 103.9375 369.042969 103.914062 369.042969 103.890625 369.042969 " fill-opacity="1" fill-rule="nonzero"/><path fill="#162667" d="M 111.152344 378.828125 C 110.875 378.828125 110.625 378.628906 110.574219 378.347656 C 109.957031 375.054688 109.851562 371.699219 110.269531 368.375 C 110.308594 368.046875 110.601562 367.816406 110.925781 367.859375 C 111.25 367.898438 111.484375 368.195312 111.441406 368.519531 C 111.042969 371.722656 111.144531 374.957031 111.738281 378.128906 C 111.796875 378.449219 111.585938 378.757812 111.261719 378.816406 C 111.226562 378.828125 111.191406 378.828125 111.152344 378.828125 " fill-opacity="1" fill-rule="nonzero"/><path fill="#caddff" d="M 281.421875 312.503906 L 277.28125 342.394531 C 277.0625 343.980469 275.832031 345.238281 274.25 345.496094 L 265.019531 346.984375 C 265.019531 346.984375 289.882812 368.878906 314.75 346.003906 L 305.195312 344.914062 C 303.246094 344.691406 301.785156 343.027344 301.816406 341.066406 L 302.230469 316.449219 C 302.230469 316.449219 300.082031 300.144531 281.421875 312.503906 " fill-opacity="1" fill-rule="nonzero"/><path fill="#caddff" d="M 274.925781 304.722656 C 273.207031 306.0625 272.429688 308.425781 272.8125 310.570312 C 273.191406 312.71875 274.632812 314.601562 276.507812 315.722656 C 278.375 316.839844 280.628906 317.226562 282.800781 317.027344 C 283.996094 316.914062 285.242188 316.636719 286.371094 317.050781 C 287.242188 317.375 287.917969 318.066406 288.621094 318.675781 C 291.945312 321.554688 296.621094 322.847656 300.925781 321.949219 C 305.230469 321.046875 309.039062 317.925781 310.636719 313.828125 C 311.953125 310.441406 311.773438 306.664062 311.191406 303.078125 C 310.085938 296.21875 307.59375 289.652344 304.738281 283.3125 C 299.765625 284.472656 294.546875 284.550781 289.542969 283.542969 C 290.875 287.46875 290.738281 291.875 289.164062 295.710938 C 287.960938 298.632812 285.9375 301.203125 283.402344 303.085938 C 282.886719 303.464844 282.085938 304.203125 281.453125 304.339844 C 280.660156 304.507812 280.167969 303.980469 279.351562 303.78125 C 277.839844 303.410156 276.152344 303.765625 274.925781 304.722656 " fill-opacity="1" fill-rule="nonzero"/><path fill="#162667" d="M 274.925781 304.722656 L 274.933594 304.722656 Z M 284.980469 316.242188 C 285.515625 316.242188 286.046875 316.304688 286.574219 316.5 C 287.40625 316.804688 288.046875 317.375 288.667969 317.925781 C 288.78125 318.027344 288.894531 318.128906 289.007812 318.230469 C 292.226562 321.015625 296.746094 322.21875 300.804688 321.367188 C 304.945312 320.503906 308.585938 317.460938 310.085938 313.613281 C 311.484375 310.011719 311.054688 305.933594 310.609375 303.171875 C 309.4375 295.917969 306.707031 289.15625 304.394531 284 C 299.820312 284.996094 295.011719 285.101562 290.394531 284.308594 C 291.445312 288.105469 291.203125 292.289062 289.707031 295.933594 C 288.46875 298.953125 286.410156 301.589844 283.75 303.558594 C 283.648438 303.636719 283.53125 303.730469 283.402344 303.832031 C 282.871094 304.253906 282.207031 304.785156 281.574219 304.917969 C 280.882812 305.066406 280.355469 304.828125 279.898438 304.617188 C 279.667969 304.511719 279.453125 304.414062 279.207031 304.355469 C 277.871094 304.027344 276.371094 304.347656 275.292969 305.191406 C 273.800781 306.351562 273.039062 308.472656 273.390625 310.46875 C 273.726562 312.359375 275.003906 314.136719 276.808594 315.214844 C 278.464844 316.203125 280.570312 316.636719 282.746094 316.4375 C 282.96875 316.414062 283.195312 316.386719 283.417969 316.363281 C 283.933594 316.300781 284.457031 316.242188 284.980469 316.242188 Z M 298.191406 322.816406 C 294.617188 322.816406 290.988281 321.503906 288.234375 319.121094 C 288.117188 319.019531 288 318.914062 287.878906 318.808594 C 287.320312 318.308594 286.789062 317.835938 286.167969 317.609375 C 285.386719 317.324219 284.5 317.429688 283.558594 317.539062 C 283.324219 317.566406 283.085938 317.59375 282.855469 317.617188 C 280.433594 317.839844 278.070312 317.347656 276.199219 316.230469 C 274.105469 314.976562 272.621094 312.902344 272.226562 310.675781 C 271.800781 308.257812 272.738281 305.683594 274.5625 304.253906 C 275.921875 303.195312 277.808594 302.792969 279.492188 303.207031 C 279.84375 303.292969 280.132812 303.421875 280.386719 303.539062 C 280.800781 303.730469 281.03125 303.824219 281.328125 303.761719 C 281.6875 303.683594 282.253906 303.234375 282.667969 302.90625 C 282.804688 302.796875 282.933594 302.695312 283.050781 302.609375 C 285.53125 300.769531 287.457031 298.304688 288.617188 295.484375 C 290.128906 291.792969 290.261719 287.511719 288.980469 283.734375 C 288.914062 283.535156 288.957031 283.3125 289.097656 283.15625 C 289.234375 282.996094 289.453125 282.925781 289.65625 282.964844 C 294.5625 283.953125 299.730469 283.875 304.601562 282.734375 C 304.878906 282.675781 305.160156 282.8125 305.277344 283.070312 C 307.65625 288.347656 310.550781 295.382812 311.777344 302.984375 C 312.246094 305.878906 312.691406 310.171875 311.1875 314.042969 C 309.546875 318.253906 305.570312 321.582031 301.046875 322.527344 C 300.109375 322.722656 299.152344 322.816406 298.191406 322.816406 " fill-opacity="1" fill-rule="nonzero"/><path fill="#162667" d="M 282.6875 314.042969 C 282.488281 314.042969 282.292969 313.941406 282.179688 313.757812 C 281.390625 312.457031 279.898438 311.582031 278.375 311.53125 C 278.050781 311.519531 277.796875 311.246094 277.804688 310.917969 C 277.816406 310.589844 278.09375 310.339844 278.417969 310.347656 C 280.355469 310.414062 282.1875 311.484375 283.191406 313.144531 C 283.363281 313.425781 283.269531 313.785156 282.992188 313.957031 C 282.898438 314.015625 282.789062 314.042969 282.6875 314.042969 " fill-opacity="1" fill-rule="nonzero"/><path fill="#caddff" d="M 282.875 535.78125 C 303.449219 535.78125 321.972656 526.996094 334.894531 512.976562 L 333.582031 455.378906 C 331.359375 449.023438 325.304688 444.820312 318.574219 444.960938 L 262.335938 446.132812 C 255.824219 446.265625 250.09375 450.441406 247.960938 456.59375 C 246.433594 460.988281 236.886719 483.460938 226.59375 507.886719 C 239.515625 524.835938 259.914062 535.78125 282.875 535.78125 " fill-opacity="1" fill-rule="nonzero"/><path fill="#162667" d="M 226.59375 508.480469 C 226.519531 508.480469 226.4375 508.464844 226.363281 508.429688 C 226.0625 508.304688 225.921875 507.960938 226.050781 507.660156 L 230.972656 495.984375 C 239.105469 476.710938 246.128906 460.0625 247.398438 456.402344 C 247.503906 456.09375 247.839844 455.929688 248.152344 456.035156 C 248.460938 456.144531 248.625 456.480469 248.515625 456.789062 C 247.234375 460.488281 240.203125 477.148438 232.0625 496.445312 L 227.140625 508.117188 C 227.046875 508.34375 226.824219 508.480469 226.59375 508.480469 " fill-opacity="1" fill-rule="nonzero"/><path fill="#162667" d="M 334.894531 513.566406 C 334.574219 513.566406 334.308594 513.3125 334.300781 512.988281 L 332.988281 455.390625 C 332.980469 455.066406 333.238281 454.796875 333.566406 454.789062 C 333.574219 454.789062 333.578125 454.789062 333.582031 454.789062 C 333.902344 454.789062 334.167969 455.042969 334.171875 455.363281 L 335.484375 512.960938 C 335.492188 513.289062 335.234375 513.558594 334.90625 513.566406 C 334.902344 513.566406 334.898438 513.566406 334.894531 513.566406 " fill-opacity="1" fill-rule="nonzero"/><path fill="#162667" d="M 281.53125 536.074219 C 281.488281 536.074219 281.445312 536.070312 281.402344 536.0625 C 281.085938 535.988281 280.882812 535.671875 280.953125 535.355469 L 287.542969 505.726562 C 288.703125 500.507812 292.132812 496.1875 296.953125 493.871094 L 304.675781 490.160156 C 304.972656 490.015625 305.324219 490.144531 305.464844 490.4375 C 305.605469 490.730469 305.480469 491.085938 305.1875 491.226562 L 297.464844 494.9375 C 292.972656 497.09375 289.777344 501.121094 288.695312 505.984375 L 282.109375 535.609375 C 282.046875 535.886719 281.800781 536.074219 281.53125 536.074219 " fill-opacity="1" fill-rule="nonzero"/><path fill="#162667" d="M 282.875 536.375 C 243.558594 536.375 211.570312 504.394531 211.570312 465.089844 C 211.570312 464.761719 211.835938 464.496094 212.160156 464.496094 C 212.488281 464.496094 212.753906 464.761719 212.753906 465.089844 C 212.753906 503.742188 244.210938 535.191406 282.875 535.191406 C 321.542969 535.191406 353.003906 503.742188 353.003906 465.089844 C 353.003906 464.761719 353.269531 464.496094 353.597656 464.496094 C 353.921875 464.496094 354.1875 464.761719 354.1875 465.089844 C 354.1875 504.394531 322.199219 536.375 282.875 536.375 " fill-opacity="1" fill-rule="nonzero"/><path fill="#caddff" d="M 286.320312 264.429688 C 286.320312 264.429688 274.132812 275.269531 276.542969 295.496094 L 270.835938 296.734375 C 270.835938 296.734375 265.804688 262.25 286.320312 264.429688 " fill-opacity="1" fill-rule="nonzero"/><path fill="#162667" d="M 284.527344 264.925781 C 281.195312 264.925781 278.441406 266.035156 276.324219 268.238281 C 269.335938 275.5 270.929688 292.527344 271.34375 296.019531 L 275.894531 295.03125 C 274.109375 278.378906 282.195312 267.988281 285 264.933594 C 284.84375 264.929688 284.679688 264.925781 284.527344 264.925781 Z M 270.835938 297.328125 C 270.71875 297.328125 270.601562 297.289062 270.5 297.21875 C 270.363281 297.128906 270.277344 296.984375 270.25 296.820312 C 270.128906 295.96875 267.308594 275.902344 275.46875 267.414062 C 278.210938 264.566406 281.882812 263.367188 286.382812 263.84375 C 286.617188 263.867188 286.8125 264.027344 286.886719 264.25 C 286.957031 264.472656 286.890625 264.71875 286.714844 264.875 C 286.597656 264.980469 274.789062 275.761719 277.128906 295.425781 C 277.167969 295.730469 276.964844 296.007812 276.667969 296.074219 L 270.964844 297.3125 C 270.921875 297.320312 270.878906 297.328125 270.835938 297.328125 " fill-opacity="1" fill-rule="nonzero"/><path fill="#da6404" d="M 284.046875 322 C 282.109375 322 280.246094 321.117188 279.105469 319.507812 C 279.007812 319.371094 278.914062 319.230469 278.828125 319.085938 C 278.800781 319.042969 278.78125 318.996094 278.769531 318.945312 L 275.023438 306.117188 C 274.929688 305.800781 275.109375 305.472656 275.425781 305.382812 C 275.738281 305.289062 276.066406 305.46875 276.15625 305.785156 L 279.882812 318.539062 C 279.941406 318.632812 280.003906 318.730469 280.070312 318.824219 C 281.414062 320.707031 283.996094 321.351562 286.21875 320.347656 L 297.503906 315.25 C 297.804688 315.117188 298.15625 315.25 298.289062 315.546875 C 298.425781 315.847656 298.289062 316.195312 297.992188 316.328125 L 286.703125 321.425781 C 285.84375 321.8125 284.9375 322 284.046875 322 " fill-opacity="1" fill-rule="nonzero"/><path fill="#da6404" d="M 302.488281 314.121094 C 302.976562 315.515625 301.253906 317.394531 298.636719 318.316406 C 296.019531 319.238281 293.5 318.855469 293.007812 317.460938 C 292.519531 316.066406 294.246094 314.1875 296.863281 313.265625 C 299.480469 312.34375 301.996094 312.726562 302.488281 314.121094 " fill-opacity="1" fill-rule="nonzero"/><path fill="#caddff" d="M 287.492188 309.417969 C 285.574219 316.003906 278.691406 319.792969 272.117188 317.878906 C 265.542969 315.960938 261.765625 309.066406 263.683594 302.484375 C 265.601562 295.894531 272.488281 292.109375 279.0625 294.023438 C 285.636719 295.9375 289.414062 302.828125 287.492188 309.417969 " fill-opacity="1" fill-rule="nonzero"/><path fill="#162667" d="M 275.585938 294.113281 C 273.621094 294.113281 271.679688 294.613281 269.914062 295.582031 C 267.148438 297.105469 265.136719 299.617188 264.253906 302.648438 C 262.429688 308.910156 266.03125 315.488281 272.28125 317.308594 C 275.308594 318.191406 278.5 317.835938 281.265625 316.316406 C 284.03125 314.792969 286.042969 312.285156 286.925781 309.25 C 288.75 302.988281 285.148438 296.414062 278.898438 294.59375 C 277.804688 294.273438 276.691406 294.113281 275.585938 294.113281 Z M 275.597656 318.96875 C 274.375 318.96875 273.152344 318.796875 271.949219 318.445312 C 265.070312 316.441406 261.109375 309.203125 263.117188 302.316406 C 264.089844 298.980469 266.296875 296.21875 269.339844 294.546875 C 272.386719 292.871094 275.898438 292.484375 279.230469 293.453125 C 286.105469 295.457031 290.066406 302.691406 288.0625 309.582031 C 287.089844 312.917969 284.878906 315.679688 281.835938 317.351562 C 279.890625 318.425781 277.753906 318.96875 275.597656 318.96875 " fill-opacity="1" fill-rule="nonzero"/><path fill="#da6404" d="M 283.996094 308.398438 C 282.640625 313.046875 277.78125 315.71875 273.136719 314.371094 C 268.496094 313.019531 265.832031 308.152344 267.183594 303.5 C 268.539062 298.851562 273.398438 296.175781 278.042969 297.53125 C 282.683594 298.882812 285.347656 303.746094 283.996094 308.398438 " fill-opacity="1" fill-rule="nonzero"/><path fill="#162667" d="M 137.503906 318.601562 C 137.351562 318.601562 137.199219 318.542969 137.085938 318.425781 C 136.855469 318.195312 136.855469 317.820312 137.085938 317.589844 L 171.449219 283.460938 C 171.679688 283.234375 172.054688 283.234375 172.285156 283.464844 C 172.515625 283.695312 172.511719 284.070312 172.28125 284.300781 L 137.921875 318.429688 C 137.804688 318.546875 137.65625 318.601562 137.503906 318.601562 " fill-opacity="1" fill-rule="nonzero"/><path fill="#162667" d="M 171.863281 318.601562 C 171.71875 318.601562 171.570312 318.546875 171.453125 318.433594 C 171.21875 318.210938 171.210938 317.835938 171.4375 317.601562 L 213.585938 273.796875 C 213.8125 273.566406 214.1875 273.558594 214.421875 273.78125 C 214.660156 274.011719 214.667969 274.382812 214.441406 274.621094 L 172.289062 318.417969 C 172.175781 318.539062 172.019531 318.601562 171.863281 318.601562 " fill-opacity="1" fill-rule="nonzero"/><path fill="#162667" d="M 180.570312 354.796875 C 180.421875 354.796875 180.269531 354.738281 180.15625 354.625 C 179.921875 354.398438 179.917969 354.023438 180.144531 353.789062 L 201.679688 331.738281 C 201.90625 331.507812 202.28125 331.5 202.515625 331.730469 C 202.75 331.957031 202.753906 332.332031 202.527344 332.566406 L 180.992188 354.613281 C 180.875 354.738281 180.722656 354.796875 180.570312 354.796875 " fill-opacity="1" fill-rule="nonzero"/><path fill="#caddff" d="M 669.257812 499.371094 C 669.257812 499.371094 681.785156 547.796875 689.839844 566.3125 C 695.996094 580.457031 719.121094 615.441406 729.691406 631.164062 C 732.800781 635.785156 732.328125 641.953125 728.554688 646.046875 L 707.566406 668.796875 C 701.074219 675.835938 691.960938 679.835938 682.417969 679.835938 L 676.535156 679.835938 C 673.699219 679.835938 671.9375 676.726562 673.382812 674.269531 L 679.398438 664.046875 C 679.398438 664.046875 637.621094 590.742188 631.925781 574.023438 C 626.226562 557.300781 630.050781 494.359375 630.050781 494.359375 L 669.257812 499.371094 " fill-opacity="1" fill-rule="nonzero"/><g clip-path="url(#0c69eb9454)"><path fill="#162667" d="M 630.601562 495.027344 C 630.226562 501.664062 627.191406 558.304688 632.480469 573.832031 C 638.09375 590.308594 679.496094 663.023438 679.914062 663.753906 C 680.015625 663.9375 680.015625 664.164062 679.910156 664.347656 L 673.894531 674.570312 C 673.320312 675.542969 673.3125 676.714844 673.875 677.691406 C 674.429688 678.664062 675.425781 679.242188 676.535156 679.242188 L 682.417969 679.242188 C 691.765625 679.242188 700.773438 675.289062 707.132812 668.394531 L 728.117188 645.644531 C 731.726562 641.730469 732.175781 635.910156 729.199219 631.492188 C 719.277344 616.734375 695.527344 580.863281 689.296875 566.546875 C 681.699219 549.082031 669.996094 504.542969 668.785156 499.90625 Z M 682.417969 680.425781 L 676.535156 680.425781 C 674.996094 680.425781 673.617188 679.625 672.847656 678.28125 C 672.074219 676.925781 672.085938 675.3125 672.871094 673.96875 L 678.71875 664.042969 C 675.796875 658.910156 636.828125 590.253906 631.363281 574.210938 C 625.691406 557.574219 629.300781 496.898438 629.457031 494.320312 C 629.46875 494.15625 629.546875 494.007812 629.671875 493.902344 C 629.800781 493.796875 629.964844 493.75 630.125 493.769531 L 669.332031 498.785156 C 669.574219 498.816406 669.769531 498.988281 669.832031 499.222656 C 669.953125 499.707031 682.441406 547.816406 690.382812 566.074219 C 696.574219 580.300781 720.28125 616.097656 730.183594 630.832031 C 733.464844 635.710938 732.972656 642.128906 728.988281 646.445312 L 708 669.199219 C 701.417969 676.335938 692.09375 680.425781 682.417969 680.425781 " fill-opacity="1" fill-rule="nonzero"/></g><path fill="#162667" d="M 683.039062 662.59375 C 682.832031 662.59375 682.636719 662.488281 682.523438 662.300781 C 682.363281 662.015625 682.457031 661.652344 682.742188 661.488281 C 698.4375 652.347656 712.5 640.792969 724.539062 627.140625 C 724.757812 626.898438 725.128906 626.875 725.375 627.089844 C 725.617188 627.304688 725.640625 627.683594 725.425781 627.925781 C 713.304688 641.671875 699.144531 653.308594 683.335938 662.511719 C 683.242188 662.566406 683.140625 662.59375 683.039062 662.59375 " fill-opacity="1" fill-rule="nonzero"/><path fill="#162667" d="M 663.871094 633.808594 C 663.636719 633.808594 663.410156 633.664062 663.320312 633.429688 C 663.203125 633.125 663.355469 632.78125 663.660156 632.664062 C 681.183594 625.921875 697.261719 615.109375 710.164062 601.402344 C 710.386719 601.167969 710.761719 601.15625 711 601.378906 C 711.238281 601.601562 711.246094 601.980469 711.023438 602.214844 C 698.003906 616.050781 681.773438 626.964844 664.085938 633.769531 C 664.015625 633.792969 663.945312 633.808594 663.871094 633.808594 " fill-opacity="1" fill-rule="nonzero"/><path fill="#caddff" d="M 646.03125 501.808594 L 633.394531 672.078125 C 633.066406 676.453125 629.449219 679.835938 625.085938 679.835938 L 561.984375 679.835938 C 559.683594 679.835938 558.667969 676.925781 560.457031 675.476562 L 574.179688 664.378906 L 593.585938 488.953125 L 646.03125 501.808594 " fill-opacity="1" fill-rule="nonzero"/><g clip-path="url(#1351daee38)"><path fill="#162667" d="M 594.101562 489.6875 L 574.769531 664.445312 C 574.75 664.597656 574.675781 664.742188 574.550781 664.839844 L 560.828125 675.9375 C 560.078125 676.546875 560.035156 677.410156 560.25 678.011719 C 560.457031 678.605469 561.023438 679.242188 561.984375 679.242188 L 625.085938 679.242188 C 629.113281 679.242188 632.503906 676.078125 632.804688 672.035156 L 645.402344 502.265625 Z M 625.085938 680.425781 L 561.984375 680.425781 C 560.6875 680.425781 559.566406 679.632812 559.132812 678.40625 C 558.691406 677.167969 559.070312 675.839844 560.085938 675.015625 L 573.621094 664.070312 L 593 488.886719 C 593.019531 488.714844 593.109375 488.5625 593.25 488.46875 C 593.386719 488.371094 593.5625 488.339844 593.730469 488.378906 L 646.171875 501.234375 C 646.453125 501.304688 646.640625 501.5625 646.621094 501.851562 L 633.984375 672.121094 C 633.636719 676.78125 629.730469 680.425781 625.085938 680.425781 " fill-opacity="1" fill-rule="nonzero"/></g><path fill="#162667" d="M 630.890625 667.777344 C 630.890625 667.777344 630.882812 667.777344 630.878906 667.777344 C 612.1875 667.339844 593.261719 666.367188 574.628906 664.882812 C 574.300781 664.855469 574.058594 664.570312 574.082031 664.246094 C 574.109375 663.921875 574.398438 663.675781 574.71875 663.703125 C 593.332031 665.1875 612.238281 666.160156 630.910156 666.59375 C 631.234375 666.601562 631.496094 666.871094 631.484375 667.199219 C 631.476562 667.519531 631.214844 667.777344 630.890625 667.777344 " fill-opacity="1" fill-rule="nonzero"/><path fill="#162667" d="M 621.335938 641.507812 C 606.863281 641.507812 592.390625 640.226562 578.152344 637.671875 C 577.832031 637.617188 577.617188 637.308594 577.671875 636.988281 C 577.730469 636.664062 578.039062 636.449219 578.359375 636.507812 C 596.660156 639.789062 615.347656 640.960938 633.910156 640 C 634.230469 639.988281 634.515625 640.234375 634.535156 640.558594 C 634.550781 640.886719 634.296875 641.164062 633.972656 641.183594 C 629.765625 641.398438 625.546875 641.507812 621.335938 641.507812 " fill-opacity="1" fill-rule="nonzero"/><path fill="#caddff" d="M 644.035156 401.78125 C 644.035156 401.78125 664.046875 403.367188 673.136719 416.019531 C 682.222656 428.667969 693.421875 440.105469 685.3125 453.066406 C 679.003906 463.144531 659.195312 474.664062 659.195312 474.664062 L 650.792969 453.066406 L 661.207031 442.480469 L 644.035156 401.78125 " fill-opacity="1" fill-rule="nonzero"/><path fill="#162667" d="M 651.484375 453.207031 L 659.492188 473.800781 C 662.835938 471.785156 679.257812 461.617188 684.808594 452.753906 C 691.660156 441.804688 684.167969 431.800781 676.234375 421.207031 C 675.050781 419.628906 673.828125 417.996094 672.652344 416.363281 C 664.976562 405.671875 649.078125 403 644.972656 402.480469 L 661.753906 442.25 C 661.84375 442.472656 661.796875 442.722656 661.628906 442.894531 Z M 659.195312 475.253906 C 659.128906 475.253906 659.0625 475.242188 659 475.222656 C 658.835938 475.167969 658.707031 475.039062 658.644531 474.878906 L 650.242188 453.28125 C 650.160156 453.0625 650.207031 452.820312 650.371094 452.652344 L 660.507812 442.34375 L 643.488281 402.011719 C 643.410156 401.820312 643.433594 401.601562 643.558594 401.433594 C 643.675781 401.265625 643.878906 401.175781 644.082031 401.191406 C 644.910156 401.257812 664.476562 402.945312 673.617188 415.671875 C 674.785156 417.300781 676.003906 418.925781 677.179688 420.496094 C 685.363281 431.425781 693.09375 441.742188 685.8125 453.378906 C 679.5 463.46875 660.308594 474.703125 659.492188 475.175781 C 659.402344 475.226562 659.296875 475.253906 659.195312 475.253906 " fill-opacity="1" fill-rule="nonzero"/><path fill="#da6404" d="M 644.035156 401.78125 C 644.035156 401.78125 620.925781 398.542969 602.34375 404.277344 L 586.417969 536.210938 C 586.417969 536.210938 602.417969 541.007812 603.28125 521.292969 C 603.28125 521.292969 608.480469 541.597656 642.503906 539.203125 C 676.535156 536.808594 680.273438 530.246094 680.273438 530.246094 L 644.035156 401.78125 " fill-opacity="1" fill-rule="nonzero"/><path fill="#caddff" d="M 602.34375 404.277344 C 615.261719 429.132812 613.476562 447.847656 608.402344 449.320312 C 603.332031 450.792969 598.492188 442.480469 598.492188 442.480469 C 596.894531 443.730469 594.488281 445.199219 591.589844 446.566406 C 583.511719 437.378906 581.019531 423.191406 580.273438 416.609375 C 590.085938 409.089844 602.34375 404.277344 602.34375 404.277344 " fill-opacity="1" fill-rule="nonzero"/><path fill="#162667" d="M 591.589844 447.160156 C 591.421875 447.160156 591.261719 447.089844 591.144531 446.960938 C 583.121094 437.828125 580.523438 424.066406 579.6875 416.675781 C 579.664062 416.46875 579.75 416.265625 579.914062 416.140625 C 589.675781 408.65625 602 403.773438 602.125 403.726562 C 602.429688 403.609375 602.773438 403.757812 602.894531 404.0625 C 603.011719 404.367188 602.863281 404.710938 602.558594 404.828125 C 602.4375 404.875 590.484375 409.609375 580.902344 416.875 C 581.605469 422.84375 584.019531 436.78125 591.742188 445.839844 C 593.648438 444.921875 595.417969 443.914062 596.875 442.925781 C 597.144531 442.738281 597.511719 442.8125 597.695312 443.082031 C 597.882812 443.351562 597.808594 443.71875 597.539062 443.902344 C 595.929688 445 593.957031 446.105469 591.84375 447.105469 C 591.761719 447.140625 591.675781 447.160156 591.589844 447.160156 " fill-opacity="1" fill-rule="nonzero"/><path fill="#caddff" d="M 561.6875 403.726562 C 561.6875 403.726562 557.308594 393.359375 556.210938 388.960938 C 555.117188 384.558594 563.449219 379.085938 567.464844 378.875 C 571.480469 378.664062 571.59375 383.484375 571.59375 383.484375 C 575.738281 383.109375 574.210938 388.238281 574.210938 388.238281 C 576.472656 387.65625 576.160156 391.386719 576.160156 391.386719 C 578.210938 391.429688 577.289062 394.945312 577.289062 394.945312 C 581.503906 404.199219 576.582031 419.691406 576.582031 419.691406 C 577.75 418.621094 578.992188 417.59375 580.273438 416.609375 C 581.019531 423.191406 583.511719 437.378906 591.589844 446.566406 C 582.046875 451.066406 567.148438 454.445312 558.175781 445.21875 C 546.476562 433.191406 561.6875 403.726562 561.6875 403.726562 " fill-opacity="1" fill-rule="nonzero"/><path fill="#162667" d="M 567.71875 379.460938 C 567.648438 379.460938 567.570312 379.460938 567.496094 379.464844 C 564.921875 379.601562 560.15625 382.15625 557.867188 385.246094 C 557.195312 386.15625 556.460938 387.511719 556.785156 388.816406 C 557.859375 393.121094 562.191406 403.394531 562.234375 403.496094 C 562.304688 403.65625 562.292969 403.84375 562.214844 404 C 562.0625 404.289062 547.332031 433.21875 558.601562 444.804688 C 568.46875 454.957031 584.808594 448.980469 590.628906 446.359375 C 583.363281 437.660156 580.746094 425.132812 579.8125 417.722656 C 578.800781 418.523438 577.851562 419.332031 576.980469 420.128906 C 576.785156 420.308594 576.492188 420.335938 576.265625 420.191406 C 576.039062 420.050781 575.9375 419.769531 576.019531 419.515625 C 576.066406 419.363281 580.820312 404.128906 576.75 395.191406 C 576.695312 395.070312 576.679688 394.929688 576.71875 394.796875 C 576.90625 394.074219 577.050781 392.730469 576.652344 392.203125 C 576.574219 392.101562 576.449219 391.988281 576.148438 391.980469 C 575.984375 391.976562 575.832031 391.90625 575.722656 391.785156 C 575.613281 391.664062 575.558594 391.503906 575.570312 391.339844 C 575.621094 390.730469 575.554688 389.328125 575.042969 388.898438 C 574.941406 388.8125 574.757812 388.710938 574.359375 388.8125 C 574.152344 388.867188 573.933594 388.800781 573.785156 388.648438 C 573.640625 388.496094 573.582031 388.277344 573.644531 388.074219 C 573.835938 387.414062 574.179688 385.503906 573.441406 384.605469 C 573.085938 384.171875 572.496094 384 571.648438 384.078125 C 571.480469 384.089844 571.324219 384.035156 571.203125 383.929688 C 571.078125 383.820312 571.007812 383.664062 571.003906 383.5 C 571.003906 383.480469 570.929688 381.324219 569.6875 380.175781 C 569.164062 379.695312 568.519531 379.460938 567.71875 379.460938 Z M 573.28125 451.6875 C 567.816406 451.6875 562.1875 450.195312 557.75 445.632812 C 546.335938 433.886719 559.484375 406.789062 561.039062 403.703125 C 560.34375 402.046875 556.648438 393.164062 555.636719 389.101562 C 555.292969 387.714844 555.734375 386.140625 556.914062 384.542969 C 559.429688 381.144531 564.542969 378.4375 567.433594 378.285156 C 568.664062 378.21875 569.6875 378.566406 570.492188 379.3125 C 571.652344 380.382812 572.015625 382.007812 572.132812 382.875 C 573.097656 382.898438 573.84375 383.226562 574.359375 383.855469 C 575.242188 384.9375 575.125 386.621094 574.957031 387.609375 C 575.335938 387.667969 575.617188 387.832031 575.804688 387.996094 C 576.632812 388.691406 576.765625 390.105469 576.769531 390.894531 C 577.101562 391.003906 577.378906 391.207031 577.59375 391.488281 C 578.347656 392.484375 578.046875 394.253906 577.910156 394.886719 C 581.199219 402.375 578.871094 413.453125 577.703125 417.921875 C 578.402344 417.328125 579.144531 416.730469 579.914062 416.140625 C 580.085938 416.011719 580.3125 415.980469 580.507812 416.066406 C 580.703125 416.148438 580.839844 416.328125 580.863281 416.542969 C 581.523438 422.378906 583.933594 436.957031 592.035156 446.175781 C 592.160156 446.316406 592.207031 446.503906 592.167969 446.6875 C 592.132812 446.871094 592.011719 447.023438 591.84375 447.105469 C 588.738281 448.566406 581.179688 451.6875 573.28125 451.6875 " fill-opacity="1" fill-rule="nonzero"/><path fill="#162667" d="M 573.082031 397.851562 C 573.023438 397.851562 572.964844 397.84375 572.90625 397.828125 C 570.707031 397.136719 569 395.183594 567.6875 391.847656 C 567.511719 391.410156 567.347656 390.96875 567.183594 390.523438 C 566.476562 388.609375 565.742188 386.636719 564.355469 385.238281 C 563.683594 384.566406 562.691406 384.058594 561.988281 384.453125 C 561.375 384.792969 561.132812 385.679688 561.238281 387.238281 L 561.761719 395.230469 C 561.785156 395.558594 561.535156 395.839844 561.210938 395.859375 C 560.890625 395.882812 560.601562 395.636719 560.582031 395.308594 L 560.054688 387.316406 C 559.972656 386.015625 560.019531 384.195312 561.410156 383.417969 C 562.742188 382.679688 564.277344 383.488281 565.191406 384.402344 C 566.761719 385.984375 567.542969 388.082031 568.292969 390.109375 C 568.457031 390.546875 568.621094 390.984375 568.789062 391.414062 C 569.960938 394.394531 571.425781 396.125 573.261719 396.695312 C 573.570312 396.796875 573.742188 397.125 573.648438 397.4375 C 573.570312 397.691406 573.335938 397.851562 573.082031 397.851562 " fill-opacity="1" fill-rule="nonzero"/><path fill="#162667" d="M 573.628906 397.953125 C 572.992188 397.953125 572.359375 397.761719 571.75 397.382812 C 571.472656 397.210938 571.386719 396.847656 571.558594 396.566406 C 571.734375 396.289062 572.097656 396.207031 572.375 396.378906 C 573.121094 396.839844 573.84375 396.894531 574.589844 396.539062 C 575.949219 395.894531 576.859375 394.167969 576.929688 393.605469 C 576.972656 393.28125 577.265625 393.054688 577.59375 393.09375 C 577.917969 393.132812 578.144531 393.433594 578.105469 393.753906 C 577.988281 394.65625 576.851562 396.777344 575.097656 397.609375 C 574.613281 397.839844 574.121094 397.953125 573.628906 397.953125 " fill-opacity="1" fill-rule="nonzero"/><path fill="#162667" d="M 571.917969 395.6875 C 570.777344 395.6875 569.660156 395.25 568.921875 394.421875 C 568.703125 394.179688 568.722656 393.804688 568.96875 393.589844 C 569.210938 393.371094 569.582031 393.390625 569.804688 393.632812 C 570.636719 394.5625 572.234375 394.777344 573.441406 394.125 C 574.585938 393.503906 575.410156 392.195312 575.597656 390.699219 C 575.640625 390.375 575.933594 390.144531 576.257812 390.1875 C 576.585938 390.226562 576.8125 390.523438 576.773438 390.847656 C 576.539062 392.714844 575.476562 394.367188 574.003906 395.164062 C 573.355469 395.515625 572.628906 395.6875 571.917969 395.6875 " fill-opacity="1" fill-rule="nonzero"/><path fill="#162667" d="M 570.046875 392.632812 C 569.296875 392.632812 568.574219 392.414062 568 391.964844 C 567.742188 391.761719 567.695312 391.386719 567.894531 391.132812 C 568.09375 390.875 568.46875 390.828125 568.726562 391.027344 C 569.675781 391.769531 571.136719 391.449219 572 390.703125 C 572.84375 389.980469 573.4375 388.796875 573.761719 387.191406 C 573.828125 386.871094 574.136719 386.664062 574.460938 386.730469 C 574.78125 386.792969 574.988281 387.105469 574.921875 387.425781 C 574.542969 389.292969 573.820312 390.703125 572.769531 391.601562 C 571.980469 392.285156 570.992188 392.632812 570.046875 392.632812 " fill-opacity="1" fill-rule="nonzero"/><path fill="#162667" d="M 568.011719 388.867188 C 567.605469 388.867188 567.191406 388.785156 566.796875 388.597656 C 566.496094 388.460938 566.371094 388.109375 566.507812 387.8125 C 566.648438 387.515625 567 387.390625 567.296875 387.527344 C 568.25 387.972656 569.476562 387.398438 570.109375 386.585938 C 570.734375 385.785156 570.832031 384.9375 570.957031 383.867188 L 571.007812 383.414062 C 571.046875 383.089844 571.34375 382.859375 571.667969 382.898438 C 571.992188 382.9375 572.222656 383.234375 572.183594 383.558594 L 572.132812 384 C 572 385.160156 571.875 386.25 571.042969 387.316406 C 570.367188 388.179688 569.203125 388.867188 568.011719 388.867188 " fill-opacity="1" fill-rule="nonzero"/><path fill="#162667" d="M 565.367188 385.859375 C 565.296875 385.859375 565.222656 385.847656 565.152344 385.820312 C 564.847656 385.699219 564.699219 385.359375 564.816406 385.050781 L 566.496094 380.753906 C 566.617188 380.453125 566.957031 380.300781 567.261719 380.417969 C 567.570312 380.535156 567.71875 380.878906 567.597656 381.1875 L 565.921875 385.484375 C 565.828125 385.71875 565.605469 385.859375 565.367188 385.859375 " fill-opacity="1" fill-rule="nonzero"/><path fill="#162667" d="M 569.546875 426.820312 C 569.390625 426.820312 569.230469 426.757812 569.117188 426.632812 C 568.894531 426.390625 568.90625 426.015625 569.144531 425.796875 L 576.179688 419.261719 C 576.417969 419.039062 576.792969 419.050781 577.015625 419.289062 C 577.242188 419.53125 577.222656 419.90625 576.984375 420.128906 L 569.953125 426.664062 C 569.839844 426.769531 569.695312 426.820312 569.546875 426.820312 " fill-opacity="1" fill-rule="nonzero"/><path fill="#162667" d="M 540.351562 297.5625 C 535 297.5625 529.671875 298.785156 524.714844 301.203125 C 506.902344 309.898438 499.445312 331.558594 508.085938 349.476562 C 512.285156 358.183594 519.601562 364.714844 528.691406 367.863281 C 537.734375 370.996094 547.449219 370.410156 556.054688 366.210938 C 573.859375 357.511719 581.320312 335.859375 572.679688 317.9375 C 568.484375 309.230469 561.164062 302.699219 552.074219 299.550781 C 548.242188 298.222656 544.289062 297.5625 540.351562 297.5625 Z M 540.414062 371.035156 C 536.34375 371.035156 532.261719 370.351562 528.304688 368.984375 C 518.914062 365.730469 511.355469 358.980469 507.019531 349.992188 C 498.097656 331.484375 505.796875 309.121094 524.195312 300.140625 C 533.082031 295.800781 543.121094 295.195312 552.460938 298.433594 C 561.851562 301.6875 569.410156 308.429688 573.746094 317.421875 C 582.671875 335.929688 574.964844 358.292969 556.570312 367.273438 C 551.449219 369.773438 545.945312 371.035156 540.414062 371.035156 " fill-opacity="1" fill-rule="nonzero"/><path fill="#162667" d="M 561.699219 383.9375 C 563.1875 383.484375 563.789062 383.722656 565.417969 385.246094 L 566.820312 381.867188 L 558.933594 365.515625 L 553.734375 368.054688 L 561.699219 383.9375 " fill-opacity="1" fill-rule="nonzero"/><path fill="#162667" d="M 538.292969 346.683594 C 538.292969 346.210938 538.4375 345.808594 538.738281 345.480469 C 539.035156 345.152344 539.457031 344.988281 539.996094 344.988281 C 540.523438 344.988281 540.945312 345.152344 541.253906 345.480469 C 541.566406 345.808594 541.722656 346.210938 541.722656 346.683594 C 541.722656 347.144531 541.566406 347.53125 541.253906 347.84375 C 540.945312 348.160156 540.523438 348.316406 539.996094 348.316406 C 539.457031 348.316406 539.035156 348.160156 538.738281 347.84375 C 538.4375 347.53125 538.292969 347.144531 538.292969 346.683594 Z M 538.625 339.722656 C 538.652344 338.089844 538.875 336.773438 539.289062 335.777344 C 539.707031 334.777344 540.601562 333.605469 541.972656 332.253906 C 543.34375 330.902344 544.230469 329.945312 544.625 329.382812 C 545.019531 328.824219 545.324219 328.207031 545.542969 327.535156 C 545.757812 326.863281 545.863281 326.097656 545.863281 325.238281 C 545.863281 323.507812 545.402344 322.148438 544.476562 321.15625 C 543.558594 320.164062 542.269531 319.667969 540.621094 319.667969 C 538.957031 319.667969 537.613281 320.144531 536.597656 321.09375 C 535.574219 322.046875 535.050781 323.332031 535.023438 324.953125 L 532.550781 324.953125 C 532.574219 322.679688 533.347656 320.859375 534.859375 319.492188 C 536.371094 318.125 538.292969 317.445312 540.621094 317.445312 C 543.007812 317.445312 544.890625 318.140625 546.269531 319.53125 C 547.652344 320.925781 548.335938 322.8125 548.335938 325.195312 C 548.335938 326.695312 548 328.09375 547.320312 329.40625 C 546.640625 330.714844 545.351562 332.242188 543.449219 333.988281 C 541.882812 335.304688 541.101562 337.214844 541.101562 339.722656 L 538.625 339.722656 " fill-opacity="1" fill-rule="nonzero"/><path fill="#caddff" d="M 605.085938 390.179688 L 610.230469 401.78125 L 607.136719 403.011719 C 607.136719 403.011719 613.242188 414.457031 627.507812 413.023438 C 641.777344 411.59375 621.652344 387.308594 621.652344 387.308594 C 621.652344 387.308594 608.632812 384.414062 605.085938 390.179688 " fill-opacity="1" fill-rule="nonzero"/><path fill="#162667" d="M 627.507812 413.617188 C 627.207031 413.617188 626.949219 413.390625 626.921875 413.082031 C 626.890625 412.757812 627.125 412.46875 627.449219 412.4375 C 629.714844 412.210938 631.105469 411.394531 631.695312 409.953125 C 634.15625 403.953125 622.691406 389.527344 621.328125 387.847656 C 619.738281 387.527344 609.035156 385.589844 605.753906 390.238281 L 610.777344 401.539062 C 610.839844 401.6875 610.84375 401.855469 610.78125 402.003906 C 610.71875 402.15625 610.601562 402.273438 610.449219 402.332031 L 607.859375 403.359375 C 607.558594 403.480469 607.214844 403.328125 607.09375 403.027344 C 606.972656 402.722656 607.121094 402.378906 607.425781 402.257812 L 609.441406 401.457031 L 604.542969 390.421875 C 604.464844 390.242188 604.476562 390.035156 604.578125 389.871094 C 608.308594 383.816406 621.234375 386.609375 621.78125 386.730469 C 621.914062 386.757812 622.027344 386.828125 622.109375 386.929688 C 622.667969 387.597656 635.660156 403.40625 632.789062 410.402344 C 632.027344 412.261719 630.269531 413.34375 627.566406 413.613281 C 627.546875 413.613281 627.527344 413.617188 627.507812 413.617188 " fill-opacity="1" fill-rule="nonzero"/><path fill="#162667" d="M 601.914062 366.371094 C 600.773438 364.667969 599.382812 362.851562 599.609375 360.808594 C 599.972656 357.5 604.101562 356.214844 607.410156 356.246094 C 619.257812 356.363281 630.007812 363.253906 638.785156 371.253906 C 647.5625 379.253906 655.160156 388.628906 664.800781 395.546875 C 671.734375 400.523438 679.628906 404.15625 685.972656 409.875 C 692.3125 415.589844 697.019531 424.339844 694.777344 432.605469 C 692.835938 439.753906 685.996094 444.800781 678.777344 446.242188 C 671.554688 447.683594 664.046875 446.050781 657.148438 443.472656 C 633.050781 434.472656 613.832031 413.132812 607.128906 388.179688 C 606.203125 384.738281 607.078125 381.742188 606.539062 378.269531 C 605.882812 374.03125 604.300781 369.929688 601.914062 366.371094 " fill-opacity="1" fill-rule="nonzero"/><path fill="#162667" d="M 632.671875 362.910156 C 631.742188 361.671875 631.597656 359.96875 631.976562 358.464844 C 632.359375 356.964844 633.210938 355.625 634.136719 354.382812 C 636.203125 351.609375 638.707031 349.167969 641.523438 347.175781 C 643.597656 345.707031 645.882812 344.464844 648.367188 343.957031 C 650.851562 343.449219 653.566406 343.738281 655.695312 345.125 C 658.410156 346.898438 659.84375 350.371094 659.433594 353.601562 C 659.019531 356.832031 656.898438 359.738281 654.085938 361.347656 C 651.269531 362.960938 647.941406 363.332031 644.722656 363.667969 C 641.628906 363.988281 634.976562 365.976562 632.671875 362.910156 " fill-opacity="1" fill-rule="nonzero"/><path fill="#caddff" d="M 603.554688 369.140625 C 603.554688 369.140625 610.71875 371.765625 610.050781 375.359375 C 609.386719 378.957031 609.367188 380.773438 611.039062 382.308594 C 611.039062 382.308594 617.289062 380.347656 617.972656 384.707031 C 618.65625 389.066406 614.019531 390.730469 610.574219 389.457031 C 610.574219 389.457031 606.882812 393.363281 601.117188 390.492188 C 595.351562 387.625 598.5625 378.164062 603.554688 369.140625 " fill-opacity="1" fill-rule="nonzero"/><path fill="#162667" d="M 603.824219 369.878906 C 599.558594 377.699219 597.871094 383.648438 598.945312 387.09375 C 599.355469 388.414062 600.152344 389.351562 601.382812 389.964844 C 606.691406 392.605469 610.109375 389.085938 610.144531 389.046875 C 610.304688 388.875 610.554688 388.820312 610.777344 388.898438 C 612.648438 389.59375 614.882812 389.316406 616.210938 388.230469 C 617.203125 387.414062 617.613281 386.226562 617.386719 384.796875 C 617.253906 383.964844 616.890625 383.371094 616.273438 382.984375 C 614.480469 381.871094 611.246094 382.863281 611.210938 382.875 C 611.011719 382.933594 610.792969 382.886719 610.636719 382.746094 C 608.769531 381.035156 608.765625 379.050781 609.46875 375.253906 C 609.90625 372.902344 605.902344 370.734375 603.824219 369.878906 Z M 605.253906 392.128906 C 603.957031 392.128906 602.480469 391.832031 600.851562 391.019531 C 599.34375 390.269531 598.320312 389.066406 597.816406 387.445312 C 596.605469 383.5625 598.363281 377.304688 603.035156 368.851562 C 603.175781 368.597656 603.484375 368.484375 603.757812 368.582031 C 604.070312 368.699219 611.386719 371.429688 610.636719 375.46875 C 610.035156 378.695312 609.976562 380.34375 611.207031 381.644531 C 612.191406 381.390625 615.019531 380.816406 616.894531 381.980469 C 617.8125 382.546875 618.371094 383.433594 618.554688 384.613281 C 618.84375 386.457031 618.277344 388.066406 616.960938 389.148438 C 615.378906 390.4375 612.910156 390.816406 610.714844 390.125 C 610.007812 390.726562 608.066406 392.128906 605.253906 392.128906 " fill-opacity="1" fill-rule="nonzero"/><path fill="#162667" d="M 611.085938 386.996094 C 610.914062 386.996094 610.746094 386.921875 610.628906 386.777344 C 610.421875 386.523438 610.457031 386.152344 610.710938 385.945312 C 611.972656 384.914062 613.761719 384.652344 615.265625 385.273438 C 615.570312 385.402344 615.710938 385.742188 615.585938 386.046875 C 615.460938 386.347656 615.113281 386.492188 614.8125 386.367188 C 613.722656 385.914062 612.375 386.113281 611.460938 386.863281 C 611.347656 386.953125 611.21875 386.996094 611.085938 386.996094 " fill-opacity="1" fill-rule="nonzero"/><g clip-path="url(#abaf352e0f)"><path fill="#162667" d="M 782.53125 680.425781 L 625.085938 680.425781 C 624.761719 680.425781 624.496094 680.160156 624.496094 679.835938 C 624.496094 679.507812 624.761719 679.242188 625.085938 679.242188 L 782.53125 679.242188 C 782.855469 679.242188 783.121094 679.507812 783.121094 679.835938 C 783.121094 680.160156 782.855469 680.425781 782.53125 680.425781 " fill-opacity="1" fill-rule="nonzero"/></g><path fill="#caddff" d="M 743.164062 350.085938 L 701.453125 347.074219 C 699.804688 346.957031 698.5625 345.523438 698.683594 343.871094 L 700.796875 314.542969 C 700.917969 312.890625 702.355469 311.652344 704 311.769531 L 745.710938 314.78125 C 747.359375 314.902344 748.601562 316.335938 748.484375 317.984375 L 746.367188 347.3125 C 746.246094 348.964844 744.8125 350.207031 743.164062 350.085938 " fill-opacity="1" fill-rule="nonzero"/><path fill="#162667" d="M 703.785156 312.355469 C 702.539062 312.355469 701.480469 313.324219 701.386719 314.585938 L 699.273438 343.914062 C 699.175781 345.238281 700.175781 346.390625 701.496094 346.484375 L 743.207031 349.496094 C 743.84375 349.539062 744.464844 349.335938 744.953125 348.917969 C 745.4375 348.496094 745.730469 347.914062 745.777344 347.269531 L 747.890625 317.945312 C 747.988281 316.621094 746.988281 315.46875 745.667969 315.371094 L 703.957031 312.359375 C 703.898438 312.359375 703.84375 312.355469 703.785156 312.355469 Z M 743.382812 350.6875 C 743.296875 350.6875 743.207031 350.683594 743.121094 350.675781 L 701.410156 347.664062 C 699.4375 347.523438 697.949219 345.800781 698.089844 343.828125 L 700.207031 314.5 C 700.351562 312.527344 702.058594 311.035156 704.042969 311.179688 L 745.753906 314.191406 C 747.726562 314.335938 749.21875 316.054688 749.074219 318.027344 L 746.957031 347.355469 C 746.886719 348.3125 746.449219 349.183594 745.726562 349.8125 C 745.066406 350.378906 744.246094 350.6875 743.382812 350.6875 " fill-opacity="1" fill-rule="nonzero"/><path fill="#162667" d="M 723.652344 333.101562 C 723.527344 333.101562 723.398438 333.0625 723.292969 332.980469 L 708.703125 321.835938 C 708.445312 321.636719 708.394531 321.265625 708.59375 321.003906 C 708.792969 320.746094 709.164062 320.695312 709.425781 320.894531 L 724.011719 332.039062 C 724.273438 332.238281 724.320312 332.609375 724.121094 332.871094 C 724.007812 333.019531 723.828125 333.101562 723.652344 333.101562 " fill-opacity="1" fill-rule="nonzero"/><path fill="#162667" d="M 723.757812 333.109375 C 723.550781 333.109375 723.347656 333 723.242188 332.804688 C 723.082031 332.519531 723.183594 332.160156 723.46875 332 L 739.507812 323.066406 C 739.789062 322.90625 740.152344 323.007812 740.3125 323.296875 C 740.472656 323.582031 740.371094 323.941406 740.082031 324.097656 L 724.046875 333.035156 C 723.957031 333.085938 723.855469 333.109375 723.757812 333.109375 " fill-opacity="1" fill-rule="nonzero"/><path fill="#caddff" d="M 705.546875 356.066406 L 680.832031 358.898438 C 679.191406 359.085938 677.703125 357.90625 677.515625 356.265625 L 675.59375 339.515625 C 675.40625 337.871094 676.585938 336.386719 678.230469 336.199219 L 702.941406 333.363281 C 704.585938 333.171875 706.070312 334.351562 706.257812 335.996094 L 708.179688 352.746094 C 708.367188 354.390625 707.191406 355.875 705.546875 356.066406 " fill-opacity="1" fill-rule="nonzero"/><path fill="#162667" d="M 705.546875 356.066406 L 705.550781 356.066406 Z M 703.289062 333.933594 C 703.195312 333.933594 703.101562 333.9375 703.007812 333.949219 L 678.296875 336.785156 C 676.980469 336.9375 676.03125 338.128906 676.183594 339.445312 L 678.105469 356.195312 C 678.175781 356.832031 678.492188 357.40625 679 357.804688 C 679.5 358.207031 680.132812 358.386719 680.765625 358.3125 L 705.476562 355.476562 C 706.117188 355.402344 706.6875 355.085938 707.089844 354.582031 C 707.484375 354.082031 707.664062 353.453125 707.59375 352.8125 L 705.667969 336.0625 C 705.597656 335.425781 705.28125 334.855469 704.777344 334.453125 C 704.347656 334.113281 703.828125 333.933594 703.289062 333.933594 Z M 680.488281 359.511719 C 679.679688 359.511719 678.902344 359.242188 678.261719 358.734375 C 677.511719 358.136719 677.039062 357.285156 676.929688 356.332031 L 675.003906 339.582031 C 674.785156 337.617188 676.199219 335.835938 678.160156 335.609375 L 702.875 332.773438 C 703.832031 332.664062 704.765625 332.933594 705.515625 333.527344 C 706.261719 334.125 706.738281 334.976562 706.84375 335.929688 L 708.765625 352.679688 C 708.875 353.628906 708.609375 354.570312 708.015625 355.320312 C 707.417969 356.070312 706.566406 356.542969 705.613281 356.652344 L 680.902344 359.488281 C 680.765625 359.503906 680.625 359.511719 680.488281 359.511719 " fill-opacity="1" fill-rule="nonzero"/><path fill="#162667" d="M 692.121094 347.714844 C 692.03125 347.714844 691.941406 347.699219 691.855469 347.65625 L 681.269531 342.328125 C 680.976562 342.183594 680.855469 341.828125 681.003906 341.535156 C 681.152344 341.242188 681.507812 341.125 681.800781 341.269531 L 692.386719 346.597656 C 692.679688 346.742188 692.796875 347.097656 692.648438 347.390625 C 692.542969 347.597656 692.339844 347.714844 692.121094 347.714844 " fill-opacity="1" fill-rule="nonzero"/><path fill="#162667" d="M 692.191406 347.710938 C 692.019531 347.710938 691.851562 347.636719 691.734375 347.496094 C 691.523438 347.246094 691.558594 346.875 691.8125 346.664062 L 700.917969 339.078125 C 701.167969 338.867188 701.542969 338.902344 701.75 339.152344 C 701.960938 339.40625 701.925781 339.777344 701.671875 339.988281 L 692.566406 347.574219 C 692.457031 347.664062 692.324219 347.710938 692.191406 347.710938 " fill-opacity="1" fill-rule="nonzero"/><path fill="#caddff" d="M 724.140625 384.273438 L 693.199219 379.917969 C 691.5625 379.683594 690.421875 378.171875 690.652344 376.53125 L 693.664062 355.164062 C 693.894531 353.523438 695.40625 352.386719 697.046875 352.613281 L 727.988281 356.976562 C 729.625 357.207031 730.765625 358.722656 730.535156 360.359375 L 727.523438 381.726562 C 727.292969 383.363281 725.777344 384.503906 724.140625 384.273438 " fill-opacity="1" fill-rule="nonzero"/><path fill="#162667" d="M 696.625 353.179688 C 696.105469 353.179688 695.605469 353.34375 695.183594 353.664062 C 694.667969 354.046875 694.339844 354.609375 694.246094 355.246094 L 691.238281 376.613281 C 691.148438 377.25 691.3125 377.882812 691.699219 378.394531 C 692.082031 378.910156 692.648438 379.238281 693.285156 379.332031 L 724.222656 383.691406 C 724.859375 383.777344 725.492188 383.617188 726.003906 383.230469 C 726.515625 382.84375 726.851562 382.28125 726.9375 381.644531 L 729.949219 360.277344 C 730.136719 358.964844 729.214844 357.746094 727.90625 357.5625 L 696.964844 353.203125 C 696.851562 353.1875 696.738281 353.179688 696.625 353.179688 Z M 724.566406 384.898438 C 724.398438 384.898438 724.226562 384.882812 724.058594 384.859375 L 693.117188 380.5 C 692.167969 380.367188 691.328125 379.875 690.753906 379.109375 C 690.175781 378.34375 689.933594 377.398438 690.066406 376.449219 L 693.078125 355.082031 C 693.210938 354.132812 693.707031 353.292969 694.472656 352.714844 C 695.238281 352.140625 696.179688 351.894531 697.128906 352.027344 L 728.070312 356.390625 C 730.027344 356.664062 731.398438 358.484375 731.121094 360.445312 L 728.109375 381.808594 C 727.980469 382.757812 727.480469 383.597656 726.714844 384.175781 C 726.089844 384.648438 725.339844 384.898438 724.566406 384.898438 " fill-opacity="1" fill-rule="nonzero"/><path fill="#162667" d="M 710.566406 370.269531 C 710.425781 370.269531 710.285156 370.222656 710.175781 370.125 L 699.429688 360.691406 C 699.179688 360.476562 699.15625 360.101562 699.371094 359.855469 C 699.589844 359.609375 699.960938 359.585938 700.207031 359.800781 L 710.953125 369.234375 C 711.203125 369.449219 711.226562 369.824219 711.011719 370.070312 C 710.894531 370.203125 710.730469 370.269531 710.566406 370.269531 " fill-opacity="1" fill-rule="nonzero"/><path fill="#162667" d="M 710.648438 370.28125 C 710.425781 370.28125 710.214844 370.15625 710.109375 369.941406 C 709.972656 369.648438 710.101562 369.292969 710.398438 369.15625 L 723.332031 363.0625 C 723.625 362.917969 723.976562 363.046875 724.117188 363.34375 C 724.257812 363.640625 724.128906 363.992188 723.835938 364.128906 L 710.898438 370.226562 C 710.820312 370.265625 710.730469 370.28125 710.648438 370.28125 " fill-opacity="1" fill-rule="nonzero"/><path fill="#00b4dd" d="M 218.886719 599.738281 L 198.101562 573.976562 C 196.367188 571.839844 192.707031 570.128906 189.960938 570.164062 L 186.460938 570.230469 C 183.308594 570.292969 180.234375 571.074219 177.316406 572.269531 C 169.113281 575.636719 155.875 575.75 138.5625 545.75 C 121.34375 515.933594 127.886719 504.480469 134.863281 499.03125 C 137.898438 496.65625 140.355469 493.636719 142.34375 490.335938 L 143.121094 489.046875 C 144.539062 486.679688 144.886719 482.652344 143.898438 480.082031 L 131.988281 449.203125 C 130.996094 446.632812 127.96875 444.941406 125.261719 445.4375 L 117.582031 446.847656 C 111.121094 448.039062 105.144531 451.265625 100.871094 456.25 C 82.707031 477.457031 85.753906 519.964844 110.128906 562.171875 C 134.554688 604.484375 169.949219 628.394531 197.417969 623.121094 C 203.75 621.910156 209.429688 618.433594 213.605469 613.523438 L 218.789062 607.429688 C 220.574219 605.335938 220.613281 601.871094 218.886719 599.738281 " fill-opacity="1" fill-rule="nonzero"/><path fill="#162667" d="M 282.875 666.332031 L 191.335938 666.332031 C 191.007812 666.332031 190.742188 666.0625 190.742188 665.738281 L 190.742188 637.089844 C 190.742188 636.765625 191.007812 636.5 191.335938 636.5 C 191.664062 636.5 191.925781 636.765625 191.925781 637.089844 L 191.925781 665.148438 L 282.875 665.148438 C 283.203125 665.148438 283.472656 665.410156 283.472656 665.738281 C 283.472656 666.0625 283.203125 666.332031 282.875 666.332031 " fill-opacity="1" fill-rule="nonzero"/><path fill="#00b4dd" d="M 323.527344 665.738281 C 323.527344 663.015625 325.738281 660.808594 328.464844 660.808594 C 331.191406 660.808594 333.402344 663.015625 333.402344 665.738281 C 333.402344 668.460938 331.191406 670.667969 328.464844 670.667969 C 325.738281 670.667969 323.527344 668.460938 323.527344 665.738281 " fill-opacity="1" fill-rule="nonzero"/><path fill="#00b4dd" d="M 309.125 665.738281 C 309.125 663.015625 311.332031 660.808594 314.0625 660.808594 C 316.789062 660.808594 318.996094 663.015625 318.996094 665.738281 C 318.996094 668.460938 316.789062 670.667969 314.0625 670.667969 C 311.332031 670.667969 309.125 668.460938 309.125 665.738281 " fill-opacity="1" fill-rule="nonzero"/><path fill="#00b4dd" d="M 294.71875 665.738281 C 294.71875 663.015625 296.929688 660.808594 299.65625 660.808594 C 302.382812 660.808594 304.59375 663.015625 304.59375 665.738281 C 304.59375 668.460938 302.382812 670.667969 299.65625 670.667969 C 296.929688 670.667969 294.71875 668.460938 294.71875 665.738281 " fill-opacity="1" fill-rule="nonzero"/><path fill="#162667" d="M 292.171875 238.746094 C 291.847656 238.746094 291.582031 238.480469 291.582031 238.15625 L 291.582031 201.003906 C 291.582031 200.679688 291.847656 200.414062 292.171875 200.414062 L 414.75 200.414062 C 415.078125 200.414062 415.339844 200.679688 415.339844 201.003906 C 415.339844 201.332031 415.078125 201.597656 414.75 201.597656 L 292.765625 201.597656 L 292.765625 238.15625 C 292.765625 238.480469 292.503906 238.746094 292.171875 238.746094 " fill-opacity="1" fill-rule="nonzero"/><g clip-path="url(#68148dad12)"><path fill="#00b4dd" d="M 155.179688 188.96875 L 46.375 188.96875 L 46.375 238.15625 L 155.179688 238.15625 L 155.179688 188.96875 " fill-opacity="1" fill-rule="nonzero"/></g><path fill="#caddff" d="M 143.226562 226.296875 L 126.421875 226.296875 C 125.933594 226.296875 125.535156 225.898438 125.535156 225.40625 C 125.535156 224.917969 125.933594 224.519531 126.421875 224.519531 L 143.226562 224.519531 C 143.714844 224.519531 144.113281 224.917969 144.113281 225.40625 C 144.113281 225.898438 143.714844 226.296875 143.226562 226.296875 " fill-opacity="1" fill-rule="nonzero"/><path fill="#caddff" d="M 111.894531 226.296875 L 58.332031 226.296875 C 57.84375 226.296875 57.445312 225.898438 57.445312 225.40625 C 57.445312 224.917969 57.84375 224.519531 58.332031 224.519531 L 111.894531 224.519531 C 112.382812 224.519531 112.78125 224.917969 112.78125 225.40625 C 112.78125 225.898438 112.382812 226.296875 111.894531 226.296875 " fill-opacity="1" fill-rule="nonzero"/><path fill="#caddff" d="M 143.226562 214.445312 L 91.199219 214.445312 C 90.710938 214.445312 90.3125 214.050781 90.3125 213.558594 C 90.3125 213.074219 90.710938 212.671875 91.199219 212.671875 L 143.226562 212.671875 C 143.714844 212.671875 144.113281 213.074219 144.113281 213.558594 C 144.113281 214.050781 143.714844 214.445312 143.226562 214.445312 " fill-opacity="1" fill-rule="nonzero"/><path fill="#caddff" d="M 79.3125 214.445312 L 58.332031 214.445312 C 57.84375 214.445312 57.445312 214.050781 57.445312 213.558594 C 57.445312 213.074219 57.84375 212.671875 58.332031 212.671875 L 79.3125 212.671875 C 79.804688 212.671875 80.199219 213.074219 80.199219 213.558594 C 80.199219 214.050781 79.804688 214.445312 79.3125 214.445312 " fill-opacity="1" fill-rule="nonzero"/><path fill="#caddff" d="M 143.226562 202.601562 L 118.9375 202.601562 C 118.445312 202.601562 118.050781 202.203125 118.050781 201.714844 C 118.050781 201.222656 118.445312 200.824219 118.9375 200.824219 L 143.226562 200.824219 C 143.714844 200.824219 144.113281 201.222656 144.113281 201.714844 C 144.113281 202.203125 143.714844 202.601562 143.226562 202.601562 " fill-opacity="1" fill-rule="nonzero"/><path fill="#caddff" d="M 104.410156 202.601562 L 58.332031 202.601562 C 57.84375 202.601562 57.445312 202.203125 57.445312 201.714844 C 57.445312 201.222656 57.84375 200.824219 58.332031 200.824219 L 104.410156 200.824219 C 104.898438 200.824219 105.296875 201.222656 105.296875 201.714844 C 105.296875 202.203125 104.898438 202.601562 104.410156 202.601562 " fill-opacity="1" fill-rule="nonzero"/><path fill="#162667" d="M 275.589844 238.746094 L 171.863281 238.746094 C 171.539062 238.746094 171.273438 238.480469 171.273438 238.15625 C 171.273438 237.828125 171.539062 237.5625 171.863281 237.5625 L 275.589844 237.5625 C 275.914062 237.5625 276.183594 237.828125 276.183594 238.15625 C 276.183594 238.480469 275.914062 238.746094 275.589844 238.746094 " fill-opacity="1" fill-rule="nonzero"/></svg>